<svg xmlns="http://www.w3.org/2000/svg" viewBox="0 0 382.68 333.17"><defs><style>.cls-1,.cls-7,.cls-8{fill:#fff;}.cls-2,.cls-5{fill:#232323;}.cls-10,.cls-3,.cls-6,.cls-9{fill:none;}.cls-10,.cls-3,.cls-4,.cls-5,.cls-6,.cls-7,.cls-8,.cls-9{stroke:#232323;stroke-miterlimit:10;}.cls-3,.cls-6,.cls-8{stroke-width:2px;}.cls-6{stroke-linecap:round;}.cls-10{stroke-width:3px;}</style></defs><g id="astronaut"><path class="cls-1" d="M89.32,54.29s-14.12-18.12-45-18.5S4.82,67.46,4.82,67.46A47.3,47.3,0,0,0,2.67,84.65c1.07,17.3,11.57,28.57,14.44,31.44,18.12,18.18,43.82,14.19,46.46,13.74,0,0,3.52.71,4.5,2.25a47.79,47.79,0,0,0,1.12,5.86s1.11,1.68-3.36,5.17l.42,1.12s-.56,7-.14,8.94L65,154.43s4.61,15.09,9.5,17.88L73,187.68a21.68,21.68,0,0,0,3.07,4,12.56,12.56,0,0,0,1.4,8s2.37,5.59,4.33,6.15c0,0,2.13.28,7.56,11.18,0,0,6.83,9.92,21.5,8.8,0,0,15.09,1.26,21-23a15.78,15.78,0,0,0-5.16-15.09s4.27-3.77.87-11.9c0,0-3-5.7-.73-9.1,0,0,2.43-.12,3.4-1.82a13.33,13.33,0,0,1,8.37,3.76s4.49,3.76,11.16.85a6.59,6.59,0,0,1,2.19,4.12s.48,2.07,3.76,3.52a12,12,0,0,0,13.11-.36s10.19,12.62,13.47,10.56c0,0,5.58,9.58,9.58,10.55,0,0,2.19.49,4.61,4.74,0,0,3.64,6.18,5.71,5.7,0,0,8.42,30.79,22.19,32.63s18.67-8.1,18.67-8.1a12.42,12.42,0,0,0,4.21,5.07s3.83,2.88,3.35,7.57l1.44.67A2.51,2.51,0,0,0,253,248a7.36,7.36,0,0,0,3.64,3.06,3.19,3.19,0,0,1,2,2.49,2.69,2.69,0,0,0,2,1.91c1.53.19,2.87,3.93,3.16,6.23h.67s9.81,22.25,22.43,27.27L293,301.79a21.54,21.54,0,0,0,10.3,9.92s18.28,12.62,22.15,9.91a7.54,7.54,0,0,0,6.69-3.34s7-7.21,7.34-11.21a9.46,9.46,0,0,1,1.42-2.7,7.76,7.76,0,0,0,0-8s-1-.78-2.83-5.8c0,0-2.45-9.14-27.69-23.82,0,0,2.06-2.19-6.44-13,0,0-2.19-3.34-5.92-8.37,0,0-2.06-3-4.25-9.78,0,0-2.83-8.24-8.76-12.88,0,0-.77,1.16-11.59-16.87,0,0-12.49-23.3-18.41-30.26a16.43,16.43,0,0,0-6.95-4.63s-3.61-4.51-8.24-5.41c0,0-7.34-5.67-9.53-6.44a11.42,11.42,0,0,0-4.12-6.31s1.8-8.11,2.83-9.14a15.35,15.35,0,0,0,8.63.77s7.59,6.31,12.87,7.47a4.76,4.76,0,0,1,6.57.64c3.35,3.35,7.47.26,7.47.26s.9-1.42,5.41,1.93c0,0,1.54.65,4.25-1.8,0,0,6.56-4.89,7.21-1.55,0,0,2.19,10.56,6.82,12.75,0,0,6.18,2.58,8,8.76,0,0,.9,3.22,6.69,9.53,0,0,2.84,3.22,4.64,3.6,0,0,1.41.39,1.54,1.55a15.45,15.45,0,0,0,3.61,3.86s3.35,7.73,6.05,5.15c0,0,.13,2.45,1.29,3.35,0,0-.65,8.5,3.48,10.56,0,0,30.77,11.33,36.44,4.38,0,0,9.53.9,0-22.54,0,0-1.55-4.76-12.24-8,0,0-11.33-4.38-14.29-6.57,0,0,3.61-3.86-6.95-14.81,0,0-2.19-2.06-7.34-13,0,0-5.54-10.18-5.8-11.08a20.66,20.66,0,0,0-8.5-10.17,22.79,22.79,0,0,1-4-4.51s-2.83-5.28-13.13-9a29.21,29.21,0,0,1-9.27-7.34c-3.61-4.64-7.73-5.67-10.31-5.67,0,0-7.08-40.43-50-15.83a8,8,0,0,0-5-.58s-1.07-4.4-10-1c0,0-3-.24-4,1.19,0,0-9.4,1.31-10.59-2.38,0,0,.48-1.78-8.09-3.69,0,0-11.77-10.35-19.63-13l-1.54.72a12.45,12.45,0,0,0-3.81-1.55,3.64,3.64,0,0,0-2-3.69s2.26-2.61-4.17-9.16c0,0,1.67-7-.36-9.52a23.48,23.48,0,0,0,2.38-14.39s4.17-11.55-9.28-18.21a43.73,43.73,0,0,1-6-3.42c-5.4-3.69-7.25-6.79-11-6.93a8.07,8.07,0,0,0-4.69,1.43s-5.71,2.62-10.59,2.5a16.77,16.77,0,0,1-6.43-1.19c-3-1.31-6.54,3.8-6.54,3.8S89,2.86,82.61,9.53c0,0-18.44-.48-19.75,11.18,0,0-5.59,5.47,2.14,10.11,0,0,7.86,3.69,9.64-7.14,0,0,6.43-1.18,3.81,4.76,0,0-14.28,2.5-3.81,10.12,0,0,8.92,7.14,15.82-4.05,0,0,4.65.36,5.24-.71,0,0,2.62-1.19,4.52-.12a4.72,4.72,0,0,0,2.26-.36s3.69,4.17,6.19,3.81c0,0,.47,1.55,1.9,1.43,0,0-3.09,1.54-2,4.16,0,0-3.93.83-3.81,3.69a7.64,7.64,0,0,0-5,5.71s-4.64,1-5.12,2.62l-3-1.67A2.67,2.67,0,0,0,89.32,54.29Z"/><path class="cls-2" d="M89.09,56.61a99.28,99.28,0,0,0-10.23-7.1,84.32,84.32,0,0,0-11-5.67,58.58,58.58,0,0,0-23.91-5,46.06,46.06,0,0,0-12.14,1.83,33.06,33.06,0,0,0-11,5.46,37.64,37.64,0,0,0-13,20.56A51.29,51.29,0,0,0,7.46,91,44.89,44.89,0,0,0,18.8,112.35a49.55,49.55,0,0,0,9.39,7.8,41.74,41.74,0,0,0,5.38,2.93,43.91,43.91,0,0,0,5.72,2.21,49.79,49.79,0,0,0,24.47,1.26l.05.19a47,47,0,0,1-25,.05,46,46,0,0,1-6-2.12,41.41,41.41,0,0,1-5.67-2.89A44,44,0,0,1,22,118.12a45.66,45.66,0,0,1-4.71-4.3A45.13,45.13,0,0,1,5.62,91.44,49.7,49.7,0,0,1,6.74,66.35,41.87,41.87,0,0,1,20.39,45.58a37.07,37.07,0,0,1,11.07-6,45.9,45.9,0,0,1,12.42-2.43,53.49,53.49,0,0,1,24.59,5.28,79,79,0,0,1,20.75,14Z"/><path class="cls-2" d="M94.26,56.41a3,3,0,0,0-2.15-1,3.43,3.43,0,0,0-2,1A21.25,21.25,0,0,0,87,60.36c-1.89,2.85-3.62,5.88-5.53,8.77s-3.92,5.71-5.54,8.76a67.45,67.45,0,0,0-4.11,9.53c-1.13,3.28-2,6.62-2.9,10s-1.6,6.7-2.18,10.09A177.62,177.62,0,0,0,64.12,128l-.37-.47c.82.25,1.63.54,2.45.81s1.63.55,2.44.85l0,.19c-.85-.13-1.7-.29-2.55-.44s-1.69-.3-2.53-.47l-.34-.08,0-.4a85.28,85.28,0,0,1,1.45-20.9,101.75,101.75,0,0,1,2.61-10.17A99.67,99.67,0,0,1,71,87.1l4.24-9.54A86.42,86.42,0,0,1,80,68.21c.88-1.49,1.81-3,2.77-4.41s1.93-2.91,3-4.32a18.65,18.65,0,0,1,3.73-3.86,3.93,3.93,0,0,1,2.71-.84,3.14,3.14,0,0,1,2.26,1.5Z"/><path class="cls-2" d="M207.47,109.39a3.92,3.92,0,0,1,2.82,1.93,3,3,0,0,1-.09,2.18c-3.23,9.1-5.8,18.43-8.81,27.6-.36,1.11-1,3.07-1.69,5.59l1.81,5.75c.44-2.63,1.12-6.27,2.16-10.56.21-.88,1.05-4.29,2.46-8.95,2.37-7.86,4-12.61,4-12.61,1.76-5.25,2.65-7.45,1.45-9.13C210.6,109.86,208.82,109.49,207.47,109.39Z"/><path class="cls-2" d="M180.21,184.56a31.52,31.52,0,0,1,4.56-5.5,34.3,34.3,0,0,1,5.48-4.45c2-1.25,4.2-2.23,6.16-3.51s3.82-2.74,5.7-4.23a34.85,34.85,0,0,1,2.95-2.1,28.83,28.83,0,0,1,3.2-1.71,32,32,0,0,1,6.88-2.39,30.43,30.43,0,0,1,14.36.48l0,.35-6.88,1.3c-2.25.45-4.45.94-6.62,1.52s-4.35,1.09-6.49,1.81c-1.07.36-2.12.76-3.19,1.16s-2.15.78-3.22,1.23a25.08,25.08,0,0,0-6,3.49c-1.82,1.45-3.33,3.31-5,4.91a27,27,0,0,1-2.7,2.22c-.93.69-1.87,1.37-2.83,2a52,52,0,0,1-6.06,3.65Z"/><path class="cls-2" d="M224.68,153.21c-1.39,0-2.72-.05-4-.11l-2-.1c-.65,0-1.3-.08-1.94-.1s-1.29-.08-1.93-.08-1.27,0-1.91-.06l-1.89,0-1.9-.07a23.13,23.13,0,0,0-7.68.49,14,14,0,0,0-3.53,1.6,16.24,16.24,0,0,0-3,2.47c-.93.92-1.79,1.93-2.75,2.87s-2,1.86-3,2.75a55.89,55.89,0,0,1-6.43,4.93,48.25,48.25,0,0,1-14.89,6.37l-.17-.36c4.18-3.49,8.44-6.5,12.68-9.56,2.13-1.51,4.34-2.89,6.5-4.37s4.3-3,6.69-4.37a57.74,57.74,0,0,1,7.41-3.55,35.85,35.85,0,0,1,7.9-2.59,16.65,16.65,0,0,1,4.17-.14,25.55,25.55,0,0,1,4.09.61,25.22,25.22,0,0,1,3.93,1.2,21.48,21.48,0,0,1,3.7,1.81Z"/><path class="cls-2" d="M207.2,92.05c1,2.1,1.89,4.15,2.86,6.17s2,4,2.83,6.06a39.27,39.27,0,0,0,2.85,6.14,55,55,0,0,0,4.19,5.46,43.27,43.27,0,0,1,4,5.64,49,49,0,0,1,3.26,6.16,38.46,38.46,0,0,1,2.12,6.68,17.49,17.49,0,0,1,.28,7.06h-.3a38.72,38.72,0,0,0-2.24-6.34c-.89-2-1.83-4.07-2.79-6.09l-2.82-6.1-1.49-3-1.45-3.08a32.2,32.2,0,0,0-3.61-5.79c-1.37-1.84-3-3.55-4.27-5.53a26.15,26.15,0,0,1-2.8-6.41,21.14,21.14,0,0,1-1-7Z"/><path class="cls-2" d="M211.9,86.46c1.76,2.22,3.24,4.56,4.75,6.89.74,1.16,1.46,2.34,2.18,3.52s1.41,2.37,2,3.6c1.28,2.47,2.31,5.11,3.64,7.55s2.83,4.8,4.39,7.13a65.82,65.82,0,0,1,4.31,7.22,67.59,67.59,0,0,1,3.53,7.68,39.61,39.61,0,0,1,1.27,4.09,22.48,22.48,0,0,1,.71,4.34,8.54,8.54,0,0,1-.17,2.38,3.74,3.74,0,0,1-.59,1.3,2.55,2.55,0,0,1-1.21.85,4.18,4.18,0,0,1-2.42.06,9.2,9.2,0,0,1-2-.79l.09-.29a11.83,11.83,0,0,0,2,.09,3.2,3.2,0,0,0,1.67-.45,1,1,0,0,0,.38-.45,2.48,2.48,0,0,0,.11-.65,8.86,8.86,0,0,0-.21-1.77,53.51,53.51,0,0,0-2.63-7.56c-1-2.52-2-5.08-3.1-7.62s-2.15-5.08-3.2-7.66a47.79,47.79,0,0,0-3.77-7.41c-1.48-2.35-3.34-4.47-4.94-6.74a32.73,32.73,0,0,1-2.22-3.57c-.68-1.22-1.33-2.46-1.92-3.73a47.87,47.87,0,0,1-3-7.88Z"/><path class="cls-3" d="M252,99.24a17.34,17.34,0,0,1,3.59,0,16.9,16.9,0,0,1,3.76.84"/><path class="cls-2" d="M36.19,38.69a44.06,44.06,0,0,0-10,7.71C13.67,59.38,13,76.37,13,82a47.45,47.45,0,0,0,3.55,12.25A48.77,48.77,0,0,0,31,112.66s7.07,1.07,7.11,2.5a0,0,0,0,0,0,0c.25.34,6.44-3.72,7.29-4.27,2.84-1.86,26-18.28,28.92-47.08a60.52,60.52,0,0,0-1-18.18,64.31,64.31,0,0,0-37.16-7Z"/><path class="cls-2" d="M36.53,38.49a56.61,56.61,0,0,0-15,16.1A48.94,48.94,0,0,0,17,64.4c-.24.86-.55,1.71-.78,2.57l-.63,2.62-.43,2.64C15,73.12,15,74,14.91,74.9A41.83,41.83,0,0,0,18.7,95.82a56.07,56.07,0,0,0,13.17,17.61A42.76,42.76,0,0,1,15.92,97.24,39.26,39.26,0,0,1,13.43,92l-.95-2.78-.74-2.85a43.48,43.48,0,0,1-.82-11.72A43.69,43.69,0,0,1,36.53,38.49Z"/><path class="cls-2" d="M24.4,119a5.32,5.32,0,0,1,.18-4.56,6.29,6.29,0,0,1,1.77-2,7.87,7.87,0,0,1,2.33-1.1A11.59,11.59,0,0,1,33.4,111a15.21,15.21,0,0,1,4.43,1.21,14.14,14.14,0,0,1,6.68,6.25,7.94,7.94,0,0,1,.78,2.44,5.59,5.59,0,0,1-.29,2.71,4.39,4.39,0,0,1-1.57,2,4.92,4.92,0,0,1-2.06.85l-.16-.25a4.65,4.65,0,0,0,2.21-2.93,5,5,0,0,0-.91-3.55,14.55,14.55,0,0,0-5.92-4.8,15.15,15.15,0,0,0-3.67-1.13,11.16,11.16,0,0,0-3.82-.09,5.15,5.15,0,0,0-3.25,1.72A5.56,5.56,0,0,0,24.7,119Z"/><path class="cls-2" d="M32.47,123.78l-1.68-.71a8.41,8.41,0,0,1-1.76-.95,4,4,0,0,1-1.34-1.66A3.39,3.39,0,0,1,27.6,118a3,3,0,0,1,1.78-1.75,7.6,7.6,0,0,1,2-.39,17.37,17.37,0,0,1,3.81,0,6,6,0,0,1,3.58,2A6.35,6.35,0,0,1,40,119.75a4.09,4.09,0,0,1,.18,2.64,3.67,3.67,0,0,1-1.76,2.16,3.76,3.76,0,0,1-2.25.39A16.66,16.66,0,0,1,32.47,123.78Zm.11-.28a3.62,3.62,0,0,0,3.21-.52,4.88,4.88,0,0,0,1-.84,1.11,1.11,0,0,0,.29-.58,2.71,2.71,0,0,0-.06-.79,4.27,4.27,0,0,0-.48-1.16,8.87,8.87,0,0,0-.85-1.14,5.56,5.56,0,0,0-1.07-1,3.65,3.65,0,0,0-3.06-.61,2.3,2.3,0,0,0-1.25.82,1.22,1.22,0,0,0-.27,1,19.56,19.56,0,0,0,.53,2.35A3.63,3.63,0,0,0,32.58,123.5Z"/><path class="cls-2" d="M65.29,107.86a12.41,12.41,0,0,1-2.35,3.62A12,12,0,0,1,61.33,113a5.87,5.87,0,0,1-2.17,1.15l.56-2.14A5.52,5.52,0,0,1,61,115.72a3.14,3.14,0,0,1-.27,1,2.92,2.92,0,0,1-.61.82,12.6,12.6,0,0,1-1.37,1.13c-1.83,1.34-3.42,3-5.32,4.15-.46.3-.92.62-1.42.92-.25.15-.49.3-.79.46a3.92,3.92,0,0,1-.56.25,3,3,0,0,1-.78.15,6.41,6.41,0,0,1-4-1.08,9.18,9.18,0,0,1-2.63-2.6,10.13,10.13,0,0,1-1.52-3.18l.25-.17A26,26,0,0,0,47.25,121a6.1,6.1,0,0,0,2.37.46c.13,0,0,0,0,0a1,1,0,0,0,.2-.06l.69-.3,1.48-.68a24.78,24.78,0,0,1,3.1-1.25,17.67,17.67,0,0,0,3.06-1.25c.92-.53,1.8-1.32,1.41-2.12a5.29,5.29,0,0,0-1.78-2l-1.34-1.16,1.89-1c.38-.2.93-.5,1.45-.83l1.64-1.06a29.71,29.71,0,0,1,3.61-2.09Z"/><ellipse class="cls-3" cx="107.34" cy="61.06" rx="4.35" ry="3.63"/><ellipse class="cls-4" cx="107.34" cy="61.48" rx="1.08" ry="0.89"/><ellipse class="cls-3" cx="84.46" cy="117.24" rx="4.43" ry="4.83" transform="translate(-48.01 174.94) rotate(-77.77)"/><circle class="cls-4" cx="84.69" cy="117.55" r="1.02"/><path class="cls-2" d="M106.26,47.87c1.51.65,3.75,1.61,6.5,2.74,8.12,3.32,14.06,5.42,16.34,6.25a190.58,190.58,0,0,1,23.37,10.49s3.05-2.15-1.7-5c-5.17-2.65-10.61-5.29-16.31-7.87-8.27-3.75-16.27-7-23.91-9.85a2.89,2.89,0,0,0-3-.15A2.93,2.93,0,0,0,106.26,47.87Z"/><path class="cls-3" d="M114,40.62a5.15,5.15,0,0,1,.7-2.76"/><path class="cls-5" d="M131.42,11.91s-2,6.21,1.24,14.28c0,0,9.68,2.73,16.51,2.36,0,0,1.24,8.44-2.36,13.9,0,0-15.52-2.48-20.23-6,0,0,5.71-1.37,4.22-7.7a29.47,29.47,0,0,0,.25-5.09c-.06-1.48-.21-2.5-.27-3.07A25.82,25.82,0,0,1,131.42,11.91Z"/><path class="cls-2" d="M104.42,54.54a14.28,14.28,0,0,0-5.68.56A11.64,11.64,0,0,0,94.16,58c-2.58,2.63-4.48,6.14-6.84,9.34a92.83,92.83,0,0,0-6.72,9.76A54.52,54.52,0,0,0,76.11,88c-1.12,3.79-2.11,7.6-3,11.41-.44,1.91-.87,3.82-1.16,5.77s-.7,3.87-1.07,5.8c-.76,3.86-1.52,7.75-2.06,11.58a14.38,14.38,0,0,0,0,5.48,4.28,4.28,0,0,0,1.51,2.08,7.74,7.74,0,0,0,2.57,1.22l0,.29a7.16,7.16,0,0,1-3-.69,5.18,5.18,0,0,1-2.4-2.28,8.84,8.84,0,0,1-.86-3.16,23.25,23.25,0,0,1-.13-3.11,86.39,86.39,0,0,1,1.27-12,87.59,87.59,0,0,1,6.88-23c1.68-3.64,3.42-7.22,5.17-10.8S83.2,69.4,85.23,66c1-1.71,2.06-3.39,3.25-5a25,25,0,0,1,4.12-4.66,11.75,11.75,0,0,1,5.77-2.72,11.51,11.51,0,0,1,6.12.7Z"/><path class="cls-5" d="M124.69,164.47s8.76,1,6.31-9-28.6-20.95-59.91-14.6c0,0-3.74,2.1-2.84,3.52,0,0-1.18,7.6-.14,8.63l1.56-2.06s-1.94-4.13,3.86-6.19,45.49-8.55,53.61,15.63Z"/><path class="cls-5" d="M104.2,198.66A135.09,135.09,0,0,1,107.42,224s4.25.15,5-.73c0,0,1-13.63-5.28-25.36C107.13,197.93,105.22,199.69,104.2,198.66Z"/><path class="cls-2" d="M227,143.39s-12.36-11.4-20.14-14.28l-1.17,3.95s15,9.48,19.82,13.63Z"/><path class="cls-5" d="M246.86,234.73a31.37,31.37,0,0,0,3.38-3.19,33,33,0,0,0,3.64-4.75l10.47,14.61s-4.37,5.76-7.36,6.79a7.87,7.87,0,0,1-3.77-2.48c-2-2.52-.85-4.79-3-7.15-.34-.38-1.28-1.32-2.58-2.88C247.3,235.28,247,235,246.86,234.73Z"/><path class="cls-2" d="M289.38,117.6s-11.41,17-3.19,21.27c0,0-3,9.77-4.26,10.15,0,0,2.71,6.09,3.73,8.9,0,0,8.94-6.48,10.1-10.83,0,0,3.68,2.32,4.64,3.58,0,0,2.42,3.22,4.84-2.11.76-1,1.52-2.06,2.28-3.17,1.56-2.28,2.92-4.5,4.1-6.62a5,5,0,0,0-.27-.84,4.87,4.87,0,0,0-1.45-1.88,66.88,66.88,0,0,1-3.66,6.47c-3,4.66-4.11,5.2-4.95,5.1a2.48,2.48,0,0,1-1.6-1.17q1.38-2.5,2.91-5.09c1.7-2.87,3.42-5.59,5.13-8.16l-1.2-.75-8,13.19a5.49,5.49,0,0,1-1-.55,5.66,5.66,0,0,1-1.14-1l7.45-14.16-.74-1-7.68,14.38s-1.27-.44-1.49-1.34c0,0,5.29-13,6.93-15.13l-.82-1.34s-6.48,13.71-7.16,15.58c0,0-1.34-.23-2.38-2.24l7.23-15.58-.6-.59c-1.17,2.33-2.35,4.73-3.51,7.21q-2,4.18-3.72,8.22a3.8,3.8,0,0,1-.78-.35,2.07,2.07,0,0,1-1-1.07q1.28-3.39,2.89-7c1.32-3,2.69-5.7,4.05-8.23l-.75-.45c-1.14,1.82-2.29,3.86-3.41,6.12a67.84,67.84,0,0,0-3.52,8.57,2,2,0,0,1-1.1-.7,1.91,1.91,0,0,1-.39-.94s4.14-12.79,6.41-14.16Z"/><path class="cls-2" d="M295.24,156.34a142.13,142.13,0,0,0,10.26,12.89c4.17,4.64,7.3,7.47,11.67,13.21,2.26,2.95,3.95,5.5,5,7.21l-1.3,1.78c-1.17-1.64-3.06-4.18-5.55-7.14-3.08-3.66-5.52-6.11-7-7.6a139,139,0,0,1-12.68-14.3c-6.78-9.18-8.91-16.58-14.91-19.39a17.32,17.32,0,0,0-5.66-1.56c-3.47-.2-3.79.83-6.87.83-4,0-4.36-1.71-8.19-1.85-4.18-.16-4,1.84-7.9,1.75-3.34-.08-4.23-1.61-11.69-4.14-1.6-.54-2.92-.93-3.77-1.17l-.57-3.68c.58.19,1.44.5,2.46.89,6,2.34,6.16,3.49,8.94,4a19.54,19.54,0,0,0,7.95-.7h0a7.76,7.76,0,0,1,5.51-.48c1.29.43,1.47,1,3,1.52.93.32,2,.5,5.1.28,4.12-.29,4.4-.75,6.22-.66a13,13,0,0,1,5.86,2C288.2,143.85,294.74,155.45,295.24,156.34Z"/><path class="cls-1" d="M73.22,136S66.6,124.8,92,126.91c0,0,30,1.61,41.25,7.43,0,0,1,1-.81,5.62C132.43,140,92.59,130.22,73.22,136Z"/><path class="cls-2" d="M147.22,54.41s.87.07,1.37,1.67a4.3,4.3,0,0,0,1.52,2.25s1.53,2.08.66,4l.72.47s2-.75-1.24-6c0,0-1.1-2.6-2.57-3.4a16.15,16.15,0,0,0,.67-5.23,16.53,16.53,0,0,0-1.78-6.83h-2s4.34,5,1.24,4.55c0,0-2.53-1-2.53.15s2.38.79,2.38.79,2.39,0,1.16,3c-.3.71-.7,2.12-1.55,2.23s-1.38-.73-1.7-.48-.09.57-.07.66C143.79,53.66,146.6,54.28,147.22,54.41Z"/><path class="cls-2" d="M147.31,43.11A32.33,32.33,0,0,0,149,37.68a32.87,32.87,0,0,0,.7-9.45,11.22,11.22,0,0,0-4.92-13.76s-4.87-3.67-7.22-4.44c0,0-7.57-4.67-8.7-5.94s-4.38-2.49-7.67-.89c0,0-12.18,4.33-17.31,1.5,0,0-3-2.16-7,4.43l.57.67a8.33,8.33,0,0,1,10.61-2.7s3.2.19,13.45-3.29c0,0,4-1.27,6.92.66,0,0,7.71,5.84,9.22,6.33,0,0,5.64,3,6.39,3.67,0,0,5,4.2,5.31,7.87a15,15,0,0,1-.65,6.23l-2.16,13.72Z"/><path class="cls-6" d="M131.33,12.33s-1.69,9.66.88,15.88"/><path class="cls-6" d="M128.2,11.05a7.86,7.86,0,0,0,2.58,3.77"/><path class="cls-2" d="M108.09,7.1a13.39,13.39,0,0,1,7.18,6.38A12,12,0,0,1,116.51,20a12.44,12.44,0,0,1-1.89,5.23,19.32,19.32,0,0,1-9,7.58l.68.94a21,21,0,0,0,4.55-2.58A16.53,16.53,0,0,0,117,23.54a13.22,13.22,0,0,0,.37-8.52A13.69,13.69,0,0,0,109.86,7Z"/><path class="cls-2" d="M100.1,10.68s12.44-3,14.56,5.21S103.57,33.14,98,32c0,0-3.2-.48-4.87.84,0,0-1,.83-3.82.49,0,0-4.45,8.2-12,5.14s-5.06-9.63,1.94-8.34c0,0,3.68-4.06,0-6.72s-6.12,0-6.12,0-1.31,7.68-6.32,6.09S62.54,23,64,21.94c0,0-3-9.73,19.06-11.19,0,0,6.4-6.26,12.93-1.74C96,9,96.41,8.45,100.1,10.68Z"/><path class="cls-1" d="M107.55,18.15s-3.6-1.44-3.79-2.09c0,0-1.05-1.11-1.11,3,0,0,.19,2.94-1.7,4.05s-4.37-2.29-4.37-2.75-1.88-6.92,7.31-8.45c0,0,7.43-.36,10,3.17a22.44,22.44,0,0,1-11,14.88,10.88,10.88,0,0,1-5.48,1.11s-3.92-.06-4.51.39-3.46.92-4.31.33-5.22-.85,0,1.24a9.57,9.57,0,0,1-2.7,3.31c-2,1.56-5.37,2.69-8.25,1.44-2-.85-4-2.91-3.54-4.29.23-.78,1.18-1.19,1.61-1.38,1.6-.69,2.43.13,3.64-.3,1.85-.65,2.72-3.56,2.59-5.7a5.81,5.81,0,0,0-1.7-4,6.11,6.11,0,0,0-4.7-1.35s-2-.59,2.94-1.57c0,0,.91-1-1.44-.59s-6.46,3.79-7.44,5.23a1,1,0,0,1-.44.37c-.79.33-2.1-.48-2.7-1.42-1-1.64-.11-4,.86-5.34a9.91,9.91,0,0,1,2.71-2.22,19,19,0,0,1,4.67-2.45A36.63,36.63,0,0,1,79,11.83c1.72-.33,2.44-.41,2.64-.08s-.09.91-.83,1.76c-2.16,2.48-2.09,5.23.39,6.76s4.5,2.77,6.59-2.58,6.59-2.15,6.59-2.15a1.26,1.26,0,0,0,1.31-.4c.72-.65-4.11-1.89-4.11-1.89s-1-.72-3.79,3.07-4.24,3.85-6,2.61-1.63-2.79,2.16-6S89.59,7.31,95.34,9.2a35.53,35.53,0,0,1,3.39,2.22c.35.32.57.44.59.6,0,.42-.61.8-.78.91-1.47.94-3.72,4.77-2.76,7.72a6.46,6.46,0,0,0,2.5,3c.92.73,2.11,1.68,3,1.31.78-.32,1.06-1.43,1.45-3,.35-1.37.35-2.42,1.14-3.41a2.05,2.05,0,0,1,.88-.61A3.39,3.39,0,0,1,107.55,18.15Z"/><path class="cls-1" d="M64.7,22.78a4.8,4.8,0,0,0,3.17,2.61,4.71,4.71,0,0,0,3.57-.71,3.79,3.79,0,0,1-1.51,3.77,4,4,0,0,1-4.48-.35,3.84,3.84,0,0,1-1.67-2.92A3.6,3.6,0,0,1,64.7,22.78Z"/><path class="cls-4" d="M104.12,30.74s.4,3,8.75,6.52c0,0,13.36,1.93,18.63-4.55,0,0-4.25,7.77-17.11,5.78a22.78,22.78,0,0,1-4.48-1.61A23.24,23.24,0,0,1,103.18,32a2.66,2.66,0,0,0-1.06-.6,2.83,2.83,0,0,0-2,.18S103.35,30.16,104.12,30.74Z"/><path class="cls-1" d="M20.36,75c.58.09,1.09-2,2.57-5.44a47.61,47.61,0,0,1,6.75-11.34,34.32,34.32,0,0,1,9.77-7.93,111.48,111.48,0,0,1,11.09-4.72c2.36-1,4.34-1.7,5.7-2.22a2.54,2.54,0,0,0,.49-.29,1,1,0,0,0,.47-.74c0-.78-4.85-2.83-11-2.85a18.74,18.74,0,0,0-6.45.85A19.46,19.46,0,0,0,34,43.49,31.65,31.65,0,0,0,27.13,51c-3.61,5.13-6.37,9.06-7.35,14.82C19,70.25,19.52,74.9,20.36,75Z"/><path class="cls-6" d="M121.6,44.12a17.42,17.42,0,0,1-2.35-.75,37.22,37.22,0,0,1-3.36-1.7c-1.8-.87-3.7-1.79-4.78-1.1s-1.19,2.92-.44,5.36"/><path class="cls-2" d="M107.63,47.61s-5.19-1.66-7.13,6.8c3.45.73,8,1.82,13.24,3.4,4.41,1.33,7.58,2.5,10.84,3.7a208.55,208.55,0,0,1,23.24,9.89c3.88,1.95,7,3.71,9.19,5,1.22-1.93,2.43-3.87,3.64-5.8,0,0-6.44-4.69-8.9-4.76Z"/><path class="cls-7" d="M102.3,53.1a4.94,4.94,0,0,1,3-4.17,5.11,5.11,0,0,1,4.24.35,202.15,202.15,0,0,1,22.52,8A201,201,0,0,1,157,69.91,2.55,2.55,0,0,1,158,71a2.63,2.63,0,0,1,.15,1.89s-1,2.71-7-.57S114.45,54.3,102.3,53.1Z"/><path class="cls-2" d="M157.06,80.93s2.63-1.51,7.28,5.71a2.71,2.71,0,0,1,.36,3.55C163.3,92,161,103,161.61,103.79l-3.06,6.66s-5.74,21.11-7.62,22.1c0,0-.3.5-3.09-.52a12,12,0,0,0-3.55-.41,6.5,6.5,0,0,1-2.89-.53s-1.34-.53-1.34.94l-6.24,2.85s-12.47,1.14-10.07-8.23c0,0-4.49-1.93-5.34-1.52,0,0-3.17,1-4-6.09,0,0,0-3.31-.95-4.4a4.12,4.12,0,0,1,.18-5.36l43.45-28.35"/><path class="cls-1" d="M138.88,131.44l.89-4.4s1.34-1.72-3.83-2.11c0,0-7.31-1.29-8.77-2.07,0,0-2.34-1-2.09,3.29a12.09,12.09,0,0,1-.42,1.94c-.26.73,0,2.66.86,2.66C125.52,130.75,137.26,136.52,138.88,131.44Z"/><path class="cls-2" d="M160.65,68.41s-6.89,9.11-2.8,10.94c0,0,13.53,6.75,18.29,10.45,0,0-14.43,42.67-14.88,49.17,0,0-25.57-10.42-26.23-7.17L132.47,137s-3.47,5.91,6.34,11.55c0,0,1.63,1.05,1.83,1.72s2.43,1.54,5.45.94a6.39,6.39,0,0,1,3.1.2,4.54,4.54,0,0,0,2.42.31,8.86,8.86,0,0,1,2.4.56,17.92,17.92,0,0,0,5.27.54,35.87,35.87,0,0,0,7.6,1.95,31.85,31.85,0,0,1-22.54,12.45,11.15,11.15,0,0,1-2.69,0s-8.54-5.56-11.17-5.81l-1,1.84a23.1,23.1,0,0,0,4.49.88c1.21-.07,6.39,3.7,6.39,3.7s3.5,4.44,15.88-3c0,0,10.9-5.65,13.33-9.49A15.35,15.35,0,0,0,173,144.85c1.14-5.93,2.55-12.61,4.29-19.9.8-3.36,1.59-6.68,2.75-10.9,1.59-5.79,3.61-12.36,6.21-19.51,0,0,2.29-7.1,2.21-7.63,0,0,.45-2-2.9-3.62a8.27,8.27,0,0,0-2.83-1c-2.22-.52-10.83-7.49-10.83-7.49S163.14,68.72,160.65,68.41Z"/><path class="cls-5" d="M134.18,133.54a124.41,124.41,0,0,0-16.85-5.28,126.52,126.52,0,0,0-42-2.65s-8.6,3.15-3.84,12.57A93.92,93.92,0,0,1,87.72,136c1.94-.09,7.7-.3,18.89,1a224.21,224.21,0,0,1,25.77,4.51,9.9,9.9,0,0,0,1.36-2.44A10,10,0,0,0,134.18,133.54Z"/><path class="cls-1" d="M162,70a9.5,9.5,0,0,1-2.57,3.87c-1.68,1.3-1.15,3.76-1.15,3.76a7.26,7.26,0,0,0,.57.72,7.52,7.52,0,0,0,3.21,2c1.29.42,2.06.68,2.76.31s.75-1.35,1.64-3.28c.52-1.14,1-2,1.33-2.67C167.78,74.8,169.93,73,162,70Z"/><path class="cls-1" d="M170.37,75.26s-.75-.67-1.87,1.83c0,0-2,4-2.16,4.17s-.37.64.34,1.09,1.07.82,1.43.74.54-.52.84-1.23c0,0,.53-1.23,1.75-3.58.6-1.14.89-1.51.73-2A1.82,1.82,0,0,0,170.37,75.26Z"/><path class="cls-1" d="M172.83,77.87s-1.34,4.4-2.5,5.78,3.95,3.88,5.82,4.7a.7.7,0,0,0,1.23-.41c.5-1.77,1.57-3.32,2.24-5a2.71,2.71,0,0,0,.21-.65.66.66,0,0,0,0-.11c0-.55-3.15-2.41-3.15-2.41-2.1-1.26-3.07-2.59-3.62-2.24A.58.58,0,0,0,172.83,77.87Z"/><path class="cls-1" d="M181.79,83.18c-1.7.37-2.31,2.76-4.29,8.68-.66,2-1.43,3.89-2,5.86s-1.08,3.43-1.54,4.8c-1.2,3.58-3,8.8-3.27,9.5-1.27,3.54-3.93,12.56-10.1,36.82a6.7,6.7,0,0,1,.24,1,6.78,6.78,0,0,1,0,1.89,11.47,11.47,0,0,0,3.53,1.74c1.32.38,3.16.92,4.42.08s1.41-2.69,1.47-3.34c.59-6.88,4-19.52,7-30.36a85,85,0,0,1,3.51-10.25c0-1.28-.26-2.72.3-4,1-2.31,6.48-18.65,6.37-19a2.68,2.68,0,0,0-.18-.79c-.22-.51-.62-1-2.17-1.73S182.62,83,181.79,83.18Z"/><path class="cls-2" d="M179.22,91.81a15.27,15.27,0,0,1,3.47-7,3.81,3.81,0,0,1,3.57,2.12s-2,4.21-2,5.8A4.69,4.69,0,0,1,179.22,91.81Z"/><path class="cls-2" d="M164.64,139.43s-2.18,5.46-2.18,9.13c0,0,3.27,2.28,5.55,1.59,0,0,2.78-5.86,2.08-8.24A8.87,8.87,0,0,0,164.64,139.43Z"/><path class="cls-1" d="M148.3,135.93s-1-.49-1,2a8.58,8.58,0,0,1-.9,4.3,4.81,4.81,0,0,0-.46,2.19,1.4,1.4,0,0,0,.21.93,1.28,1.28,0,0,0,1.46.44,1.58,1.58,0,0,0,.66-1.25c.26-2,1.18-5.55,1.18-5.55S150.5,135.87,148.3,135.93Z"/><path class="cls-1" d="M159.26,147.54s1.84-6,1.7-7.13c0,0-9.88-5.06-10.35-2.46a59.62,59.62,0,0,1-1.42,6.66.94.94,0,0,0-.07.52c.2,1.08,2.65,1.51,4.51,1.7l2.84.33Z"/><path class="cls-1" d="M136.48,145.32a13.54,13.54,0,0,0,2.24,2.46s3.82,3.28,8.34,2.73c.54-.06.71-.23.77-.37s-.08-.64-.58-1.27a7.33,7.33,0,0,0-3.56-2.92c-1-.3-1.29-.09-3.07-.13A22.29,22.29,0,0,1,136.48,145.32Z"/><path class="cls-1" d="M147.36,147.54s1.76,3.65,3.89,3.27c0,0,1.13-.07-2.69-3.55C148.56,147.26,146.88,146.07,147.36,147.54Z"/><path class="cls-1" d="M151.41,147.22s-1.39-.38-.61.73,2.09,2.52,2.18,3.27c.78,0,1.63.07,2.52.16s2,.25,2.84.41c.17.15.42.32.61.25.41-.16.28-1.32.25-1.55a1.79,1.79,0,0,0-1.75-2.07l-2-.4C154.71,147.85,153.5,147.59,151.41,147.22Z"/><path class="cls-1" d="M146.42,135.44a18,18,0,0,0-5.21-2.31c-1.93-.5-4-1-5.05.06a2.91,2.91,0,0,0-.65,2.25s-.17,3.76-1.13,5,1,5.82,10.1,4.41a12.63,12.63,0,0,1,.65-3.66c.37-1.12.73-1.63,1-2.79A10,10,0,0,0,146.42,135.44Z"/><path class="cls-1" d="M147.11,123.42s3.72,10.69,4.24,6.16c0,0,6.25-17.56,6.35-19.66,0,0,0-2.29,2.85-7.83a34.91,34.91,0,0,1,2-8S163,91,163.79,90c0,0,1.78-1.42-.67-3.27,0,0-2.63-4.43-3.39-1.9C159.73,84.78,148,123.56,147.11,123.42Z"/><path class="cls-1" d="M124.11,123.55s.69,4.09-5.9,0c0,0-2.18-.48-2.72-6.44,0,0-.37-1.44,1.39-.32,0,0,2.07,1.38,12,3.46,0,0,11.33,3.35,14.68,3.67,0,0,2.19-.37,4.26,3.46s1.12,3.83-.32,3.4a4.56,4.56,0,0,0-2.23-.21c-3.29-.19-4.19-.85-4.37-1.45a3.15,3.15,0,0,1,.06-2.06c.74-2.45-2.45-2.66-2.45-2.66s-8.41-1.81-10.53-2.66S123.85,121.31,124.11,123.55Z"/><path class="cls-5" d="M171.42,107.76S107.31,81.09,87.28,80.24L84,86.94c1.23.11,3.1.3,5.36.62a119.31,119.31,0,0,1,29.41,8.25c11.91,4.78,29,11.18,50.56,19.35Z"/><path class="cls-8" d="M129.75,67.69c-2.47,4-5.94,10-9.66,17.42-9.73,19.51-8.14,23.28-7.31,24.68,1.12,1.87,5.93,3.33,15.51,6.18,12.86,3.83,14.59,3.58,16.06,2.82,4-2.05,4.23-6.9,6.83-16.7A159.82,159.82,0,0,1,159,79.68a71.71,71.71,0,0,0-19-9.48A70.74,70.74,0,0,0,129.75,67.69Z"/><path class="cls-3" d="M124.58,83.29s20.25,5.41,31.7,11.25"/><path class="cls-4" d="M115,104.55s2.92-1,20.92,4.73c0,0-18-8.34-19.94-7.59Z"/><path class="cls-3" d="M152.53,107l-14.7-5.89-2.27,8.3"/><path class="cls-9" d="M136,109.58a67.67,67.67,0,0,0-12.14-3.76,66.91,66.91,0,0,0-8.86-1.27"/><path class="cls-3" d="M134.82,72s-4.79,12-5,12.84"/><path class="cls-3" d="M138.58,72.88s-4.34,9.66-5.28,13"/><path class="cls-3" d="M141.69,73.81s-4.32,8.21-5,13.1"/><path class="cls-3" d="M144.54,74.8s-4.28,10.11-4.78,13.12"/><path class="cls-2" d="M103.34,54.11c-4,5.82-7.74,11.71-11.09,17.83A176.55,176.55,0,0,0,83.32,90.8C82,94,80.74,97.27,79.59,100.55s-2.2,6.6-3.13,9.94c-.46,1.67-.84,3.36-1.18,5.05a32.5,32.5,0,0,0-.64,5.09,9.46,9.46,0,0,0,.77,4.84,3.07,3.07,0,0,0,1.83,1.45,5.66,5.66,0,0,0,2.56.08,6,6,0,0,1-2.65.37,3.73,3.73,0,0,1-2.42-1.43,10.18,10.18,0,0,1-1.57-5.29,43.42,43.42,0,0,1,1-10.7,117.09,117.09,0,0,1,6.36-20.29C81.92,86.4,83.36,83.16,85,80s3.34-6.26,5.27-9.24A100.12,100.12,0,0,1,103.34,54.11Z"/><path class="cls-3" d="M72.45,136.79s-2.09,2.45-.62,4.71"/><path class="cls-2" d="M69,156.37s-.66-2.87,2.8-6.12c0,0,.56-.31,0-1s-3.57,2.49-4.63,4.93,5.34,15.47,8.59,17.25a105.54,105.54,0,0,1-1.13,14.4s-.68,2.64,3.06,5.59c0,0-.63,5.42,1.94,9.27.24.44.62,1.09,1.14,1.85a34.14,34.14,0,0,0,4.41,4.8,15.77,15.77,0,0,1,3.28,5.5A22.23,22.23,0,0,0,111.2,224c16.31-1.93,19.48-24.95,19.48-24.95a14.42,14.42,0,0,0-5.29-11.47s4.15-6.72-.15-13.43c0,0-2.34-6.42.53-8.91,0,0,2.89-.47,3.72-2l-2.35-2.88s-7.37,5.82-3,14.55.45,10.72.45,10.72-3.93-5.89-5.21-5.66c0,0-2.23-6-7-9.13,0,0-2.17-3,1.07-8.76,0,0,7.1-8.21.31-13,0,0-5.51-3.71-9.66,5.05,0,0-1.06,3-1.59,5.28,0,0-3.77,7.17-10-1a33.82,33.82,0,0,1-4.37-8.3c-1.82-5-8.08-3.38-8.08-3.38s-5.81,1,3.62,15.76c0,0-7.48,4,3.29,16.15,0,0-8.83,18.58,5.38,30.29,0,0,1.49.44-.16-1.72,0,0-7.46-7.68-6.08-15.22,0,0,6.63,11.31,9,10.58,0,0,1-.21-.85-1.71s-7.17-7.9-7.59-14.2c0,0,5.34,10.84,8.44,10.52,0,0,.91-.37-1.12-1.92,0,0-6.41-6.62-6.14-11.8,0,0,.11-1.07.75.26,0,0,2.45,3.58,4,4.38,0,0,1,.06.86,1.23s3.71,9.77,9.88,9.75a8.38,8.38,0,0,0,6-3c.21-.25,2.79-3.36,1.62-5.41a2.73,2.73,0,0,0-1.29-1.1s3.49-2.12.57-7.76c0,0-1.8-3.48,1.06-5.47a2.88,2.88,0,0,0,1.43-3.16s2.48,1,5.46,6.64c0,0,.87,6.7-1.18,8.32s.28,1.57.28,1.57,1.86,0,2.27-6c0-1,.27-1.28.46-1.35.75-.29,2.32,2,3.1,3.48a8.72,8.72,0,0,1,1.11,3.43,9.09,9.09,0,0,1-.29,3,13.68,13.68,0,0,1-2.27,4.86s3.27.29,3.51-6.59c0,0,4.33,1,3.48,9,0,0-3.91,23.79-18.75,22.58s-15.83-2.91-20.73-11.93a8.94,8.94,0,0,0-3.67-4.59s-6.52-5.59-6.93-12.88a1.33,1.33,0,0,1,.09-.76,1.37,1.37,0,0,1,.5-.58,13.89,13.89,0,0,0,2-2.42c.94-1.41,1.8-3.19,1.48-4.71,0,0-1.19-1.69-1.49,1a7,7,0,0,1-2.66,4.37s-2.62-1.83-2.46-4,2.41-15.23.48-18.48-1,1.32-1,1.32A19.92,19.92,0,0,1,69,156.37Z"/><path class="cls-7" d="M93.42,170.43s-2.93-2.93-1.47,2.11-1.4,3.29-1.4,3.29-3-1.28-.34-5.56-.89-8.27-2.81-8.12-5.66,2.56-4.72,6.2,2.86,7.43,5.3,9.6a3.75,3.75,0,0,1,.78,2.06c.08.46,1.18,5.88,6.18,8a10.41,10.41,0,0,0,6.86.33,3.46,3.46,0,0,0,.28-5.67c-2.16-2.41-4.41-1.85-6.74-4.07A8.31,8.31,0,0,1,93.53,176s.15-.45,1.36.57a12.92,12.92,0,0,0,3,1.75s8,3.8,7,8.06c0,0,4.26,2.74,4.31.88s-2.58-9.52,1.58-12c0,0,2.31-1.43,0-6.58,0,0-2-3.66,2.59-7.83s1.76-10.84-.79-11.21-5.23-2-8.57,9.59c0,0-3.43,9-12.88.51A26.82,26.82,0,0,1,87,151.52c-.94-4.05-4.21-4.2-6.39-3.34s-.14,9.27,3.8,13.67c0,0,7.64-3.55,7.69,6.29C92.08,168.14,95.73,171.6,93.42,170.43Z"/><path class="cls-1" d="M104.55,187.49s-3.1,4.56-9.64,1.76a10.52,10.52,0,0,0,2,4.48c.51.66,3.26,4.17,7.29,3.87,2.66-.2,5.84-2.07,5.94-4.34.09-2.08-2.45-3.89-3.39-4.56A10.31,10.31,0,0,0,104.55,187.49Z"/><path class="cls-2" d="M100.4,173.92a9.54,9.54,0,0,1-.13-3.55c.3-3.6-1.85-3.48-1.79,2.09,0,0,1.21,5.5,1.87,5.41,0,0,.15,0,.28-.62A7.48,7.48,0,0,0,100.4,173.92Z"/><path class="cls-2" d="M188,85.26s2.7,3.38,12.25,1.27a5.54,5.54,0,0,1,3.22-.29s7.19-4.11,8.88.54c0,0,4.56.08,6,1.14,0,0,38-25.68,48.8,14.88a13.27,13.27,0,0,0,3.61.88c1.61.07,3.88.81,10.83,9.37,0,0,1.52,1.26,7.75,4.55s8.5,3.94,11.79,8.77a13,13,0,0,0,3.44,3.22c.8.5,1.39.85,1.51.91,5.15,2.74,8.44,13.95,8.44,13.95a44.28,44.28,0,0,1,5.83,10.19,36.83,36.83,0,0,0,1.76,4,35.65,35.65,0,0,0,3.29,5.25,24.22,24.22,0,0,1,4.66,5.41c1.58,2.51,2.95,4.69,2.46,7.31a7.29,7.29,0,0,1-2.12,3.77c-1.25,1.45-3.28,3.88-5.67,7-4,5.27-5.58,8-7.42,7.75-.68-.1-1.82-.67-2.9-3.73a3.42,3.42,0,0,0-1-1.4,18.93,18.93,0,0,1-3.46-3.55c-1-1.61-8.13-4.65-8.13-7.78,0,0-5.33-9.9-8-12.1s-8.51-4.35-8.91-10.64c0,0-2.43-7.34-4.63-7.4s-7.28,3.32-7.28,3.32-3.13,2.28-5.24.25c0,0-3.05-1.52-4.48-.17,0,0-3.9,1.53-6.26-1.27,0,0-3.47-2-5.42-.76s-5.92-.34-13.7-6.51c0,0-4,1.38-9.26-1.79,0,0-2.59,2.75-3.83,10.58,0,0,3.83,4.5,4.91,7.83,0,0,1.34.08,9.19,6.6,0,0,2.24-.41,7.53,4.58a28.69,28.69,0,0,1,13,13.35s13.55,22.3,19.75,33.36c0,0,3.62,5.45,5.28,6.58s6.31,6.64,11,19.18c0,0,17.11,20.45,13.44,25.85s-17.22,24.56-25.37,15.72-7.57-6.31-12.74-15.49c0,0-5-7.36-6-11.77,0,0-1.82-3-3.37-3.62a2.87,2.87,0,0,1-1.64-2.42,4.93,4.93,0,0,0-3.63-3c-2.93-.73-4.53-5.42-4.91-7.51s-3.28-4.48-3.28-4.48a10.69,10.69,0,0,1-3.46-5.13c-1.08-3.4-2.39-.36-2.39-.36s-21.25,31.45-37.87-23a39.87,39.87,0,0,1-8.11-9.28s-1.7-3.15-3.83-3-8.2-8.09-8.87-10.14a9.77,9.77,0,0,1-3.35-.53c-1.08-.37-2.7-1.15-6.11-5a58.72,58.72,0,0,1-4.27-5.5,12,12,0,0,1-12,1.62c-5.83-2.46-7-8.52-7.08-9l1.68-2.26s1.32,6.14,6.36,8.32c3.2,1.38,6.35.34,11.61-1.45a70.55,70.55,0,0,0,12-5.63c.05.1-6.89,4.52-8.4,5.64-.41.31-.48.42-1.19.95a4.26,4.26,0,0,0-1,.92c-.44.82,2.28,3.34,6.19,6.05,2.79,1.94,3.38,2,3.77,2.05,2.08.12,3.36-1.48,6.5-4.18,3.73-3.21,7-5.39,7.16-5.24s-4.17,3.64-9.14,9.66c-.82,1-1.49,1.86-2,2.48a24.15,24.15,0,0,0,8.35,8.85s2.21-.28,9.39,8.83c0,0-.71-8.88-2.51-10.26s-5.52-21-4.69-22.35-3.86-18-3.86-18-7.51-4-3.11-7.2c0,0-6.86.32-7.59-8.1s2.81-12,9.77-11.23,11.13,10.71,6.55,14.66c0,0-.83.88,1.4.52,0,0,5.35,12.43,6.3,22.19,0,0,9.89,47.58,13.69,50.83,0,0,6.35,13.57,15.18,8.92,0,0,12.29,4.73,12.53,8.91,0,0,2.2,6.62,7.64,7.09l4.5,9.23a11.2,11.2,0,0,0,2,2,10,10,0,0,1,2.6,3.46,1.75,1.75,0,0,0,.63.32,4.44,4.44,0,0,1,2,2.6s4.88,6.62,4.88,8.51a3.47,3.47,0,0,0,1.58,2.83s1.34.4,1.65,2.84c0,0,5.6,8.11,8.91,10.87s6,10.09,16.78-3.39,11.34-10.24,6.69-18.2c0,0-7.48-12.21-10.16-15.44,0,0-5.65-15.72-9.3-16.6,0,0-12.93-14.59-12.47-18.35a32.16,32.16,0,0,0-2.81-4.85,59.27,59.27,0,0,1-5.28-8.72c-2.08-4-10-23.59-24.75-21.71,0,0-3,.61-.91-1.32,0,0,1.82-1.37,7.1,1,0,0,2.33.41-.41-1s-5-4.26-9-5c0,0,2.14-.1-.4-1s-8.22-5.28-8.22-5.28L225.6,161a4.88,4.88,0,0,0,2.43-.81,3.82,3.82,0,0,0,.63-.53,28.31,28.31,0,0,0-1.89-3.27A9.62,9.62,0,0,0,224,153.3c-.3-.19-.56-.33-.73-.42.33-1.38.75-2.84,1.25-4.36a56.56,56.56,0,0,1,3.22-7.72c-.25-1.57-.66-3.82-1.33-6.47-1.3-5.15-2.75-8.58-2.63-8.62s1.23,2.32,5.7,12.87a4.8,4.8,0,0,0,8.58,1.62,3.87,3.87,0,0,0,.34,2.18,4.33,4.33,0,0,0,2.07,1.8,25.41,25.41,0,0,1,4.94,3.46,2,2,0,0,0,1.26.08c.81-.16,2.39.84,2.39.84s.61.43,2.19,0,5.28.19,7.52,2a3.17,3.17,0,0,0,4.26-.2s1.66-1.71,4.55,1,12.18-6.42,15.14-2.52l4,7s-1.26,1.42.57,3.13,5.81,6,6.17,6.29a48.25,48.25,0,0,1,10,12.63c4.06,7.51,6.13,3.7,9.1,9.38a28.2,28.2,0,0,1,3.69,4.16c1.42,2.09,3,2.91,9.3-6.43s8.62-7.73.83-18.66-7.23-12.09-7.23-12.09-2.84-7.91-4.81-8.79c0,0-3.05-8-3.82-8.13s-.27-.11-.27-.11-1.47-3.88-3.22-4c0,0-1.37-3.17-3.88-3.22,0,0-.54-2.68-2.78-3,0,0-1.28-3.66-3.56-3,0,0,.45-2.23-2.45-2.23a2.32,2.32,0,0,0-2.83-1.7s-8.72-3.52-13.06-9c-2.06-2.57-3-3.9-4.34-4.85-1.67-1.21-3.7-1.81-7.66-3-5-1.53-7.17-1.73-8.15-3.58-.28-.52-.52-1.26-1.31-2.61a21.33,21.33,0,0,0-1.69-2.47,16.08,16.08,0,0,0-8.53-6.12s-7.12-1.94-17.53,4A24.21,24.21,0,0,0,226.58,94c-2.07,1.42-6.73,3.15-15.54,12.31,0,0-.45.51-.85.37s2,4.14-1.95,3.43c0,0-.5-.43-.29,1.36s-.93,11.14-10.57,7.78-6.5-20.71,4.07-16.5c0,0,1.27.09-.62-1.84,0,0,1.81-2.66,2.84-1.33,0,0,8.38-7.7,13.83-11a5.9,5.9,0,0,0-4.95,0s-1.67-5.89-8.23-1.66c0,0-11.38,3.1-16.27-.06Z"/><path class="cls-1" d="M238.29,227.59a13.17,13.17,0,0,0,2.22,1.3C240.83,228.89,240.05,235.28,238.29,227.59Z"/><path class="cls-1" d="M233.6,225.31s1.63-.91,2.15,1.17a49.28,49.28,0,0,0,2.54,6.32s-1.82,3.39-2.34.65S233.6,225.31,233.6,225.31Z"/><path class="cls-1" d="M234.52,236s-1.89-13.16-3.72-9.64c0,0,.52,9.84-.39,11.14S234.52,236,234.52,236Z"/><path class="cls-1" d="M223.38,237s4.43,2.74,5,.52.39-8.69,1-10.7c0,0,.59-1.48-2-.7C227.41,226.09,224.22,232.8,223.38,237Z"/><path class="cls-1" d="M222.4,224.2c1,.15,2.6.5,2.87,1.42.15.54-.23,1-.82,1.92-.47.76-1.21,2.4-2.69,5.69-.8,1.78-1.08,2.55-1.57,2.55s-.58-.74-1.54-1.75c-1.29-1.34-2.23-1.19-2.46-2s.7-1.74,2.23-3.37C219.37,227.69,220.76,226.18,222.4,224.2Z"/><path class="cls-1" d="M212.86,224.69a1.09,1.09,0,0,0-.53.75c0,.42.37.56.81,1.23a13.11,13.11,0,0,1,.77,2h0s.48,2.1,1.72-.34,5.51-6.12,5.51-6.12-1.06-3.35-2.73-2.06S213.08,224.52,212.86,224.69Z"/><path class="cls-1" d="M215.84,215.61s.9-1,1.79,1.38c0,0,.37.86-.89,1.5a41.67,41.67,0,0,0-4.89,3.95s-.86,1-1.15-.23a5.56,5.56,0,0,0-.94-1.9c-.63-.74.68-1.2.68-1.2A35.72,35.72,0,0,0,215.84,215.61Z"/><path class="cls-1" d="M214.13,210.43s2.5,2.84.82,3-5.71,3.62-5.71,3.62a.88.88,0,0,1-.75.11c-.76-.3-.64-2.13-1.49-3h0a18.28,18.28,0,0,1,3.64-2.26A25.48,25.48,0,0,1,214.13,210.43Z"/><path class="cls-1" d="M205.78,207.72s-.24,4.47,1.51,3.4,4.91-1.8,6-2.62-.25-2.87-.25-2.87S212.39,204.13,205.78,207.72Z"/><path class="cls-1" d="M204.62,204s0,3,1.55,1.7,5.09-2,5.09-2a1,1,0,0,0,.71-.33c.11-.13.19-.35-.08-1.69-.18-.91-.26-1-.36-1.08-.34-.22-.86,0-1.52.38C208.17,202.09,207.3,201.59,204.62,204Z"/><path class="cls-1" d="M203.35,198.68s-.32,2,.56,2.46c.19.11.45.12,1.13-.06a10.07,10.07,0,0,0,2.34-1c2.11-1.16,3.55-1.09,3.63-1.81a5.41,5.41,0,0,0-.2-1c-.15-.59-.21-.68-.29-.74-.34-.29-1.05,0-1.27.13C207.82,197.26,205.92,197.17,203.35,198.68Z"/><path class="cls-1" d="M209.55,192.68a4.3,4.3,0,0,0-1.07-.21c-1.95-.15-3.26,1.08-5.07,1.91a4.25,4.25,0,0,1-1,.57.68.68,0,0,0-.32.25,1.47,1.47,0,0,0,.73,1.86c.35.12.67-.09,1.19-.38,1.38-.77,3.45-.58,4.35-1.87.65-.95,1.38-.61,1.38-.61S209.88,193.1,209.55,192.68Z"/><path class="cls-1" d="M200.61,190c.1,1.44.53,2,.93,2.18.92.49,2.05-.53,4.87-1.37a19.1,19.1,0,0,1,2.31-.55c.07-.87.14-2.62-.59-2.92a1,1,0,0,0-.76.11A70.15,70.15,0,0,1,200.61,190Z"/><path class="cls-1" d="M200.27,188.61s-2.13-2.78.34-3.2a24,24,0,0,0,6-2.39s1.55-1.26,1.18,2.23c0,0,0,.54-.84.63S201.36,187.6,200.27,188.61Z"/><path class="cls-1" d="M198,181.93a8.82,8.82,0,0,1,.46,2.06c0,.2,0,.27.07.35.34.45,1.62-.17,4.24-1.12,3.26-1.17,3.85-1.52,4.11-2.21s.1-1.82-.39-2-.87.21-1.05.31C203.88,180.16,199.09,180.75,198,181.93Z"/><path class="cls-1" d="M197.1,177.72a12.6,12.6,0,0,1,.59,2.59c0,.93,1.89-.77,1.89-.77a4.4,4.4,0,0,1,3.12-.89,5.06,5.06,0,0,0,3.45-1.3s-.08-2.82-1.38-2.12a5.28,5.28,0,0,1-2.31.71,5.22,5.22,0,0,0-3.21,1.15C198.06,178.24,197.54,177.16,197.1,177.72Z"/><path class="cls-1" d="M205.22,173.53s.22-3-1.41-2.45-5.49,1.93-6.86,2.26.11,1.38,0,2.67S202.07,174,205.22,173.53Z"/><path class="cls-1" d="M196.13,169.72a1.71,1.71,0,0,0,0,1.29c.09.43.15.82.42.93s.56-.17,1.17-.49a43.25,43.25,0,0,1,6.08-1.67c.52-.07.67-.7.19-2,0,0-.63-.76-4.23.71a9.78,9.78,0,0,1-2.06.74C196.87,169.39,196.38,169.34,196.13,169.72Z"/><path class="cls-1" d="M195.59,166a4.19,4.19,0,0,1-.16,1.6c-.26.86.78,1.31,1.67.22s3.19-.41,6.55-1.82c0,0,.76-.51-.9-1.82A21.59,21.59,0,0,0,195.59,166Z"/><path class="cls-1" d="M194.94,162.83s-.92,2.38,1.05,1.81,1.91-.73,6.08-1.81c0,0,1.68-.19.16-2A15.3,15.3,0,0,0,194.94,162.83Z"/><path class="cls-1" d="M194,159.45s-.32,2.74,2.35,1.6a35.84,35.84,0,0,1,5.25-1.76s1.31-.35,0-2.35C201.62,156.94,199.81,156.69,194,159.45Z"/><path class="cls-1" d="M193.44,156.59s.26,2.77,1.95,1.11,5.18-1.56,5.88-2.38-.38-1.82-.38-1.82A15.75,15.75,0,0,0,193.44,156.59Z"/><path class="cls-1" d="M193.73,152.77s-.76.29-.57,1.75a.9.9,0,0,0,.33.65c.52.33,1.3-.53,2.68-1.17,2.11-1,3.51-.49,4-1.46a1.8,1.8,0,0,0,.12-1.42C199.81,149.56,195.83,152.42,193.73,152.77Z"/><path class="cls-1" d="M198.34,147.28c.74,1,.71,1.65.58,2-.43,1.17-2.43.51-4.59,2.19-.34.26-.78.65-1.25.54s-.82-.9-1-1.35C191.52,148.63,197.53,148.49,198.34,147.28Z"/><path class="cls-1" d="M197.48,142.65s2.9,3.1.45,3.76a13,13,0,0,0-1.57.87c-.94.6-4,.77-5.64,2.37s-2.9-2.57-2.9-2.57-.16-.48.67-.75S194.3,143.28,197.48,142.65Z"/><path class="cls-1" d="M188.66,144.07c1.12.32,2.15-.06,3.77-.7,1.42-.55,2.12-.83,2.53-1.53.54-.93.27-2-.19-3.8a8.49,8.49,0,0,0-1.11-2.88,7.31,7.31,0,0,0-3.68-2.67c-1.31-.47-2.65-1-3.92-.33-1.75.85-2.16,3.23-2.1,4.6s.65,2.39,1.7,4.09C186.82,142.71,187.44,143.71,188.66,144.07Z"/><path class="cls-1" d="M196.34,138.56c.44,0,.76-1.19.82-1.4a6.86,6.86,0,0,0-.73-4.73c-.2-.39-3-5.76-8.29-5.55a8.41,8.41,0,0,0-5.74,2.82c-3.11,3.7-1.92,9.6.84,12.08,1.21,1.09,3.1,1.88,3.31,1.6s-.59-1-1.17-1.64c-2-2.06-3.78-7.64-1.34-10.45a6.11,6.11,0,0,1,6.38-1.4c2.52.9,3.73,3.51,4.3,4.75C195.67,136.69,195.78,138.57,196.34,138.56Z"/><path class="cls-1" d="M261.73,98a12.6,12.6,0,0,1,3.24.16h0c.86,1.64,1.65,3.45,1.16,3.85-.19.15-.46,0-1.31-.24-2.12-.66-2.25-.4-3.46-.9-.74-.31-2.41-1-2.34-1.68S260.8,98.13,261.73,98Z"/><path class="cls-1" d="M257.75,95.76s-.81,1.2.89,1.31,5.65-1.13,5.65-1.13-1.45-4.32-2.51-3.36S257.75,95.76,257.75,95.76Z"/><path class="cls-1" d="M256.58,94.47c.41,0,.62-.73,1.49-1.62.66-.67.8-.49,1.34-1.08.36-.41,1.39-1.4.92-2.34s-.83-1.26-1.31-1.29c-.31,0-.6.12-2.15,2.18-1.24,1.63-1.61,2.29-1.4,2.8a4,4,0,0,0,.49.73C256.28,94.25,256.43,94.45,256.58,94.47Z"/><path class="cls-1" d="M252,90.31c.24.31,1.21,1.51,1.93,1.28.38-.13.52-.6.68-1a27.27,27.27,0,0,1,1.51-3.49.84.84,0,0,0,.18-.33c.18-.62-.49-1.33-1-1.66-.32-.2-.84-.53-1.27-.35-.59.23-.57,1.19-.86,2.48A12.68,12.68,0,0,1,252,90.31Z"/><path class="cls-1" d="M250.46,82.53s3.32-.21,1.78,3.1-.36,4.24-1.78,3.41S249.72,88.66,250.46,82.53Z"/><path class="cls-1" d="M247.12,87.52c.39.35,1.26,1.07,1.64.82s.19-.59.17-.8c-.27-3.11.63-4.59-.37-5.36a1.58,1.58,0,0,0-1.86-.07c-.4.45.14,1.26.38,2.87A9.52,9.52,0,0,1,247.12,87.52Z"/><path class="cls-1" d="M245.87,87.53s1.07-5.78-1.46-6-.36,3.48.24,6A1.16,1.16,0,0,0,245.87,87.53Z"/><path class="cls-1" d="M239.6,81.79c-.34.33.31,1.16,1.16,3.38.51,1.32.58,1.8,1.12,2.06s1.75.12,1.83-.2a.22.22,0,0,0,0-.19,5.5,5.5,0,0,1-.41-.8,6.64,6.64,0,0,1-.4-1.59c-.26-1.53-.39-2.3-.8-2.54a4.6,4.6,0,0,0-1.08-.12C240.12,81.73,239.68,81.7,239.6,81.79Z"/><path class="cls-1" d="M236.63,84.51c1.26,2,1,3.12,1.82,3.4.32.11,1,.14,2.18-.93a10.85,10.85,0,0,0-.27-1.12c-.45-1.55-1-3.47-2.12-3.73a4.77,4.77,0,0,0-1.25.12c-.76.12-1.15.18-1.26.38C235.51,83,236.05,83.57,236.63,84.51Z"/><path class="cls-1" d="M232.25,83.36c-.26.74.93,1.15,2,3.18.54,1,.75,1.82,1.39,1.94a2.07,2.07,0,0,0,.93-.15c.46-.15.82-.26,1-.52.3-.58-.84-1.2-1.63-3.07-.36-.85-.35-1.28-.86-1.7a2,2,0,0,0-1.6-.45C233.28,82.62,232.45,82.79,232.25,83.36Z"/><path class="cls-1" d="M205,101a4.91,4.91,0,0,1,.94-.74c.4-.2,3.05,4,4.05,4.42,0,0,0,.77-1.11,1.25C208.86,105.88,205.41,101.44,205,101Z"/><path class="cls-1" d="M206.49,99.45a3.91,3.91,0,0,1,1.2-1.06l1.25,1.51q1.13,1.38,2.16,2.73a1,1,0,0,1,.36.77,1,1,0,0,1-.67.83c-.53.12-1.09-.55-3.42-3.62Z"/><path class="cls-1" d="M208.43,97.57s.74-1.11,1.34-.32,3,3.56,3,3.56a1.25,1.25,0,0,1-.28,1.82.51.51,0,0,1-.22.11c-.6.12-1.36-1.58-2.54-3.38C209.25,98.62,208.79,98,208.43,97.57Z"/><path class="cls-1" d="M211.47,94.83s-1,.35-1.1,1.1a1.71,1.71,0,0,0,.53,1.29c2.25,2.81,2.41,3.74,3.15,3.66.24,0,.8-.19,1.36-1.41-.39-.64-.75-1.16-1-1.55a17.05,17.05,0,0,0-1.69-2C212.2,95.46,211.78,95.09,211.47,94.83Z"/><path class="cls-1" d="M212.37,94c.12-.2.72-1.25,1.5-1.22.33,0,.52.22,1.28,1.12a18.31,18.31,0,0,1,2.36,3.62.91.91,0,0,1,.06.33,1.46,1.46,0,0,1-1.63,1.05c-.37-.1-.39-.41-1-1.31s-.72-.85-1.62-2.1C213.12,95.18,212.77,94.67,212.37,94Z"/><path class="cls-1" d="M216.25,90.93S215,91.61,215,92.3s1.18,1.17,3,4.67c0,0,1.13,2,2.44-1.08C220.37,95.89,217.25,91.11,216.25,90.93Z"/><path class="cls-1" d="M220.37,94.83a.85.85,0,0,0,.24.47,1.89,1.89,0,0,0,2.39-.75c.32-.93-1.33-2-2.52-3.92a15.09,15.09,0,0,1-1-1.54c-.1-.23-.14-.34-.27-.4-.55-.25-2,.91-1.88,1.9,0,.34.21.38,1,1.23A8.36,8.36,0,0,1,220.37,94.83Z"/><path class="cls-1" d="M219.93,88.64c.2-.32.92-1.39,1.68-1.28.34,0,.54.31.89.78,2.22,3,2,3.6,3,4.32.14.11.53.4.47.63s-.34.22-.85.4c-.78.29-.8.49-1.08.52-.71.08-1.35-1.06-2.71-3.23C220.71,89.84,220.22,89.09,219.93,88.64Z"/><path class="cls-1" d="M223,87.4s-.57-.59,1.18-1.47,2.9,4.5,4.28,5.23-2,1.65-2,1.65S225.57,92.07,223,87.4Z"/><path class="cls-1" d="M228.52,84.56c.27.12.36.31.73,1,0,0,.69,1.18,1.59,2.59.78,1.22,1.18,1.6,1,2s-.46.43-.83.58a2.46,2.46,0,0,1-1.29.22c-.7-.13-1.09-.72-1.78-1.78-.58-.88-.39-.87-1.16-2.18-.47-.8-.62-1-.58-1.26A1.89,1.89,0,0,1,228.52,84.56Z"/><path class="cls-1" d="M229.53,84c0-.08.12-.17.87-.42a2.37,2.37,0,0,1,1-.23c.08,0,.35.11.79.92a6.56,6.56,0,0,1,.62,1.55,17.18,17.18,0,0,0,1.7,2.28.64.64,0,0,1,.19.37c0,.35-.45.63-.75.8a1.71,1.71,0,0,1-1.15.38,1.6,1.6,0,0,1-.91-.74c-1.37-1.88-1.11-2.39-2.12-3.94C229.66,84.73,229.38,84.31,229.53,84Z"/><path class="cls-1" d="M202.09,101.45c.12-.3.49-1.11,1-1.14s.75.39.91.59c1.37,1.69,2.7,3.41,4.07,5.11.75.92,1.38,1.57,1.25,2.39-.06.38-.31.91-.6.92s-.47-.4-.56-.55c-1-1.85-2.75-3.15-4.06-4.78C203.68,103.41,203,102.53,202.09,101.45Z"/><path class="cls-1" d="M202.69,104s2.5,3.78,4.11,4.45-4.91,8.92-9.2,4.17S199,104.13,202.69,104Z"/><path class="cls-1" d="M198.15,104.24s1.74-.9-.55-.84-8.51,4.68-3.08,12.28,12.09,1.26,12.53-2.46c0,0,.15-2.45-1.74.57s-6.31,4.42-9.24.27S194.45,105.92,198.15,104.24Z"/><path class="cls-2" d="M308.33,268.2a41.09,41.09,0,0,1,9,3.88,45.15,45.15,0,0,1,8,5.72,50.5,50.5,0,0,1,6.69,7.3,12.9,12.9,0,0,1,2.22,4.52,7.81,7.81,0,0,1,.2,1.27,7.08,7.08,0,0,1,.06,1.3,10.37,10.37,0,0,1-.41,2.59,13.48,13.48,0,0,1-2.43,4.6,40.68,40.68,0,0,0-2.77,3.79c-.41.65-.8,1.31-1.13,2-.15.33-.32.66-.44,1-.06.16-.13.33-.18.49l-.07.24a3.13,3.13,0,0,1-.12.32,5.93,5.93,0,0,1-.38.85,6.52,6.52,0,0,1-.59.77,8.3,8.3,0,0,1-.73.6l-.78.42a7.24,7.24,0,0,1-3.07.48,12.43,12.43,0,0,1-5.22-1.56,14.83,14.83,0,0,1-2.23-1.43c-.7-.52-1.36-1.19-1.86-1.64s-1.19-.89-1.86-1.37-1.29-.9-2-1.33c-1.34-.85-2.74-1.62-4.2-2.36l.09-.28a23.13,23.13,0,0,1,4.8,1.27c.77.29,1.55.63,2.29,1a17.16,17.16,0,0,1,2.26,1.19c.79.53,1.33,1,2,1.33a13.37,13.37,0,0,0,6,2,4.58,4.58,0,0,0,1.7-.23,1.32,1.32,0,0,0,.78-.75,1.13,1.13,0,0,0,.11-.24l.12-.33a6.18,6.18,0,0,1,.28-.64c.18-.42.4-.8.61-1.19a23.76,23.76,0,0,1,1.43-2.16,30.17,30.17,0,0,1,3.31-3.78,12.85,12.85,0,0,0,2.69-3.58,7.33,7.33,0,0,0,.69-4.38,8.84,8.84,0,0,0-2-4.13c-2-2.45-4.86-4.07-7.47-5.93-1.32-.93-2.61-1.9-3.85-2.88s-2.55-1.9-3.84-2.84c-2.59-1.88-5.25-3.65-7.92-5.57Z"/><path class="cls-2" d="M326.29,279.28q1.88,1.67,3.72,3.4c1.24,1.15,2.37,2.38,3.55,3.59a30.81,30.81,0,0,1,3.23,4,10.49,10.49,0,0,1,1.73,5,12.43,12.43,0,0,1-.81,5.28,26.49,26.49,0,0,1-2.33,4.64c-.9,1.47-1.86,2.83-2.81,4.23a38.94,38.94,0,0,1-3.11,4.11,9.45,9.45,0,0,1-4.66,3,8.14,8.14,0,0,1-2.87.15,9.88,9.88,0,0,1-2.65-.83,31.71,31.71,0,0,1-4.44-2.64c-1.41-.95-2.77-1.92-4.14-2.89-5.42-3.94-11.06-7.52-16.58-11.36,3,1.55,5.89,3.21,8.85,4.82s5.78,3.43,8.61,5.24l4.22,2.72a30,30,0,0,0,4.25,2.38,8.82,8.82,0,0,0,2.15.65,5.86,5.86,0,0,0,2.12-.14,7.55,7.55,0,0,0,3.67-2.41,37,37,0,0,0,3-3.87c.95-1.38,1.91-2.75,2.81-4.12,1.79-2.73,3.28-5.71,3.18-8.83s-2.07-5.88-4.14-8.46c-1.05-1.3-2.08-2.63-3.2-3.87S327.39,280.55,326.29,279.28Z"/><path class="cls-2" d="M332.65,175.84a2.51,2.51,0,0,0,.82,3.46,14.71,14.71,0,0,0,3.65,1.71c2.58.93,5.23,1.77,7.82,2.8s5.12,2.17,7.64,3.38a34.38,34.38,0,0,1,3.71,2.1,14,14,0,0,1,1.76,1.4,4.62,4.62,0,0,1,1.36,2.24,4,4,0,0,1,.06.78,6.69,6.69,0,0,1-.16.75,3.92,3.92,0,0,1-.69,1.19,6.93,6.93,0,0,1-1.84,1.54,14.82,14.82,0,0,1-4.09,1.65,19.51,19.51,0,0,1-4.3.57,15.84,15.84,0,0,1-2.18-.1,11.67,11.67,0,0,1-2.16-.46c-1.37-.43-2.66-.92-3.95-1.43s-2.57-1-3.84-1.62L332.49,194c-1.26-.57-2.44-1.32-3.65-2l1.93.76a19.73,19.73,0,0,0,1.93.75l3.91,1.34c1.29.47,2.61.89,3.93,1.29s2.62.84,3.92,1.16a15.81,15.81,0,0,0,7.75-.33,13.58,13.58,0,0,0,3.54-1.48c1.06-.62,1.91-1.62,1.7-2.2a2.75,2.75,0,0,0-.8-1.24,10.39,10.39,0,0,0-1.47-1.18,34.56,34.56,0,0,0-3.46-2c-2.42-1.28-4.9-2.49-7.38-3.63s-5.06-2.17-7.59-3.33a15.22,15.22,0,0,1-3.62-2.21,3,3,0,0,1-1.08-1.87A2.75,2.75,0,0,1,332.65,175.84Z"/><path class="cls-2" d="M358.89,192.39s9,20.34.77,21.29c-.61.31-1.56.78-2.73,1.31a7.51,7.51,0,0,1-1.78.77c-1.6.41-3.72,0-10.9-1.12-9.81-1.55-12.55-1.79-18.44-4.7s-2.38-1.73-4.1-6.31c0,0-.42-.65-.3-3.09s-2.8-5-2.08-7.14l.83-1c.14.63.37,1.55.7,2.66.65,2.19,1.19,3.33,1.67,4.7a26,26,0,0,1,1.26,5.6,3,3,0,0,0,.22,2c.39.73,1.25,1.45,3.05,1.73,4.22.66,5.77,2.56,14.87,3.63s20.89,3,20-5.89-3.45-13.16-3.45-13.16Z"/><path class="cls-2" d="M322.67,204.06c1.73.36,3.39.82,5,1.27s3.3.92,4.92,1.49a43.84,43.84,0,0,0,4.88,1.67,20.61,20.61,0,0,0,5.13.53,59.92,59.92,0,0,0,10.09-.8,35.75,35.75,0,0,0,4.87-1.12,37,37,0,0,0,4.75-1.9l.12.16a17.5,17.5,0,0,1-9.35,5,24.51,24.51,0,0,1-5.33.4,26,26,0,0,1-2.65-.16q-1.32-.18-2.61-.45c-1.72-.36-3.42-.71-5.14-1s-3.49-.37-5.21-.71a25.68,25.68,0,0,1-5-1.63,22.59,22.59,0,0,1-4.61-2.55Z"/><path class="cls-2" d="M305.5,257.77a43,43,0,0,1-4.24,7.88,53.5,53.5,0,0,1-5.5,7.06,40.54,40.54,0,0,1-6.72,6,20.63,20.63,0,0,1-8.2,3.75,49.92,49.92,0,0,0,6.71-5.56c2.07-2,4.05-4.1,6-6.23l5.87-6.45C301.38,262.05,303.36,259.89,305.5,257.77Z"/><path class="cls-2" d="M307.34,261.14a32.8,32.8,0,0,1-3.62,7.78,45.52,45.52,0,0,1-5.24,6.83,37.92,37.92,0,0,1-6.58,5.6,25.66,25.66,0,0,1-7.87,3.52c2.24-1.82,4.4-3.51,6.42-5.39s4-3.77,5.85-5.79,3.7-4.06,5.52-6.16Z"/><path class="cls-2" d="M328.6,167.19c-1.13,2-2.39,3.93-3.68,5.8s-2.63,3.71-4,5.54-2.73,3.62-4.13,5.41-2.8,3.56-4.25,5.36a33,33,0,0,1,3-6.24,66.94,66.94,0,0,1,3.82-5.72c1.38-1.83,2.81-3.61,4.35-5.31A49.77,49.77,0,0,1,328.6,167.19Z"/><path class="cls-2" d="M330.67,170.23a63,63,0,0,1-3.53,5.69c-1.21,1.86-2.45,3.68-3.7,5.53a60,60,0,0,1-4.14,5.3,55,55,0,0,1-4.85,4.68,57.07,57.07,0,0,1,3.62-5.64l3.73-5.49a63.14,63.14,0,0,1,4.1-5.31A49.84,49.84,0,0,1,330.67,170.23Z"/><path class="cls-2" d="M314.65,144.49a5.83,5.83,0,0,1-.37,2.19,5.67,5.67,0,0,1-1,1.87c-.49.54-1.17.94-1.65,1.46a11.82,11.82,0,0,0-1.29,1.75,3.2,3.2,0,0,1-2.07,1.52,2.33,2.33,0,0,1-.91,0,3,3,0,0,1-.76-.33,4.05,4.05,0,0,1-1-.83,5.88,5.88,0,0,1-1.55-4.19l.18-.07,1.5,1.47,1.42,1.33.59.56c.2.16.15.16.3.19a4.27,4.27,0,0,0,3.05-1.79,10.34,10.34,0,0,0,.76-2,7.36,7.36,0,0,1,1.09-1.72,8,8,0,0,1,1.55-1.53Z"/><path class="cls-2" d="M306,145.23a2.78,2.78,0,0,1,1.44,1.12,8.13,8.13,0,0,0,.38.85,2.31,2.31,0,0,0,.67.61,5.52,5.52,0,0,1,1.35,1.19,4.42,4.42,0,0,1,.79,1.68l-.07.06a4.22,4.22,0,0,1-1.53-1.05,5.43,5.43,0,0,1-1-1.53,2.27,2.27,0,0,0-.49-.75c-.22-.21-.54-.33-.78-.52a2.81,2.81,0,0,1-.88-1.6Z"/><path class="cls-2" d="M306.72,142.47a2.73,2.73,0,0,1,2.06.87,10.58,10.58,0,0,1,.6,1,6.27,6.27,0,0,0,.7.86,8.34,8.34,0,0,1,.69.82c.21.26.43.49.65.73.42.51.86,1,1.34,1.61l0,.09a3.37,3.37,0,0,1-2.08-1,4.15,4.15,0,0,1-1-2,2,2,0,0,0-.48-.93,3.59,3.59,0,0,0-.88-.57,7.53,7.53,0,0,1-1.57-1.41Z"/><path class="cls-2" d="M309.75,141.05a2.1,2.1,0,0,1,1.45.88c.14.25.21.56.36.79a2.23,2.23,0,0,0,.61.57,3.79,3.79,0,0,1,1.16,1.23,2.94,2.94,0,0,1,.35,1.7l-.09,0a5,5,0,0,1-1.17-1.18,6.55,6.55,0,0,1-.69-1.46,1.63,1.63,0,0,0-.42-.69,4.72,4.72,0,0,0-.72-.43,2.66,2.66,0,0,1-.9-1.38Z"/><path class="cls-2" d="M269.17,205.92c-.42,0-1.17-.07-3.27.92a25.33,25.33,0,0,0-7.43,5.31c-4.11,4.28-6.25,6.51-6.55,9.73-.21,2.23.52,4.23,6.46,12.3,2.86,3.89,6.65,7.16,8.91,11.43a3.89,3.89,0,0,0,2,2.07c1.36.47,2.84-.37,5-1.9,6.45-4.63,7.05-7.08,11.74-11.36a6,6,0,0,0,1.15-1.61c1-2-1.31-5-2.27-6.35-9.75-13.52-8.66-11.59-9.59-13.07C272.68,209.19,271.73,206.23,269.17,205.92Z"/><path class="cls-1" d="M271.89,210.14a6,6,0,0,0-3.28-.91c-1.45.06-2.51.73-5.22,3.1a63.15,63.15,0,0,0-7.16,7.59,5.74,5.74,0,0,0-1.46,3.28,4.81,4.81,0,0,0,.12,1.33q4-3.5,8.15-7Q267.51,213.71,271.89,210.14Z"/><path class="cls-1" d="M255.88,226.27a3.92,3.92,0,0,0,.44,1.25,4.13,4.13,0,0,0,.83,1.07q3-3.1,6.52-6.29c3.64-3.32,7.22-6.28,10.65-8.91a2.67,2.67,0,0,0-1.57-2.06S260,221.44,255.88,226.27Z"/><path class="cls-1" d="M257.92,229.63c.11.25.24.51.38.77a9.94,9.94,0,0,0,1.54,2.09q3.27-3.08,6.78-6.2,5.24-4.64,10.31-8.74a4.32,4.32,0,0,0-2-2.77S263.33,224,257.92,229.63Z"/><path class="cls-1" d="M261.05,234a5.64,5.64,0,0,0,1.88,2.46s9.83-9,17.19-14.89c0,0-.92-2.16-2.45-2.74C277.67,218.78,263.12,231.06,261.05,234Z"/><path class="cls-1" d="M264.09,238.09a6.59,6.59,0,0,0,2.5,3.42,166.06,166.06,0,0,0,16.66-15.22,5.33,5.33,0,0,0-2.26-3.42S264.18,236.6,264.09,238.09Z"/><path class="cls-2" d="M274.39,243.47a3.06,3.06,0,0,1,1.33,1.75,6.86,6.86,0,0,0,.13,1.12,1.94,1.94,0,0,0,.68.83,5.88,5.88,0,0,1,.83.7,8,8,0,0,1,.7.73,10.64,10.64,0,0,1,1.09,1.84l-.07.13a3,3,0,0,1-2.22-.91,3.64,3.64,0,0,1-.65-.95,3.48,3.48,0,0,1-.38-1.11,2.52,2.52,0,0,0-.4-1c-.21-.3-.6-.52-.84-.82a2.13,2.13,0,0,1-.42-1,2.54,2.54,0,0,1,.08-1.21Z"/><path class="cls-2" d="M276.79,242.29a2.73,2.73,0,0,1,1.2,1.55,3.77,3.77,0,0,0,.11,1,1.38,1.38,0,0,0,.67.68,5.59,5.59,0,0,1,.81.48,7.78,7.78,0,0,1,.7.48,11.4,11.4,0,0,1,1.33,1.35l0,.15a2.48,2.48,0,0,1-2.22-.19,3.08,3.08,0,0,1-.78-.79,2.62,2.62,0,0,1-.47-1,2.33,2.33,0,0,0-.42-.93c-.21-.26-.59-.44-.83-.71a1.72,1.72,0,0,1-.37-.95,2,2,0,0,1,.16-1.11Z"/><path class="cls-2" d="M279.19,238.86a3.14,3.14,0,0,1,1.37,1.62,4.64,4.64,0,0,0,.22,1.06,1.62,1.62,0,0,0,.75.71,5.87,5.87,0,0,1,.9.5,9,9,0,0,1,.79.52,11.17,11.17,0,0,1,1.49,1.42l0,.15a2.83,2.83,0,0,1-2.35-.24,3.64,3.64,0,0,1-.86-.8,3.19,3.19,0,0,1-.57-1,2.62,2.62,0,0,0-.52-1c-.24-.27-.64-.45-.91-.72a2,2,0,0,1-.47-1,2.21,2.21,0,0,1,.05-1.19Z"/><path class="cls-2" d="M282,237.7a2,2,0,0,1,1.59.91,6,6,0,0,0,.32.9,1.37,1.37,0,0,0,.72.51,3.14,3.14,0,0,1,.82.41,3.3,3.3,0,0,1,.68.54,4.18,4.18,0,0,1,.81,1.62l-.06.14a2.52,2.52,0,0,1-1.86-.61,2.91,2.91,0,0,1-.57-.69,2.74,2.74,0,0,1-.41-.84,1.48,1.48,0,0,0-.48-.75,6.27,6.27,0,0,0-.88-.37,2,2,0,0,1-.79-1.67Z"/><path class="cls-1" d="M284.08,228.09q-2.76,2.66-5.68,5.34-5.37,4.94-10.63,9.34a5.33,5.33,0,0,0,3,1.76c1.19.18,2.68-.13,8.84-6.11,4.41-4.29,5.38-5.82,5.31-7.66A5.65,5.65,0,0,0,284.08,228.09Z"/><path class="cls-2" d="M271.89,246.4a21.24,21.24,0,0,0,2,3.4,5.7,5.7,0,0,0,1.25,1.29,1.68,1.68,0,0,0,1.3.39,2.69,2.69,0,0,0,1.11-.88c.41-.45.82-1,1.23-1.49.85-1,1.76-2,2.69-3s1.94-1.87,3-2.74a19.17,19.17,0,0,0,2.75-2.49,3.25,3.25,0,0,0,0-3.15,12.35,12.35,0,0,0-2.24-3.16,9.08,9.08,0,0,1,3.09,2.68,4.29,4.29,0,0,1,.49,4.41,7.13,7.13,0,0,1-1.39,1.74l-1.45,1.38c-1,.89-1.89,1.8-2.8,2.73s-1.79,1.87-2.68,2.85c-.45.48-.89,1-1.41,1.47a6,6,0,0,1-.88.74,2.85,2.85,0,0,1-1.3.46,3,3,0,0,1-2.32-.93,6.94,6.94,0,0,1-1.25-1.78A13.5,13.5,0,0,1,271.89,246.4Z"/><path class="cls-2" d="M229.51,91.52a13.32,13.32,0,0,1,4,.76,12.08,12.08,0,0,1,3.68,1.91c.27.21.52.48.78.72a1.9,1.9,0,0,0,.6.47,4.6,4.6,0,0,0,1.82.43,29,29,0,0,0,4-.28,9.72,9.72,0,0,1,4.23.35,8.8,8.8,0,0,1,3.75,2.28,12.27,12.27,0,0,1,3.1,7.69l-.19.06a27.46,27.46,0,0,0-4.42-6.24,9.92,9.92,0,0,0-2.9-2,12.2,12.2,0,0,0-1.73-.61,18.21,18.21,0,0,0-1.87-.43,17,17,0,0,0-4-.16,11,11,0,0,1-2.14,0,3.07,3.07,0,0,1-1.16-.42l-.84-.45c-2.18-1.27-4.5-2.42-6.82-3.86Z"/><path class="cls-10" d="M216.16,213.06a65.28,65.28,0,0,0,16.89,10.37"/><path class="cls-2" d="M185.68,93.8c1.29.23,2.49.53,3.69.77l1.78.34c.6.09,1.18.2,1.78.33a26.24,26.24,0,0,0,3.7.66,12.33,12.33,0,0,0,3.73-.33,26.1,26.1,0,0,0,3.44-1.11,6.68,6.68,0,0,0,1.44-.76,1.2,1.2,0,0,0,.33-.33,1.1,1.1,0,0,0,.1-.37,4.39,4.39,0,0,0-.3-1.42c-.19-.56-.42-1.14-.63-1.74-.41-1.17-.87-2.32-1.31-3.54l.16-.12a13.41,13.41,0,0,1,2.56,3,18,18,0,0,1,1,1.67A4.93,4.93,0,0,1,207.8,93a2.74,2.74,0,0,1-.39,1.44,3,3,0,0,1-1,1,8.18,8.18,0,0,1-2,.81,11.11,11.11,0,0,1-4,.41c-1.3-.07-2.56-.16-3.83-.11s-2.54.35-3.86.34a10.51,10.51,0,0,1-3.84-.84A10.65,10.65,0,0,1,185.59,94Z"/><path class="cls-2" d="M205,88.49a7.27,7.27,0,0,1,2.24-1.13,2.28,2.28,0,0,1,.75-.11,1.66,1.66,0,0,1,.92.34,3.31,3.31,0,0,1,.88,1.2,3.08,3.08,0,0,1,.4,1.48,1.25,1.25,0,0,1-.61,1,1.86,1.86,0,0,1-.78.21,7.21,7.21,0,0,1-2.5-.29,18,18,0,0,1,2.24-.85,1.22,1.22,0,0,0,.34-.19c-.09,0-.1.09-.11,0a3.3,3.3,0,0,0-.32-.78,4.32,4.32,0,0,0-.44-.77.69.69,0,0,0-.16-.13,2,2,0,0,0-.44,0A17.74,17.74,0,0,1,205,88.49Z"/><path class="cls-2" d="M230.27,120.32a57.51,57.51,0,0,1,5.72-3,3.66,3.66,0,0,1,2-.44,2.1,2.1,0,0,1,1.22.63,3.07,3.07,0,0,1,.57,1,17.42,17.42,0,0,0,1.11,2.85,12.79,12.79,0,0,0,.7,1.32l.42.7a2.51,2.51,0,0,1,.41,1.18,2.77,2.77,0,0,1-1,2.09,5.18,5.18,0,0,1-1.63.9,8.89,8.89,0,0,1-3.38.55,7.24,7.24,0,0,1-3.17-.94,10.17,10.17,0,0,0,3.12,0,10.51,10.51,0,0,0,2.8-1,4.81,4.81,0,0,0,1.07-.76,1,1,0,0,0,.34-.69c0,.05-.3-.51-.6-1a15.28,15.28,0,0,1-.84-1.48,17.53,17.53,0,0,1-1.11-3.13c-.15-.5-.11-.41-.29-.52a3,3,0,0,0-1.14.18A49.13,49.13,0,0,1,230.27,120.32Z"/><path class="cls-2" d="M212.34,162.45a6.07,6.07,0,0,0,1.65,3.72c.22.23.48.51.73.8a10.16,10.16,0,0,1,.69.93,10.49,10.49,0,0,1,1,2.09c.12.37.23.74.32,1.12,0,.19.07.38.1.58l0,.16V172l0,.22a2.23,2.23,0,0,0,.58,1.34,1.19,1.19,0,0,0,1.12.08,6.24,6.24,0,0,0,1.64-.81,26.74,26.74,0,0,1,3.92-2.09,5.82,5.82,0,0,0,1.47-.7,1.24,1.24,0,0,0,.15-.6,3.15,3.15,0,0,0,0-.87,9.18,9.18,0,0,0-.52-1.92c-.22-.66-.49-1.31-.77-2-.56-1.31-1.18-2.6-1.79-3.92a28.7,28.7,0,0,1,2.65,3.45,14.67,14.67,0,0,1,2,4,5.49,5.49,0,0,1,.15,1.26,2.88,2.88,0,0,1-.35,1.46,3,3,0,0,1-1.18,1l-1,.49a28.14,28.14,0,0,0-3.62,2,8.23,8.23,0,0,1-2.22,1,2.83,2.83,0,0,1-.69.12,2.37,2.37,0,0,1-.75,0,2.62,2.62,0,0,1-1.48-.7,4,4,0,0,1-1-2.56v-.53l-.05-.48c0-.32-.09-.65-.16-1a10.52,10.52,0,0,0-.64-1.89c-.14-.3-.29-.6-.46-.89l-.59-.89A5.68,5.68,0,0,1,212.34,162.45Z"/><path class="cls-10" d="M171.8,145.32a41.82,41.82,0,0,1,17.81,14.81"/><path class="cls-10" d="M169.43,154.66s3.29-.61,13.95,10.12"/><path class="cls-2" d="M184.34,163.45c.83,1,1.56,2,2.36,2.83a7.36,7.36,0,0,0,.59.48c.18.13.37.18.38.15s.26-.07.61-.61l.6-.75.54-.64s0,0,0,0,0,.21,0,.15,0,0,0-.08a8,8,0,0,0-.44-.68,4.94,4.94,0,0,1-.59-4,8.46,8.46,0,0,0,1.8,3,3.66,3.66,0,0,1,.74.77,1.87,1.87,0,0,1,.3.81,1.45,1.45,0,0,1,0,.6,2.6,2.6,0,0,1-.18.42c-.44.7-.78,1.07-1.15,1.59l-.14.18-.2.24a3.39,3.39,0,0,1-.52.47,2.49,2.49,0,0,1-.72.33l-.37.07a1.52,1.52,0,0,1-.48,0,2.43,2.43,0,0,1-1.27-.67,4,4,0,0,1-.7-.87A8,8,0,0,1,184.34,163.45Z"/><path class="cls-2" d="M196.75,103c-1.34-.41-2.67-.83-4-1.27s-2.7-.9-3.93-1.18a.38.38,0,0,0-.17,0h0l-.07,0c-.08.06-.18,0-.26.12s-.17.11-.25.19l-.24.3a6.83,6.83,0,0,0-.78,1.65c-.42,1.23-.78,2.55-1.1,3.9-.62,2.68-1.28,5.4-2,8.12s-1.54,5.41-2.26,8.09c-1.47,5.33-2.94,10.71-4.66,16a5.85,5.85,0,0,0-.2,3.45,4.77,4.77,0,0,0,2.46,2.46A24.21,24.21,0,0,0,187,148a19.71,19.71,0,0,1-8.27-1.79,10.19,10.19,0,0,1-2-1.07,5.24,5.24,0,0,1-1.62-1.92,5.6,5.6,0,0,1-.52-2.47,12.09,12.09,0,0,1,.25-2.3c.28-1.45.67-2.78,1-4.09l1-4.08,2.1-8.14c1.65-5.31,3.13-10.6,4.84-16a33.24,33.24,0,0,1,1.54-4,8.77,8.77,0,0,1,1.26-2,2.61,2.61,0,0,1,2.66-.94c.74.28,1.34.59,2,.89s1.26.61,1.88,1C194.31,101.67,195.54,102.35,196.75,103Z"/><path class="cls-2" d="M338.08,293.12c.12.45.32,1.12.62,1.92,1.12,2.94,1.89,2.95,2.14,4.36.28,1.63-.56,3.2-2.23,6.36-.33.61-.57,1-1.07,1.85-.68,1.13-1.86,3.09-3.6,5.47-2.55,3.49-3.83,5.24-5.84,6.36a13.24,13.24,0,0,1-3.34,1.24c-3.92.78-7.16-1.49-15-6.72-11.29-7.57-12.69-8.31-14.47-11.18-1.37-2.19-1.34-3-3.87-7.55a92.75,92.75,0,0,0-5.69-9h3.43s3.39,12.44,13.25,20.51c1,.79,19,15.49,26,10.52,1.43-1,2.86-3.14,4.84-6.08a60.81,60.81,0,0,0,4.91-8.81s.39-2.42-3,2.65Q336.63,299.08,338.08,293.12Z"/></g></svg>
