<svg id="astronaut" xmlns="http://www.w3.org/2000/svg" width="600" height="530" viewBox="0 0 600 530"><defs><style>.cls-1,.cls-7,.cls-8{fill:#fff;}.cls-2,.cls-5{fill:#232323;}.cls-10,.cls-3,.cls-6,.cls-9{fill:none;}.cls-10,.cls-3,.cls-4,.cls-5,.cls-6,.cls-7,.cls-8,.cls-9{stroke:#232323;stroke-miterlimit:10;}.cls-3,.cls-6,.cls-8{stroke-width:2px;}.cls-6{stroke-linecap:round;}.cls-10{stroke-width:3px;}</style></defs><path class="cls-1" d="M145.27,88.77S122.05,59,71.21,58.33,6.26,110.42,6.26,110.42A77.77,77.77,0,0,0,2.73,138.7c1.76,28.47,19,47,23.74,51.73,29.82,29.9,72.1,23.34,76.43,22.6,0,0,5.8,1.17,7.41,3.69a79.28,79.28,0,0,0,1.84,9.66s1.83,2.75-5.52,8.5l.69,1.84s-.92,11.49-.23,14.71l-1.84,2.06s7.58,24.83,15.63,29.42l-2.53,25.28a35.7,35.7,0,0,0,5.06,6.67A20.74,20.74,0,0,0,125.7,328s3.91,9.19,7.13,10.11c0,0,3.5.46,12.44,18.38,0,0,11.23,16.32,35.36,14.48,0,0,24.82,2.07,34.47-37.92a26,26,0,0,0-8.5-24.82s7-6.2,1.44-19.57c0,0-5-9.39-1.2-15,0,0,4-.2,5.59-3a21.92,21.92,0,0,1,13.77,6.19s7.39,6.19,18.37,1.4a10.84,10.84,0,0,1,3.59,6.78s.8,3.4,6.19,5.79a19.8,19.8,0,0,0,21.56-.6s16.76,20.76,22.15,17.37c0,0,9.19,15.77,15.77,17.37,0,0,3.6.79,7.59,7.78,0,0,6,10.18,9.38,9.38,0,0,13.87,50.66,36.51,53.68S398,382.47,398,382.47s1.42,4.09,6.93,8.34c0,0,6.3,4.73,5.51,12.44l2.37,1.11a4.12,4.12,0,0,0,1.73,3s1.42,3,6,5a5.24,5.24,0,0,1,3.31,4.09s.79,2.84,3.31,3.15,4.72,6.46,5.19,10.24h1.11s16.13,36.6,36.89,44.86l9.95,21.18s4.24,10.17,16.95,16.31c0,0,30.08,20.76,36.43,16.31,0,0,6.36.85,11-5.5,0,0,11.43-11.86,12.07-18.43a15.35,15.35,0,0,1,2.33-4.45s4-5.72,0-13.13c0,0-1.69-1.27-4.66-9.54,0,0-4-15-45.54-39.18,0,0,3.39-3.6-10.59-21.4,0,0-3.6-5.5-9.75-13.77,0,0-3.39-4.87-7-16.09,0,0-4.66-13.56-14.4-21.19,0,0-1.27,1.91-19.07-27.75,0,0-20.54-38.34-30.29-49.77a27,27,0,0,0-11.44-7.63s-5.93-7.41-13.55-8.9c0,0-12.08-9.32-15.68-10.59a18.7,18.7,0,0,0-6.78-10.38s3-13.34,4.66-15a25.19,25.19,0,0,0,14.2,1.27s12.49,10.38,21.18,12.29c0,0,5.29-4.45,10.8,1.06s12.29.42,12.29.42,1.48-2.33,8.89,3.18c0,0,2.55,1.06,7-3,0,0,10.81-8,11.87-2.54,0,0,3.6,17.37,11.22,21,0,0,10.17,4.24,13.14,14.41,0,0,1.48,5.29,11,15.67,0,0,4.66,5.3,7.63,5.93,0,0,2.33.64,2.54,2.54a25.12,25.12,0,0,0,5.93,6.36s5.51,12.71,10,8.47c0,0,.21,4,2.11,5.51,0,0-1,14,5.72,17.37,0,0,50.63,18.64,60,7.2,0,0,15.68,1.48,0-37.07,0,0-2.54-7.84-20.12-13.13,0,0-18.64-7.2-23.52-10.8,0,0,5.94-6.36-11.43-24.36,0,0-3.61-3.39-12.08-21.4,0,0-9.11-16.73-9.53-18.21,0,0-3.81-11-14-16.74a37.25,37.25,0,0,1-6.57-7.41s-4.66-8.69-21.6-14.83c0,0-9.32-4.45-15.26-12.07s-12.7-9.32-16.94-9.32c0,0-11.65-66.52-82.19-26.06,0,0-4.37-2.12-8.29-.94,0,0-1.76-7.24-16.44-1.57,0,0-4.89-.39-6.65,2,0,0-15.47,2.15-17.42-3.91,0,0,.78-2.94-13.31-6.07,0,0-19.38-17-32.3-21.34l-2.54,1.18s-3.92-2.35-6.26-2.55c0,0,.78-3.52-3.33-6.06,0,0,3.72-4.31-6.85-15.07,0,0,2.74-11.55-.59-15.66a38.68,38.68,0,0,0,3.91-23.69s6.86-19-15.26-29.94A70.36,70.36,0,0,1,222,12.24C213.12,6.17,210.08,1.07,204,.85a13.23,13.23,0,0,0-7.72,2.34s-9.4,4.31-17.42,4.11a27.44,27.44,0,0,1-10.57-2c-4.9-2.15-10.77,6.27-10.77,6.27s-12.72-7.44-23.29,3.52c0,0-30.34-.78-32.49,18.4,0,0-9.2,9,3.52,16.63,0,0,12.92,6.07,15.86-11.74,0,0,10.57-2,6.26,7.83,0,0-23.49,4.11-6.26,16.64,0,0,14.68,11.74,26-6.66,0,0,7.63.59,8.61-1.17,0,0,4.31-2,7.44-.2a7.76,7.76,0,0,0,3.72-.59s6.07,6.85,10.18,6.27c0,0,.78,2.54,3.13,2.35,0,0-5.09,2.54-3.33,6.85,0,0-6.46,1.37-6.26,6.06a12.6,12.6,0,0,0-8.22,9.4s-7.64,1.56-8.42,4.3l-4.89-2.74S146.32,86.67,145.27,88.77Z"/><path class="cls-2" d="M144.87,92.6a160.91,160.91,0,0,0-35.05-20.78,111.41,111.41,0,0,0-19.24-6.18,89.61,89.61,0,0,0-20-2.06l-2.51.07c-.84,0-1.67.11-2.51.16-1.68.08-3.34.33-5,.55s-3.3.6-5,.9-3.3.77-4.92,1.23a53.71,53.71,0,0,0-18.1,8.88,55.3,55.3,0,0,0-7.45,6.9,58.92,58.92,0,0,0-6,8.18,67.53,67.53,0,0,0-7.79,18.69,86.8,86.8,0,0,0-.42,40A74.35,74.35,0,0,0,29.53,184,80.88,80.88,0,0,0,44.89,196.8a66.92,66.92,0,0,0,8.8,4.8c1.49.77,3.06,1.36,4.61,2s3.16,1.12,4.74,1.68a78.76,78.76,0,0,0,19.85,3.64,98.58,98.58,0,0,0,10.17,0,84.82,84.82,0,0,0,10.15-1.29l.1.39a77.08,77.08,0,0,1-41.16.32c-1.67-.52-3.38-.92-5-1.56s-3.32-1.14-4.91-1.89a69.47,69.47,0,0,1-9.38-4.77,75.84,75.84,0,0,1-8.63-6c-1.39-1.07-2.69-2.26-4-3.41l-1.91-1.82c-.64-.6-1.26-1.22-1.86-1.87L24.63,185l-1.7-2c-1.17-1.32-2.17-2.77-3.24-4.18s-2-2.93-2.94-4.39-1.78-3-2.58-4.62-1.58-3.15-2.24-4.78-1.32-3.27-1.92-4.92A83.81,83.81,0,0,1,7.22,150a82.09,82.09,0,0,1,2-41.41,78.87,78.87,0,0,1,3.71-9.73,80.51,80.51,0,0,1,5-9.09A62.8,62.8,0,0,1,31.8,74.34a58.39,58.39,0,0,1,8.67-5.74A61.54,61.54,0,0,1,50,64.37a75.35,75.35,0,0,1,20.48-4.11c.88-.08,1.76-.06,2.63-.08s1.76,0,2.63,0c1.75.07,3.51.11,5.25.33a78.56,78.56,0,0,1,10.35,1.67c3.4.79,6.75,1.78,10.06,2.89s6.51,2.46,9.66,3.92a121.4,121.4,0,0,1,18,10.29,120.38,120.38,0,0,1,16,13Z"/><path class="cls-2" d="M153.4,92.24a4.86,4.86,0,0,0-3.54-1.63,5.56,5.56,0,0,0-3.4,1.62,33.65,33.65,0,0,0-5.19,6.46c-3.12,4.69-6,9.66-9.11,14.42s-6.43,9.4-9,14.45a118.13,118.13,0,0,0-6.78,15.68c-1.86,5.39-3.36,10.88-4.81,16.36s-2.65,11-3.64,16.6A280.29,280.29,0,0,0,103.74,210l-.55-.71c1.35.41,2.69.88,4,1.31s2.68.89,4,1.36l-.08.29q-2.09-.34-4.17-.75c-1.39-.27-2.78-.51-4.17-.8l-.52-.1,0-.61a144.57,144.57,0,0,1,2.47-34.35A168.62,168.62,0,0,1,109,158.88a160.28,160.28,0,0,1,6.12-16.11c2.27-5.27,4.66-10.46,7-15.71A141.8,141.8,0,0,1,130,111.74c1.47-2.46,3-4.87,4.56-7.27s3.17-4.78,4.91-7.1a30.32,30.32,0,0,1,6.1-6.36,8.61,8.61,0,0,1,2-1.09,7.62,7.62,0,0,1,1.16-.31,5.35,5.35,0,0,1,1.2,0A5.23,5.23,0,0,1,153.62,92Z"/><path class="cls-2" d="M339.63,179.4c1.26.31,3.79,1.11,4.63,3.17a5.07,5.07,0,0,1-.14,3.6c-5.32,15-9.54,30.31-14.49,45.4-.6,1.82-1.63,5.05-2.78,9.2l3,9.46c.72-4.33,1.84-10.31,3.55-17.37.36-1.46,1.73-7.06,4-14.74,3.9-12.93,6.52-20.73,6.52-20.73,2.91-8.64,4.36-12.26,2.4-15C344.78,180.18,341.85,179.57,339.63,179.4Z"/><path class="cls-2" d="M294.85,303.15a71.11,71.11,0,0,1,8-8.45c1.42-1.31,2.89-2.57,4.39-3.79s3-2.37,4.63-3.46c3.19-2.18,6.59-4.07,9.78-6.24s6.29-4.46,9.47-6.72c1.61-1.1,3.22-2.21,4.93-3.17a51.75,51.75,0,0,1,5.27-2.63,56.68,56.68,0,0,1,34.54-4l0,.34c-3.86.41-7.66.79-11.41,1.37s-7.44,1.29-11.08,2.2a106.64,106.64,0,0,0-10.79,3.17c-1.77.64-3.51,1.35-5.26,2.09s-3.49,1.48-5.21,2.3a55.37,55.37,0,0,0-9.78,6c-3.05,2.32-5.76,5.1-8.66,7.62-1.45,1.26-2.95,2.47-4.49,3.6s-3.05,2.31-4.59,3.44c-3.09,2.27-6.18,4.54-9.48,6.62Z"/><path class="cls-2" d="M368,251.37c-4.41-.44-8.68-1.05-13-1.39-1.07-.1-2.14-.19-3.2-.22s-2.13-.14-3.19-.15l-1.6-.05h-1.59c-1.06,0-2.11,0-3.17,0A40.86,40.86,0,0,0,329.55,251a27.94,27.94,0,0,0-5.87,2.65,30.93,30.93,0,0,0-5.12,3.88,138.32,138.32,0,0,1-20.32,16.77,102.62,102.62,0,0,1-23.78,11.51l-.17-.36c7.26-5,14.49-9.73,21.57-14.7,3.55-2.46,7.16-4.84,10.67-7.37s7-5.17,10.7-7.59a61.12,61.12,0,0,1,11.89-6c1-.43,2.08-.8,3.13-1.16l1.59-.55,1.6-.48c1.08-.35,2.17-.57,3.27-.85s2.21-.45,3.33-.55a29.37,29.37,0,0,1,3.37-.24h1.69l1.68.09c1.12,0,2.23.18,3.34.32s2.21.34,3.31.54A53.12,53.12,0,0,1,368.08,251Z"/><path class="cls-2" d="M339.08,150.89a193.84,193.84,0,0,0,8.74,20.48,73.33,73.33,0,0,0,5.15,9.91c1,1.55,2.13,3.08,3.28,4.57l3.43,4.51a90.09,90.09,0,0,1,6.3,9.44,98.54,98.54,0,0,1,5.22,10.11,74.35,74.35,0,0,1,3.7,10.8A31.47,31.47,0,0,1,376,232.09h-.3a32.13,32.13,0,0,0-1.23-5.43c-.53-1.76-1.15-3.51-1.81-5.23q-2-5.17-4.37-10.21t-4.78-10.05l-2.59-4.95q-1.28-2.49-2.61-5c-.45-.82-.92-1.62-1.4-2.43s-.95-1.61-1.48-2.38q-1.56-2.33-3.25-4.6c-2.2-3.05-4.63-6-6.56-9.3A53.6,53.6,0,0,1,341,162.12a50.32,50.32,0,0,1-1.48-5.51,31.77,31.77,0,0,1-.73-5.67Z"/><path class="cls-2" d="M346.82,141.72c1.31,1.91,2.49,3.86,3.69,5.81s2.38,3.9,3.55,5.85c2.35,3.91,4.71,7.79,6.93,11.77s4.18,8.17,6.42,12.16,4.61,7.91,7,11.81,4.7,7.91,6.73,12,4,8.29,5.66,12.61c.78,2.18,1.56,4.37,2.15,6.63a36.33,36.33,0,0,1,1.32,7,13,13,0,0,1-.16,3.72,5.37,5.37,0,0,1-.8,1.94,4,4,0,0,1-1.73,1.27,6.6,6.6,0,0,1-3.74.21,15.14,15.14,0,0,1-3.34-1.07l.09-.29a19.49,19.49,0,0,0,3.35.4,6,6,0,0,0,3-.64,2.21,2.21,0,0,0,.9-.86,3.64,3.64,0,0,0,.33-1.28,13.33,13.33,0,0,0-.22-3.11,44.14,44.14,0,0,0-1.76-6.4c-.72-2.11-1.5-4.23-2.36-6.32q-2.49-6.28-5.23-12.55L373,189.9a113.73,113.73,0,0,0-6.41-12.1c-2.38-3.9-5.17-7.54-7.71-11.35A113.75,113.75,0,0,1,352,154.5a110.61,110.61,0,0,1-5.48-12.64Z"/><path class="cls-3" d="M412.83,162.71a29.2,29.2,0,0,1,5.9,0,28.18,28.18,0,0,1,6.19,1.39"/><path class="cls-2" d="M57.86,63.1A72.68,72.68,0,0,0,41.45,75.78c-20.63,21.35-21.79,49.31-21.77,58.51a78.18,78.18,0,0,0,5.84,20.16,80.24,80.24,0,0,0,23.76,30.34s11.63,1.76,11.7,4.11a.08.08,0,0,0,0,0c.41.56,10.6-6.1,12-7,4.68-3.06,42.78-30.08,47.58-77.45A99.27,99.27,0,0,0,119,74.58,105.62,105.62,0,0,0,57.86,63.1Z"/><path class="cls-2" d="M58.43,62.77A96.58,96.58,0,0,0,44.25,74.48c-1,1.12-2.16,2.15-3.14,3.32l-3,3.48-2.72,3.64c-.9,1.22-1.67,2.53-2.51,3.78A79,79,0,0,0,25.17,105c-.43,1.44-1,2.85-1.34,4.3l-1.06,4.38L22,118.1c-.23,1.48-.29,3-.45,4.47a68.06,68.06,0,0,0,6.63,35,86.65,86.65,0,0,0,22.55,28.51A73.6,73.6,0,0,1,25.42,159a65.63,65.63,0,0,1-3.92-8.62L20,145.83l-1.15-4.62A69,69,0,0,1,30.34,87c.94-1.27,1.8-2.58,2.8-3.8l3-3.6,3.29-3.37a21.7,21.7,0,0,1,1.71-1.61l1.75-1.56A76.21,76.21,0,0,1,58.43,62.77Z"/><path class="cls-2" d="M38.56,195.27a9,9,0,0,1,.91-7,9.64,9.64,0,0,1,2.75-2.76,11.44,11.44,0,0,1,3.53-1.48,19.31,19.31,0,0,1,7.24-.32,24.2,24.2,0,0,1,3.48.74,25.72,25.72,0,0,1,3.38,1.2,23.49,23.49,0,0,1,10.55,9.43,16.72,16.72,0,0,1,.78,1.72l.32.9c.08.32.14.65.2,1a8,8,0,0,1-.22,4,6.86,6.86,0,0,1-2.12,3.14,9,9,0,0,1-3,1.67l-.16-.25a7.77,7.77,0,0,0,3.75-4.87,8.26,8.26,0,0,0-1.51-6,24.08,24.08,0,0,0-9.81-8,25.3,25.3,0,0,0-6.09-1.88,18.88,18.88,0,0,0-6.36-.15,8.74,8.74,0,0,0-5.45,2.91,9.41,9.41,0,0,0-1.85,6Z"/><path class="cls-2" d="M51.78,203a19,19,0,0,1-5.2-3,7.15,7.15,0,0,1-1.88-2.64,5.29,5.29,0,0,1-.19-3.57A4.54,4.54,0,0,1,47,191.14a10.18,10.18,0,0,1,3-.78,17.73,17.73,0,0,1,6,.24,9.94,9.94,0,0,1,5.35,3.33,9.54,9.54,0,0,1,1.75,2.85,6,6,0,0,1,.27,3.75,5.26,5.26,0,0,1-2.43,3,6.54,6.54,0,0,1-3.29.79A18.48,18.48,0,0,1,51.78,203Zm.11-.28a7.27,7.27,0,0,0,5.43-.31,7.66,7.66,0,0,0,2-1.25,2.65,2.65,0,0,0,.95-1.45,5.76,5.76,0,0,0-1.16-4,13,13,0,0,0-1.64-1.94,10.25,10.25,0,0,0-2-1.59,7.56,7.56,0,0,0-5.28-.82,4.87,4.87,0,0,0-2.3,1.22,2.89,2.89,0,0,0-.93,1.85,9.94,9.94,0,0,0,1.16,4.43A7.3,7.3,0,0,0,51.89,202.71Z"/><path class="cls-2" d="M105.67,176.83a27.29,27.29,0,0,1-4.28,5.46,24.64,24.64,0,0,1-2.65,2.31,10.18,10.18,0,0,1-3.33,1.78l.55-2.13a8.62,8.62,0,0,1,2.23,5.59,5.23,5.23,0,0,1-.32,1.57,4.3,4.3,0,0,1-.91,1.27,15.26,15.26,0,0,1-2.2,1.79c-3,2.12-5.88,4.43-9,6.3-.78.48-1.55,1-2.36,1.44-.4.23-.8.47-1.26.7a5.29,5.29,0,0,1-.81.35,3.84,3.84,0,0,1-1,.2,10.23,10.23,0,0,1-6-1.57A16.23,16.23,0,0,1,69.9,198,19.89,19.89,0,0,1,67,193.15l.25-.17c1.34,1.27,2.66,2.5,4,3.59a21.25,21.25,0,0,0,4.29,2.74,9.51,9.51,0,0,0,4.42.94.91.91,0,0,0,.3,0,4.09,4.09,0,0,0,.45-.17c.37-.15.77-.34,1.17-.54l2.42-1.19c1.62-.82,3.26-1.62,5-2.31a38.72,38.72,0,0,0,4.9-2.34c1.48-.91,3.06-2.2,2.59-3.77-.32-1.53-1.56-2.74-2.76-3.87l-1.39-1.32,1.94-.82a16,16,0,0,0,2.61-1.47c.89-.59,1.81-1.2,2.69-1.87,1.81-1.3,3.59-2.68,5.54-3.94Z"/><ellipse class="cls-3" cx="174.91" cy="99.9" rx="7.16" ry="5.98"/><ellipse class="cls-4" cx="174.91" cy="100.59" rx="1.78" ry="1.47"/><ellipse class="cls-3" cx="137.27" cy="192.32" rx="7.28" ry="7.94" transform="translate(-79.77 285.72) rotate(-77.77)"/><circle class="cls-4" cx="137.64" cy="192.82" r="1.67"/><path class="cls-2" d="M173.13,78.21c2.48,1.07,6.18,2.65,10.69,4.49C197.18,88.18,207,91.63,210.71,93a314.69,314.69,0,0,1,38.43,17.27s5-3.54-2.79-8.2c-8.5-4.36-17.45-8.7-26.83-13-13.61-6.17-26.76-11.53-39.33-16.21a4.76,4.76,0,0,0-5-.24A4.83,4.83,0,0,0,173.13,78.21Z"/><path class="cls-3" d="M185.79,66.28s-.27-1.48,1.16-4.54"/><path class="cls-5" d="M214.52,19.06s-3.27,10.21,2,23.48c0,0,15.93,4.5,27.16,3.88,0,0,2.05,13.89-3.88,22.88,0,0-25.52-4.09-33.29-9.81,0,0,9.4-2.24,6.95-12.66a48.87,48.87,0,0,0,.41-8.37,50.65,50.65,0,0,0-.45-5.05A42.26,42.26,0,0,1,214.52,19.06Z"/><path class="cls-2" d="M170.11,89.13a22.93,22.93,0,0,0-9.41.73,19,19,0,0,0-4.15,1.89A22,22,0,0,0,153,94.59c-4.35,4.36-7.5,10.13-11.34,15.41s-7.76,10.47-10.86,16.19a99.46,99.46,0,0,0-7.5,18c-1,3.1-1.85,6.23-2.72,9.35s-1.7,6.25-2.47,9.4-1.48,6.29-2,9.5-1.16,6.37-1.76,9.55-1.19,6.38-1.79,9.56-1.09,6.38-1.48,9.55c-.17,1.59-.34,3.17-.35,4.72a13.89,13.89,0,0,0,.55,4.43,6,6,0,0,0,1,1.87,7.23,7.23,0,0,0,1.6,1.57,12.77,12.77,0,0,0,4.29,1.93l-.06.39a11.92,11.92,0,0,1-4.9-1.21,9.29,9.29,0,0,1-2.18-1.52,7.32,7.32,0,0,1-1.64-2.21,14.21,14.21,0,0,1-1.32-5.12,37.39,37.39,0,0,1-.15-5.06c.08-3.34.39-6.64.79-9.9s.88-6.51,1.42-9.76a184.68,184.68,0,0,1,4.29-19.27c.91-3.16,1.91-6.3,3-9.4s2.42-6.12,3.73-9.14q1-2.26,2-4.49l2.1-4.46c1.4-3,2.81-5.91,4.28-8.85,2.92-5.86,5.85-11.79,9.22-17.41,1.7-2.8,3.42-5.56,5.36-8.26a42.47,42.47,0,0,1,6.68-7.63,18.87,18.87,0,0,1,19.3-3.55Z"/><path class="cls-5" d="M203.45,270s14.41,1.69,10.38-14.84-47.05-34.45-98.56-24c0,0-6.15,3.45-4.66,5.78,0,0-2,12.51-.23,14.2l2.56-3.39s-3.18-6.78,6.36-10.17,74.82-14.07,88.17,25.71Z"/><path class="cls-5" d="M169.74,326.26s4.34,17.12,5.3,41.71c0,0,7,.24,8.2-1.2,0,0,1.69-22.43-8.68-41.71C174.56,325.06,171.43,328,169.74,326.26Z"/><path class="cls-2" d="M371.67,235.34s-20.33-18.76-33.13-23.49l-1.92,6.49s24.71,15.59,32.6,22.43Z"/><path class="cls-5" d="M404.43,385.6A55,55,0,0,0,416,372.54l17.23,24S426,406,421.08,407.74a13,13,0,0,1-6.19-4.09c-3.33-4.14-1.4-7.88-5-11.77-.56-.61-2.11-2.16-4.24-4.73C405.14,386.5,404.71,386,404.43,385.6Z"/><path class="cls-2" d="M474.37,192.9s-18.77,28-5.25,35c0,0-4.93,16.06-7,16.7,0,0,4.45,10,6.12,14.63,0,0,14.72-10.65,16.63-17.81,0,0,6,3.82,7.63,5.88,0,0,4,5.32,8-3.46,1.24-1.65,2.5-3.39,3.75-5.21,2.57-3.75,4.8-7.4,6.74-10.89a7.51,7.51,0,0,0-.44-1.38,8.15,8.15,0,0,0-2.38-3.1,114.06,114.06,0,0,1-6,10.65c-4.89,7.65-6.77,8.56-8.14,8.39a4.09,4.09,0,0,1-2.63-1.92q2.26-4.14,4.79-8.39,4.2-7.08,8.43-13.42l-2-1.23L489.47,239a9.88,9.88,0,0,1-1.69-.91,10,10,0,0,1-1.87-1.66l12.26-23.3L497,211.58l-12.63,23.66s-2.09-.73-2.45-2.21c0,0,8.7-21.33,11.4-24.88l-1.35-2.21s-10.67,22.56-11.77,25.62c0,0-2.21-.36-3.92-3.67l11.89-25.63-1-1q-2.91,5.76-5.78,11.86-3.24,6.88-6.12,13.52a6,6,0,0,1-1.28-.57,3.36,3.36,0,0,1-1.66-1.76c1.39-3.71,3-7.59,4.75-11.59,2.17-4.87,4.42-9.39,6.65-13.54l-1.22-.74a112.65,112.65,0,0,0-11.4,24.15,3.22,3.22,0,0,1-1.8-1.14,3.3,3.3,0,0,1-.66-1.55s6.81-21,10.55-23.3Z"/><path class="cls-2" d="M484,256.65a234.13,234.13,0,0,0,16.89,21.19c6.86,7.63,12,12.28,19.2,21.73,3.7,4.86,6.48,9.05,8.26,11.86l-2.13,2.94c-1.93-2.7-5-6.88-9.14-11.76-5.06-6-9.08-10-11.48-12.5-6.67-6.83-14.34-14.67-20.87-23.52-11.15-15.1-14.66-27.27-24.52-31.9a29.06,29.06,0,0,0-9.31-2.57c-5.71-.32-6.24,1.37-11.31,1.38-6.56,0-7.17-2.82-13.47-3.05-6.88-.26-6.65,3-13,2.87-5.5-.12-6.95-2.64-19.23-6.8-2.62-.89-4.79-1.53-6.2-1.93l-.93-6.06c.95.33,2.36.83,4,1.48,9.86,3.84,10.13,5.73,14.7,6.51,6.19,1,13.09-1.15,13.09-1.15h0c4.27-1.73,7.18-1.42,9.06-.79,2.12.7,2.41,1.63,4.91,2.49,1.53.53,3.27.83,8.39.47,6.79-.48,7.25-1.24,10.25-1.09,4.08.22,7,1.83,9.62,3.26C472.43,236.1,483.19,255.17,484,256.65Z"/><path class="cls-1" d="M118.79,223.25s-10.9-18.49,30.87-15c0,0,49.36,2.64,67.85,12.21,0,0,1.65,1.65-1.32,9.25C216.19,229.69,150.65,213.67,118.79,223.25Z"/><path class="cls-2" d="M240.52,89s1.42.11,2.25,2.74a7,7,0,0,0,2.5,3.71s2.52,3.42,1.08,6.64l1.19.77s3.31-1.24-2-9.79c0,0-1.82-4.28-4.23-5.58a26.89,26.89,0,0,0-1.82-19.84H236.1s7.15,8.19,2,7.48c0,0-4.16-1.66-4.16.24s3.92,1.31,3.92,1.31,3.92,0,1.9,4.87c-.48,1.16-1.14,3.48-2.54,3.66-1.22.16-2.28-1.19-2.8-.78-.31.24-.15.93-.12,1.08C234.86,87.72,239.5,88.75,240.52,89Z"/><path class="cls-2" d="M240.66,70.38a53.45,53.45,0,0,0,2.82-8.94,54.59,54.59,0,0,0,1.15-15.54,18.46,18.46,0,0,0-8.1-22.64s-8-6-11.87-7.29c0,0-12.46-7.69-14.32-9.78s-7.2-4.1-12.61-1.47c0,0-20,7.12-28.48,2.48,0,0-5-3.56-11.5,7.27l.93,1.11s6.39-9.62,17.46-4.44c0,0,5.26.31,22.13-5.41,0,0,6.58-2.09,11.37,1.08,0,0,12.69,9.6,15.17,10.41,0,0,9.29,4.93,10.52,6,0,0,8.18,6.92,8.73,13A24.66,24.66,0,0,1,243,46.45L239.44,69Z"/><path class="cls-6" d="M214.37,19.74s-2.77,15.9,1.45,26.13"/><path class="cls-6" d="M209.22,17.63a12.93,12.93,0,0,0,4.26,6.2"/><path class="cls-2" d="M176.14,11.14A22.08,22.08,0,0,1,188,21.64a19.65,19.65,0,0,1,2,10.77,20.09,20.09,0,0,1-3.11,8.6C182.47,48.4,175.54,52,172,53.47L173.13,55a34.21,34.21,0,0,0,7.48-4.25c2.69-2,7.69-5.77,10.15-12.6a21.79,21.79,0,0,0,.6-14c-2.8-9-10.93-12.68-12.31-13.28Z"/><path class="cls-2" d="M163,17s20.48-4.87,24,8.58S168.71,54,159.56,52.14c0,0-5.26-.8-8,1.37,0,0-1.71,1.37-6.29.8,0,0-7.32,13.5-19.79,8.47s-8.32-15.85,3.2-13.73c0,0,6.05-6.67,0-11.06s-10.06,0-10.06,0-2.16,12.64-10.41,10-7-10.75-4.58-12.47c0,0-4.92-16,31.35-18.42,0,0,10.52-10.29,21.27-2.86C156.24,14.27,156.93,13.36,163,17Z"/><path class="cls-7" d="M175.25,29.31S169.34,27,169,25.87c0,0-1.72-1.82-1.83,4.94,0,0,.32,4.83-2.79,6.66s-7.19-3.77-7.19-4.51-3.1-11.39,12-13.9c0,0,12.23-.6,16.54,5.2a36.92,36.92,0,0,1-18.15,24.49,17.9,17.9,0,0,1-9,1.82s-6.44-.11-7.41.65-5.69,1.5-7.09.53-8.59-1.39,0,2a15.38,15.38,0,0,1-4.44,5.44c-3.37,2.57-8.83,4.43-13.58,2.38-3.27-1.4-6.51-4.79-5.83-7.07.39-1.28,2-1.95,2.66-2.26,2.63-1.13,4,.22,6-.49,3-1.08,4.46-5.86,4.24-9.38a9.48,9.48,0,0,0-2.79-6.58c-3.13-2.94-7.73-2.23-7.73-2.23s-3.33-1,4.83-2.57c0,0,1.5-1.61-2.36-1s-10.63,6.23-12.25,8.59a1.61,1.61,0,0,1-.72.62c-1.29.55-3.45-.79-4.43-2.35-1.69-2.69-.18-6.6,1.41-8.78.92-1.27,2.1-2.06,4.45-3.64a31.76,31.76,0,0,1,7.68-4,65.09,65.09,0,0,1,7.12-1.54c2.83-.54,4-.68,4.34-.14s-.15,1.5-1.37,2.9c-3.55,4.09-3.44,8.61.64,11.12s7.41,4.56,10.85-4.24S153.66,25,153.66,25a2.07,2.07,0,0,0,2.15-.64C157,23.3,149,21.26,149,21.26s-1.61-1.19-6.22,5-7,6.34-9.88,4.3-2.69-4.59,3.54-9.87,9.24-9.25,18.69-6.13a55.71,55.71,0,0,1,5.58,3.65c.57.52.94.72,1,1,.08.7-1,1.33-1.28,1.51-2.42,1.54-6.11,7.85-4.54,12.7.75,2.31,2.49,3.68,4.11,5s3.48,2.75,5,2.14c1.29-.51,1.74-2.34,2.39-4.95.57-2.25.58-4,1.87-5.6a3.27,3.27,0,0,1,1.46-1A5.52,5.52,0,0,1,175.25,29.31Z"/><path class="cls-1" d="M104.77,36.92a7.8,7.8,0,0,0,5.21,4.3,7.71,7.71,0,0,0,5.87-1.16,6.23,6.23,0,0,1-2.48,6.2c-2.59,1.75-5.72.62-7.36-.58a6.28,6.28,0,0,1-2.75-4.81A6,6,0,0,1,104.77,36.92Z"/><path class="cls-4" d="M169.62,50s.65,4.91,14.39,10.73c0,0,22,3.17,30.64-7.49,0,0-7,12.78-28.15,9.52a37.66,37.66,0,0,1-7.36-2.66A38.06,38.06,0,0,1,168.07,52a4.44,4.44,0,0,0-1.75-1,4.71,4.71,0,0,0-3.27.3S168.35,49.07,169.62,50Z"/><path class="cls-1" d="M31.82,122.87c1,.14,1.81-3.38,4.24-9A78.08,78.08,0,0,1,47.17,95.26,56,56,0,0,1,63.24,82.21c3.48-1.91,8.4-3.86,18.23-7.76,3.89-1.55,7.14-2.8,9.39-3.65a4.09,4.09,0,0,0,.79-.47,1.64,1.64,0,0,0,.77-1.21c0-1.29-8-4.66-18.14-4.7a31,31,0,0,0-10.61,1.4A32.49,32.49,0,0,0,54.28,71C51.46,73.13,47.91,76.36,43,83.4,37,91.84,32.48,98.31,30.88,107.78,29.65,115,30.44,122.68,31.82,122.87Z"/><path class="cls-6" d="M198.37,72a28.56,28.56,0,0,1-3.86-1.23A61.19,61.19,0,0,1,189,68c-3-1.43-6.1-2.93-7.87-1.81s-2,4.8-.73,8.83"/><path class="cls-2" d="M175.39,77.78S166.85,75.05,163.66,89c5.67,1.2,13.13,3,21.77,5.59,7.25,2.19,12.47,4.1,17.84,6.08a340.84,340.84,0,0,1,38.22,16.27c6.39,3.21,11.57,6.11,15.13,8.16l6-9.54S252,107.82,248,107.69Z"/><path class="cls-7" d="M166.61,86.82a8.13,8.13,0,0,1,5-6.86,8.36,8.36,0,0,1,7,.57,332.37,332.37,0,0,1,78,33.94,4.13,4.13,0,0,1,1.66,1.73,4.26,4.26,0,0,1,.25,3.11s-1.73,4.46-11.53-.93S186.61,88.78,166.61,86.82Z"/><path class="cls-2" d="M256.7,132.58s4.32-2.47,12,9.4c0,0,2.91,2.82.6,5.84s-6,21-5.09,22.37l-5,10.95s-9.43,34.74-12.54,36.37c0,0-.48.82-5.07-.87,0,0-4.08-1-5.84-.66s-4.77-.88-4.77-.88a1.49,1.49,0,0,0-2.19,1.54l-10.26,4.69S198,223.2,201.91,207.79c0,0-7.39-3.16-8.79-2.49,0,0-5.21,1.61-6.63-10,0,0-.07-5.45-1.57-7.25s-2.55-5.94.3-8.82l71.48-46.64"/><path class="cls-1" d="M226.8,215.68l1.46-7.24s2.2-2.82-6.3-3.48c0,0-12-2.11-14.44-3.4,0,0-3.83-1.63-3.44,5.42a19.06,19.06,0,0,1-.68,3.18c-.43,1.21.08,4.39,1.41,4.39C204.81,214.55,224.13,224,226.8,215.68Z"/><path class="cls-2" d="M262.61,112s-11.33,15-4.62,18c0,0,22.26,11.09,30.09,17.19,0,0-23.73,70.18-24.47,80.87,0,0-42.06-17.14-43.15-11.79l-4.21,8.58s-5.72,9.71,10.43,19c0,0,2.68,1.72,3,2.83s4,2.54,9,1.54a10.53,10.53,0,0,1,5.09.34,7.6,7.6,0,0,0,4,.51,14.47,14.47,0,0,1,3.94.92c1.26.67,6.68,1,8.67.89a60.11,60.11,0,0,0,12.51,3.21s-11.73,17.82-37.08,20.47a17.8,17.8,0,0,1-4.43,0s-14-9.14-18.37-9.55l-1.63,3s5.39,1.55,7.39,1.44,10.51,6.09,10.51,6.09,5.76,7.31,26.12-5c0,0,17.93-9.3,21.92-15.61a25.15,25.15,0,0,0,5.64-17.22C284.82,228,287.13,217,290,205c1.31-5.52,2.62-11,4.53-17.93,2.61-9.53,5.94-20.32,10.22-32.09,0,0,3.75-11.68,3.63-12.56,0,0,.74-3.33-4.76-5.95,0,0-1-.79-4.66-1.65s-17.83-12.32-17.83-12.32S266.71,112.51,262.61,112Z"/><path class="cls-5" d="M219.07,219.14a203.52,203.52,0,0,0-27.73-8.68,207.69,207.69,0,0,0-69.1-4.38s-14.15,5.19-6.32,20.69a153.71,153.71,0,0,1,26.71-3.6c3.19-.15,12.67-.48,31.08,1.64a370.32,370.32,0,0,1,42.39,7.41,16.08,16.08,0,0,0,2.24-4A16.77,16.77,0,0,0,219.07,219.14Z"/><path class="cls-1" d="M264.81,114.67s-1.44,4.24-4.22,6.37-1.9,6.19-1.9,6.19a13.08,13.08,0,0,0,.94,1.19,12.43,12.43,0,0,0,5.28,3.37c2.12.69,3.38,1.1,4.53.5,1.33-.7,1.24-2.22,2.7-5.4.86-1.86,1.64-3.37,2.19-4.39C274.33,122.5,277.87,119.56,264.81,114.67Z"/><path class="cls-1" d="M278.59,123.26s-1.22-1.1-3.07,3c0,0-3.31,6.56-3.55,6.87s-.62,1,.55,1.78,1.77,1.36,2.36,1.22.88-.86,1.38-2c0,0,.87-2,2.88-5.89,1-1.88,1.45-2.48,1.2-3.32A3,3,0,0,0,278.59,123.26Z"/><path class="cls-1" d="M282.64,127.56s-2.21,7.24-4.11,9.51,6.5,6.38,9.57,7.73a1.16,1.16,0,0,0,2-.68c.81-2.91,2.58-5.46,3.68-8.28a4.54,4.54,0,0,0,.34-1.06s0-.09,0-.19c-.06-.9-5.18-4-5.18-4-3.46-2.07-5-4.26-5.95-3.68A1,1,0,0,0,282.64,127.56Z"/><path class="cls-1" d="M297.38,136.29c-2.79.6-3.8,4.54-7.06,14.27-1.09,3.23-2.34,6.4-3.35,9.66-1,3.06-1.78,5.63-2.54,7.88-2,5.89-5,14.48-5.38,15.64-2.08,5.82-6.46,20.65-16.61,60.56a11.29,11.29,0,0,1,.4,1.62,10.92,10.92,0,0,1,.06,3.1,18.79,18.79,0,0,0,5.8,2.86c2.19.64,5.2,1.51,7.28.14s2.32-4.43,2.41-5.49c1-11.32,6.63-32.12,11.47-49.95a139.84,139.84,0,0,1,5.78-16.87c.07-2.1-.44-4.46.48-6.54,1.69-3.79,10.68-30.68,10.48-31.26a4.07,4.07,0,0,0-.29-1.29c-.36-.84-1-1.56-3.56-2.85S298.74,136,297.38,136.29Z"/><path class="cls-2" d="M293.15,150.49a25.23,25.23,0,0,1,5.72-11.56,6.3,6.3,0,0,1,5.87,3.49s-3.26,6.93-3.26,9.54C301.48,152,296.72,154.11,293.15,150.49Z"/><path class="cls-2" d="M269.16,228.82s-3.59,9-3.59,15c0,0,5.39,3.75,9.14,2.61,0,0,4.57-9.63,3.43-13.55C278.14,232.9,275.37,229.64,269.16,228.82Z"/><path class="cls-1" d="M242.28,223.06s-1.68-.8-1.59,3.27a14.07,14.07,0,0,1-1.47,7.07,7.7,7.7,0,0,0-.76,3.59,2.34,2.34,0,0,0,.34,1.55,2.1,2.1,0,0,0,2.41.7,2.53,2.53,0,0,0,1.07-2c.44-3.36,1.95-9.14,1.95-9.14S245.9,223,242.28,223.06Z"/><path class="cls-1" d="M260.31,242.16s3-9.87,2.8-11.73c0,0-16.25-8.32-17-4s-1.79,9.71-2.33,11a1.44,1.44,0,0,0-.12.85c.33,1.78,4.36,2.48,7.42,2.8,1.53.16,3.09.34,4.67.54Z"/><path class="cls-1" d="M222.85,238.51a22.32,22.32,0,0,0,3.68,4.05s6.29,5.39,13.72,4.49c.89-.1,1.16-.38,1.27-.6.2-.46-.13-1.07-1-2.11-1.66-2.08-3.17-4-5.85-4.8-1.6-.49-2.12-.13-5.06-.21A35.33,35.33,0,0,1,222.85,238.51Z"/><path class="cls-1" d="M240.75,242.16s2.89,6,6.4,5.38c0,0,1.84-.12-4.43-5.84C242.72,241.7,240,239.74,240.75,242.16Z"/><path class="cls-1" d="M247.4,241.64s-2.28-.63-1,1.19,3.43,4.16,3.57,5.39c1.3,0,2.69.12,4.15.27,1.67.17,3.23.4,4.67.67.29.25.69.52,1,.4.68-.26.47-2.16.43-2.54a4,4,0,0,0-1.19-2.85,3.82,3.82,0,0,0-1.7-.55l-3.29-.67C252.84,242.67,250.84,242.25,247.4,241.64Z"/><path class="cls-1" d="M239.19,222.26a29.75,29.75,0,0,0-8.57-3.8c-3.16-.82-6.55-1.7-8.31.09a4.84,4.84,0,0,0-1.06,3.71s-.28,6.19-1.86,8.22,1.6,9.58,16.62,7.26a20.83,20.83,0,0,1,1.06-6c.62-1.85,1.2-2.69,1.68-4.6A16.37,16.37,0,0,0,239.19,222.26Z"/><path class="cls-1" d="M240.32,202.49s6.13,17.59,7,10.13c0,0,10.29-28.89,10.44-32.34,0,0,0-3.77,4.69-12.88,0,0,.26-4.39,3.24-13.19,0,0,.8-5.14,2.08-6.79,0,0,2.94-2.32-1.1-5.38,0,0-4.31-7.28-5.56-3.11C261.1,138.93,241.87,202.72,240.32,202.49Z"/><path class="cls-1" d="M202.5,202.69s1.14,6.74-9.71,0c0,0-3.59-.78-4.47-10.59,0,0-.61-2.36,2.28-.52,0,0,3.41,2.28,19.78,5.69,0,0,18.64,5.51,24.15,6,0,0,3.6-.62,7,5.69s1.83,6.3-.53,5.6a7.45,7.45,0,0,0-3.68-.35c-5.4-.31-6.89-1.4-7.18-2.39a5.22,5.22,0,0,1,.09-3.39c1.23-4-4-4.38-4-4.38s-13.83-3-17.33-4.37S202.06,199,202.5,202.69Z"/><path class="cls-5" d="M280.32,176.72S174.86,132.84,141.9,131.46l-5.35,11c2,.19,5.09.5,8.81,1a196.66,196.66,0,0,1,48.38,13.56c19.6,7.86,47.78,18.4,83.18,31.84Z"/><path class="cls-8" d="M211.77,110.81c-4.06,6.63-9.77,16.4-15.88,28.65-16,32.1-13.4,38.31-12,40.6,1.83,3.07,9.75,5.48,25.52,10.17,21.14,6.29,24,5.89,26.41,4.64,6.53-3.37,7-11.35,11.24-27.48a263.37,263.37,0,0,1,12.81-36.86,116.76,116.76,0,0,0-48.07-19.72Z"/><path class="cls-3" d="M203.26,136.47s33.32,8.9,52.15,18.51"/><path class="cls-4" d="M187.55,171.44s4.79-1.68,34.41,7.78c0,0-29.56-13.72-32.8-12.48Z"/><path class="cls-3" d="M249.25,175.44l-24.18-9.68q-1.87,6.83-3.74,13.64"/><path class="cls-9" d="M222.08,179.71a113.15,113.15,0,0,0-34.53-8.27"/><path class="cls-3" d="M220.12,117.82s-7.89,19.73-8.19,21.11"/><path class="cls-3" d="M226.3,119.34s-7.14,15.9-8.68,21.31"/><path class="cls-3" d="M231.42,120.87s-7.11,13.52-8.21,21.55"/><path class="cls-3" d="M236.1,122.5s-7,16.64-7.85,21.59"/><path class="cls-2" d="M168.32,88.47a317.62,317.62,0,0,0-18.55,29.14c-2.77,5-5.46,10.1-7.88,15.29s-4.78,10.43-6.93,15.75-4.24,10.66-6.11,16.08-3.6,10.88-5.09,16.4c-.75,2.76-1.35,5.55-1.88,8.34a53.43,53.43,0,0,0-1,8.42c-.08,2.79.1,5.68,1.4,8a5.19,5.19,0,0,0,3.1,2.39,9.72,9.72,0,0,0,4.23.05,9.53,9.53,0,0,1-4.35.54,5.94,5.94,0,0,1-3.89-2.36,11.63,11.63,0,0,1-1.83-4.18,21.61,21.61,0,0,1-.41-2.22L119,199l-.07-1.11a71.66,71.66,0,0,1,1.8-17.5,198.77,198.77,0,0,1,10.54-33.29c2.25-5.37,4.62-10.69,7.24-15.89s5.47-10.3,8.59-15.21A173.06,173.06,0,0,1,168.32,88.47Z"/><path class="cls-3" d="M117.51,224.49s-3.44,4-1,7.73"/><path class="cls-2" d="M111.9,256.68s-1.1-4.71,4.59-10.06c0,0,.92-.51,0-1.68s-5.86,4.1-7.62,8.12,8.79,25.44,14.15,28.37a174.49,174.49,0,0,1-1.87,23.69s-1.11,4.34,5,9.19c0,0-1,8.92,3.18,15.25a35.45,35.45,0,0,0,1.88,3c2.74,4,5.15,5.63,7.26,7.9a25.92,25.92,0,0,1,5.39,9.05s10.55,21.61,37.37,18.44,32-41,32-41,1-10.55-8.69-18.87c0,0,6.82-11.05-.25-22.1,0,0-3.85-10.55.87-14.65,0,0,4.75-.77,6.12-3.31l-3.88-4.73s-12.12,9.57-4.85,23.93.75,17.63.75,17.63-6.46-9.68-8.57-9.31c0,0-3.67-9.93-11.46-15,0,0-3.56-5,1.78-14.4,0,0,11.67-13.51.49-21.34,0,0-9.06-6.1-15.89,8.3,0,0-1.74,5-2.61,8.69,0,0-6.2,11.8-16.51-1.61a55.46,55.46,0,0,1-7.2-13.66c-3-8.19-13.28-5.55-13.28-5.55s-9.56,1.7,6,25.91c0,0-12.32,6.62,5.4,26.58,0,0-14.52,30.56,8.85,49.83,0,0,2.45.72-.25-2.83,0,0-12.28-12.63-10-25,0,0,10.9,18.61,14.83,17.4,0,0,1.59-.34-1.4-2.8S141.72,317,141,306.63c0,0,8.78,17.83,13.88,17.31,0,0,1.49-.62-1.85-3.17,0,0-10.54-10.89-10.1-19.41,0,0,.18-1.76,1.23.44,0,0,4,5.89,6.59,7.2,0,0,1.58.09,1.4,2s6.11,16.07,16.26,16c5.56,0,9.31-4.29,9.8-4.88.36-.42,4.6-5.53,2.68-8.9a4.59,4.59,0,0,0-2.12-1.82s5.74-3.47.94-12.77c0,0-3-5.71,1.73-9,0,0,2.83-1.23,2.35-5.21,0,0,4.09,1.63,9,10.93,0,0,1.43,11-1.94,13.68s.46,2.59.46,2.59,3.06-.07,3.73-9.83c.06-1.66.44-2.1.75-2.22,1.24-.47,3.82,3.23,5.11,5.73a14.27,14.27,0,0,1,1.82,5.64,14.61,14.61,0,0,1-.48,5,22.3,22.3,0,0,1-3.74,8s5.38.48,5.79-10.85c0,0,7.12,1.63,5.72,14.83,0,0-6.42,39.13-30.84,37.15s-26.05-4.79-34.11-19.63a14.64,14.64,0,0,0-6-7.55s-10.71-9.2-11.39-21.18a2.1,2.1,0,0,1,.14-1.26,2.16,2.16,0,0,1,.83-1,22.69,22.69,0,0,0,3.23-4c1.55-2.3,3-5.23,2.44-7.73,0,0-2-2.78-2.44,1.6s-4.38,7.2-4.38,7.2-4.32-3-4-6.57,3.95-25.06.78-30.4-1.63,2.18-1.63,2.18S113.93,270.14,111.9,256.68Z"/><path class="cls-7" d="M152,279.82s-4.82-4.81-2.41,3.47-2.3,5.41-2.3,5.41-4.94-2.1-.57-9.15-1.46-13.6-4.62-13.36-9.31,4.21-7.77,10.2,4.72,12.23,8.71,15.79a6.2,6.2,0,0,1,1.29,3.4c.14.76,1.95,9.67,10.16,13.12a17.08,17.08,0,0,0,11.29.54,6.57,6.57,0,0,0,2.66-4.69,6.71,6.71,0,0,0-2.19-4.64c-3.56-4-7.26-3-11.09-6.68a14.05,14.05,0,0,1-3-4.19s.25-.75,2.24.93a21.69,21.69,0,0,0,4.86,2.87s13.08,6.25,11.56,13.27c0,0,7,4.49,7.09,1.44s-4.25-15.66,2.59-19.67c0,0,3.81-2.36,0-10.82,0,0-3.36-6,4.27-12.88s2.89-17.84-1.3-18.45-8.61-3.2-14.1,15.78c0,0-5.64,14.87-21.2.84,0,0-5.23-7-6.78-13.65s-6.93-6.9-10.52-5.49-.23,15.25,6.25,22.49c0,0,12.58-5.83,12.66,10.35C149.81,276.05,155.81,281.75,152,279.82Z"/><path class="cls-1" d="M170.31,307.88s-5.09,7.49-15.85,2.9a17.63,17.63,0,0,0,3.33,7.36c.86,1.09,5.37,6.87,12,6.37,4.39-.33,9.62-3.41,9.77-7.13.15-3.42-4-6.4-5.58-7.51A17.09,17.09,0,0,0,170.31,307.88Z"/><path class="cls-2" d="M163.5,285.56a15.55,15.55,0,0,1-.22-5.85c.49-5.91-3.05-5.71-2.95,3.45,0,0,2,9,3.07,8.9.06,0,.25-.06.47-1C164.36,288.88,163.81,287.41,163.5,285.56Z"/><path class="cls-2" d="M307.67,139.71s4.43,5.57,20.15,2.09c0,0,2.92-1.22,5.29-.47,0,0,11.82-6.77,14.6.89,0,0,7.51.12,9.88,1.87,0,0,62.57-42.24,80.27,24.48a22.26,22.26,0,0,0,5.95,1.44c2.65.12,6.38,1.33,17.82,15.41,0,0,2.49,2.08,12.74,7.48s14,6.49,19.4,14.43a21.23,21.23,0,0,0,5.66,5.3c1.3.83,2.28,1.4,2.47,1.5,8.47,4.51,13.9,22.94,13.9,23a72.88,72.88,0,0,1,9.58,16.76,61,61,0,0,0,2.89,6.59,59.87,59.87,0,0,0,5.42,8.65,39.18,39.18,0,0,1,7.66,8.89c2.6,4.13,4.85,7.72,4,12a11.82,11.82,0,0,1-3.48,6.2c-2,2.39-5.4,6.39-9.33,11.55-6.59,8.66-9.17,13.19-12.21,12.75-1.12-.17-3-1.1-4.76-6.13,0,0-.14-.77-1.67-2.3,0,0-4-3.21-5.71-5.85s-13.36-7.65-13.36-12.8c0,0-8.77-16.29-13.22-19.9s-14-7.16-14.65-17.5c0,0-4-12.08-7.62-12.18s-12,5.46-12,5.46-5.15,3.76-8.63.42c0,0-5-2.51-7.37-.28,0,0-6.4,2.5-10.3-2.09,0,0-5.71-3.34-8.91-1.25s-9.74-.56-22.54-10.72c0,0-6.6,2.27-15.23-2.93,0,0-4.25,4.52-6.31,17.4,0,0,6.31,7.4,8.09,12.88,0,0,2.21.12,15.11,10.85,0,0,3.69-.67,12.4,7.54,0,0,14.59,6.64,21.34,22,0,0,22.3,36.69,32.5,54.87,0,0,5.95,9,8.68,10.83s10.38,10.93,18,31.55c0,0,28.15,33.64,22.11,42.52s-28.32,40.4-41.73,25.86-12.46-10.38-21-25.48c0,0-8.3-12.11-9.86-19.35,0,0-3-5-5.54-6s-2.7-4-2.7-4a8.08,8.08,0,0,0-6-5c-4.83-1.2-7.46-8.92-8.09-12.36s-5.4-7.37-5.4-7.37a17.63,17.63,0,0,1-5.69-8.44c-1.77-5.6-3.93-.59-3.93-.59s-35,51.73-62.3-37.76c0,0-8.42-6.86-13.33-15.26,0,0-2.8-5.18-6.3-4.9S301.1,309,300,305.62a16.37,16.37,0,0,1-5.51-.88c-1.79-.61-4.44-1.9-10.05-8.28a95.81,95.81,0,0,1-7-9,19.71,19.71,0,0,1-19.75,2.67c-9.59-4.06-11.52-14-11.65-14.74l2.76-3.73s2.18,10.11,10.46,13.69c5.26,2.28,10.46.56,19.09-2.39a116.06,116.06,0,0,0,19.83-9.25c.09.16-11.34,7.44-13.81,9.28-.67.5-.8.69-2,1.56a7.25,7.25,0,0,0-1.68,1.5c-.72,1.36,3.75,5.5,10.18,10,4.59,3.19,5.56,3.34,6.21,3.38,3.41.19,5.52-2.44,10.69-6.88,6.14-5.28,11.57-8.86,11.78-8.63s-6.87,6-15,15.9c-1.36,1.65-2.46,3.06-3.24,4.08A39.5,39.5,0,0,0,315,318.37s3.64-.46,15.45,14.54c0,0-1.17-14.61-4.12-16.88s-9.08-34.5-7.72-36.77-6.35-29.67-6.35-29.67-12.35-6.51-5.12-11.85c0,0-11.28.53-12.48-13.33s4.62-19.66,16.07-18.46,18.3,17.61,10.78,24.11c0,0-1.37,1.45,2.3.85,0,0,8.8,20.45,10.36,36.51,0,0,16.28,78.26,22.52,83.61,0,0,10.45,22.33,25,14.68,0,0,20.22,7.78,20.61,14.65,0,0,3.62,10.88,12.57,11.66l7.41,15.19a18.23,18.23,0,0,0,3.21,3.22c1.17.64,3.12,3.37,4.28,5.7a2.85,2.85,0,0,0,1,.52,7.23,7.23,0,0,1,3.24,4.27s8,10.89,8,14a5.75,5.75,0,0,0,2.6,4.67s2.2.64,2.72,4.66c0,0,9.2,13.35,14.64,17.89s9.85,16.59,27.61-5.58,18.66-16.84,11-29.93c0,0-12.32-20.09-16.72-25.41,0,0-9.31-25.85-15.3-27.3,0,0-21.27-24-20.51-30.2a52.43,52.43,0,0,0-4.64-8,98.41,98.41,0,0,1-8.67-14.35c-3.42-6.59-16.52-38.8-40.72-35.71,0,0-5,1-1.5-2.17,0,0,3-2.25,11.68,1.59,0,0,3.84.66-.67-1.59s-8.26-7-14.85-8.18c0,0,3.51-.16-.66-1.66S374.57,265,374.57,265l-5.12-.72a7.74,7.74,0,0,0,4-1.32,6.77,6.77,0,0,0,1.05-.88,49.28,49.28,0,0,0-3.11-5.38c-2.08-3.13-3.36-4.27-4.56-5.06a13.06,13.06,0,0,0-1.21-.69c.55-2.28,1.23-4.68,2.06-7.18a92.35,92.35,0,0,1,5.3-12.69c-.41-2.59-1.09-6.28-2.19-10.65-2.14-8.48-4.53-14.1-4.33-14.19s2,3.84,9.38,21.18a7.88,7.88,0,0,0,14.11,2.66,6.32,6.32,0,0,0,.57,3.59,7.05,7.05,0,0,0,3.4,3,42.14,42.14,0,0,1,8.12,5.69,3.25,3.25,0,0,0,2.07.13c1.34-.27,3.94,1.38,3.94,1.38s1,.7,3.61,0,8.68.31,12.36,3.3,7-.34,7-.34,2.74-2.8,7.48,1.67,20-10.55,24.92-4.14L470,255.82s-2.07,2.34.94,5.14,9.55,9.82,10.15,10.36a79.14,79.14,0,0,1,16.43,20.77c6.68,12.36,10.09,6.08,15,15.43a46.15,46.15,0,0,1,6.07,6.85c2.34,3.44,4.88,4.77,15.3-10.59s14.17-12.71,1.36-30.69-11.89-19.88-11.89-19.88-4.67-13-7.9-14.46c0,0-5-13.11-6.29-13.38s-.45-.18-.45-.18-2.42-6.39-5.3-6.66c0,0-2.24-5.2-6.37-5.29,0,0-.9-4.4-4.58-4.94,0,0-2.11-6-5.86-4.94,0,0,.74-3.68-4-3.68a3.82,3.82,0,0,0-4.67-2.78s-14.34-5.8-21.48-14.73c-3.39-4.23-5-6.41-7.14-8-2.74-2-6.08-3-12.61-5-8.28-2.51-11.78-2.83-13.4-5.88-.46-.85-.85-2.08-2.15-4.29a34.24,34.24,0,0,0-2.78-4.06c-5.57-7.28-11.49-9.38-14-10.07,0,0-11.72-3.2-28.84,6.64a38.51,38.51,0,0,0-4.35,2.55c-3.42,2.33-11.08,5.18-25.58,20.25,0,0-.73.84-1.39.62s3.25,6.81-3.22,5.63c0,0-.82-.7-.47,2.23s-1.52,18.33-17.39,12.81-10.69-34.07,6.7-27.14c0,0,2.09.15-1-3,0,0,3-4.38,4.66-2.19,0,0,13.8-12.67,22.75-18.09a9.69,9.69,0,0,0-8.14,0s-2.74-9.7-13.53-2.74c0,0-18.73,5.1-26.77-.1Z"/><path class="cls-1" d="M390.33,373.85S393.44,376,394,376,393.22,386.49,390.33,373.85Z"/><path class="cls-1" d="M382.61,370.1s2.68-1.5,3.54,1.92,4.18,10.4,4.18,10.4-3,5.57-3.86,1.07S382.61,370.1,382.61,370.1Z"/><path class="cls-1" d="M384.11,387.67S381,366,378,371.81c0,0,.85,16.18-.65,18.33S384.11,387.67,384.11,387.67Z"/><path class="cls-1" d="M365.79,389.28s7.29,4.5,8.14.86.65-14.31,1.72-17.6c0,0,1-2.44-3.22-1.16C372.43,371.38,367.18,382.42,365.79,389.28Z"/><path class="cls-1" d="M364.18,368.27c1.74.24,4.29.81,4.72,2.33.26.9-.38,1.61-1.35,3.17-.77,1.24-2,3.94-4.42,9.36-1.31,2.93-1.77,4.19-2.58,4.19s-.95-1.22-2.54-2.88c-2.11-2.2-3.67-2-4-3.22s1.14-2.87,3.67-5.55C359.2,374,361.48,371.52,364.18,368.27Z"/><path class="cls-1" d="M348.49,369.08a1.8,1.8,0,0,0-.88,1.23c0,.68.61.92,1.34,2a23.36,23.36,0,0,1,1.27,3.21h0s.78,3.46,2.83-.55,9.06-10.08,9.06-10.08-1.74-5.51-4.49-3.39S348.86,368.8,348.49,369.08Z"/><path class="cls-1" d="M353.4,354.15s1.47-1.66,2.94,2.27c0,0,.61,1.41-1.47,2.45s-8,6.5-8,6.5-1.41,1.66-1.9-.37a9.1,9.1,0,0,0-1.53-3.12c-1-1.23,1.1-2,1.1-2A60.5,60.5,0,0,0,353.4,354.15Z"/><path class="cls-1" d="M350.58,345.62s4.1,4.66,1.34,5-9.38,6-9.38,6a1.46,1.46,0,0,1-1.24.18c-1.25-.5-1.06-3.51-2.44-4.9h0c-.12-.23,3.25-2.33,6-3.73A46.44,46.44,0,0,1,350.58,345.62Z"/><path class="cls-1" d="M336.85,341.16s-.4,7.36,2.48,5.6,8.07-3,9.83-4.32-.4-4.71-.4-4.71S347.72,335.25,336.85,341.16Z"/><path class="cls-1" d="M334.93,335.09s0,4.87,2.56,2.8,8.38-3.28,8.38-3.28a1.63,1.63,0,0,0,1.16-.53c.18-.23.31-.58-.13-2.79-.3-1.49-.42-1.67-.6-1.78-.55-.36-1.41,0-2.49.62C340.77,331.89,339.35,331.08,334.93,335.09Z"/><path class="cls-1" d="M332.85,326.28s-.53,3.28.91,4.06c.33.18.75.2,1.87-.11a15.76,15.76,0,0,0,3.84-1.61c3.48-1.91,5.85-1.79,6-3a8.39,8.39,0,0,0-.33-1.57c-.24-1-.34-1.13-.46-1.23-.57-.47-1.74.08-2.09.21C340.19,324,337.08,323.8,332.85,326.28Z"/><path class="cls-1" d="M343,316.42a7.6,7.6,0,0,0-1.75-.35c-3.22-.24-5.37,1.78-8.34,3.14a6.93,6.93,0,0,1-1.66,1,1,1,0,0,0-.53.4,2.43,2.43,0,0,0,1.19,3.07c.59.19,1.11-.16,2-.64,2.26-1.26,5.67-.94,7.15-3.07,1.07-1.56,2.27-1,2.27-1S343.6,317.12,343,316.42Z"/><path class="cls-1" d="M328.34,312c.16,2.37.87,3.24,1.53,3.59,1.51.81,3.36-.87,8-2.26a32,32,0,0,1,3.8-.9c.12-1.43.24-4.31-1-4.8a1.49,1.49,0,0,0-1.25.18A116.35,116.35,0,0,1,328.34,312Z"/><path class="cls-1" d="M327.77,309.72s-3.49-4.56.57-5.25,9.8-3.94,9.8-3.94,2.56-2.08,1.94,3.66c0,0,.07.9-1.38,1S329.57,308.06,327.77,309.72Z"/><path class="cls-1" d="M324,298.73a14,14,0,0,1,.74,3.39c0,.33,0,.45.13.59.56.73,2.66-.29,7-1.85,5.36-1.93,6.34-2.51,6.75-3.64s.17-3-.64-3.35c-.62-.28-1.42.34-1.71.5C333.72,295.82,325.84,296.79,324,298.73Z"/><path class="cls-1" d="M322.56,291.81a21.11,21.11,0,0,1,1,4.27c.06,1.52,3.11-1.28,3.11-1.28a7.31,7.31,0,0,1,5.12-1.47c2.93.37,5.68-2.13,5.68-2.13s-.12-4.64-2.26-3.48a8.78,8.78,0,0,1-3.81,1.16s-3.33,0-5.28,1.89S323.3,290.89,322.56,291.81Z"/><path class="cls-1" d="M335.92,284.92s.37-5-2.32-4-9,3.17-11.28,3.72.18,2.26,0,4.39S330.74,285.65,335.92,284.92Z"/><path class="cls-1" d="M321,278.65a2.84,2.84,0,0,0,0,2.11c.14.72.25,1.37.69,1.53s.93-.27,1.93-.79c1.77-.92,9.15-2.62,10-2.75s1.1-1.15.31-3.29c0,0-1-1.25-7,1.16a14.79,14.79,0,0,1-3.38,1.22C322.18,278.1,321.38,278,321,278.65Z"/><path class="cls-1" d="M320.08,272.52a7,7,0,0,1-.26,2.62c-.42,1.43,1.28,2.16,2.74.38s5.25-.69,10.78-3c0,0,1.26-.84-1.48-3C331.86,269.52,324.92,270,320.08,272.52Z"/><path class="cls-1" d="M319,267.31s-1.52,3.93,1.73,3,3.14-1.2,10-3c0,0,2.77-.31.26-3.35C331,264,324,264,319,267.31Z"/><path class="cls-1" d="M317.49,261.76s-.52,4.5,3.88,2.62A58.31,58.31,0,0,1,330,261.5s2.14-.58,0-3.87C330,257.63,327,257.21,317.49,261.76Z"/><path class="cls-1" d="M316.55,257.05s.42,4.55,3.2,1.83,8.53-2.56,9.68-3.92-.63-3-.63-3S323.25,252.29,316.55,257.05Z"/><path class="cls-1" d="M317,250.77s-1.25.47-.94,2.88a1.45,1.45,0,0,0,.55,1.06c.85.55,2.14-.86,4.4-1.92,3.48-1.62,5.78-.8,6.58-2.4a3,3,0,0,0,.2-2.34C327,245.48,320.48,250.19,317,250.77Z"/><path class="cls-1" d="M324.6,241.73c1.23,1.72,1.18,2.73,1,3.3-.72,1.92-4,.83-7.56,3.59-.55.43-1.27,1.08-2.05.9s-1.34-1.49-1.56-2.23C313.39,244,323.27,243.73,324.6,241.73Z"/><path class="cls-1" d="M323.18,234.11s4.77,5.11.76,6.2a18.87,18.87,0,0,0-2.58,1.42c-1.55,1-6.6,1.27-9.3,3.91s-4.76-4.24-4.76-4.24-.26-.78,1.11-1.22S318,235.15,323.18,234.11Z"/><path class="cls-1" d="M308.68,236.45c1.85.54,3.53-.1,6.21-1.14,2.32-.91,3.48-1.36,4.16-2.53.89-1.53.44-3.27-.32-6.24a13.61,13.61,0,0,0-1.82-4.74,11.91,11.91,0,0,0-6.06-4.39c-2.15-.77-4.36-1.57-6.45-.55-2.87,1.4-3.55,5.32-3.46,7.57s1.08,3.92,2.81,6.72C305.66,234.22,306.67,235.86,308.68,236.45Z"/><path class="cls-1" d="M321.31,227.4c.73,0,1.26-2,1.35-2.31.93-3.48-.65-6.7-1.2-7.78-.33-.65-5-9.47-13.63-9.13a13.83,13.83,0,0,0-9.44,4.63c-5.13,6.1-3.16,15.79,1.37,19.88,2,1.8,5.1,3.08,5.45,2.62s-1-1.71-1.92-2.69c-3.29-3.39-6.22-12.57-2.21-17.18,2.43-2.8,7.09-3.55,10.5-2.32,4.14,1.5,6.13,5.78,7.07,7.82C320.21,224.32,320.39,227.4,321.31,227.4Z"/><path class="cls-1" d="M428.88,160.71a21.63,21.63,0,0,1,5.33.27h0c1.41,2.71,2.71,5.68,1.91,6.33-.31.25-.76,0-2.15-.4-3.49-1.07-3.7-.64-5.69-1.47-1.23-.5-4-1.63-3.86-2.77S427.35,160.89,428.88,160.71Z"/><path class="cls-1" d="M422.34,157s-1.34,2,1.46,2.16,9.3-1.86,9.3-1.86-2.38-7.1-4.13-5.53S422.34,157,422.34,157Z"/><path class="cls-1" d="M420.42,154.86c.67.09,1-1.2,2.44-2.66,1.08-1.11,1.33-.81,2.2-1.79.6-.66,2.29-2.3,1.53-3.84-.66-1.31-1.37-2.06-2.16-2.12-.51,0-1,.2-3.54,3.58-2,2.69-2.66,3.77-2.3,4.62a7.09,7.09,0,0,0,.81,1.19C419.91,154.5,420.17,154.82,420.42,154.86Z"/><path class="cls-1" d="M412.83,148c.4.52,2,2.49,3.17,2.1.62-.21.87-1,1.12-1.71a43.62,43.62,0,0,1,2.48-5.74,1.37,1.37,0,0,0,.31-.54c.28-1-.82-2.18-1.67-2.73-.52-.33-1.38-.87-2.1-.58-1,.39-.94,2-1.41,4.09A20,20,0,0,1,412.83,148Z"/><path class="cls-1" d="M410.35,135.21s5.45-.34,2.92,5.12-.58,7-2.92,5.6S409.13,145.3,410.35,135.21Z"/><path class="cls-1" d="M404.85,143.43c.64.57,2.08,1.76,2.7,1.35.38-.24.31-1,.28-1.32-.45-5.11,1-7.56-.61-8.81-.94-.72-2.49-.75-3.06-.11s.23,2.07.62,4.71A16.07,16.07,0,0,1,404.85,143.43Z"/><path class="cls-1" d="M402.79,143.44s1.76-9.5-2.4-9.84-.58,5.73.4,9.84A1.86,1.86,0,0,0,402.79,143.44Z"/><path class="cls-1" d="M392.48,134c-.55.54.5,1.91,1.91,5.56.83,2.17,1,3,1.84,3.39,1.11.54,2.87.2,3-.33a.36.36,0,0,0-.06-.31,9.69,9.69,0,0,1-.68-1.32,11.15,11.15,0,0,1-.64-2.61c-.43-2.52-.66-3.79-1.32-4.17a6.69,6.69,0,0,0-1.78-.21C393.33,133.91,392.62,133.86,392.48,134Z"/><path class="cls-1" d="M387.6,138.48c2.06,3.35,1.67,5.13,3,5.59.54.18,1.63.24,3.59-1.54-.09-.46-.23-1.09-.44-1.83-.75-2.56-1.62-5.71-3.49-6.14a7.69,7.69,0,0,0-2.05.2c-1.26.2-1.89.3-2.08.63C385.75,136,386.64,136.93,387.6,138.48Z"/><path class="cls-1" d="M380.39,136.58c-.42,1.22,1.53,1.9,3.31,5.23.88,1.64,1.22,3,2.28,3.19a3.4,3.4,0,0,0,1.54-.24c.74-.24,1.34-.43,1.57-.86.5-.94-1.38-2-2.67-5-.6-1.41-.58-2.1-1.42-2.79a3.31,3.31,0,0,0-2.64-.75C382.07,135.37,380.72,135.66,380.39,136.58Z"/><path class="cls-1" d="M335.53,165.53a8.09,8.09,0,0,1,1.55-1.22c.65-.33,5,6.56,6.65,7.26,0,0,0,1.27-1.83,2.06C341.9,173.63,336.24,166.33,335.53,165.53Z"/><path class="cls-1" d="M338,163.05a6.43,6.43,0,0,1,2-1.74c.69.82,1.38,1.64,2.06,2.49,1.24,1.51,2.42,3,3.56,4.49a1.67,1.67,0,0,1,.59,1.27,1.58,1.58,0,0,1-1.1,1.35c-.88.2-1.8-.9-5.62-5.94C338.89,164.2,338.39,163.55,338,163.05Z"/><path class="cls-1" d="M341.2,160s1.22-1.83,2.2-.52,5,5.85,5,5.85a2.07,2.07,0,0,1-.47,3,.86.86,0,0,1-.36.17c-1,.2-2.23-2.59-4.19-5.55A36.31,36.31,0,0,0,341.2,160Z"/><path class="cls-1" d="M346.2,155.46s-1.6.57-1.81,1.8a2.85,2.85,0,0,0,.88,2.13c3.7,4.62,4,6.15,5.18,6,.4,0,1.31-.31,2.23-2.33-.64-1.05-1.23-1.9-1.71-2.54a29,29,0,0,0-2.78-3.27C347.41,156.49,346.71,155.88,346.2,155.46Z"/><path class="cls-1" d="M347.69,154.13c.19-.33,1.17-2,2.46-2,.55,0,.86.35,2.11,1.83a30.28,30.28,0,0,1,3.87,6,1.15,1.15,0,0,1,.1.54,2.39,2.39,0,0,1-2.68,1.73c-.61-.17-.63-.68-1.57-2.15s-1.19-1.41-2.66-3.46C348.92,156,348.34,155.19,347.69,154.13Z"/><path class="cls-1" d="M354.06,149s-2,1.13-2.1,2.26,2,1.93,4.88,7.68c0,0,1.85,3.25,4-1.77C360.85,157.2,355.71,149.34,354.06,149Z"/><path class="cls-1" d="M360.85,155.46a1.36,1.36,0,0,0,.39.77c.9.76,3.48.05,3.93-1.23.53-1.54-2.19-3.35-4.15-6.45a23.94,23.94,0,0,1-1.65-2.54c-.17-.37-.24-.56-.45-.66-.9-.41-3.23,1.5-3.09,3.13,0,.56.35.62,1.58,2C359.41,152.78,360.4,153.92,360.85,155.46Z"/><path class="cls-1" d="M360.13,145.27c.32-.52,1.5-2.28,2.76-2.1.55.08.88.51,1.45,1.28,3.66,5,3.36,5.93,4.89,7.11.24.18.88.65.78,1s-.56.35-1.39.66c-1.3.47-1.32.8-1.79.85-1.17.13-2.22-1.74-4.46-5.31C361.4,147.25,360.61,146,360.13,145.27Z"/><path class="cls-1" d="M365.24,143.22s-.95-1,1.94-2.41,4.77,7.41,7.05,8.61-3.29,2.72-3.29,2.72S369.4,150.92,365.24,143.22Z"/><path class="cls-1" d="M374.26,138.56c.44.2.59.51,1.2,1.58,0,0,1.12,1.94,2.61,4.25,1.28,2,1.94,2.64,1.65,3.32-.2.48-.76.72-1.37,1a4,4,0,0,1-2.13.35c-1.14-.2-1.78-1.18-2.92-2.92-.95-1.45-.64-1.43-1.91-3.59-.77-1.31-1-1.57-.95-2.07C370.64,139.12,372.92,138,374.26,138.56Z"/><path class="cls-1" d="M375.91,137.66c.06-.14.2-.29,1.44-.7a3.92,3.92,0,0,1,1.71-.38c.15,0,.59.19,1.31,1.51a11.5,11.5,0,0,1,1,2.56,29.08,29.08,0,0,0,2.8,3.76.93.93,0,0,1,.31.6c0,.57-.74,1-1.23,1.32a2.79,2.79,0,0,1-1.9.61,2.49,2.49,0,0,1-1.48-1.2c-2.26-3.11-1.84-3.94-3.49-6.49C376.13,138.83,375.67,138.15,375.91,137.66Z"/><path class="cls-1" d="M330.77,166.35c.2-.5.81-1.83,1.72-1.88.68,0,1.23.64,1.49,1,2.25,2.78,4.44,5.62,6.69,8.4,1.24,1.52,2.28,2.59,2.06,3.94-.1.63-.51,1.5-1,1.52s-.77-.66-.91-.91c-1.61-3-4.53-5.18-6.69-7.87C333.38,169.57,332.22,168.13,330.77,166.35Z"/><path class="cls-1" d="M331.75,170.49s4.13,6.22,6.77,7.33-8.08,14.66-15.13,6.86S325.72,170.75,331.75,170.49Z"/><path class="cls-1" d="M324.3,170.94s2.85-1.49-.91-1.39-14,7.7-5.07,20.2,19.89,2.07,20.61-4c0,0,.25-4-2.85.94s-10.39,7.26-15.2.43S318.21,173.7,324.3,170.94Z"/><path class="cls-2" d="M505.53,440.69a74.65,74.65,0,0,1,14.69,6.65,81.63,81.63,0,0,1,13.1,9.41c2,1.77,4,3.63,5.84,5.59a64,64,0,0,1,5.28,6.2,20.85,20.85,0,0,1,3.62,7.38,13.09,13.09,0,0,1,.31,2.07c0,.35.07.7.09,1.05s0,.71,0,1.06a17,17,0,0,1-.73,4.18,22,22,0,0,1-4,7.42,67.36,67.36,0,0,0-4.64,6.22,36.26,36.26,0,0,0-1.89,3.27c-.27.56-.55,1.11-.76,1.66-.11.28-.23.55-.31.83l-.13.41-.07.2-.11.32a9.1,9.1,0,0,1-.6,1.31,9.32,9.32,0,0,1-.9,1.17c-.36.31-.73.64-1.11.92s-.81.45-1.22.66a11.43,11.43,0,0,1-4.83.74,20.58,20.58,0,0,1-8.41-2.47,20,20,0,0,1-1.86-1.08,17.7,17.7,0,0,1-1.76-1.21c-1.15-.84-2.21-1.91-3.08-2.65s-2-1.46-3.12-2.22-2.17-1.46-3.29-2.14a73,73,0,0,0-7-3.71l.12-.38a39.69,39.69,0,0,1,7.8,2.25c1.26.5,2.52,1.08,3.71,1.69a31,31,0,0,1,3.67,2c1.25.87,2.15,1.61,3.23,2.25.52.33,1,.65,1.6.93a17,17,0,0,0,1.67.79,18.9,18.9,0,0,0,6.89,1.7,7.94,7.94,0,0,0,3-.43,2.62,2.62,0,0,0,1.56-1.51c0-.05,0-.06.07-.14l.1-.27.2-.53c.13-.36.28-.69.44-1,.29-.68.64-1.3,1-1.93a38.16,38.16,0,0,1,2.31-3.52,49.39,49.39,0,0,1,5.36-6.22,21.28,21.28,0,0,0,4.38-6,12.42,12.42,0,0,0,1.06-7.34,15.17,15.17,0,0,0-3.32-6.85c-3.31-4.06-7.9-6.87-12.16-10-2.17-1.55-4.26-3.18-6.34-4.76s-4.21-3.13-6.36-4.65c-4.3-3.05-8.74-5.9-13.2-8.9Z"/><path class="cls-2" d="M535.08,458.87a81.12,81.12,0,0,1,6.25,5.48c2,1.94,3.91,3.91,5.84,5.91a50.91,50.91,0,0,1,5.38,6.54,17.29,17.29,0,0,1,2.92,8.39,20.55,20.55,0,0,1-1.3,8.79,43.79,43.79,0,0,1-3.85,7.72c-1.48,2.42-3.07,4.67-4.61,7a62.69,62.69,0,0,1-5.16,6.82,19.09,19.09,0,0,1-3.46,3,13.9,13.9,0,0,1-4.38,1.94,13.39,13.39,0,0,1-4.85.27,17,17,0,0,1-4.44-1.4,53.51,53.51,0,0,1-7.35-4.4c-2.3-1.56-4.55-3.17-6.78-4.79-8.88-6.53-18.15-12.42-27.13-18.91A314.23,314.23,0,0,1,511,507.53L518,512a50.9,50.9,0,0,0,7,3.87,15,15,0,0,0,3.44,1,9.49,9.49,0,0,0,3.35-.23,12,12,0,0,0,5.87-3.87,61.5,61.5,0,0,0,4.88-6.33c1.57-2.25,3.15-4.52,4.63-6.76a40.41,40.41,0,0,0,3.77-6.94,19,19,0,0,0,1.47-7.38c0-5.08-3.29-9.54-6.68-13.82S538.86,462.91,535.08,458.87Z"/><path class="cls-2" d="M545.54,288.71a4.09,4.09,0,0,0,1.33,5.72,25.59,25.59,0,0,0,6,2.86c4.23,1.55,8.58,2.94,12.84,4.63,2.13.83,4.25,1.72,6.33,2.68s4.15,1.89,6.22,2.91a52.85,52.85,0,0,1,6.08,3.46,20.7,20.7,0,0,1,2.88,2.28,7.39,7.39,0,0,1,2.19,3.61,4.63,4.63,0,0,1-.15,2.45,6.26,6.26,0,0,1-1.11,1.93,12,12,0,0,1-3,2.49,24.85,24.85,0,0,1-6.69,2.7,32.24,32.24,0,0,1-7.05.94,25.1,25.1,0,0,1-3.57-.16,19.61,19.61,0,0,1-3.53-.76c-4.46-1.41-8.59-3.16-12.84-4.88-2.1-.91-4.18-1.86-6.22-2.89s-4-2.2-6-3.31l3.17,1.27c1,.43,2.09.88,3.16,1.28,2.12.8,4.25,1.57,6.4,2.27s4.32,1.39,6.48,2.08,4.32,1.4,6.46,1.92a25.65,25.65,0,0,0,12.8-.51,23,23,0,0,0,5.89-2.45,9,9,0,0,0,2.22-1.86,3.3,3.3,0,0,0,.58-1,1.73,1.73,0,0,0,0-.9,4.57,4.57,0,0,0-1.36-2.11,17.83,17.83,0,0,0-2.43-2A59.33,59.33,0,0,0,577,310c-4-2.1-8.06-4.09-12.16-6s-8.32-3.53-12.5-5.43c-1-.49-2.07-1-3.08-1.57a15.23,15.23,0,0,1-2.89-2,5.14,5.14,0,0,1-1.78-3.08A4.74,4.74,0,0,1,545.54,288.71Z"/><path class="cls-2" d="M588.71,315.93s14.88,33.47,1.27,35c-1,.51-2.56,1.28-4.5,2.15a12.41,12.41,0,0,1-2.93,1.27c-2.62.66-6.12,0-17.92-1.85C548.49,350,544,349.6,534.3,344.8s-3.92-2.83-6.76-10.37c0,0-.68-1.08-.49-5.09s-4.6-8.22-3.42-11.74l1.37-1.67c.23,1,.6,2.56,1.15,4.38,1.07,3.61,2,5.49,2.75,7.73a42.38,42.38,0,0,1,2.07,9.23,5,5,0,0,0,.36,3.31c.65,1.21,2.06,2.4,5,2.85,6.95,1.08,9.49,4.21,24.47,6s34.35,4.86,32.88-9.68S588,318.07,588,318.07Z"/><path class="cls-2" d="M529.13,335.15c2.81.65,5.54,1.42,8.26,2.19,1.36.38,2.71.78,4.06,1.18s2.69.81,4,1.27a75.58,75.58,0,0,0,8.07,2.69,36.77,36.77,0,0,0,8.43.9c2.83,0,5.64-.1,8.41-.26a74.56,74.56,0,0,0,8.23-1,57.37,57.37,0,0,0,8-1.88,58.53,58.53,0,0,0,7.77-3.22l.18.24a26.32,26.32,0,0,1-7.05,5.16l-2,.94c-.68.27-1.38.5-2.08.76a17.11,17.11,0,0,1-2.11.64c-.71.2-1.43.38-2.15.51a40.22,40.22,0,0,1-8.74.68c-1.46,0-2.91-.11-4.35-.25s-2.87-.41-4.29-.69c-2.83-.57-5.63-1.13-8.45-1.59s-5.72-.65-8.55-1.24a31.6,31.6,0,0,1-4.16-1.14c-1.36-.46-2.71-.95-4-1.52a40.27,40.27,0,0,1-7.61-4.11Z"/><path class="cls-2" d="M500.88,423.5a80.86,80.86,0,0,1-7.24,12.75,102.88,102.88,0,0,1-9.11,11.52,75.85,75.85,0,0,1-10.93,9.93c-4,2.87-8.44,5.43-13.29,6.43a70.16,70.16,0,0,0,11.29-8.86c3.47-3.25,6.75-6.69,10-10.2s6.4-7.12,9.57-10.74S497.52,427.08,500.88,423.5Z"/><path class="cls-2" d="M503.92,429a60.27,60.27,0,0,1-6.26,12.58A79.38,79.38,0,0,1,489,452.74,65.25,65.25,0,0,1,478.28,462a45.44,45.44,0,0,1-12.72,6.09c3.78-2.83,7.41-5.53,10.8-8.58s6.64-6.17,9.73-9.49,6.1-6.74,9-10.25S501,432.67,503.92,429Z"/><path class="cls-2" d="M538.89,274.49c-4.17,6.28-8.66,12.26-13.1,18.27l-6.69,9c-2.21,3-4.43,6-6.58,9.11a66.25,66.25,0,0,1,5.29-10c2-3.21,4.15-6.28,6.38-9.31s4.58-6,7-8.81S536.17,277.11,538.89,274.49Z"/><path class="cls-2" d="M542.29,279.48c-1.95,3.13-4.09,6.1-6.21,9.07l-6.22,9c-2.1,3-4.29,6-6.67,8.78s-5,5.46-7.58,8c2-3.11,4.15-6.06,6.35-9s4.19-6,6.27-9,4.26-6,6.61-8.82S539.7,282.08,542.29,279.48Z"/><path class="cls-2" d="M515.89,237.12a13.62,13.62,0,0,1-1,3.38,13.39,13.39,0,0,1-1.74,3c-.73.92-1.67,1.69-2.42,2.56s-1.45,1.81-2.21,2.75a5.39,5.39,0,0,1-3.23,2.16,3.07,3.07,0,0,1-1.24,0,4.34,4.34,0,0,1-1.06-.48,6.87,6.87,0,0,1-1.47-1.28,11.16,11.16,0,0,1-3-6.45l.19-.06c.71,1,1.37,1.84,2.1,2.67.36.42.72.82,1.1,1.2l1.16,1.18a13.88,13.88,0,0,0,1.09,1,1.28,1.28,0,0,0,.93.36,6.24,6.24,0,0,0,2.7-1.1,8.55,8.55,0,0,0,2.43-2.33,22.4,22.4,0,0,0,1.53-3.06,13.23,13.23,0,0,1,.85-1.46c.3-.48.6-1,.94-1.42a20.21,20.21,0,0,1,2.17-2.72Z"/><path class="cls-2" d="M501.63,238.38a7,7,0,0,1,2.19,2c.27.42.46.89.76,1.29a6,6,0,0,0,1,1.05,14.76,14.76,0,0,1,2.11,2.07,11,11,0,0,1,1.54,2.56l-.08.06a10.88,10.88,0,0,1-2.27-1.93,14.19,14.19,0,0,1-1.71-2.41,5.69,5.69,0,0,0-.87-1.19c-.34-.36-.78-.63-1.15-1a7.12,7.12,0,0,1-1.62-2.48Z"/><path class="cls-2" d="M502.87,233.86a5.71,5.71,0,0,1,3.24,1.6,13.72,13.72,0,0,1,1.07,1.5c.34.49.71,1,1.08,1.44s.71,1,1,1.42a16.6,16.6,0,0,0,1.08,1.28,31.37,31.37,0,0,0,2.45,2.44l-.05.09a6.51,6.51,0,0,1-3.18-1.8,8.24,8.24,0,0,1-1.81-3.16,4.5,4.5,0,0,0-.85-1.51,7,7,0,0,0-1.37-1.07c-.9-.68-1.8-1.35-2.73-2.14Z"/><path class="cls-2" d="M507.85,231.51a4.88,4.88,0,0,1,2.21,1.61c.27.37.45.82.71,1.18a6.21,6.21,0,0,0,.94,1,8.44,8.44,0,0,1,1.76,2.1,6.58,6.58,0,0,1,.85,2.62l-.09.05a15.36,15.36,0,0,1-1.67-2.12c-.22-.37-.46-.74-.66-1.13a11.13,11.13,0,0,1-.62-1.19,4.37,4.37,0,0,0-.75-1.1,12.27,12.27,0,0,0-1.08-.82,7.57,7.57,0,0,1-1.66-2.11Z"/><path class="cls-2" d="M441.12,338.2c-.69-.08-1.92-.11-5.37,1.51a42.06,42.06,0,0,0-12.23,8.73c-6.77,7.05-10.28,10.71-10.78,16-.34,3.66.86,6.94,10.63,20.23,4.71,6.4,10.94,11.78,14.66,18.8.42.79,1.33,2.75,3.25,3.41,2.25.77,4.68-.61,8.21-3.13,10.6-7.61,11.58-11.64,19.31-18.68a10,10,0,0,0,1.88-2.65c1.66-3.23-2.15-8.26-3.73-10.45-16.05-22.25-14.25-19.06-15.77-21.51C446.9,343.58,445.33,338.71,441.12,338.2Z"/><path class="cls-1" d="M445.6,345.14a9.76,9.76,0,0,0-5.39-1.49c-2.39.09-4.14,1.19-8.59,5.09a103.65,103.65,0,0,0-11.79,12.48,9.45,9.45,0,0,0-2.39,5.4,7.66,7.66,0,0,0,.2,2.19q6.53-5.74,13.39-11.58Q438.38,351,445.6,345.14Z"/><path class="cls-1" d="M419.26,371.68a6.65,6.65,0,0,0,.72,2.05,6.83,6.83,0,0,0,1.37,1.76q5-5.1,10.73-10.35c6-5.46,11.87-10.33,17.51-14.65a4.5,4.5,0,0,0-.59-1.66,4.38,4.38,0,0,0-2-1.73S426.08,363.73,419.26,371.68Z"/><path class="cls-1" d="M422.62,377.2c.18.41.39.83.63,1.27a16.57,16.57,0,0,0,2.52,3.44q5.39-5.06,11.16-10.19,8.61-7.64,17-14.39s-.72-3.37-3.27-4.56C450.62,352.77,431.52,367.91,422.62,377.2Z"/><path class="cls-1" d="M427.77,384.31a9.24,9.24,0,0,0,3.09,4s16.16-14.82,28.28-24.48c0,0-1.52-3.57-4-4.52C455.1,359.35,431.17,379.56,427.77,384.31Z"/><path class="cls-1" d="M432.76,391.12a10.92,10.92,0,0,0,4.12,5.63,272.71,272.71,0,0,0,27.41-25,8.77,8.77,0,0,0-3.72-5.62S432.92,388.67,432.76,391.12Z"/><path class="cls-2" d="M449.66,400a8.47,8.47,0,0,1,1.87,3,12.69,12.69,0,0,0,.45,1.74,4.7,4.7,0,0,0,1,1.44c.42.42.84.84,1.21,1.28l.57.64a6.75,6.75,0,0,1,.57.63l2.16,2.73-.07.13a6,6,0,0,1-3.29-1.79,8.53,8.53,0,0,1-1.09-1.51,7.28,7.28,0,0,1-.76-1.68,6.81,6.81,0,0,0-.76-1.64c-.32-.51-.81-.93-1.15-1.44a5.29,5.29,0,0,1-.7-1.66,5.46,5.46,0,0,1-.18-1.86Z"/><path class="cls-2" d="M453.61,398a7.74,7.74,0,0,1,1.66,2.72,7.63,7.63,0,0,0,.41,1.56,3.36,3.36,0,0,0,1,1.2c.44.31.83.64,1.23,1s.81.56,1.18.89c.76.61,1.53,1.14,2.47,1.85l0,.15a4.72,4.72,0,0,1-3.37-.69,5.93,5.93,0,0,1-1.25-1.2A5.24,5.24,0,0,1,456,404a6.12,6.12,0,0,0-.78-1.45c-.31-.44-.79-.8-1.12-1.26a4.2,4.2,0,0,1-.63-1.53,4.25,4.25,0,0,1,0-1.71Z"/><path class="cls-2" d="M457.56,392.4a9.2,9.2,0,0,1,1.94,2.85,9.69,9.69,0,0,0,.58,1.64,4.22,4.22,0,0,0,1.17,1.25c.49.31.93.66,1.37,1s.91.6,1.32.94l2.74,2,0,.15a5.5,5.5,0,0,1-3.6-.78,6.71,6.71,0,0,1-1.38-1.22,5.93,5.93,0,0,1-1-1.5,8,8,0,0,0-.94-1.51c-.37-.45-.9-.82-1.27-1.29a4.79,4.79,0,0,1-.79-1.6,4.58,4.58,0,0,1-.21-1.82Z"/><path class="cls-2" d="M462.13,390.52a4.71,4.71,0,0,1,2.35,1.73,13.66,13.66,0,0,0,.71,1.31,3.69,3.69,0,0,0,1.11.92,7.38,7.38,0,0,1,1.22.81,10.74,10.74,0,0,1,1.07.94,13.54,13.54,0,0,1,1.68,2.34l-.06.14a3.54,3.54,0,0,1-1.51-.48,7.58,7.58,0,0,1-1.22-.85,8.39,8.39,0,0,1-1-1.09,6.58,6.58,0,0,1-.8-1.24,3.84,3.84,0,0,0-.87-1.16c-.37-.31-.87-.5-1.27-.78a4.58,4.58,0,0,1-1.55-2.49Z"/><path class="cls-1" d="M465.65,374.67q-4.54,4.36-9.35,8.79-8.83,8.1-17.47,15.36a8.68,8.68,0,0,0,4.91,2.89c2,.3,4.41-.21,14.54-10,7.26-7.06,8.85-9.57,8.73-12.6A9.33,9.33,0,0,0,465.65,374.67Z"/><path class="cls-2" d="M445.6,404.79a31.56,31.56,0,0,0,2.95,5.76,10.24,10.24,0,0,0,2.05,2.28,3.27,3.27,0,0,0,2.47.81,4.39,4.39,0,0,0,2.17-1.54c.71-.76,1.39-1.61,2.09-2.45,1.41-1.68,2.88-3.32,4.42-4.9s3.16-3.07,4.82-4.51l2.48-2.11a11.75,11.75,0,0,0,2.07-2.19,4.39,4.39,0,0,0,.65-2.69,7.17,7.17,0,0,0-.8-2.9,19.13,19.13,0,0,0-4-5,16,16,0,0,1,4.81,4.55,8.27,8.27,0,0,1,1.25,3.26,5.78,5.78,0,0,1-.61,3.6,11.49,11.49,0,0,1-2.24,2.69l-2.4,2.24c-1.6,1.46-3.15,2.95-4.66,4.49s-3,3.11-4.41,4.74c-.73.8-1.45,1.62-2.26,2.43a10.31,10.31,0,0,1-1.36,1.15,4,4,0,0,1-1.89.71,4.51,4.51,0,0,1-3.49-1.36,10.87,10.87,0,0,1-2.05-2.77A23.71,23.71,0,0,1,445.6,404.79Z"/><path class="cls-2" d="M375.87,150.07a28.17,28.17,0,0,1,6.45,1.65,23.57,23.57,0,0,1,5.93,3.13c.46.33.88.72,1.31,1.09a3.53,3.53,0,0,0,1.18.76,8.66,8.66,0,0,0,3.09.57c2.17.08,4.36-.23,6.59-.32a17.36,17.36,0,0,1,6.75.81,14.67,14.67,0,0,1,5.9,3.67,18.57,18.57,0,0,1,3.72,5.74,26.55,26.55,0,0,1,1.8,6.43l-.19.06c-1.9-4-3.85-7.87-6.84-10.72a15.49,15.49,0,0,0-5.05-3.41,18.43,18.43,0,0,0-3-.93,24.65,24.65,0,0,0-3.15-.55,42,42,0,0,0-6.55-.13,14.72,14.72,0,0,1-3.42-.15,5.15,5.15,0,0,1-1.73-.71c-.46-.28-.89-.58-1.36-.83-3.62-2.22-7.54-4-11.51-6Z"/><path class="cls-10" d="M353.93,350A106.51,106.51,0,0,0,381.7,367"/><path class="cls-2" d="M303.76,153.81a74.38,74.38,0,0,0,11.89,2.85,51.49,51.49,0,0,0,6.14.76A27.56,27.56,0,0,0,328,157a34.78,34.78,0,0,0,5.83-1.6,11.24,11.24,0,0,0,2.55-1.27,2.9,2.9,0,0,0,.77-.75,2.07,2.07,0,0,0,.25-1,7.09,7.09,0,0,0-.61-2.59c-.35-.93-.76-1.88-1.15-2.84-.78-1.89-1.64-3.76-2.56-5.63l.16-.12a26.56,26.56,0,0,1,3.81,5c.53.9,1.05,1.8,1.52,2.78a8,8,0,0,1,1,3.39,3.91,3.91,0,0,1-.55,2,4.24,4.24,0,0,1-1.44,1.4,13.9,13.9,0,0,1-3.1,1.31,20.19,20.19,0,0,1-6.34.91c-2.11,0-4.19-.1-6.27-.05s-4.17.34-6.3.24a20.77,20.77,0,0,1-6.23-1.33,21.28,21.28,0,0,1-5.58-3Z"/><path class="cls-2" d="M335.53,145a20,20,0,0,1,1.82-.84l.94-.37a10.07,10.07,0,0,1,1-.27,3.58,3.58,0,0,1,1.13-.13,2.39,2.39,0,0,1,1.26.49,5.41,5.41,0,0,1,1.31,1.83,4.81,4.81,0,0,1,.64,2.21,1.64,1.64,0,0,1-.78,1.38,2.86,2.86,0,0,1-1.14.33,9,9,0,0,1-1,.1l-1,0a19,19,0,0,1-2-.18c.65-.23,1.29-.39,1.92-.55a18.57,18.57,0,0,0,1.85-.48,3.13,3.13,0,0,0,.71-.3s.06-.13.05-.3a4,4,0,0,0-.56-1.5,4.51,4.51,0,0,0-.86-1.41,1.07,1.07,0,0,0-.51-.29,5.38,5.38,0,0,0-.83,0c-.62,0-1.27.11-1.91.2S336.22,145,335.53,145Z"/><path class="cls-2" d="M377.12,197.38c3.17-1.6,6.33-3,9.6-4.42a13.08,13.08,0,0,1,1.3-.48,3.75,3.75,0,0,1,1.66-.17,2.85,2.85,0,0,1,1.66.88,4,4,0,0,1,.8,1.47c.3.89.52,1.68.82,2.47s.64,1.56,1,2.32.76,1.5,1.2,2.22l.7,1.13a3.66,3.66,0,0,1,.59,1.66,4,4,0,0,1-1.49,3,8.27,8.27,0,0,1-2.5,1.45,15,15,0,0,1-5.37,1,12.42,12.42,0,0,1-5.2-1.23,15.2,15.2,0,0,0,5.15.25,16.28,16.28,0,0,0,4.79-1.49,8.11,8.11,0,0,0,2-1.31,2.28,2.28,0,0,0,.78-1.58,8.06,8.06,0,0,0-1.06-1.87,25.38,25.38,0,0,1-1.34-2.38,28.83,28.83,0,0,1-1.82-5.07c-.23-.83-.43-1.05-1-1.22a5.58,5.58,0,0,0-2.14.39C384,195.52,380.55,196.56,377.12,197.38Z"/><path class="cls-2" d="M347.63,266.69A9.94,9.94,0,0,0,350.1,273l1.16,1.35a14.64,14.64,0,0,1,1.05,1.52,16.37,16.37,0,0,1,1.51,3.36c.18.59.34,1.19.47,1.8q.09.45.15.93l0,.24v.26c0,.12,0,.25,0,.38a4.31,4.31,0,0,0,1.08,2.61,2.51,2.51,0,0,0,2.43.29,11.14,11.14,0,0,0,2.89-1.4,45,45,0,0,1,6.34-3.42c1.05-.47,2.34-.91,2.65-1.4a2.77,2.77,0,0,0,.31-1.27,5.79,5.79,0,0,0-.06-1.56,16,16,0,0,0-1-3.23c-.41-1.09-.89-2.15-1.39-3.21-1-2.12-2.09-4.2-3.21-6.29a55.29,55.29,0,0,1,4.08,5.83c.61,1,1.19,2.06,1.72,3.14a16.82,16.82,0,0,1,1.3,3.46,8.13,8.13,0,0,1,.2,1.95,4.26,4.26,0,0,1-.52,2.12,4.15,4.15,0,0,1-1.72,1.41l-1.62.77a47.72,47.72,0,0,0-6,3.38,13.06,13.06,0,0,1-3.48,1.61l-.49.13c-.17,0-.35,0-.53.06l-.53,0a3.77,3.77,0,0,1-.57-.05,3.67,3.67,0,0,1-2.1-1,6,6,0,0,1-1.52-3.81c0-.17,0-.33,0-.5v-.38c0-.27-.06-.54-.1-.82a16,16,0,0,0-.32-1.65,16.51,16.51,0,0,0-1.16-3.17,11.8,11.8,0,0,0-.83-1.47l-1-1.44A9.51,9.51,0,0,1,347.63,266.69Z"/><path class="cls-10" d="M281,238.51s17.95,7,29.29,24.36"/><path class="cls-10" d="M277.05,253.87s5.41-1,22.95,16.65"/><path class="cls-2" d="M301.58,268.33a37.39,37.39,0,0,0,3.48,5,9.45,9.45,0,0,0,1,.92,1.87,1.87,0,0,0,.92.41c.06,0,.09,0,.14,0l.23-.06a1.44,1.44,0,0,0,.4-.22,2.21,2.21,0,0,0,.39-.37,1.55,1.55,0,0,0,.19-.24l.24-.31,1-1.23c.32-.39.67-.81.9-1.12l.09-.14s0,.11,0,0a.74.74,0,0,0-.09-.36,13.39,13.39,0,0,0-.83-1.16,8.74,8.74,0,0,1-1.35-6.24,12,12,0,0,0,2.57,5.26,8.57,8.57,0,0,1,1.12,1.24,2.63,2.63,0,0,1,.39,1.1,1.83,1.83,0,0,1-.06.75,3.39,3.39,0,0,1-.25.56c-.34.55-.66.91-1,1.34l-.92,1.21-.23.3c-.1.12-.19.24-.3.36a4.34,4.34,0,0,1-.74.66,3.41,3.41,0,0,1-1,.47,3.18,3.18,0,0,1-.52.1,2.64,2.64,0,0,1-.63,0,3.71,3.71,0,0,1-1.82-.94,7.15,7.15,0,0,1-1.11-1.31A15,15,0,0,1,301.58,268.33Z"/><path class="cls-2" d="M322,169c-2.17-.77-4.32-1.55-6.47-2.34s-4.35-1.61-6.44-2.16l-.33-.06h-.05l-.16,0a1.68,1.68,0,0,0-.58.21,3.35,3.35,0,0,0-1,.92,11.87,11.87,0,0,0-1.44,2.82c-.76,2.07-1.37,4.26-1.94,6.46l-3.37,13.33c-1.16,4.44-2.49,8.88-3.81,13.24-2.61,8.68-4.64,17.74-7.43,26.41-.56,2.13-.89,4.28-.18,6.1a6.14,6.14,0,0,0,1.71,2.42,15.84,15.84,0,0,0,2.72,1.8,37.8,37.8,0,0,0,12.73,4.67,31.26,31.26,0,0,1-6.85-1,38.87,38.87,0,0,1-6.55-2.39,16.53,16.53,0,0,1-3.14-1.78,7.9,7.9,0,0,1-2.43-3,8.48,8.48,0,0,1-.74-3.78,19.48,19.48,0,0,1,.46-3.63c.49-2.32,1.16-4.51,1.7-6.69l1.6-6.68c1.11-4.45,2.23-8.91,3.53-13.35,2.81-8.75,5.13-17.52,7.81-26.36a57.05,57.05,0,0,1,2.38-6.58,13.57,13.57,0,0,1,1.92-3.16,3.75,3.75,0,0,1,3.83-1.43c1.18.4,2.19.89,3.25,1.36s2.09.94,3.13,1.45C317.9,166.88,320,167.91,322,169Z"/><path class="cls-2" d="M554.48,481.65c.2.74.53,1.84,1,3.15,1.84,4.84,3.11,4.85,3.51,7.17.47,2.68-.9,5.28-3.66,10.46-.54,1-.94,1.7-1.76,3.06-1.11,1.85-3.06,5.08-5.92,9-4.2,5.74-6.3,8.61-9.61,10.45a21.72,21.72,0,0,1-5.5,2.05c-6.43,1.29-11.78-2.45-24.61-11.06-18.58-12.45-20.88-13.66-23.82-18.39-2.24-3.59-2.19-5-6.36-12.42a152.48,152.48,0,0,0-9.36-14.75h5.64s5.58,20.47,21.81,33.73c1.58,1.31,31.26,25.49,42.84,17.32,2.34-1.66,4.7-5.17,7.95-10a100.69,100.69,0,0,0,8.08-14.49s.64-4-5,4.36Q552.1,491.46,554.48,481.65Z"/></svg>
