<svg xmlns="http://www.w3.org/2000/svg" xmlns:xlink="http://www.w3.org/1999/xlink" width="1920" height="1080" viewBox="0 0 1920 1080"><defs><style>.cls-1,.cls-2,.cls-3,.cls-5{fill:#fff;}.cls-2,.cls-3,.cls-5{stroke-linecap:round;stroke-miterlimit:10;stroke-width:3px;}.cls-2{opacity:0.4;stroke:url(#linear-gradient);}.cls-3,.cls-5{opacity:0.2;}.cls-3{stroke:url(#linear-gradient-2);}.cls-4{opacity:0.74;}.cls-5{stroke:url(#linear-gradient-3);}.cls-6,.cls-8{fill:#f1f1f1;}.cls-10,.cls-7,.cls-9{fill:#232323;}.cls-8,.cls-9{opacity:0.45;}.cls-10{opacity:0.6;}</style><linearGradient id="linear-gradient" x1="1720.57" y1="989.33" x2="1959.68" y2="989.33" gradientUnits="userSpaceOnUse"><stop offset="0" stop-color="#fff"/><stop offset="0.1" stop-color="#fff" stop-opacity="0.89"/><stop offset="0.68" stop-color="#fff" stop-opacity="0.26"/><stop offset="0.93" stop-color="#fff" stop-opacity="0"/></linearGradient><linearGradient id="linear-gradient-2" x1="823.53" y1="280.33" x2="942.71" y2="280.33" xlink:href="#linear-gradient"/><linearGradient id="linear-gradient-3" x1="1673.33" y1="133.42" x2="1792.51" y2="133.42" xlink:href="#linear-gradient"/></defs><g id="space"><path d="M1920,76.71c-53-22.09-143.4-52.9-256.31-54.21C1416.25,19.64,1341.32,161.7,1071,176c-146.94,7.77-141.78-33.31-339-25-251.95,10.61-352.33,81.52-389,111-38.62,31.05-103.1,82.87-120.21,170.5-23.52,120.43,52.28,257.87,146,286C412,731.46,426,711.41,524,707c0,0,89.93-4,193,16,161.31,31.36,270.76,161,312,202,109,108.3,342.4,194.87,891,93.21Z"/></g><g id="stars"><circle class="cls-1" cx="1822.55" cy="626.94" r="3.25"/><circle class="cls-1" cx="1865.21" cy="489.98" r="2.71"/><circle class="cls-1" cx="1637.16" cy="440.57" r="3.57"/><circle class="cls-1" cx="1694.19" cy="332.19" r="2.9"/><circle class="cls-1" cx="1818.08" cy="186.21" r="3.61"/><circle class="cls-1" cx="369.33" cy="73.5" r="2.39"/><circle class="cls-1" cx="377.84" cy="609.98" r="2.6"/><circle class="cls-1" cx="326.21" cy="669.95" r="3.21"/><circle class="cls-1" cx="1019.78" cy="879.68" r="2.36"/><circle class="cls-1" cx="1248.34" cy="590.72" r="4.22"/><circle class="cls-1" cx="1407.55" cy="580.5" r="2.9"/><circle class="cls-1" cx="1511.6" cy="681.89" r="2.29"/><circle class="cls-1" cx="1585.95" cy="524.37" r="2.38"/><circle class="cls-1" cx="1820.13" cy="481.89" r="3.74"/><circle class="cls-1" cx="1889.8" cy="603.86" r="2.08"/><circle class="cls-1" cx="1819.3" cy="693.16" r="1.69"/><circle class="cls-1" cx="1823.43" cy="799.97" r="3.42"/><circle class="cls-1" cx="1826.92" cy="990.99" r="2.04"/><circle class="cls-1" cx="1716.63" cy="943.45" r="3.11"/><circle class="cls-1" cx="1533.68" cy="1024.54" r="4.41"/><circle class="cls-1" cx="1588.24" cy="920.05" r="3.25"/><circle class="cls-1" cx="1482.56" cy="939.18" r="2.29"/><circle class="cls-1" cx="1620.7" cy="769.58" r="2.9"/><circle class="cls-1" cx="1816.01" cy="512.27" r="3.97"/><circle class="cls-1" cx="1457.46" cy="115.37" r="2.87"/><circle class="cls-1" cx="1262.52" cy="375.33" r="1.92"/><circle class="cls-1" cx="1123.14" cy="469.9" r="3.79"/><circle class="cls-1" cx="947.51" cy="465.95" r="2.16"/><circle class="cls-1" cx="814.04" cy="713.58" r="2.57"/><circle class="cls-1" cx="972.28" cy="807.62" r="1.91"/><circle class="cls-1" cx="1045.26" cy="808.16" r="1.72"/><circle class="cls-1" cx="1049.73" cy="540.05" r="2.73"/><circle class="cls-1" cx="1152.48" cy="388.49" r="1.81"/><circle class="cls-1" cx="650.82" cy="251.64" r="1.91"/><circle class="cls-1" cx="549.47" cy="250.25" r="2.86"/><circle class="cls-1" cx="365.69" cy="423.97" r="3.4"/><circle class="cls-1" cx="368.29" cy="518.91" r="1.76"/><circle class="cls-1" cx="537.02" cy="485.46" r="1.97"/><circle class="cls-1" cx="503.98" cy="393.47" r="3.43"/><circle class="cls-1" cx="586.52" cy="347.32" r="1.67"/><circle class="cls-1" cx="683.73" cy="428.78" r="2.58"/><circle class="cls-1" cx="588.61" cy="241.66" r="4.14"/><path class="cls-1" d="M1170.86,635.88s-2.11,10.89-6.22,16.3c0,0,7,13.08,6.88,18.64"/><path class="cls-1" d="M1170.86,635.83s2.49,10.76,6.75,15.9c0,0-6.4,13.54-6.09,19.09"/><path class="cls-1" d="M1876.86,115.88s-2.11,10.89-6.22,16.3c0,0,7,13.08,6.88,18.64"/><path class="cls-1" d="M1876.86,115.83s2.49,10.76,6.75,15.9c0,0-6.4,13.54-6.09,19.09"/><line class="cls-2" x1="1958.18" y1="958.62" x2="1722.07" y2="1020.03"/><line class="cls-3" x1="941.21" y1="274.31" x2="825.03" y2="286.34"/><g class="cls-4"><path class="cls-1" d="M750.93,300.41s-1.56,8.06-4.61,12.06c0,0,5.17,9.68,5.09,13.8"/><path class="cls-1" d="M750.93,300.38s1.84,8,5,11.76c0,0-4.73,10-4.5,14.13"/></g><line class="cls-5" x1="1791.01" y1="127.41" x2="1674.83" y2="139.44"/><circle class="cls-1" cx="1549.27" cy="175.15" r="1.63"/><circle class="cls-1" cx="1623.16" cy="173.17" r="3.99"/><circle class="cls-1" cx="1461.36" cy="292" r="2.25"/><circle class="cls-1" cx="1368.89" cy="489.44" r="1.6"/><circle class="cls-1" cx="1503.28" cy="139.1" r="2.14"/><circle class="cls-1" cx="1373.33" cy="180.08" r="1.79"/><circle class="cls-1" cx="1362.89" cy="132.45" r="4.04"/><circle class="cls-1" cx="1395.66" cy="210.75" r="3.05"/><circle class="cls-1" cx="828.77" cy="626.55" r="1.63"/><circle class="cls-1" cx="902.66" cy="624.56" r="3.99"/><circle class="cls-1" cx="987.85" cy="343.38" r="2.15"/><circle class="cls-1" cx="1215.17" cy="839.49" r="3.4"/><circle class="cls-1" cx="940.38" cy="339.49" r="1.91"/><circle class="cls-1" cx="740.85" cy="743.4" r="2.25"/><circle class="cls-1" cx="648.39" cy="940.83" r="1.6"/><circle class="cls-1" cx="782.78" cy="590.5" r="2.14"/><circle class="cls-1" cx="652.83" cy="631.48" r="1.79"/><circle class="cls-1" cx="642.39" cy="583.85" r="4.04"/><circle class="cls-1" cx="675.16" cy="662.15" r="3.05"/></g><g id="Layer_5" data-name="Layer 5"><path class="cls-6" d="M423.27,309.45,196.31,426s-72.63,2.5-55.58,36.5l-36.24,19s-4.3-65-29.33-55.5,15.48,97.5,15.48,97.5l8.52,5,58.62-30s-8.53,69,53.29,72,48-88,48-88l203.8-57Z"/><ellipse class="cls-7" cx="455.12" cy="363.5" rx="63.41" ry="62.5"/><ellipse class="cls-8" cx="458.32" cy="363" rx="48.49" ry="50"/><path class="cls-9" d="M421,406.5l-187.57,69s15.6,85.37-33.23,93.68c6,1.56,19.66,4.12,32.69-2.18,16.47-8,21.54-25,24.52-35,3.22-10.84,3.21-20.79,3.19-29A134.86,134.86,0,0,0,259,482.5L466.27,425Z"/><path class="cls-9" d="M90.64,523.5l73.53-37s-6.39,5-6.39,12l-58.62,30Z"/><path class="cls-10" d="M233.45,475.5s-44.76-8-69.28,11c0,0-6.39,5-6.39,12,0,0-6.78,61.37,42.44,70.68C200.22,569.18,246.24,568.5,233.45,475.5Z"/><ellipse class="cls-1" cx="470.04" cy="331.5" rx="11.19" ry="10.5"/><ellipse class="cls-1" cx="490.83" cy="352" rx="6.39" ry="6"/><path class="cls-7" d="M204.52,595.88l57.7,163.62s13.86,6,17-3L219.06,591Z"/><path d="M276.31,760.23s1.9-.73,3-3.73L219.06,591,214,592.8Z"/><path class="cls-7" d="M214,579.64,409.48,795s25.62,1.06,24.88-14.49L233.75,563.75Z"/><path d="M432.1,787.86s2.51-2.22,2.26-7.4L233.75,563.75l-6.84,5.7Z"/><path class="cls-7" d="M195.38,577.17,86.72,804.48s8.87,19.68,21.83,13.33L216.43,586.1Z"/><path d="M101.38,818.86s2.85,1.06,7.17-1.05L216.43,586.1l-7.46-3Z"/><ellipse class="cls-7" cx="210.27" cy="572.75" rx="25.31" ry="23.75"/></g></svg>
