<svg xmlns="http://www.w3.org/2000/svg" width="1515" height="675" viewBox="0 0 1515 675"><g id="Layer_4" data-name="Layer 4"><circle cx="538.23" cy="321.34" r="26.22"/><path d="M512,321.34V39.45s1.28-15.5-9.37-26c-8.49-8.4-20-7.43-19.93-9,.13-3,41.71-2.06,91.61-1.77,34.91.2,52.78-.06,69.33,12.57,11,8.37,16.35,18.58,19.15,24.14C700.74,114.68,750.21,301,750.21,301h0s21,46.59-28.28,46.59h-86.8c4.31-.44,14.35-2.1,22.52-10,11.06-10.74,14.13-28.53,7.85-45.19L594.67,88.08l.46,223s-.92,36.49,40,36.49H538.39"/><circle cx="826.88" cy="165.95" r="34.28"/><circle cx="832.91" cy="313.28" r="34.28"/><circle cx="947.84" cy="165.95" r="34.28"/><circle cx="989.63" cy="313.28" r="34.28"/><path d="M826.88,131.67h121L982.12,166l41,140-33.48,41.61H916.4s30.49-1.19,23.19-37.69c-4.35-16.4-40.31-152-44.48-159.83a9.87,9.87,0,0,0-4.4-4.4,8.79,8.79,0,0,0-7.4.46c-5.33,3-6.17,12.12-7.14,22.7,0,.32,0,.55,0,.57-3.57,41.37-8.93,143.91-8.93,143.91l-34.28,34.28H757.5s24.77-2.29,27.37-36.52L792.61,166"/><path d="M162,557H145.31V604.4H142.8a20.28,20.28,0,0,0-3.76-3.14,9.76,9.76,0,0,0-4.6-.83,16.65,16.65,0,0,0-7.63,2q-3.87,2-9,4.5a74,74,0,0,1-12,4.49,61.23,61.23,0,0,1-16.72,2q-14.85,0-26.33-4.92T40.6,592.9a90,90,0,0,1-17.35-24.66,72.37,72.37,0,0,1-6.89-32,78.11,78.11,0,0,1,2.71-21.43,81.55,81.55,0,0,1,6.59-16.61,70.18,70.18,0,0,1,7.94-11.92q4.08-4.8,6.79-7.52a78.66,78.66,0,0,1,21.53-15.26,62.67,62.67,0,0,1,27.59-5.85,56.11,56.11,0,0,1,13.06,1.26,59.87,59.87,0,0,1,8.88,2.82l6.79,2.82a17.76,17.76,0,0,0,6.8,1.25c2.78,0,4.77-.38,6-1.15a14.37,14.37,0,0,0,3.45-3.24h3.14v41.8h-2.3A82.23,82.23,0,0,0,132,490.49a47.18,47.18,0,0,0-7.53-14,41.94,41.94,0,0,0-13.58-11.28q-8.46-4.6-21.63-4.6-15.67,0-25.19,6.58a45,45,0,0,0-14.84,17.35,76.91,76.91,0,0,0-7.1,24.35,209.94,209.94,0,0,0-1.78,27.38q0,9.4.84,18.81a122.57,122.57,0,0,0,2.82,17.76,71.17,71.17,0,0,0,5.54,15.47,40,40,0,0,0,9.19,12.12,36.66,36.66,0,0,0,13,7.84q6.69,2.19,17.35,2.19a40.26,40.26,0,0,0,13-2.19,35,35,0,0,0,11.6-6.59A33.53,33.53,0,0,0,122,590.5a36.8,36.8,0,0,0,3.24-16V557h-27V554H162Z"/><path d="M172.27,607.33h16.09V523.52H172.27v-2.93h33.65V541.7h.42a42.29,42.29,0,0,1,2.71-7.11,31.38,31.38,0,0,1,5.23-7.63,29.92,29.92,0,0,1,8-6.16,24,24,0,0,1,11.39-2.51,20.56,20.56,0,0,1,8.37,1.57,18.18,18.18,0,0,1,5.85,4,14.65,14.65,0,0,1,3.34,5.54,19.64,19.64,0,0,1,1,6.27q0,6.9-3.14,9.19a12,12,0,0,1-7.31,2.3q-9.21,0-9.2-5.85a9,9,0,0,1,.42-3c.28-.76.59-1.53.94-2.3a19.56,19.56,0,0,0,.94-2.61,16,16,0,0,0,.42-4.18q0-6.69-7.32-6.69A12.93,12.93,0,0,0,221,525a26.12,26.12,0,0,0-7,7.32,45.83,45.83,0,0,0-5.43,11.59,50.74,50.74,0,0,0-2.19,15.57v47.87h18.18v2.92H172.27Z"/><path d="M351.59,608a28.51,28.51,0,0,1-6.48,3.66,24,24,0,0,1-9.19,1.57q-10,0-14.53-4.29t-6.17-12h-.41q-.84,1.88-2.3,4.7A18.73,18.73,0,0,1,308,607a24.78,24.78,0,0,1-8,4.39,38.89,38.89,0,0,1-12.75,1.78q-8.78,0-14-2a22.78,22.78,0,0,1-8.16-4.91,14.24,14.24,0,0,1-3.86-6.58,27.31,27.31,0,0,1-.94-6.8q0-7.3,2.92-11.7a21.75,21.75,0,0,1,7.63-7,51,51,0,0,1,10.45-4.29q5.75-1.67,11.6-3.55,6.9-2.29,11.39-4a19.93,19.93,0,0,0,7-4.08,12.37,12.37,0,0,0,3.45-6.06,41.26,41.26,0,0,0,.94-9.92,59.11,59.11,0,0,0-.62-9,19.14,19.14,0,0,0-2.3-6.79,10.76,10.76,0,0,0-4.81-4.29,20.1,20.1,0,0,0-8.36-1.46,24,24,0,0,0-11.39,2.4,8.23,8.23,0,0,0-4.49,7.84,38.85,38.85,0,0,0,.62,7,31.67,31.67,0,0,1,.63,5.12,6.49,6.49,0,0,1-2.09,4.91,8.45,8.45,0,0,1-6.06,2q-6.9,0-8.57-2.51a11.42,11.42,0,0,1-1.67-6.48,19.26,19.26,0,0,1,2.09-8.77,22.11,22.11,0,0,1,6.16-7.42A30.81,30.81,0,0,1,285,519.75a48.5,48.5,0,0,1,14.11-1.88,46.66,46.66,0,0,1,16.09,2.41,27.71,27.71,0,0,1,10.45,6.48,23.54,23.54,0,0,1,5.65,9.19A34.61,34.61,0,0,1,333,546.71v52q0,6.06,1.88,8.15A6.93,6.93,0,0,0,340.3,609a15.1,15.1,0,0,0,4.81-.84,17.45,17.45,0,0,0,4.81-2.51ZM315,559.05h-.42q-.42,2.72-6.9,5.43L292,570.75a22.85,22.85,0,0,0-10.25,7.63,20.3,20.3,0,0,0-3.55,12.23,34.81,34.81,0,0,0,.63,6.47,16.55,16.55,0,0,0,2.3,6,12.7,12.7,0,0,0,4.7,4.29A16.19,16.19,0,0,0,293.7,609q6.9,0,11.18-2.93a19.2,19.2,0,0,0,6.48-7.31,31.08,31.08,0,0,0,2.92-9.51A66.17,66.17,0,0,0,315,580Z"/><path d="M358.07,665.85h16.09V523.52H358.07v-2.93h33.65v17.56h.41a32,32,0,0,1,10.35-14.53q7.22-5.75,18.71-5.75a38.13,38.13,0,0,1,16.92,3.87,48,48,0,0,1,23.62,25.18,47.48,47.48,0,0,1-.1,36.27,51.61,51.61,0,0,1-9.93,15.36,48.62,48.62,0,0,1-14.53,10.66,39.84,39.84,0,0,1-17.45,4,27.08,27.08,0,0,1-12-2.41,28.44,28.44,0,0,1-8-5.64,25.91,25.91,0,0,1-4.81-6.69,39.1,39.1,0,0,1-2.3-5.54h-.42v73h16.1v2.92H358.07Zm86.31-103.46a129.18,129.18,0,0,0-1-17.24,44,44,0,0,0-3.66-13.06,19.58,19.58,0,0,0-7.31-8.37q-4.71-2.91-12-2.92-7.74,0-12.75,2.72a24.81,24.81,0,0,0-8.15,6.89,26.15,26.15,0,0,0-3.66,6.27,39.69,39.69,0,0,0-2.19,8,83.84,83.84,0,0,0-1.15,10.55q-.31,6-.32,14.11a100.1,100.1,0,0,0,1.05,14.21,43.81,43.81,0,0,0,4,13.27,25.37,25.37,0,0,0,8.26,9.72q5.32,3.76,14.1,3.76,8.57,0,13.59-3.34a20.2,20.2,0,0,0,7.52-9.62,50.64,50.64,0,0,0,3.14-15.15Q444.38,573.26,444.38,562.39Z"/><path d="M481.37,607.33h16.1V462.49h-16.1v-2.93h34.07V541.7h.42a42.78,42.78,0,0,1,3.55-6.79,33.12,33.12,0,0,1,6.79-7.74,40.52,40.52,0,0,1,10.45-6.27,37.68,37.68,0,0,1,14.74-2.61q13.8,0,22.47,6.69t8.67,21.32v61h16.09v2.92H548.46v-2.92h16.1V539.82c0-5.44-1.29-9.89-3.87-13.38s-6.58-5.22-12-5.22a29,29,0,0,0-12.75,2.92,33.63,33.63,0,0,0-10.66,8.16,38.62,38.62,0,0,0-7.21,12.33,44.48,44.48,0,0,0-2.61,15.46v47.24h16.09v2.92H481.37Z"/><path d="M609.7,607.33h16.09V523.52H609.7v-2.93h34.07v86.74h16.09v2.92H609.7Zm13.58-135.44a11.06,11.06,0,1,1,3.24,7.84A10.67,10.67,0,0,1,623.28,471.89Z"/><path d="M758.92,587.26a60.93,60.93,0,0,1-2.4,6.59,30.52,30.52,0,0,1-5.64,8.56,34.31,34.31,0,0,1-10.45,7.53q-6.58,3.24-17,3.24a58.79,58.79,0,0,1-16.51-2.51,46.33,46.33,0,0,1-15.67-8,41.57,41.57,0,0,1-11.6-14.52q-4.5-9-4.5-22.16a46.67,46.67,0,0,1,3.87-19,48.75,48.75,0,0,1,10.45-15.25,47.64,47.64,0,0,1,15.47-10.14,49.31,49.31,0,0,1,18.91-3.66,52.44,52.44,0,0,1,11.6,1.36,39.41,39.41,0,0,1,10.87,4.18,25.69,25.69,0,0,1,8.15,7.32,18.24,18.24,0,0,1,3.24,11,9.76,9.76,0,0,1-2.82,7.21c-1.88,1.88-4.57,2.82-8.05,2.82a15.33,15.33,0,0,1-6.79-1.57,5.46,5.46,0,0,1-3.24-5.33,22.05,22.05,0,0,1,1.46-7.1,22,22,0,0,0,1.46-6.9q0-4.8-4.8-7.42a22.87,22.87,0,0,0-11.08-2.61A42,42,0,0,0,714.3,522a17.32,17.32,0,0,0-9,5.75q-4.06,4.59-6.68,13.79T696,566.57a119.18,119.18,0,0,0,1.15,16.93,44.64,44.64,0,0,0,4.18,13.9,23.83,23.83,0,0,0,8.36,9.4q5.34,3.45,13.9,3.45,9.2,0,15.15-2.71a28,28,0,0,0,9.41-6.59,28.46,28.46,0,0,0,5.12-7.84q1.66-4,2.51-6.48Z"/><path d="M830.61,607.33H853.8v-143H830.61v-2.93h38.87c1.95,0,3.9,0,5.85-.1s3.9-.17,5.85-.31,3.9,0,5.86-.11,3.9-.1,5.85-.1c4.18,0,7.9.07,11.18.21s6.34.38,9.2.73a70.73,70.73,0,0,1,8.15,1.46c2.57.63,5.33,1.43,8.25,2.4a75.41,75.41,0,0,1,22.05,11.19A63.35,63.35,0,0,1,967,493a68.12,68.12,0,0,1,8.78,20.07,90.33,90.33,0,0,1,2.82,22.78,84.8,84.8,0,0,1-3.35,24.76A69.55,69.55,0,0,1,966,580.05a67,67,0,0,1-13.69,14.63,72.48,72.48,0,0,1-16.83,9.93,64,64,0,0,1-9.51,3.55,65.36,65.36,0,0,1-9.19,1.88c-3.14.42-6.58.7-10.35.84s-8.08.21-13,.21q-3.13,0-6.68-.11t-7.11-.31c-2.37-.14-4.7-.25-7-.31s-4.49-.11-6.58-.11H830.61Zm44.1,0c2.36.28,5.12.48,8.25.62s6.58.21,10.35.21a135,135,0,0,0,14.1-.73,53.72,53.72,0,0,0,13.38-3.13,42.6,42.6,0,0,0,11.91-6.9,44.54,44.54,0,0,0,9.93-11.81,78.24,78.24,0,0,0,9.3-23.1,119.5,119.5,0,0,0,2.61-25.81,132.67,132.67,0,0,0-3.13-30,60,60,0,0,0-10.35-23A47.19,47.19,0,0,0,921.94,469q-11.91-5.22-29.47-5.23c-3.48,0-6.66.07-9.51.21l-8.25.42Z"/><path d="M1025.18,558.42c0,1.39,0,2.82-.1,4.28s-.11,3.32-.11,5.54a130,130,0,0,0,.84,14.42,43.15,43.15,0,0,0,3.66,13.59,25.27,25.27,0,0,0,8.36,10q5.54,4,14.73,4t15.15-2.71a28,28,0,0,0,9.41-6.59,28.46,28.46,0,0,0,5.12-7.84q1.66-4,2.51-6.48l3.13.63a60.93,60.93,0,0,1-2.4,6.59,30.52,30.52,0,0,1-5.64,8.56,34.31,34.31,0,0,1-10.45,7.53q-6.59,3.24-17,3.24a54.39,54.39,0,0,1-19.33-3.35,44.06,44.06,0,0,1-15.36-9.61,43.31,43.31,0,0,1-10-14.94,50.36,50.36,0,0,1-3.56-19.34,45.57,45.57,0,0,1,3.66-17.87,50.17,50.17,0,0,1,25-26.12,41.42,41.42,0,0,1,30.93-2,36.92,36.92,0,0,1,12.43,6.8,37.37,37.37,0,0,1,9.62,12.43q3.86,7.74,3.86,19.23Zm43.06-2.93a39.81,39.81,0,0,0,.41-5.43v-5.23a42.44,42.44,0,0,0-1.35-11.7,19.13,19.13,0,0,0-3.77-7.31,13.32,13.32,0,0,0-5.85-3.87,23.49,23.49,0,0,0-7.42-1.15q-7.11,0-11.7,2.82a20.78,20.78,0,0,0-7.32,7.63,39.24,39.24,0,0,0-4.07,11.08,86.47,86.47,0,0,0-1.78,13.16Z"/><path d="M1110.87,581h2.3a77.93,77.93,0,0,0,3.76,10.14,35.78,35.78,0,0,0,6.17,9.4,30.42,30.42,0,0,0,9.51,7,31.09,31.09,0,0,0,13.58,2.71,18.91,18.91,0,0,0,11.92-4.07q5.22-4.08,5.22-13.28,0-7.93-4.07-11.18a32.1,32.1,0,0,0-9.51-5.12L1133.44,571q-3.14-1.05-6.79-2.61a24.73,24.73,0,0,1-6.79-4.39,21.4,21.4,0,0,1-5.12-7.21,27.46,27.46,0,0,1-2-11.29,25.84,25.84,0,0,1,2.3-10.87A27.77,27.77,0,0,1,1130.83,520a33.84,33.84,0,0,1,12-2.09,30.38,30.38,0,0,1,7.42.74c1.88.49,3.51,1,4.91,1.46s2.64,1,3.76,1.46a9.84,9.84,0,0,0,4,.73,3.65,3.65,0,0,0,3.35-1.67h2.3v23.83h-2.3a89.58,89.58,0,0,0-3.35-8.89,35.5,35.5,0,0,0-4.49-7.62,18.16,18.16,0,0,0-6.48-5.23,20.63,20.63,0,0,0-9.09-1.88q-10,0-15.57,4.49a14.71,14.71,0,0,0-5.54,12q0,6.69,4.7,10.14t13.9,6.37l15.26,5a44,44,0,0,1,16.09,9.19q6.27,5.87,6.27,15.47a29.41,29.41,0,0,1-2.19,11.08,27.11,27.11,0,0,1-6.48,9.51,33.25,33.25,0,0,1-10.45,6.58,37.26,37.26,0,0,1-14.11,2.51,36,36,0,0,1-8.46-.94q-3.87-.94-7.11-2c-2.16-.69-4.15-1.36-6-2a15.32,15.32,0,0,0-5-.94,4.91,4.91,0,0,0-3.35.94,8.67,8.67,0,0,0-1.67,2h-2.3Z"/><path d="M1194.05,607.33h16.1V523.52h-16.1v-2.93h34.07v86.74h16.09v2.92h-50.16Zm13.59-135.44a11.06,11.06,0,1,1,3.24,7.84A10.67,10.67,0,0,1,1207.64,471.89Z"/><path d="M1259.26,596.67a20.94,20.94,0,0,1,2.09-9.72,28,28,0,0,1,5.12-7.11,28.28,28.28,0,0,1,6.48-4.91c2.3-1.25,4.35-2.3,6.16-3.13Q1267,563.43,1267,549.22a24.76,24.76,0,0,1,3.56-13.16,34.94,34.94,0,0,1,9-9.93,40.16,40.16,0,0,1,12-6.17,41.83,41.83,0,0,1,12.64-2.09,33,33,0,0,1,16.2,3.76,45.83,45.83,0,0,1,9.93,6.9,24.66,24.66,0,0,1,6.79-7.31,18.21,18.21,0,0,1,11.18-3.35,17.16,17.16,0,0,1,7.74,1.78c2.36,1.19,3.55,3.73,3.55,7.63a6.72,6.72,0,0,1-2.4,5.64,7.9,7.9,0,0,1-4.92,1.88c-2,0-3.34-.55-4.18-1.67a23.84,23.84,0,0,1-2.19-3.55c-.63-1.26-1.29-2.44-2-3.55a3.44,3.44,0,0,0-3.13-1.68,6.92,6.92,0,0,0-4.29,1.78,21.06,21.06,0,0,0-3.86,4.08,47.06,47.06,0,0,1,4.81,7.1,24.65,24.65,0,0,1,2.92,12.54,21.93,21.93,0,0,1-3.13,11.5,33.26,33.26,0,0,1-8.26,9.19,38.87,38.87,0,0,1-11.91,6.17,45.07,45.07,0,0,1-13.9,2.19,37.2,37.2,0,0,1-12.75-2,86.81,86.81,0,0,1-8.36-3.45c-1.53.7-3.17,1.46-4.91,2.3a21.61,21.61,0,0,0-4.81,3.13,16.69,16.69,0,0,0-3.66,4.49,12.1,12.1,0,0,0-1.46,6,10.07,10.07,0,0,0,1.25,5.23,8.24,8.24,0,0,0,3.24,3.13,14.6,14.6,0,0,0,4.5,1.46,30.49,30.49,0,0,0,5.22.42h33q14.63,0,23.3,7t8.67,22a35.22,35.22,0,0,1-4,16.72,43.49,43.49,0,0,1-10.55,13.07,48.31,48.31,0,0,1-15.16,8.56,52.27,52.27,0,0,1-17.55,3,55.67,55.67,0,0,1-15-1.89,42.32,42.32,0,0,1-11.8-5.12,24.72,24.72,0,0,1-7.84-7.83,19.21,19.21,0,0,1-2.82-10.24A22.33,22.33,0,0,1,1264,635a29.42,29.42,0,0,1,5.64-7.94,37,37,0,0,1,7.84-6,62.41,62.41,0,0,1,8.78-4.18v-.42q-13.8,0-20.38-4.49T1259.26,596.67Zm31.35,19.85c-1.81,1.11-3.66,2.27-5.54,3.45a20.49,20.49,0,0,0-5,4.49,22.71,22.71,0,0,0-3.55,6.38,26.15,26.15,0,0,0-1.36,9.09q0,7.53,2.62,12.44a23.48,23.48,0,0,0,6.68,7.94,25.52,25.52,0,0,0,9.09,4.28,40.29,40.29,0,0,0,9.83,1.26,39,39,0,0,0,13.69-2.3,35,35,0,0,0,10.66-6.17,27.21,27.21,0,0,0,6.89-8.88,24,24,0,0,0,2.41-10.45q0-11.71-6.38-16.62t-17.45-4.91Zm33.86-67.92a76.24,76.24,0,0,0-.63-9.72,28.88,28.88,0,0,0-2.61-9,15.77,15.77,0,0,0-6.06-6.58q-4.08-2.52-11-2.51-10.65,0-16.09,6.48t-5.43,21.32a61.19,61.19,0,0,0,.94,11.28,22.23,22.23,0,0,0,3.45,8.68,15.73,15.73,0,0,0,6.68,5.53A26,26,0,0,0,1304.4,576q10.88,0,15.47-6.79T1324.47,548.6Z"/><path d="M1363.76,607.33h16.09V523.52h-16.09v-2.93h33.65V543h.42c.83-1.81,2.05-4.1,3.65-6.89a36,36,0,0,1,6.59-8.15,35.74,35.74,0,0,1,25.7-9.62q13.8,0,22.47,6.69t8.67,21.32v61H1481v2.92h-50.16v-2.92h16.09V539.82c0-5.44-1.29-9.89-3.87-13.38s-6.58-5.22-12-5.22a29,29,0,0,0-12.75,2.92,33.52,33.52,0,0,0-10.66,8.16,38.43,38.43,0,0,0-7.21,12.33,44.25,44.25,0,0,0-2.61,15.46v47.24h16.09v2.92h-50.16Z"/></g></svg>
