<svg xmlns="http://www.w3.org/2000/svg" viewBox="0 0 142.97 141.66"><defs><style>.cls-1{fill:#fff;}.cls-2,.cls-3{fill:#232323;}.cls-3{stroke:#232323;stroke-miterlimit:10;}</style></defs><g id="moon"><circle class="cls-1" cx="71.63" cy="70.57" r="68.36"/><path class="cls-2" d="M132.24,38.8a69.49,69.49,0,0,1,5.09,52.28,67.53,67.53,0,0,1-33.67,40.58,68.76,68.76,0,0,1-25.84,7.41,69.75,69.75,0,0,1-50.16-15.81A69,69,0,0,1,3,76.77,68.27,68.27,0,0,1,5.71,50,68.49,68.49,0,0,1,39.54,9.34a68,68,0,0,1,52.61-4.5A69.54,69.54,0,0,1,132.24,38.8Zm-.13.07A67.05,67.05,0,0,0,91.86,5.78,69.12,69.12,0,0,0,65.55,3.19a68,68,0,0,0-54.1,98.92,67.13,67.13,0,0,0,66.29,36.13,68.25,68.25,0,0,0,25.34-7.68A68.93,68.93,0,0,0,136.43,90.8a67,67,0,0,0-4.32-51.93Z"/><path class="cls-2" d="M36.22,12c-3.89,6.83-11.93,23.33-8.58,43.56S44.87,95.38,53.4,94.31c1.46-.19,3.55-1.08,6.27-.24,4.3,1.33,5.85,5.62,7.45,7.75,6.28,8.35,28.62,3.85,41.61-1.64,17.31-7.32,27.1-20.27,31.45-27a68.7,68.7,0,0,1-7,28.65c-11,22.36-31,31.16-35.15,32.91-20.08,8.37-45.39,7.41-65.77-6.59C8.52,111.78.12,83.67,3.2,61.31a71.52,71.52,0,0,1,16.68-36.2A66.2,66.2,0,0,1,36.22,12Z"/><path class="cls-2" d="M64.54,21.22a28.55,28.55,0,0,0-5.32.07,10.79,10.79,0,0,0-4.62,1.45,5.24,5.24,0,0,0-2.29,3.49,9.48,9.48,0,0,0,.23,4.48,3.4,3.4,0,0,0,2.72,2.37,9,9,0,0,0,4.53-.54A13.85,13.85,0,0,0,64.07,30a8.82,8.82,0,0,0,2.86-4.24A8,8,0,0,1,65.16,31a13.2,13.2,0,0,1-4.43,3.65,10.15,10.15,0,0,1-5.93,1.21,6.29,6.29,0,0,1-3.15-1.34,6.47,6.47,0,0,1-1.94-2.84,11.14,11.14,0,0,1-.16-6.13A7.86,7.86,0,0,1,51,22.69a7.05,7.05,0,0,1,2.5-2,10.92,10.92,0,0,1,5.75-.87A16.84,16.84,0,0,1,64.54,21.22Z"/><path class="cls-2" d="M90,77.63a12.91,12.91,0,0,0-4.84,1.6,9,9,0,0,0-1.74,1.43A9.93,9.93,0,0,0,82,82.49a5.17,5.17,0,0,0-.8,3.94,7.2,7.2,0,0,0,2.94,3.82,5.66,5.66,0,0,1-2.84-.67,5.5,5.5,0,0,1-2.27-2.22,5.66,5.66,0,0,1-.66-3.31,7.61,7.61,0,0,1,1-3.08,9.56,9.56,0,0,1,2-2.38,8.09,8.09,0,0,1,2.75-1.52A7.4,7.4,0,0,1,90,77.63Z"/><path class="cls-2" d="M91.78,79.08a4.08,4.08,0,0,1,1.9,1.23,3.87,3.87,0,0,1,1,2.06,6.17,6.17,0,0,1-.35,2.32,12.48,12.48,0,0,1-.75,2.12,5,5,0,0,1-1.39,1.83,7.33,7.33,0,0,1-1.9,1.22,6.42,6.42,0,0,1-2.23.44,4.09,4.09,0,0,1-1.19-.15,1.49,1.49,0,0,1-1-.76l.15-.13a3.4,3.4,0,0,0,1.75-.5l1.67-.85c.54-.3,1.13-.51,1.67-.82s1.1-.59,1.63-1a2.08,2.08,0,0,0,1-1.56,3.36,3.36,0,0,0-.62-1.75,35.79,35.79,0,0,1-1.46-3.59Z"/><path class="cls-2" d="M118.88,78.27a8,8,0,0,1-.89-2.93,8.12,8.12,0,0,1,.21-3.12,4.67,4.67,0,0,1,.8-1.59,2.62,2.62,0,0,1,1.77-1,2.72,2.72,0,0,1,1.75.48,4,4,0,0,1,1.12,1.13,4.74,4.74,0,0,0-2.55-.07,2.65,2.65,0,0,0-1,1.64c-.23.79-.39,1.69-.57,2.61A26.32,26.32,0,0,1,118.88,78.27Z"/><path class="cls-2" d="M118.65,79.31a17.15,17.15,0,0,1,2.53-2c.82-.56,1.65-1,2.33-1.54a7.2,7.2,0,0,0,.87-.67,2.41,2.41,0,0,0,.45-.49,1.41,1.41,0,0,0,0-1,13.6,13.6,0,0,0-.57-1.52,3.62,3.62,0,0,1,1.71.59,2.78,2.78,0,0,1,1.23,1.77,3.24,3.24,0,0,1-.54,2.38,5.27,5.27,0,0,1-1.42,1.41A8,8,0,0,1,122,79.46,7.34,7.34,0,0,1,118.65,79.31Z"/><path class="cls-1" d="M52.67,97.41c.68,1.42,1.26,2.72,1.94,3.84a5.89,5.89,0,0,0,2.31,2.36,4.42,4.42,0,0,0,1.47.41,10.14,10.14,0,0,0,1.82,0c1.31-.12,2.71-.46,4.28-.67a8.87,8.87,0,0,1-3.65,2.94,7.46,7.46,0,0,1-2.49.6,5.88,5.88,0,0,1-2.76-.57,5.67,5.67,0,0,1-2.12-1.84,6.89,6.89,0,0,1-1-2.35A8,8,0,0,1,52.67,97.41Z"/><path class="cls-2" d="M58.07,55.05a9.33,9.33,0,0,0-.47,2.52c0,.35.09.69.21.67s.06-.12,0-.2,0-.11.06-.14a7,7,0,0,0,.72-.35,1.78,1.78,0,0,1,1-.17,5.37,5.37,0,0,1,1.31.27,6,6,0,0,1,1.59.77l.13.38a4.21,4.21,0,0,1-.94,1.56,4.08,4.08,0,0,1-1.27.93c-1,.47-2.09.21-3.5-.32a3.46,3.46,0,0,1-1.11-.75,2.61,2.61,0,0,1-.64-1.34A3.18,3.18,0,0,1,55.7,57a7.25,7.25,0,0,1,2-2.14Z"/><path class="cls-2" d="M59.46,54.91a1.25,1.25,0,0,1,.35-1.15.6.6,0,0,1,.81,0c.25.25.29.8.4,1s.34.15.68.1a1.15,1.15,0,0,1,.87.11c.21.12.43.25.48.46.06.43-.15.93-1,1.48l-.29.09a9.93,9.93,0,0,1-1.1,0,1.14,1.14,0,0,1-.5-.1c-.08,0,0-.15,0-.28a4.71,4.71,0,0,1,.32-.55c.14-.26.13-.47,0-.43s-.37.46-.4.66,0,.07,0-.09a2.91,2.91,0,0,0-.49-.91Z"/><path class="cls-2" d="M99.71,54.42a2.9,2.9,0,0,1-3-1,4.85,4.85,0,0,1-.92-3.27,11.45,11.45,0,0,1,.61-3.08,7.28,7.28,0,0,1,.74-1.55,4.32,4.32,0,0,1,1.53-1.46,3.12,3.12,0,0,1,2.6-.12,4.32,4.32,0,0,1,1.64,1.25,6.68,6.68,0,0,1,1.41,3.13,5.25,5.25,0,0,1-.54,3.29,5.44,5.44,0,0,1-2.1,2.2,6.21,6.21,0,0,0,.35-4.9,5.55,5.55,0,0,0-1.22-1.8,1.74,1.74,0,0,0-.62-.41c-.13,0,0,0-.12,0-.56.22-1.54,2.32-1.95,3.76A4.16,4.16,0,0,0,98,52.68,2.76,2.76,0,0,0,99.71,54.42Z"/><path class="cls-2" d="M100.75,55c.21-.15.41-.27.59-.42l.51-.36c.16-.12.21-.41.34-.31s.2.36.78.46l.19.08a.76.76,0,0,1,.16.75,1.06,1.06,0,0,1-.3.53c-.25.27-.61.09-.86.06a3,3,0,0,1-.74-.21,3.4,3.4,0,0,1-.67-.38Z"/><path class="cls-2" d="M81.57,23.25a2.35,2.35,0,0,1-.26-2.44A3,3,0,0,1,83,19.11a15.29,15.29,0,0,1,2.24-.18,4.67,4.67,0,0,0,.94-.3c.3-.14.61-.32.94-.5a3.5,3.5,0,0,1,2.38-.47A3.3,3.3,0,0,1,92.2,22a2.49,2.49,0,0,1-.26.61,2.57,2.57,0,0,1-.4.55,1.9,1.9,0,0,1-.57.43,1.27,1.27,0,0,1-.36.12,1.08,1.08,0,0,1-.38,0l0-.3a1.08,1.08,0,0,0-.06-.8,4.2,4.2,0,0,0-.28-.68,3.39,3.39,0,0,0-.63-.88c-.17-.17-.22-.38-.53-.6a10,10,0,0,0-1.38-.63,2.23,2.23,0,0,0-1.79.08c-.56.27-.87,1-1.2,1.39-.67.82-1.35.87-2.44,2Z"/><path class="cls-2" d="M82.56,23.35c.76.3,1.38.61,2,.83a3.4,3.4,0,0,0,1.46.28,2.68,2.68,0,0,0,1.27-.55l.78-.61a6.79,6.79,0,0,1,.89-.72,4.84,4.84,0,0,1,0,1.2,5.26,5.26,0,0,1-.42,1.14,3,3,0,0,1-2.31,1.53,3.23,3.23,0,0,1-2.52-1A3.69,3.69,0,0,1,82.56,23.35Z"/><path class="cls-2" d="M32.58,58.77a1.79,1.79,0,0,1,.55-1.35,1.37,1.37,0,0,1,1.24-.29,1.66,1.66,0,0,1,1.22,1.11,1.2,1.2,0,0,1-.67,1.41c-.66-.15-1-.14-1.19.05a.28.28,0,0,0,0,.36s-.06-.12-.24-.31Z"/><path class="cls-2" d="M117,28.87a2.56,2.56,0,0,1,1.06-1.22,1.62,1.62,0,0,1,1.3-.22c.46.17.91.65,1.33.79a3,3,0,0,0,.7.13,1.82,1.82,0,0,1,1,.33A1.76,1.76,0,0,1,123,30a2.24,2.24,0,0,1,0,.58c0,.15-.09.3-.14.45a3.17,3.17,0,0,1-.79,1.32,3,3,0,0,1-1.25.63,3.63,3.63,0,0,1-1.62,0l-.19-.24a4.64,4.64,0,0,1,.71-2.6,2.19,2.19,0,0,1,.7-.58l.14-.08h.13c.08,0,.26.19.41.15s.11-.24,0-.34a.62.62,0,0,0-.48-.12c-.38.05-.74.54-1.08.75a1.38,1.38,0,0,1-1.11,0,3.32,3.32,0,0,1-1.32-.8Z"/><path class="cls-2" d="M77.47,61.65a9.78,9.78,0,0,0,1.16-.09,1.28,1.28,0,0,0,.74-.28.32.32,0,0,0,0-.38.26.26,0,0,0-.23-.07.3.3,0,0,0-.23.18.41.41,0,0,0,0,.31.62.62,0,0,0,.22.29,2.48,2.48,0,0,0,1.17.35l.37.14a1.73,1.73,0,0,1,.72,1.18,1.58,1.58,0,0,1-.09.65,2.36,2.36,0,0,1-.42.59,1.83,1.83,0,0,1-.68.35,1.65,1.65,0,0,1-.7,0,3.54,3.54,0,0,1-1-.51,2.59,2.59,0,0,1-1-1.13,3.77,3.77,0,0,1-.32-1.29Z"/><path class="cls-1" d="M21.42,84.22a11.72,11.72,0,0,1-1.17,1.67,5.05,5.05,0,0,1-.93,1,2.09,2.09,0,0,0-.56.37.85.85,0,0,0-.25.73,1.29,1.29,0,0,0,.38.75,1.94,1.94,0,0,0,.77.42,4,4,0,0,0,1.39.07c.39,0,.76-.2,1.19-.28s.93-.19,1.47-.31A7.82,7.82,0,0,0,25.5,88l.28.09a2.87,2.87,0,0,1-.62,2.39A4.38,4.38,0,0,1,23.21,92a4.24,4.24,0,0,1-2.66,0,3.46,3.46,0,0,1-1.22-.63,3.34,3.34,0,0,1-.8-1l-.94-2.07a3.86,3.86,0,0,1-.26-.54,3.22,3.22,0,0,1-.22-.64,2.69,2.69,0,0,1,0-1.46,2.31,2.31,0,0,1,.78-1.1A3.55,3.55,0,0,1,19,83.92a3.31,3.31,0,0,1,2.34,0Z"/><path class="cls-1" d="M22.12,82.89a3.18,3.18,0,0,1,1.84.43,3.31,3.31,0,0,1,1.36,1.47,2.34,2.34,0,0,1-.17,2.34,2.11,2.11,0,0,1-1.84.84,5.13,5.13,0,0,0,.41-1.51,2,2,0,0,0-.22-.85c-.14-.31-.36-.71-.61-1.15A11,11,0,0,1,22.12,82.89Z"/><path class="cls-1" d="M111.53,110.88a5.47,5.47,0,0,1-.59-5.36,6.35,6.35,0,0,1,1.85-2.38,10.18,10.18,0,0,1,1.27-.81,4,4,0,0,1,1.87-.45,2.47,2.47,0,0,1,2.24,1.6,3.84,3.84,0,0,1,.19,1.89,7.27,7.27,0,0,1-1,2.73,7.79,7.79,0,0,1-1.77,2.1,4.53,4.53,0,0,1-2.44,1.12,7.27,7.27,0,0,0,1.29-2,13.47,13.47,0,0,0,.76-2.12,8,8,0,0,0,.3-2,1.08,1.08,0,0,0-.08-.54.38.38,0,0,0,.13.16.5.5,0,0,0,.23.1,1.49,1.49,0,0,0-.51.14c-.27.1-.57.3-.86.44a5.43,5.43,0,0,0-1.44,1.22A7.43,7.43,0,0,0,111.53,110.88Z"/><path class="cls-1" d="M55.07,133.08a10.56,10.56,0,0,1-2.26-1.88,3.47,3.47,0,0,1-.81-1.49,1.45,1.45,0,0,1,.28-1.19,2.27,2.27,0,0,1,.87-.65,7.5,7.5,0,0,1,3.18-.39,15.6,15.6,0,0,1,3,.47,10.59,10.59,0,0,1,2.87,1.17,3.74,3.74,0,0,1,.74.59,2.12,2.12,0,0,1,.36.53,1.33,1.33,0,0,1,.13.85,1.73,1.73,0,0,1-.65,1.08,3.73,3.73,0,0,1-.73.49,8.89,8.89,0,0,1-2.92.87,10.61,10.61,0,0,1-1.49.06,10,10,0,0,1-1.45-.23c.48-.12.94-.19,1.39-.32s.88-.28,1.31-.46a10.74,10.74,0,0,0,2.33-1.24,2.08,2.08,0,0,0,.4-.37c.12-.11.12-.23.07-.1a.72.72,0,0,0,0,.17s0,0-.06,0a3.51,3.51,0,0,0-.4-.26,12.27,12.27,0,0,0-2.42-.85,21.48,21.48,0,0,0-2.63-.53,7.85,7.85,0,0,0-2.46,0,1.43,1.43,0,0,0-.31.11s-.06,0-.08.13a2.43,2.43,0,0,0,.32,1.09C54,131.47,54.56,132.25,55.07,133.08Z"/><path class="cls-1" d="M78.05,123.72a2.6,2.6,0,0,1-2.49-.8,3.21,3.21,0,0,1-.74-1.3,2.85,2.85,0,0,1,.1-1.85,2.57,2.57,0,0,1,.73-1,2.65,2.65,0,0,1,.87-.44,2.86,2.86,0,0,1,1.56,0,2.61,2.61,0,0,1,1.9,1.8,7.17,7.17,0,0,0-2,.56,1.49,1.49,0,0,0-.46.31s0,.07,0,.07.11-.09.12-.13-.14.31-.09.78A7.53,7.53,0,0,0,78.05,123.72Z"/><path class="cls-1" d="M78.56,123a1.71,1.71,0,0,1-.35-.64c0-.13,0-.25.12-.24s.47.13.57.09.08-.17,0-.35a1,1,0,0,1-.17-.44c0-.11,0-.22,0-.26a.48.48,0,0,1,.33,0,3.31,3.31,0,0,0,.69.07l.2,0a1.05,1.05,0,0,1,.54.61.77.77,0,0,1,.07.47c0,.12-.17.17-.29.21a.79.79,0,0,1-.5,0c-.21,0-.35,0-.35.1s.18.39.22.55-.08.18-.22.19a1.45,1.45,0,0,1-.71-.21Z"/><path class="cls-1" d="M14.91,49.82a7.74,7.74,0,0,1,1.51-5.37,6.83,6.83,0,0,1,5.47-2.74,6.47,6.47,0,0,1,.87.06c.32.07.63.16.93.25a6.25,6.25,0,0,1,.9.53,4.7,4.7,0,0,1,.73.75A4.86,4.86,0,0,1,26,46.62a9.11,9.11,0,0,1-.8,2.76,6.59,6.59,0,0,1-1.64,2.24,16.76,16.76,0,0,0,.21-2.6,14,14,0,0,0-.13-2.38,2.9,2.9,0,0,0-.62-1.6c-.09,0-.12-.12-.2-.15a1.6,1.6,0,0,1-.23-.1l-.33-.07a2.87,2.87,0,0,0-.42,0,5.67,5.67,0,0,0-1,.08,6.17,6.17,0,0,0-1,.26,5.91,5.91,0,0,0-1.82,1A15.31,15.31,0,0,0,14.91,49.82Z"/><path class="cls-1" d="M16.19,49.75A12.4,12.4,0,0,1,17.1,52a2.14,2.14,0,0,0,.3,1.19,1.17,1.17,0,0,0,1.12.37c.42-.08.76-.2,1.08-.29s.59-.28.88-.4a9.13,9.13,0,0,0,2.13-1.09l.19.07a2.69,2.69,0,0,1-1.32,2.91,3.07,3.07,0,0,1-1.68.39,2.62,2.62,0,0,1-1.6-.54c-.45-.34-.8-.67-1.22-.93a5.27,5.27,0,0,1-1.36-.92,2.22,2.22,0,0,1,.38-3Z"/><path class="cls-2" d="M32,72.54s3.37.14,3.94,6.12"/><path class="cls-2" d="M121.31,94.34s-2.38-1.49,2.93-5.91,7.51-1.75,7.51-1.75Z"/><path class="cls-2" d="M31.6,19.94s4.72,5.53-3,6.09"/><path class="cls-1" d="M38.71,82S36.82,84.1,40,87.71s5.24,1.2,5.24,1.2Z"/><path class="cls-2" d="M41,84.1a4.78,4.78,0,0,1,1.07.76,4.51,4.51,0,0,1,.62.76,3.64,3.64,0,0,1,.37.77,4.7,4.7,0,0,0,.5,1.07,1.48,1.48,0,0,1-1.5.14A2.29,2.29,0,0,1,41,86.68a2.34,2.34,0,0,1-.38-1.23A2.17,2.17,0,0,1,41,84.1Z"/><path class="cls-1" d="M122,93a25,25,0,0,0,2.52-.89,5.17,5.17,0,0,0,1.78-1.21c.59-.65,1.23-1.28,1.83-1.87a6.64,6.64,0,0,0,.82-.88,1,1,0,0,0,.23-1.11,1,1,0,0,1,.59.54,1.88,1.88,0,0,1,.12.87,4.65,4.65,0,0,1-.47,1.49,10.81,10.81,0,0,1-1.64,2.31,4.43,4.43,0,0,1-2.9,1.38A4.86,4.86,0,0,1,122,93Z"/><path class="cls-1" d="M7.45,72c.28,1,.39,1.87.65,2.65a2.81,2.81,0,0,0,.52,1,3,3,0,0,0,1.1.67,1.68,1.68,0,0,1-1.57-.05,2.34,2.34,0,0,1-1-1.33A4,4,0,0,1,7,73.38,3.33,3.33,0,0,1,7.45,72Z"/><path class="cls-1" d="M31.55,21.23c-.25.7-.57,1.19-.71,1.65a1.72,1.72,0,0,0-.11.64,3.67,3.67,0,0,0,.21.89,1.29,1.29,0,0,1-1-.62,1.53,1.53,0,0,1-.1-1.24,2.09,2.09,0,0,1,.67-.91A1.83,1.83,0,0,1,31.55,21.23Z"/><path class="cls-1" d="M98.27,124.58a9.78,9.78,0,0,0,1.16-.09,1.28,1.28,0,0,0,.74-.29.3.3,0,0,0,0-.37.26.26,0,0,0-.23-.07.28.28,0,0,0-.23.18.41.41,0,0,0,0,.31.56.56,0,0,0,.22.28,2.35,2.35,0,0,0,1.17.36l.37.14a1.71,1.71,0,0,1,.72,1.18,1.6,1.6,0,0,1-.09.65,2.17,2.17,0,0,1-.43.59,1.72,1.72,0,0,1-.67.35,1.65,1.65,0,0,1-.7,0,3.49,3.49,0,0,1-1-.52,2.6,2.6,0,0,1-1-1.12,3.77,3.77,0,0,1-.32-1.29Z"/><path class="cls-3" d="M17.11,107.79s-5.88,3,2.09,10.58,6.09-3.19,6.09-3.19Z"/><path class="cls-3" d="M133.19,101.79s3.63.16,1.12-5"/><path class="cls-3" d="M86.67,137.26s-.45,2.56,6,.53,3.57-3.43,3.57-3.43Z"/><path class="cls-3" d="M18.49,28.08s-1.93-1,.12-2.84,2.93-.95,2.93-.95Z"/><path class="cls-3" d="M4.73,50.85a8.46,8.46,0,0,0-2.06,5.48,8.59,8.59,0,0,0,2.44,5.78c1.08,1.18,2.15,2.36,3,2.11,2.44-.73,2.38-12.86-1-14A3,3,0,0,0,4.73,50.85Z"/><path class="cls-3" d="M3.8,62a3,3,0,0,0-2,1.3c-1,1.76.74,4.46,1.55,4.37s.94-2.22,1-2.4A6.43,6.43,0,0,0,3.8,62Z"/><path class="cls-3" d="M44.16,133.43s.35,2.26,1.43,2.74,2.65-1.39,2.65-1.39Z"/><path class="cls-3" d="M49,135.25s-2.07,2.26,2.64,3.52,4.87-2.2,4.87-2.2l-6.7-1.93"/><path class="cls-1" d="M43.78,103l.29,1.28c.06.26.11.4.12.38a.26.26,0,0,0-.3-.19c-.26,0-.47.32-.72,1a1.19,1.19,0,0,1-1.54-.25,1.69,1.69,0,0,1-.22-1.64,1.38,1.38,0,0,1,.94-.85A1.77,1.77,0,0,1,43.78,103Z"/><path class="cls-1" d="M35.75,116.54a2.58,2.58,0,0,1,1,1.3,1.58,1.58,0,0,1-.07,1.31c-.27.42-.83.75-1.06,1.14a2.77,2.77,0,0,0-.28.65,1.89,1.89,0,0,1-.53.9,1.77,1.77,0,0,1-1.41.32,2.37,2.37,0,0,1-.55-.18l-.41-.23a3.13,3.13,0,0,1-1.12-1.07,2.82,2.82,0,0,1-.34-1.35,3.57,3.57,0,0,1,.32-1.58l.27-.14a4.62,4.62,0,0,1,2.39,1.26,2.26,2.26,0,0,1,.41.8s0,.1.05.16,0,.08,0,.13-.24.21-.23.37.21.16.32.08a.6.6,0,0,0,.23-.45c0-.37-.36-.83-.5-1.21a1.4,1.4,0,0,1,.21-1.09,3.33,3.33,0,0,1,1.07-1.12Z"/></g></svg>
