<svg xmlns="http://www.w3.org/2000/svg" width="205" height="205" viewBox="0 0 205 205"><defs><style>.cls-1{fill:#fff;}.cls-2,.cls-3{fill:#232323;}.cls-3{stroke:#232323;stroke-miterlimit:10;}</style></defs><g id="moon"><circle class="cls-1" cx="103.92" cy="102.03" r="99.82"/><path class="cls-2" d="M192.39,55.66a100.83,100.83,0,0,1,7.26,76.26,99.3,99.3,0,0,1-86.72,70,101.52,101.52,0,0,1-73.16-23A100.08,100.08,0,1,1,192.39,55.66Zm-.13.07A98.48,98.48,0,0,0,133.52,7.22,99.74,99.74,0,0,0,27.86,38.58,99.35,99.35,0,0,0,40.15,178.46,98.43,98.43,0,0,0,112.86,201a100.51,100.51,0,0,0,67.21-35.47,100.85,100.85,0,0,0,18.68-33.93,98.44,98.44,0,0,0-6.49-75.91Z"/><path class="cls-2" d="M52.2,16.48c-5.68,10-17.41,34.07-12.52,63.61,4.86,29.35,25.16,58.18,37.61,56.61,2.14-.27,5.18-1.57,9.17-.34,6.27,1.93,8.53,8.2,10.87,11.31,9.17,12.19,41.79,5.62,60.75-2.4,25.28-10.69,39.58-29.6,45.94-39.48a100.35,100.35,0,0,1-10.22,41.83c-16.13,32.66-45.2,45.51-51.32,48.06-29.33,12.22-66.28,10.82-96-9.62C11.76,162.22-.51,121.17,4,88.52,8.1,58.63,25.88,38.39,28.34,35.66A97,97,0,0,1,52.2,16.48Z"/><path class="cls-2" d="M93.56,30a38.16,38.16,0,0,0-7.76-.22,15.79,15.79,0,0,0-7,2A8.17,8.17,0,0,0,76.34,34a8.47,8.47,0,0,0-1.27,3.1,13.85,13.85,0,0,0,.31,6.93,5.89,5.89,0,0,0,1.69,2.59A6,6,0,0,0,79.9,48a13.26,13.26,0,0,0,6.94-1,20.08,20.08,0,0,0,3.31-1.66,18.18,18.18,0,0,0,3-2.27,12.73,12.73,0,0,0,3.93-6.42,11.73,11.73,0,0,1-2.85,7.42,19,19,0,0,1-6.43,5.07,16.28,16.28,0,0,1-4,1.4,12.68,12.68,0,0,1-4.36.21,8.42,8.42,0,0,1-4.26-1.84,8.84,8.84,0,0,1-2.63-3.84,14.89,14.89,0,0,1-.7-4.32,16.3,16.3,0,0,1,.45-4.26,11.44,11.44,0,0,1,1.91-4,9.73,9.73,0,0,1,3.43-2.8,16,16,0,0,1,8.13-1.41A26.52,26.52,0,0,1,93.56,30Z"/><path class="cls-2" d="M130.69,112.35a16.7,16.7,0,0,0-7.27,1.84,11.76,11.76,0,0,0-2.78,2.1,15.12,15.12,0,0,0-2.13,2.8,7.77,7.77,0,0,0-1.07,6.33c.63,2.13,2.5,4,4.8,5.36a8.93,8.93,0,0,1-3.94-1.25,8.11,8.11,0,0,1-3-3.19,7.93,7.93,0,0,1-.81-4.52,10.41,10.41,0,0,1,1.47-4.24,13.75,13.75,0,0,1,2.77-3.35,11.33,11.33,0,0,1,12-1.88Z"/><path class="cls-2" d="M133.3,114.51a6.67,6.67,0,0,1,2.51,1.95,6.53,6.53,0,0,1,1.43,2.91,8.46,8.46,0,0,1-.3,3.26,11,11,0,0,1-1.14,3,8,8,0,0,1-2.09,2.46,11.1,11.1,0,0,1-2.72,1.68,10.1,10.1,0,0,1-3.13.75,6.21,6.21,0,0,1-1.66-.1,2,2,0,0,1-1.46-.91l.16-.13a2.13,2.13,0,0,0,1.32,0,12.63,12.63,0,0,0,1.32-.42c.88-.34,1.73-.74,2.57-1.15s1.7-.8,2.51-1.29a21.18,21.18,0,0,0,2.32-1.59,3.57,3.57,0,0,0,1.37-2.41,5.28,5.28,0,0,0-.68-2.69c-.67-1.67-1.52-3.31-2.46-5.17Z"/><path class="cls-2" d="M172.91,113.28A14,14,0,0,1,172,109a13,13,0,0,1,.39-4.45,6.67,6.67,0,0,1,1.08-2.19,3.53,3.53,0,0,1,2.3-1.39,3.89,3.89,0,0,1,2.41.54,6.45,6.45,0,0,1,1.71,1.44c-1.39-.41-2.82-.82-3.8-.46s-1.41,1.4-1.78,2.62a29,29,0,0,0-.75,3.94C173.34,110.44,173.17,111.83,172.91,113.28Z"/><path class="cls-2" d="M172.57,114.79a42.91,42.91,0,0,1,3.89-2.46c1.27-.74,2.53-1.43,3.61-2.18a8.36,8.36,0,0,0,1.39-1.16,2.34,2.34,0,0,0,.67-1.15,2.78,2.78,0,0,0-.3-1.64,19.32,19.32,0,0,0-1.09-2,5.76,5.76,0,0,1,2.23,1.07,4,4,0,0,1,1.52,2.42,4.19,4.19,0,0,1-.77,3,7.69,7.69,0,0,1-1.94,1.89,13.41,13.41,0,0,1-4.46,1.91A12.83,12.83,0,0,1,172.57,114.79Z"/><path class="cls-1" d="M76.23,141.23a39.39,39.39,0,0,0,2.33,5.8,8.51,8.51,0,0,0,3.57,3.87,6.47,6.47,0,0,0,2.44.64,13.59,13.59,0,0,0,2.81-.17c2-.29,4-1,6.11-1.5A14.92,14.92,0,0,1,88,153.65a11.36,11.36,0,0,1-3.48.74,8.21,8.21,0,0,1-3.73-.8,7.91,7.91,0,0,1-2.89-2.47,10.3,10.3,0,0,1-1.54-3.23A13.21,13.21,0,0,1,76.23,141.23Z"/><path class="cls-2" d="M84,79.32A13.35,13.35,0,0,0,83,82.91a1.94,1.94,0,0,0,.16,1.28.17.17,0,0,0,.17.06,2.65,2.65,0,0,1,.33,0,4.22,4.22,0,0,0,1.33-.3,5.37,5.37,0,0,1,1.64-.27,10.29,10.29,0,0,1,4.08.71l.13.38a6.18,6.18,0,0,1-8.09,2.55,3.86,3.86,0,0,1-1.38-.89,3.17,3.17,0,0,1-.8-1.59,4.41,4.41,0,0,1,.53-2.54,11.76,11.76,0,0,1,2.63-3.21Z"/><path class="cls-2" d="M86.18,79.23a1.35,1.35,0,0,1,.54-1.2,1,1,0,0,1,.5-.18.58.58,0,0,1,.51.14c.31.26.41.83.58,1s.45.23.83.22a1.47,1.47,0,0,1,1,.27,1.3,1.3,0,0,1,.58.63A1.87,1.87,0,0,1,89.89,82l-.29.09a5,5,0,0,1-1.16-.23,1.2,1.2,0,0,1-.58-.28c-.11-.1-.08-.27-.06-.46a3.06,3.06,0,0,1,.19-.69c.1-.32,0-.56-.16-.55s-.49.4-.59.58-.13.06-.24-.09-.29-.41-.68-.86Z"/><path class="cls-2" d="M144.92,78.46a4.27,4.27,0,0,1-4-1.61,6.8,6.8,0,0,1-1.09-4.53,16.24,16.24,0,0,1,.95-4.32,10,10,0,0,1,1.05-2.13,5.64,5.64,0,0,1,2-1.91,3.86,3.86,0,0,1,3.22-.14,5.81,5.81,0,0,1,2.16,1.63,9.27,9.27,0,0,1,2,4.26,7.62,7.62,0,0,1-.58,4.57,8.52,8.52,0,0,1-2.74,3.32c1.34-2.46,1.87-5.15,1-7.3a8.46,8.46,0,0,0-1.83-2.93,3.1,3.1,0,0,0-1.14-.79.85.85,0,0,0-.75,0,5.3,5.3,0,0,0-1.79,2.44,20.64,20.64,0,0,0-1.26,3.58,5.82,5.82,0,0,0,0,3.46A4.18,4.18,0,0,0,144.92,78.46Z"/><path class="cls-2" d="M146.44,79.37c.3-.16.59-.27.88-.43l.79-.41c.26-.13.4-.45.62-.39s.37.26,1,.28l.19.07a.94.94,0,0,1,.08.87,1.52,1.52,0,0,1-.43.6c-.34.32-.79.16-1.14.14a4.34,4.34,0,0,1-1-.16,6.56,6.56,0,0,1-1-.37Z"/><path class="cls-2" d="M118.5,32.93a2.75,2.75,0,0,1-.41-1.62,3.89,3.89,0,0,1,.4-1.64,4.74,4.74,0,0,1,2.3-2.29,19.67,19.67,0,0,1,3-.54,10.84,10.84,0,0,0,1.37-.42c.44-.17.88-.4,1.36-.6a5.26,5.26,0,0,1,3.25-.41,4.56,4.56,0,0,1,3.13,2.09,4.76,4.76,0,0,1,.5,3.56,4.11,4.11,0,0,1-.75,1.58,1.73,1.73,0,0,1-1.61.82l0-.3a1.54,1.54,0,0,0,.23-1.1,6.77,6.77,0,0,0-.19-1.11,4.93,4.93,0,0,0-.84-1.72,3.5,3.5,0,0,0-1.23-1.1,11.9,11.9,0,0,0-2.23-.68,4.51,4.51,0,0,0-2.64.3,7,7,0,0,0-2,1.75c-1.16,1.12-2.26,1.68-3.33,3.4Z"/><path class="cls-2" d="M119.87,33.09c1,.56,1.82,1.1,2.69,1.5a4.64,4.64,0,0,0,2.37.57,3.7,3.7,0,0,0,2.1-1c.34-.3.69-.66,1.06-1a10.73,10.73,0,0,1,1.1-1.16,9.3,9.3,0,0,1-.25,1.64,9.26,9.26,0,0,1-.7,1.55,4.25,4.25,0,0,1-3.14,2,4.6,4.6,0,0,1-3.43-1.27A6,6,0,0,1,119.87,33.09Z"/><path class="cls-2" d="M46.9,84.81a2.12,2.12,0,0,1,.87-1.44,2,2,0,0,1,1.58-.28,2.06,2.06,0,0,1,1.5,1.28,1.49,1.49,0,0,1-.54,1.73c-.68-.27-1.07-.38-1.31-.27s-.21.22-.3.18a3.5,3.5,0,0,1-.58-.31A11.76,11.76,0,0,1,46.9,84.81Z"/><path class="cls-2" d="M170.21,41.21a3.79,3.79,0,0,1,1.61-1.32,3.09,3.09,0,0,1,1.85-.27c.65.16,1.28.64,1.89.8a8.77,8.77,0,0,0,1,.19,2.38,2.38,0,0,1,1.22.48,2.05,2.05,0,0,1,.66,1.56,3.21,3.21,0,0,1-.09.71,5.71,5.71,0,0,1-.21.58A5,5,0,0,1,177,45.7a5.42,5.42,0,0,1-1.65,1,5.26,5.26,0,0,1-2,.38l-.19-.23a7.07,7.07,0,0,1,2.57-4.37l.21-.2a.59.59,0,0,1,.17-.13c.1-.06.27,0,.37-.12s0-.36-.23-.49a1.18,1.18,0,0,0-.75-.18,5.41,5.41,0,0,0-1.63.74,3.21,3.21,0,0,1-1.66.09,5,5,0,0,1-1.87-.71Z"/><path class="cls-2" d="M112.38,89.08a12.52,12.52,0,0,0,1.49.18,3,3,0,0,0,1.14-.09.3.3,0,0,0,.18-.34c0-.06-.07-.09-.12-.08a.15.15,0,0,0-.13.14.43.43,0,0,0,0,.25.76.76,0,0,0,.29.19,3.67,3.67,0,0,0,1.28.17l.37.14a1.81,1.81,0,0,1,.45,2.1,2.92,2.92,0,0,1-.51.66,2.38,2.38,0,0,1-.78.39,2,2,0,0,1-.8,0,4.4,4.4,0,0,1-1.19-.55,3.85,3.85,0,0,1-1.34-1.32,5.13,5.13,0,0,1-.66-1.56Z"/><path class="cls-1" d="M30.58,121.91c-.7.82-1.38,1.45-2,2s-1.09,1.16-1.56,1.61a3,3,0,0,0-.7.79,1.34,1.34,0,0,0-.2.56,1.15,1.15,0,0,0,0,.61,2.6,2.6,0,0,0,.57,1.15,3,3,0,0,0,.51.43,1.55,1.55,0,0,0,.55.33,5.6,5.6,0,0,0,2.18.48,9.73,9.73,0,0,0,2.08-.35,18,18,0,0,0,2.26-.74,8.72,8.72,0,0,0,2.34-1.3l.28.09a4.28,4.28,0,0,1-1.17,3.08A6.56,6.56,0,0,1,33,132.62a5.89,5.89,0,0,1-3.53.09A4.79,4.79,0,0,1,27.8,132a7.81,7.81,0,0,1-.66-.61,8.3,8.3,0,0,1-.51-.7,23.27,23.27,0,0,1-1.42-2.82,4.31,4.31,0,0,1-.31-.76,4,4,0,0,1-.22-.86,3.55,3.55,0,0,1,.18-1.88,3.51,3.51,0,0,1,1.06-1.45,5.31,5.31,0,0,1,1.42-.88,5.43,5.43,0,0,1,1.53-.42,4.44,4.44,0,0,1,1.62.05Z"/><path class="cls-1" d="M31.61,120a5.3,5.3,0,0,1,2.45.89A5.16,5.16,0,0,1,35.88,123a3.13,3.13,0,0,1,.24.73,2.4,2.4,0,0,1,.08.81l0,.41c0,.13-.07.26-.11.4a2.14,2.14,0,0,1-.35.71,3.23,3.23,0,0,1-2.35,1.39,7.89,7.89,0,0,0,.93-2.06,2.46,2.46,0,0,0-.24-1.57A10.5,10.5,0,0,0,33,122.06C32.55,121.43,32.07,120.8,31.61,120Z"/><path class="cls-1" d="M162.18,160.9a8.19,8.19,0,0,1-.39-7.56,8.84,8.84,0,0,1,2.61-3.21c.27-.21.57-.38.85-.57a6.16,6.16,0,0,1,.91-.52,5.15,5.15,0,0,1,2.41-.59,3.14,3.14,0,0,1,1.65.56,3.08,3.08,0,0,1,1,1.35,5.15,5.15,0,0,1,.25,2.45,10.78,10.78,0,0,1-1.28,3.82,12.4,12.4,0,0,1-2.35,3.07,7,7,0,0,1-3.3,1.84,10,10,0,0,0,2.15-2.76,16.51,16.51,0,0,0,1.34-3.09,11.61,11.61,0,0,0,.6-3.1,2.47,2.47,0,0,0-.15-1.09c0-.11-.06-.08,0-.07s0,0,0,0a2.57,2.57,0,0,0-1.05.28c-.45.17-.9.49-1.35.71a8.19,8.19,0,0,0-2.21,2.06A10.33,10.33,0,0,0,162.18,160.9Z"/><path class="cls-1" d="M79.74,193.31a16.82,16.82,0,0,1-3.12-2.86,4.93,4.93,0,0,1-1.07-2.09,1.85,1.85,0,0,1,.36-1.5,3,3,0,0,1,1.15-.82,10.72,10.72,0,0,1,4.47-.47,26.23,26.23,0,0,1,4.24.7,16.7,16.7,0,0,1,4.1,1.63,5.79,5.79,0,0,1,1,.8,1.85,1.85,0,0,1,.24.29,1.38,1.38,0,0,1,.22.36,1.55,1.55,0,0,1,.16,1,2.34,2.34,0,0,1-.81,1.36,5.53,5.53,0,0,1-1,.68,12.92,12.92,0,0,1-4.13,1.35,13.92,13.92,0,0,1-2.13.18,16.06,16.06,0,0,1-2.1-.2c.7-.13,1.38-.19,2-.35a16.2,16.2,0,0,0,2-.58,15.3,15.3,0,0,0,3.54-1.72,4.24,4.24,0,0,0,.66-.57.74.74,0,0,0,.25-.37c0,.07,0,0-.18-.16a4.32,4.32,0,0,0-.67-.45,15.62,15.62,0,0,0-3.63-1.32,26.1,26.1,0,0,0-3.92-.76,11.22,11.22,0,0,0-3.76.05,1.64,1.64,0,0,0-.58.29.5.5,0,0,0-.16.44,4,4,0,0,0,.58,1.68A32.89,32.89,0,0,0,79.74,193.31Z"/><path class="cls-1" d="M113.29,179.65a3.9,3.9,0,0,1-3.17-1.45,4.25,4.25,0,0,1-.9-1.74,3.6,3.6,0,0,1,.14-2.31,2.94,2.94,0,0,1,.86-1.13,3.6,3.6,0,0,1,1.07-.57,4.17,4.17,0,0,1,2-.1,3.94,3.94,0,0,1,2.79,2.09,10.38,10.38,0,0,0-2.84.27,3.34,3.34,0,0,0-.92.39.74.74,0,0,0-.22.18c0,.05,0,0,0,.06a3.07,3.07,0,0,0,0,1.69A10.49,10.49,0,0,0,113.29,179.65Z"/><path class="cls-1" d="M114.06,178.66a1.58,1.58,0,0,1-.26-.74c0-.17,0-.32.2-.35s.52.07.65,0,.14-.24.06-.46a1.09,1.09,0,0,1-.1-.54c0-.15,0-.29.09-.37a.63.63,0,0,1,.39-.14,4.4,4.4,0,0,0,.73-.05l.2,0a1.17,1.17,0,0,1,.5.73,1,1,0,0,1,0,.58.73.73,0,0,1-.36.33,1,1,0,0,1-.57.12c-.24,0-.41.06-.43.21s.13.45.14.65-.14.25-.31.29a1.47,1.47,0,0,1-.79-.11Z"/><path class="cls-1" d="M21.09,71.74a12,12,0,0,1,2.6-7.47,9.8,9.8,0,0,1,7.59-3.7,6.56,6.56,0,0,1,2.4.41,4.86,4.86,0,0,1,2.09,1.64,6.7,6.7,0,0,1,1,4.45,13.8,13.8,0,0,1-1,3.94,10.25,10.25,0,0,1-2.06,3.35,19.2,19.2,0,0,0,.63-3.71,18.59,18.59,0,0,0,0-3.57,4.93,4.93,0,0,0-.93-2.73,2.8,2.8,0,0,0-2.24-.79,14.92,14.92,0,0,0-1.57.16,9,9,0,0,0-1.53.46,9.65,9.65,0,0,0-1.45.7,12.59,12.59,0,0,0-1.33,1A19.5,19.5,0,0,0,21.09,71.74Z"/><path class="cls-1" d="M22.92,71.62a34.69,34.69,0,0,0,1,3.43,3.51,3.51,0,0,0,.68,1.68,2.24,2.24,0,0,0,1.66.67A9.45,9.45,0,0,0,28,77.17a9.1,9.1,0,0,0,1.48-.58,9.94,9.94,0,0,0,2.92-2l.19.07a4.08,4.08,0,0,1-2.11,3.83,4.69,4.69,0,0,1-2.28.58,4,4,0,0,1-2.21-.6c-.65-.4-1.19-.83-1.76-1.23a7.19,7.19,0,0,1-1.75-1.41,3.47,3.47,0,0,1,.27-4.24Z"/><path class="cls-2" d="M46.07,104.92s4.92.2,5.76,8.92"/><path class="cls-2" d="M176.46,136.75s-3.47-2.18,4.27-8.63,11-2.55,11-2.55Z"/><path class="cls-2" d="M45.46,28.1s6.9,8.08-4.38,8.9"/><path class="cls-1" d="M55.84,118.78s-2.76,3,1.84,8.28,7.64,1.77,7.64,1.77Z"/><path class="cls-2" d="M59.14,121.8a7.57,7.57,0,0,1,1.23,1.25,14.15,14.15,0,0,1,.85,1.21l.7,1.16a7,7,0,0,0,1,1.28,2.12,2.12,0,0,1-2-.07,3.52,3.52,0,0,1-1.39-1.31,4.15,4.15,0,0,1-.61-1.69A3.36,3.36,0,0,1,59.14,121.8Z"/><path class="cls-1" d="M177.41,134.83a24.59,24.59,0,0,0,3.76-.94,7.2,7.2,0,0,0,2.86-1.81c.86-1,1.79-1.89,2.63-2.83a9,9,0,0,0,1.11-1.43,2.14,2.14,0,0,0,.31-.79,1.52,1.52,0,0,0-.2-.89,1.46,1.46,0,0,1,.75.81,2.58,2.58,0,0,1,.08,1.17,6.34,6.34,0,0,1-.77,2,19.1,19.1,0,0,1-2.43,3.28,6.15,6.15,0,0,1-1.86,1.36,7.42,7.42,0,0,1-2.12.61A7.68,7.68,0,0,1,177.41,134.83Z"/><path class="cls-1" d="M10.19,104.05a27.6,27.6,0,0,0,.74,3.94,3.62,3.62,0,0,0,.87,1.56,3.8,3.8,0,0,0,1.72.84,2.55,2.55,0,0,1-2.19-.22A3.32,3.32,0,0,1,10,108.3a6.22,6.22,0,0,1-.26-2.17A6,6,0,0,1,10.19,104.05Z"/><path class="cls-1" d="M45.39,30a16.68,16.68,0,0,0-1.26,2.33A2.09,2.09,0,0,0,44,33.4a4.56,4.56,0,0,0,.47,1.23,1.94,1.94,0,0,1-1.21-1A2.16,2.16,0,0,1,43.19,32a3,3,0,0,1,.89-1.29A3.13,3.13,0,0,1,45.39,30Z"/><path class="cls-1" d="M142.75,181a12.43,12.43,0,0,0,1.5.18,2.93,2.93,0,0,0,1.13-.09.3.3,0,0,0,.18-.34c0-.06-.07-.1-.12-.08s-.11.06-.13.14a.38.38,0,0,0,.05.24.67.67,0,0,0,.29.2,3.49,3.49,0,0,0,1.28.16l.37.15a1.83,1.83,0,0,1,.61,1.37,1.88,1.88,0,0,1-.16.73,2.92,2.92,0,0,1-.51.66,2.33,2.33,0,0,1-.77.39,2.21,2.21,0,0,1-.81,0,4.4,4.4,0,0,1-1.19-.55,3.85,3.85,0,0,1-1.34-1.32,5.24,5.24,0,0,1-.66-1.56Z"/><path class="cls-3" d="M24.3,156.38s-8.58,4.37,3.06,15.46,8.89-4.67,8.89-4.67Z"/><path class="cls-3" d="M193.8,147.62s5.3.24,1.65-7.27"/><path class="cls-3" d="M125.88,199.42s-.66,3.74,8.72.77,5.2-5,5.2-5Z"/><path class="cls-3" d="M26.32,40s-2.81-1.47.18-4.14,4.27-1.39,4.27-1.39Z"/><path class="cls-3" d="M6.23,73.25a12.22,12.22,0,0,0-3,8,12.61,12.61,0,0,0,3.57,8.44c1.57,1.73,3.14,3.46,4.39,3.08C14.74,91.7,14.65,74,9.74,72.37A4.27,4.27,0,0,0,6.23,73.25Z"/><path class="cls-3" d="M4.86,89.57a4.4,4.4,0,0,0-2.93,1.89C.45,94,3,98,4.2,97.84c1-.11,1.37-3.23,1.4-3.5A9.27,9.27,0,0,0,4.86,89.57Z"/><path class="cls-3" d="M63.8,193.83s.51,3.3,2.09,4,3.87-2,3.87-2Z"/><path class="cls-3" d="M70.86,196.49s-3,3.29,3.86,5.14,7.11-3.22,7.11-3.22l-9.78-2.81"/><path class="cls-1" d="M63.24,149.44a12,12,0,0,1,0,1.5,3.74,3.74,0,0,1-.07.66c0,.1-.12,0-.33.14s-.35.52-.52,1.24a1.5,1.5,0,0,1-1.73-.54,2.08,2.08,0,0,1-.2-2,2,2,0,0,1,1.13-1.13A2.09,2.09,0,0,1,63.24,149.44Z"/><path class="cls-1" d="M51.45,169.17a3.8,3.8,0,0,1,.94,1.85,3.07,3.07,0,0,1-.14,1.87c-.29.6-.9,1.11-1.19,1.67-.15.28-.26.58-.4.91a2.34,2.34,0,0,1-.73,1.09,2,2,0,0,1-1.67.3,2.57,2.57,0,0,1-.67-.25l-.52-.32A4.54,4.54,0,0,1,45,173,5.21,5.21,0,0,1,45,170.9l.27-.14a6.93,6.93,0,0,1,3.7,3.46,2.5,2.5,0,0,1,.16.24.93.93,0,0,1,.09.2c0,.11-.06.27,0,.39s.36,0,.53-.12a1.19,1.19,0,0,0,.34-.69,5.34,5.34,0,0,0-.37-1.76,3.16,3.16,0,0,1,.28-1.64,4.72,4.72,0,0,1,1.09-1.67Z"/></g></svg>
