<svg xmlns="http://www.w3.org/2000/svg" xmlns:xlink="http://www.w3.org/1999/xlink" width="1920" height="1080" viewBox="0 0 1920 1080"><defs><style>.cls-1,.cls-2,.cls-3,.cls-4{fill:#fff;}.cls-2,.cls-3,.cls-4{stroke-linecap:round;stroke-miterlimit:10;stroke-width:3px;}.cls-2{opacity:0.4;stroke:url(#linear-gradient);}.cls-3,.cls-4{opacity:0.2;}.cls-3{stroke:url(#linear-gradient-2);}.cls-4{stroke:url(#linear-gradient-3);}.cls-5{opacity:0.74;}</style><linearGradient id="linear-gradient" x1="1196.25" y1="609.3" x2="1435.35" y2="609.3" gradientUnits="userSpaceOnUse"><stop offset="0" stop-color="#fff"/><stop offset="0.1" stop-color="#fff" stop-opacity="0.89"/><stop offset="0.68" stop-color="#fff" stop-opacity="0.26"/><stop offset="0.93" stop-color="#fff" stop-opacity="0"/></linearGradient><linearGradient id="linear-gradient-2" x1="1726.55" y1="147.76" x2="1845.73" y2="147.76" xlink:href="#linear-gradient"/><linearGradient id="linear-gradient-3" x1="276.47" y1="1066.6" x2="395.65" y2="1066.6" xlink:href="#linear-gradient"/></defs><g id="space"><path d="M1123.83,0S1467.5,160.5,1372.5,355.5c0,0-39,89,6,144,17.72,21.66,12.55,26.29,11.16,31.37-10.67,38.75-162.84-18.56-236.72,53.73-29.34,28.72-43.06,78.73-68.44,180.9-6.34,25.51-8.43,39.12-19.2,58.3-36,64-109.73,85.23-118.8,87.7-105.8,28.85-154.81-78.56-312-116-169.2-40.3-315.66,35.73-339.64,48.61-132.43,71.17-194.5,185.67-217.32,234.53H1920V0Z"/></g><g id="stars"><circle class="cls-1" cx="1713.41" cy="725.79" r="2.78"/><circle class="cls-1" cx="1641.76" cy="466.02" r="3.7"/><circle class="cls-1" cx="1774.03" cy="698.88" r="3.2"/><circle class="cls-1" cx="1705.36" cy="641.34" r="1.56"/><circle class="cls-1" cx="1563.42" cy="871.14" r="2.1"/><circle class="cls-1" cx="1839.11" cy="650.75" r="3.11"/><circle class="cls-1" cx="1379.58" cy="296.37" r="3.95"/><circle class="cls-1" cx="1516.04" cy="784.13" r="2.33"/><circle class="cls-1" cx="1702.58" cy="904.27" r="2.31"/><circle class="cls-1" cx="1808.23" cy="727.82" r="3.35"/><circle class="cls-1" cx="1630.23" cy="842.54" r="1.98"/><circle class="cls-1" cx="1670.28" cy="847.34" r="1.94"/><circle class="cls-1" cx="1820.58" cy="1068.84" r="2.22"/><circle class="cls-1" cx="1904.23" cy="490.28" r="3.78"/><circle class="cls-1" cx="1608.08" cy="611.35" r="1.57"/><circle class="cls-1" cx="1373.53" cy="470.2" r="1.52"/><circle class="cls-1" cx="1381.51" cy="759.62" r="4.46"/><circle class="cls-1" cx="1151.09" cy="629.45" r="2.1"/><circle class="cls-1" cx="1110.76" cy="814.59" r="2.82"/><circle class="cls-1" cx="867.85" cy="730.11" r="3.59"/><circle class="cls-1" cx="760.29" cy="833.06" r="1.68"/><circle class="cls-1" cx="997.68" cy="625.14" r="3.97"/><circle class="cls-1" cx="533.01" cy="475.07" r="3.76"/><circle class="cls-1" cx="1241.73" cy="646.39" r="1.56"/><circle class="cls-1" cx="988.25" cy="546.49" r="4.31"/><circle class="cls-1" cx="875.58" cy="274.26" r="3.19"/><circle class="cls-1" cx="583.87" cy="813.63" r="4.21"/><circle class="cls-1" cx="610.95" cy="874.63" r="3.62"/><circle class="cls-1" cx="876.75" cy="914.37" r="1.78"/><circle class="cls-1" cx="1029.37" cy="737.07" r="2.58"/><circle class="cls-1" cx="1483.5" cy="672.65" r="3.07"/><circle class="cls-1" cx="1687.28" cy="198.43" r="1.59"/><circle class="cls-1" cx="1575.96" cy="172.98" r="2.03"/><circle class="cls-1" cx="1713.27" cy="182.94" r="2.17"/><circle class="cls-1" cx="1742.79" cy="297.22" r="3.49"/><circle class="cls-1" cx="1486.55" cy="15.95" r="2.08"/><circle class="cls-1" cx="1265.17" cy="105.7" r="2.51"/><circle class="cls-1" cx="1196.33" cy="363.82" r="2.75"/><circle class="cls-1" cx="994.49" cy="600.01" r="3.05"/><circle class="cls-1" cx="1045.67" cy="819.9" r="2.59"/><circle class="cls-1" cx="1198.1" cy="950.74" r="4.02"/><circle class="cls-1" cx="1682.22" cy="699.95" r="3.75"/><circle class="cls-1" cx="1092.27" cy="563.49" r="2.72"/><circle class="cls-1" cx="873.6" cy="908.11" r="3.91"/><circle class="cls-1" cx="603.79" cy="897.87" r="4.1"/><circle class="cls-1" cx="471.94" cy="1000.42" r="2.3"/><circle class="cls-1" cx="478.78" cy="1022.12" r="3.84"/><circle class="cls-1" cx="713.4" cy="780.33" r="2.23"/><circle class="cls-1" cx="582.7" cy="675.73" r="2.86"/><circle class="cls-1" cx="478" cy="839.42" r="2.25"/><circle class="cls-1" cx="509.26" cy="972.12" r="2.61"/><circle class="cls-1" cx="594.63" cy="1011.22" r="2.14"/><circle class="cls-1" cx="713.77" cy="797.91" r="3.8"/><circle class="cls-1" cx="998.7" cy="979.08" r="2.75"/><circle class="cls-1" cx="1364.14" cy="880.26" r="2.83"/><circle class="cls-1" cx="1447.3" cy="1036.76" r="1.62"/><circle class="cls-1" cx="1810.93" cy="108.24" r="2.81"/><circle class="cls-1" cx="1523.34" cy="101.8" r="2.88"/><circle class="cls-1" cx="1640.52" cy="391.72" r="4.18"/><circle class="cls-1" cx="1878.12" cy="80.68" r="3.34"/><circle class="cls-1" cx="1762.03" cy="24.34" r="2.9"/><circle class="cls-1" cx="1551.31" cy="46.42" r="3.26"/><circle class="cls-1" cx="1467.96" cy="132.68" r="1.7"/><circle class="cls-1" cx="1456.44" cy="125.67" r="2.3"/><circle class="cls-1" cx="1426.03" cy="338.31" r="2.32"/><line class="cls-2" x1="1433.85" y1="578.59" x2="1197.75" y2="640.01"/><line class="cls-3" x1="1844.23" y1="141.74" x2="1728.05" y2="153.78"/><line class="cls-4" x1="394.15" y1="1060.58" x2="277.97" y2="1072.61"/><path class="cls-1" d="M1135.79,602.15s-2.11,10.89-6.22,16.3c0,0,7,13.08,6.88,18.64"/><path class="cls-1" d="M1135.8,602.1s2.49,10.76,6.75,15.9c0,0-6.41,13.54-6.1,19.1"/><path class="cls-1" d="M1867.79,1016.15s-2.11,10.89-6.22,16.3c0,0,7,13.08,6.88,18.64"/><path class="cls-1" d="M1867.8,1016.1s2.49,10.76,6.75,15.9c0,0-6.41,13.54-6.1,19.1"/><g class="cls-5"><path class="cls-1" d="M235.86,1003.68s-1.56,8.06-4.6,12.07c0,0,5.17,9.67,5.09,13.79"/><path class="cls-1" d="M235.87,1003.65s1.84,8,5,11.76c0,0-4.74,10-4.51,14.13"/></g><g class="cls-5"><path class="cls-1" d="M1233.86,40.68s-1.56,8.06-4.6,12.07c0,0,5.17,9.67,5.09,13.79"/><path class="cls-1" d="M1233.87,40.65s1.84,8,5,11.76c0,0-4.74,10-4.51,14.13"/></g><circle class="cls-1" cx="736.84" cy="971.02" r="3.19"/><circle class="cls-1" cx="781.64" cy="929.54" r="1.7"/><circle class="cls-1" cx="767.69" cy="1022.71" r="2.98"/></g></svg>
