<svg xmlns="http://www.w3.org/2000/svg" xmlns:xlink="http://www.w3.org/1999/xlink" width="1920" height="1080" viewBox="0 0 1920 1080"><defs><style>.cls-1,.cls-4,.cls-5,.cls-6,.cls-7{fill:#fff;}.cls-10,.cls-12,.cls-2,.cls-9{fill:#232323;}.cls-3{opacity:0.74;}.cls-4,.cls-5,.cls-6,.cls-8{stroke-linecap:round;}.cls-4,.cls-5,.cls-6,.cls-7,.cls-8,.cls-9{stroke-miterlimit:10;}.cls-4,.cls-5,.cls-6{stroke-width:3px;}.cls-4{opacity:0.4;stroke:url(#linear-gradient);}.cls-5,.cls-6{opacity:0.2;}.cls-5{stroke:url(#linear-gradient-2);}.cls-6{stroke:url(#linear-gradient-3);}.cls-7{stroke:#fff;}.cls-8{fill:none;stroke-width:0.75px;}.cls-8,.cls-9{stroke:#232323;}.cls-10{opacity:0.5;}.cls-11{fill:#f1f1f1;}.cls-12{opacity:0.45;}</style><linearGradient id="linear-gradient" x1="1225.65" y1="868.23" x2="1464.76" y2="868.23" gradientUnits="userSpaceOnUse"><stop offset="0" stop-color="#fff"/><stop offset="0.1" stop-color="#fff" stop-opacity="0.89"/><stop offset="0.68" stop-color="#fff" stop-opacity="0.26"/><stop offset="0.93" stop-color="#fff" stop-opacity="0"/></linearGradient><linearGradient id="linear-gradient-2" x1="1844.62" y1="47.23" x2="1963.79" y2="47.23" xlink:href="#linear-gradient"/><linearGradient id="linear-gradient-3" x1="547.62" y1="461.23" x2="666.79" y2="461.23" xlink:href="#linear-gradient"/></defs><g id="space"><path d="M1495.08,0c-19.86,48.75-54,109.61-115.58,154.5-129.43,94.36-236.28,13.33-359,111-72,57.3-98.28,131.08-176,137.91C825,405.12,804,401,780.5,389.5c-98-48-168,96-279,107l-7,32s106-22,159,94,94,183,249,181,157,28,185,86,88,139,195,116,173.11,74.5,173.11,74.5H1920V0Z"/></g><g id="Layer_5" data-name="Layer 5"><circle class="cls-1" cx="1609.4" cy="159.58" r="78.59"/><path class="cls-2" d="M1687.65,152.29A78.6,78.6,0,0,1,1670,209.85a78.95,78.95,0,1,1,9-87A78.73,78.73,0,0,1,1687.65,152.29Zm0,0a78.13,78.13,0,0,0-152.45-15.64,77.92,77.92,0,0,0,24.58,82.77,78.11,78.11,0,0,0,127.87-67.13Z"/><path class="cls-2" d="M1668.66,107.11A197.76,197.76,0,0,1,1638,126.67a208.78,208.78,0,0,1-33.7,14l-2.17.7-2.21.62-4.4,1.22c-1.47.42-3,.73-4.45,1.1s-3,.75-4.47,1l-4.51.83c-1.5.28-3,.45-4.54.68l-2.27.31-2.29.21c-1.52.13-3,.29-4.58.32a78.28,78.28,0,0,1-18.34-1.08,45.92,45.92,0,0,1-8.82-2.64,56.25,56.25,0,0,1-8.08-4.2,73.1,73.1,0,0,0,8.46,3.16,48.31,48.31,0,0,0,8.74,1.74,88.34,88.34,0,0,0,17.81-.09,146.35,146.35,0,0,0,17.63-2.94c1.46-.29,2.9-.7,4.35-1.05s2.91-.68,4.34-1.11l4.31-1.25,2.16-.63,2.13-.7c2.85-.91,5.71-1.79,8.54-2.8s5.62-2.06,8.42-3.14c5.61-2.12,11.1-4.53,16.57-7C1647.57,118.87,1658.19,113.19,1668.66,107.11Z"/><path class="cls-2" d="M1539.67,122.17a54.73,54.73,0,0,0,20.37,4,56.64,56.64,0,0,1-21.51-.17Z"/><path class="cls-2" d="M1558.25,98.52a76.83,76.83,0,0,0,35.48-4.08,78.28,78.28,0,0,1-35.72,7.07Z"/><path class="cls-2" d="M1537,127.1a93.37,93.37,0,0,0,29.73,2.37,95,95,0,0,0,29.21-7.16,95.54,95.54,0,0,1-59.58,7.72Z"/><path class="cls-2" d="M1564.68,133.59a63.08,63.08,0,0,1,6.33-1l3.15-.37c1-.13,2.1-.25,3.17-.45a10.5,10.5,0,0,1-3,1.21,21.72,21.72,0,0,1-3.18.6,31.45,31.45,0,0,1-3.22.21A20.59,20.59,0,0,1,1564.68,133.59Z"/><path class="cls-2" d="M1633.27,206.89a137.76,137.76,0,0,1-41.7,3.6,135.46,135.46,0,0,0,40.23-8.38Z"/><path class="cls-2" d="M1596.24,82.1c30.64,13.28,50.38,43.55,49.91,76.37-.41,28.34-16.92,48.45-19.77,51.78a83.73,83.73,0,0,1-37.91,25.1,79,79,0,0,0,29.62,2.34,80.07,80.07,0,0,0,44.6-20.34c21.67-20,24.51-45.39,25-50.69a79.81,79.81,0,0,0-14.46-52.95c-3-4.17-17.62-23.65-44.91-30.43A79.15,79.15,0,0,0,1596.24,82.1Z"/><path class="cls-2" d="M1621.55,208.35s7.64-.94,3.77,3.11-36.71,21.49-67.54,7.38c0,0,15.7,13.15,30.69,16.51,0,0,22.2,0,43.3-27.86C1631.77,207.49,1627.91,203.94,1621.55,208.35Z"/><path class="cls-1" d="M1580.72,226c2.22.25,4.43.39,6.65.43s4.42,0,6.62-.16,4.4-.4,6.58-.75,4.35-.85,6.54-1.32c-1,.42-2.08.84-3.14,1.19s-2.15.64-3.25.89a40.37,40.37,0,0,1-6.66,1,42.14,42.14,0,0,1-6.74-.06c-1.11-.11-2.23-.25-3.33-.42A29.92,29.92,0,0,1,1580.72,226Z"/><path class="cls-1" d="M1668.87,187.57a195.51,195.51,0,0,1-19.51,9.82q-5,2.16-10.19,4.06t-10.43,3.46c-3.51,1.05-7,2.16-10.58,3.12a66.47,66.47,0,0,1-10.84,2,88.36,88.36,0,0,1-11,.37,60.09,60.09,0,0,1-11-1.27l0-.7c3.55-1.2,7.08-2.08,10.58-2.95s7-1.63,10.49-2.37,7-1.35,10.51-1.85,7.08-1,10.57-1.76,7-1.56,10.44-2.47,6.93-1.85,10.37-2.91c6.9-2,13.67-4.51,20.41-7.16Z"/><path class="cls-1" d="M1632.53,214.23c2.89-.64,5.7-1.41,8.49-2.24,1.39-.43,2.78-.85,4.15-1.32l2.06-.7,2-.77q2-.75,4-1.59l2-.84,2-.89c2.67-1.16,5.26-2.49,8-3.73a44.32,44.32,0,0,1-7.25,5.12,55.46,55.46,0,0,1-8.06,3.81,53,53,0,0,1-8.57,2.42A35.62,35.62,0,0,1,1632.53,214.23Z"/><path class="cls-1" d="M1652.45,220.15a63.55,63.55,0,0,1-10.94,6.46,74.78,74.78,0,0,1-24.51,6.74,64.27,64.27,0,0,1-12.71,0c4.21-.41,8.38-.88,12.5-1.58a123.81,123.81,0,0,0,12.22-2.7,122.26,122.26,0,0,0,11.88-3.92C1644.8,223.67,1648.62,222,1652.45,220.15Z"/><path class="cls-2" d="M1548.41,207.56l.18.16c.06.07.18.14.27.22a4.85,4.85,0,0,0,.6.42c.41.28.89.5,1.34.75a29.24,29.24,0,0,0,2.94,1.21c1,.38,2.06.63,3.09,1l3.16.74a112.63,112.63,0,0,0,13,1.77q6.55.5,13.14.57c2.19,0,4.39.07,6.58,0l6.59-.13-6.58.38c-2.2.14-4.39.16-6.59.24q-6.6.18-13.2-.08a112.78,112.78,0,0,1-13.19-1.28l-3.27-.64c-1.08-.3-2.17-.51-3.24-.87a27.38,27.38,0,0,1-3.2-1.18,13.54,13.54,0,0,1-1.56-.8,6.49,6.49,0,0,1-.76-.49,4.41,4.41,0,0,1-.81-.68Z"/><path class="cls-2" d="M1665.27,135.2a169.7,169.7,0,0,1-19.62,10.88,200.24,200.24,0,0,1-20.76,8.61,148.12,148.12,0,0,1-21.74,5.87,82.05,82.05,0,0,1-22.43,1.27,134.17,134.17,0,0,0,21.94-3.55c1.79-.48,3.58-.95,5.37-1.39l5.32-1.58c1.78-.5,3.54-1.08,5.3-1.67s3.52-1.12,5.25-1.78l5.25-1.84,5.2-2c3.47-1.32,6.91-2.7,10.36-4.1Q1655,139.72,1665.27,135.2Z"/><path class="cls-1" d="M1623,160.67a42.49,42.49,0,0,0,5.43-.95c1.78-.39,3.54-.9,5.29-1.41,3.49-1.05,6.91-2.31,10.28-3.7l2.54-1,2.5-1.12c1.69-.68,3.3-1.56,5-2.29l5-2.41c1.64-.83,3.28-1.67,5-2.44-1.45,1.14-3,2.21-4.47,3.29s-3.12,2-4.73,2.94a81.9,81.9,0,0,1-10,4.92,65.19,65.19,0,0,1-10.65,3.36c-.92.18-1.83.37-2.75.52s-1.85.28-2.78.34A24.79,24.79,0,0,1,1623,160.67Z"/><path class="cls-2" d="M1635.2,154.26c-1,.61-2,1.12-3,1.64s-2,1-3.09,1.4a62.07,62.07,0,0,1-13,3.87c-1.11.21-2.24.36-3.36.51s-2.25.21-3.38.27c2.2-.52,4.41-1,6.58-1.53s4.34-1.13,6.48-1.78,4.28-1.34,6.41-2S1633.1,155.08,1635.2,154.26Z"/><path class="cls-2" d="M1663.94,145.31a132.74,132.74,0,0,1-24.39,14.94c-4.32,2.09-8.76,3.9-13.26,5.55s-9.12,3-13.76,4.2a146,146,0,0,1-28.4,4.27,132.47,132.47,0,0,1-28.57-1.57,216.72,216.72,0,0,0,28.4-.77c4.69-.48,9.38-1.06,14-1.9s9.26-1.74,13.82-2.93a184.38,184.38,0,0,0,26.79-9A215.1,215.1,0,0,0,1663.94,145.31Z"/><path class="cls-1" d="M1677.71,145.31a126.24,126.24,0,0,1-13.8,9,153.46,153.46,0,0,1-14.77,7.31,150.14,150.14,0,0,1-15.49,5.65,125.83,125.83,0,0,1-16,3.8q7.83-2.52,15.52-5.28c5.12-1.87,10.19-3.85,15.19-6s9.94-4.44,14.83-6.85S1672.89,147.93,1677.71,145.31Z"/><path class="cls-2" d="M1651,160.46a43.59,43.59,0,0,1-5.57,3.23,64.3,64.3,0,0,1-5.93,2.52,60.77,60.77,0,0,1-6.17,1.86,42.33,42.33,0,0,1-6.35,1.08c2-.79,4-1.49,6-2.21l6-2.14,6-2.18C1646.94,161.88,1648.93,161.14,1651,160.46Z"/><path class="cls-2" d="M1565.05,177.13c1.81.21,3.6.32,5.39.42s3.59.15,5.38.12,3.58,0,5.37-.16,3.59-.25,5.4-.38a33.4,33.4,0,0,1-5.32,1.15,40.32,40.32,0,0,1-10.9,0A27.09,27.09,0,0,1,1565.05,177.13Z"/><path class="cls-2" d="M1531.74,146.16a62,62,0,0,0,30.86,7.53,63.12,63.12,0,0,1-31.77-5.75Z"/><path class="cls-2" d="M1531.32,159.05a94.77,94.77,0,0,0,38.55,6.85,96.11,96.11,0,0,1-39.57-4Z"/><path class="cls-2" d="M1534.61,179.8a18,18,0,0,0,2.49,1.4c.89.44,1.83.81,2.78,1.17a46.39,46.39,0,0,0,5.89,1.72,59.34,59.34,0,0,0,6.13,1c1,.13,2.07.19,3.1.29l3.13.14-3.13.23c-1,0-2.09.09-3.14.09a60.74,60.74,0,0,1-6.32-.28,48.82,48.82,0,0,1-6.31-1c-1-.26-2.09-.54-3.12-.9a19.94,19.94,0,0,1-3.14-1.32Z"/><path class="cls-2" d="M1654.2,107.75c-4.58,3-9.35,5.7-14.2,8.24s-9.78,4.91-14.8,7.1-10.12,4.2-15.34,5.9a100.55,100.55,0,0,1-15.95,4c5.17-1.83,10.23-3.79,15.28-5.82,1.25-.52,2.51-1,3.77-1.54l3.75-1.59c2.51-1,5-2.13,7.5-3.22s5-2.16,7.47-3.27l7.48-3.29C1644.14,112,1649.14,109.85,1654.2,107.75Z"/><path class="cls-1" d="M1647.7,109.63a147.48,147.48,0,0,1-14.23,8.17c-4.87,2.49-9.87,4.73-14.93,6.8s-10.23,3.91-15.46,5.51a144.6,144.6,0,0,1-15.9,4c5.09-2,10.19-3.93,15.26-5.88l7.6-3c2.53-1,5-2,7.56-3,5-2,10-4.14,15.05-6.25S1642.64,111.73,1647.7,109.63Z"/><circle class="cls-1" cx="1711" cy="189.47" r="2.93"/><circle class="cls-1" cx="1502.36" cy="311.19" r="1.95"/><circle class="cls-1" cx="1611.36" cy="590.77" r="2.73"/><circle class="cls-1" cx="1910.13" cy="425.99" r="1.65"/><circle class="cls-1" cx="1845.67" cy="279.26" r="3.7"/><circle class="cls-1" cx="1729.32" cy="188.13" r="2.29"/><circle class="cls-1" cx="1740.59" cy="39.27" r="3.59"/><circle class="cls-1" cx="1281.92" cy="506.3" r="3.62"/><circle class="cls-1" cx="1776.55" cy="372.57" r="3.62"/><circle class="cls-1" cx="1164.3" cy="721.62" r="4.38"/><circle class="cls-1" cx="1667.38" cy="422.59" r="4.31"/><circle class="cls-1" cx="1312.3" cy="333.92" r="1.95"/><circle class="cls-1" cx="1133.75" cy="750.32" r="2.79"/><circle class="cls-1" cx="1750.35" cy="691.3" r="3.6"/><circle class="cls-1" cx="1664.76" cy="680.16" r="1.99"/><circle class="cls-1" cx="1313.07" cy="542.26" r="1.85"/><circle class="cls-1" cx="1139.55" cy="443.65" r="4.2"/><circle class="cls-1" cx="984.71" cy="784.53" r="2.11"/><circle class="cls-1" cx="1032.53" cy="802.01" r="2.47"/><circle class="cls-1" cx="608.28" cy="609.17" r="2.58"/><circle class="cls-1" cx="1214.42" cy="386.3" r="1.55"/><circle class="cls-1" cx="1025.79" cy="210.22" r="3.29"/><circle class="cls-1" cx="246.75" cy="322.32" r="1.71"/><circle class="cls-1" cx="194.86" cy="453.64" r="2.69"/><circle class="cls-1" cx="367.72" cy="722.73" r="3.57"/><circle class="cls-1" cx="1267.31" cy="606.09" r="3.09"/><circle class="cls-1" cx="1220.95" cy="368.93" r="3.79"/><circle class="cls-1" cx="866.23" cy="337.11" r="2.85"/><circle class="cls-1" cx="856.18" cy="467.99" r="2.06"/><circle class="cls-1" cx="1083.08" cy="561.76" r="4.07"/><circle class="cls-1" cx="886.03" cy="697.77" r="1.96"/><circle class="cls-1" cx="1310.35" cy="934.03" r="2.37"/><circle class="cls-1" cx="1751.27" cy="724.2" r="2.09"/><circle class="cls-1" cx="1790.32" cy="664.91" r="2.35"/><circle class="cls-1" cx="1319.01" cy="331.9" r="1.68"/><circle class="cls-1" cx="1376.72" cy="328.61" r="3.38"/><circle class="cls-1" cx="1696.26" cy="539.39" r="3.46"/><circle class="cls-1" cx="1817.93" cy="392.8" r="4.2"/><circle class="cls-1" cx="1695.01" cy="324.47" r="3.18"/><circle class="cls-1" cx="1439.15" cy="367.79" r="1.7"/><circle class="cls-1" cx="1863.05" cy="685.84" r="4.38"/><circle class="cls-1" cx="1613.3" cy="724.8" r="4.41"/><circle class="cls-1" cx="1656.06" cy="737.16" r="4.22"/><circle class="cls-1" cx="1711.71" cy="841.46" r="3.41"/><circle class="cls-1" cx="1471.92" cy="974.25" r="3.35"/><circle class="cls-1" cx="1567.07" cy="584.3" r="1.74"/><circle class="cls-1" cx="1009.34" cy="593.5" r="3.71"/><circle class="cls-1" cx="812.76" cy="998.8" r="4.44"/><circle class="cls-1" cx="1380.72" cy="624.62" r="4.08"/><circle class="cls-1" cx="1485.92" cy="692.37" r="3.64"/><circle class="cls-1" cx="1639.32" cy="485.23" r="4.39"/><circle class="cls-1" cx="1634.26" cy="442.09" r="1.55"/><circle class="cls-1" cx="1423.27" cy="270.13" r="2.25"/><circle class="cls-1" cx="1583.94" cy="186.99" r="4.33"/><circle class="cls-1" cx="1293.72" cy="224.13" r="3.85"/><circle class="cls-1" cx="1145.41" cy="49.17" r="3.04"/><circle class="cls-1" cx="989.05" cy="183.14" r="2.05"/><circle class="cls-1" cx="934.38" cy="394.39" r="3.35"/><circle class="cls-1" cx="644.94" cy="561.82" r="2.32"/><circle class="cls-1" cx="730.9" cy="569.08" r="3.92"/><circle class="cls-1" cx="932.16" cy="921.19" r="4.13"/><circle class="cls-1" cx="882.39" cy="695.98" r="2.86"/><circle class="cls-1" cx="1202.91" cy="442.5" r="4.21"/><circle class="cls-1" cx="432.35" cy="43.56" r="4.49"/><circle class="cls-1" cx="285.92" cy="426.49" r="3.46"/><circle class="cls-1" cx="965.81" cy="686.94" r="2.74"/><circle class="cls-1" cx="737.77" cy="576.14" r="4.3"/><circle class="cls-1" cx="779.73" cy="779.41" r="3.3"/><circle class="cls-1" cx="1079.92" cy="814.67" r="3.02"/><circle class="cls-1" cx="1478.95" cy="466.83" r="4.46"/><circle class="cls-1" cx="1241.59" cy="714.77" r="3.31"/><circle class="cls-1" cx="1346.86" cy="557.67" r="3.58"/><circle class="cls-1" cx="1567.85" cy="314.97" r="2.21"/><circle class="cls-1" cx="1807.06" cy="277.41" r="4.27"/><path class="cls-1" d="M1783.94,908.78s-2.11,10.9-6.22,16.3c0,0,7,13.08,6.88,18.65"/><path class="cls-1" d="M1783.94,908.73s2.49,10.76,6.75,15.91c0,0-6.4,13.54-6.09,19.09"/><path class="cls-1" d="M787.94,443.78s-2.11,10.9-6.22,16.3c0,0,7,13.08,6.88,18.65"/><path class="cls-1" d="M787.94,443.73s2.49,10.76,6.75,15.91c0,0-6.4,13.54-6.09,19.09"/><path class="cls-1" d="M1694.94,59.78s-2.11,10.9-6.22,16.3c0,0,7,13.08,6.88,18.65"/><path class="cls-1" d="M1694.94,59.73s2.49,10.76,6.75,15.91c0,0-6.4,13.54-6.09,19.09"/><g class="cls-3"><path class="cls-1" d="M1742,966.32s-1.56,8.06-4.61,12.06c0,0,5.17,9.68,5.09,13.8"/><path class="cls-1" d="M1742,966.28s1.84,8,5,11.77c0,0-4.73,10-4.5,14.13"/></g><g class="cls-3"><path class="cls-1" d="M1444,47.32s-1.56,8.06-4.61,12.06c0,0,5.17,9.68,5.09,13.8"/><path class="cls-1" d="M1444,47.28s1.84,8,5,11.77c0,0-4.73,10-4.5,14.13"/></g><line class="cls-4" x1="1463.26" y1="837.52" x2="1227.15" y2="898.94"/><line class="cls-5" x1="1962.29" y1="41.21" x2="1846.12" y2="53.25"/><line class="cls-6" x1="665.29" y1="455.21" x2="549.12" y2="467.25"/><circle class="cls-1" cx="1429.33" cy="1004.93" r="110.02"/><path class="cls-2" d="M1525.83,1057.76a110.51,110.51,0,1,1-166-139.31,110.48,110.48,0,0,1,166,139.31Zm0,0A109.56,109.56,0,0,0,1361,919.9a109.53,109.53,0,1,0,164.86,137.86Z"/><path class="cls-7" d="M1476,908.35a36.68,36.68,0,0,0,5.21,4.7c4.77,3.53,8.4,3.89,8.37,5.49s-3.35,2.87-5.86,3.09a9.59,9.59,0,0,1-4.65-.82"/><path class="cls-2" d="M1539.19,990.47a296.48,296.48,0,0,1-50.79-1.92,303.85,303.85,0,0,1-49.89-10.36l-3.06-.89-3-1-6.06-2c-2-.66-4-1.48-6-2.2l-3-1.13-1.5-.56-1.46-.64-5.88-2.53c-2-.85-3.85-1.83-5.78-2.74-1-.47-1.93-.92-2.88-1.41l-2.82-1.52c-1.87-1-3.76-2-5.56-3.17A110.74,110.74,0,0,1,1371,943a65.53,65.53,0,0,1-8.26-9.81,81.7,81.7,0,0,1-6.25-11.08,98.11,98.11,0,0,0,7.15,10.43,67.36,67.36,0,0,0,8.69,9,121.44,121.44,0,0,0,20.69,14.1,199.32,199.32,0,0,0,22.78,10.56c1.93.82,3.93,1.47,5.89,2.22s3.92,1.49,5.92,2.12l6,1.94,3,1,3,.86c4,1.17,8.06,2.39,12.13,3.43s8.16,2,12.27,2.94c8.19,1.9,16.48,3.38,24.78,4.74A464.88,464.88,0,0,0,1539.19,990.47Z"/><path class="cls-2" d="M1377.12,907.39a77.27,77.27,0,0,0,21.12,20.1,79.3,79.3,0,0,1-24.2-17.55Z"/><path class="cls-2" d="M1417.45,894.48a107.67,107.67,0,0,0,44.74,22.58,108.83,108.83,0,0,1-24.42-7.33,110,110,0,0,1-22.19-12.91Z"/><path class="cls-2" d="M1370.37,911a132.39,132.39,0,0,0,15.4,14.25,131,131,0,0,0,17.53,11.64,133.14,133.14,0,0,0,39.64,14.31A133.43,133.43,0,0,1,1368.2,913Z"/><path class="cls-2" d="M1397.81,939.73c2.76,1.22,5.39,2.62,8,4,1.32.69,2.65,1.36,4,2a44.18,44.18,0,0,0,4.09,1.82,17,17,0,0,1-4.39-1.1,38.16,38.16,0,0,1-4.13-1.84A44.41,44.41,0,0,1,1397.81,939.73Z"/><path class="cls-2" d="M1488,923a47.8,47.8,0,0,1-27.45-2.51,47.85,47.85,0,0,0,13.53,2.28,46.41,46.41,0,0,0,13.45-1.71Z"/><path class="cls-2" d="M1420.25,1077.55a192.27,192.27,0,0,1-51.48-27.54,189.69,189.69,0,0,0,52.94,22.76Z"/><path class="cls-2" d="M1474.77,904.73c25.15,39.4,24.33,90-1.93,127.7-22.68,32.54-57.59,43-63.51,44.58a117.22,117.22,0,0,1-63.64-.57,110.77,110.77,0,0,0,32.53,25.91,112.09,112.09,0,0,0,67.68,11.34c40.82-6.23,64-33.46,68.71-39.23,25-30.59,25-64.27,24.7-72.77-.21-7.17-1.91-41.22-28.27-70.47A110.45,110.45,0,0,0,1474.77,904.73Z"/><path class="cls-2" d="M1405.23,1071s9.6,4.89,1.93,6.57-59.43-3.83-84.14-44.37c0,0,7.91,27.57,22.67,43.22,0,0,25.73,17.42,72,1.59C1417.74,1078,1416.06,1070.89,1405.23,1071Z"/><path class="cls-1" d="M1344,1059.53a84.6,84.6,0,0,0,7.29,5.83,90.43,90.43,0,0,0,7.81,5.05,84.75,84.75,0,0,0,8.26,4.26c2.81,1.33,5.74,2.37,8.68,3.44-.76-.17-1.52-.35-2.28-.55s-1.53-.37-2.27-.61c-1.49-.48-3-1-4.43-1.57s-2.88-1.23-4.32-1.88c-.71-.33-1.39-.72-2.09-1.08s-1.38-.74-2.05-1.14a61.6,61.6,0,0,1-7.77-5.31q-1.85-1.47-3.58-3A43.36,43.36,0,0,1,1344,1059.53Z"/><path class="cls-1" d="M1476.42,1083.85a283.25,283.25,0,0,1-30.18-4.44q-7.48-1.56-14.9-3.48t-14.7-4.33c-4.87-1.57-9.75-3.13-14.57-4.88a117.15,117.15,0,0,1-14.06-6.19,147.7,147.7,0,0,1-13.23-7.82,105.36,105.36,0,0,1-12.22-9.38l.36-.6c4.85,1.74,9.53,3.7,14.19,5.62l13.9,5.85q6.91,2.94,13.71,6.12c4.53,2.13,9.12,4.18,13.79,6s9.4,3.54,14.17,5.14,9.55,3.15,14.4,4.54c9.66,2.87,19.51,5.15,29.44,7.15Z"/><path class="cls-2" d="M1320.59,1012.84s.06.25.09.4.11.32.15.48a6.84,6.84,0,0,0,.4,1,20,20,0,0,0,1,2c.37.64.8,1.26,1.2,1.89s.88,1.22,1.32,1.83c.87,1.23,1.91,2.35,2.86,3.53s2.07,2.24,3.13,3.34a154.43,154.43,0,0,0,13.75,12.15q7.24,5.67,14.85,10.88c2.56,1.7,5.06,3.49,7.66,5.13l7.77,5-7.9-4.76c-2.65-1.57-5.2-3.29-7.8-4.92q-7.77-5-15.19-10.51a155.89,155.89,0,0,1-14.2-11.88c-1.11-1.08-2.18-2.2-3.27-3.31s-2.1-2.29-3.05-3.55c-.47-.62-1-1.21-1.42-1.86s-.91-1.29-1.32-2a23.66,23.66,0,0,1-1.15-2.11,8.85,8.85,0,0,1-.48-1.14,6.19,6.19,0,0,1-.38-1.34Z"/><path class="cls-2" d="M1513.26,1020.41a272.67,272.67,0,0,1-31.22-3.19,308.09,308.09,0,0,1-30.76-6.4,216.81,216.81,0,0,1-29.81-10.07,115.46,115.46,0,0,1-27.18-15.69,160.27,160.27,0,0,0,28.06,13.52c4.85,1.83,9.76,3.53,14.72,5s10,3,15,4.3,10.07,2.57,15.14,3.72,10.16,2.22,15.26,3.27Q1497.78,1018,1513.26,1020.41Z"/><path class="cls-2" d="M1474.4,1015.66c-.06.34,3.38.36,4.59,2.53.88,1.57.26,3.62-.49,5.21l8-3.68a15.19,15.19,0,0,0-4.32-3C1478.32,1015,1474.46,1015.29,1474.4,1015.66Z"/><path class="cls-1" d="M1444.25,1016.83a51,51,0,0,0,7,3.33c1.17.52,2.39.92,3.58,1.39l3.63,1.24a144.05,144.05,0,0,0,14.86,3.85c1.26.26,2.51.55,3.76.78l3.79.65c2.52.51,5.08.75,7.61,1.19l7.66,1c2.56.26,5.13.52,7.7.86-2.59.1-5.18.11-7.77.12s-5.17-.2-7.76-.4a125.23,125.23,0,0,1-15.4-2.21,96.37,96.37,0,0,1-15-4.35c-1.2-.49-2.41-1-3.6-1.5s-2.37-1.07-3.51-1.71A36.82,36.82,0,0,1,1444.25,1016.83Z"/><path class="cls-2" d="M1463.44,1019c-1.58-.09-3.15-.31-4.72-.52s-3.12-.54-4.67-.86a91,91,0,0,1-9.18-2.39,88.12,88.12,0,0,1-8.91-3.3c-1.45-.61-2.88-1.29-4.31-2s-2.8-1.48-4.17-2.25c2.93,1.2,5.81,2.45,8.77,3.52s5.92,2.13,8.92,3.06,6,1.8,9.06,2.6S1460.34,1018.35,1463.44,1019Z"/><path class="cls-2" d="M1503.8,1031.09c-3.33.16-6.67.25-10,.2s-6.67-.12-10-.29c-6.66-.4-13.32-1.09-19.93-2.14s-13.17-2.41-19.66-4-12.89-3.68-19.2-5.93a210.44,210.44,0,0,1-36.26-17.14q-8.62-5.13-16.7-11.09c-5.33-4-10.55-8.19-15.45-12.71a275,275,0,0,0,33.32,21.77c5.81,3.17,11.71,6.18,17.74,8.88,3,1.39,6,2.67,9.1,3.95s6.15,2.44,9.27,3.52a246.08,246.08,0,0,0,38.24,10.48A272.12,272.12,0,0,0,1503.8,1031.09Z"/><path class="cls-1" d="M1519.77,1041.88a200.87,200.87,0,0,1-23-.72,226.71,226.71,0,0,1-45.2-8.66,198.56,198.56,0,0,1-21.63-7.84q11,3.43,22,6.33c7.4,1.9,14.84,3.61,22.34,5s15,2.62,22.61,3.59S1512.12,1041.31,1519.77,1041.88Z"/><path class="cls-2" d="M1476.89,1038.52a90.69,90.69,0,0,1-34.68-8.73c5.79,1.56,11.5,3.21,17.27,4.64S1471,1037.15,1476.89,1038.52Z"/><path class="cls-2" d="M1364.14,990.54c.94.85,1.88,1.68,2.87,2.48s1.94,1.6,3,2.36c2,1.51,4,3,6.13,4.39s4.22,2.73,6.39,4,4.41,2.44,6.64,3.65c-1.19-.42-2.38-.87-3.55-1.35s-2.32-1-3.45-1.62a60.19,60.19,0,0,1-6.59-3.84,61.8,61.8,0,0,1-6.06-4.63A42.07,42.07,0,0,1,1364.14,990.54Z"/><path class="cls-2" d="M1482.34,923.75c.14,0,1.84,0,2.17.88.25.65-.38,1.42-.63,1.73-2.93,3.61-15.75.79-15.75.79-6.71-1.48-17.76-4.59-32.67-11.78a87.53,87.53,0,0,0,52.38,15.75l-1-10.24Z"/><circle class="cls-1" cx="1487.17" cy="932.45" r="1.31"/><path class="cls-2" d="M1488,933.5a4.83,4.83,0,0,1-1.83.48c-1.31.06-2.16,0-2.16,0-.25,0-.62,0-.8.24a.65.65,0,0,0-.06.6c.25.58,1.51.56,2.1.55a9.07,9.07,0,0,0,3.69-.86Z"/><path class="cls-2" d="M1349.4,928.7a87.13,87.13,0,0,0,30.25,32.73,88.1,88.1,0,0,1-32-31.76Z"/><path class="cls-2" d="M1338.67,943.49a132.92,132.92,0,0,0,39.86,37.79,134.41,134.41,0,0,1-42.28-36Z"/><path class="cls-2" d="M1326.18,970a24.49,24.49,0,0,0,1.9,3.64c.73,1.21,1.55,2.38,2.39,3.54a65.65,65.65,0,0,0,5.64,6.53,83.31,83.31,0,0,0,6.42,5.88c1.12.93,2.29,1.8,3.44,2.71l3.55,2.55-3.77-2.24c-1.22-.81-2.47-1.58-3.67-2.42a84.29,84.29,0,0,1-7-5.38,65.39,65.39,0,0,1-6.36-6.21c-1-1.13-2-2.28-2.83-3.5a28.4,28.4,0,0,1-2.49-3.93Z"/><path class="cls-2" d="M1449.46,1070.86c-3.37-.55-6.7-1.31-10-2.17s-6.56-1.88-9.79-3-6.41-2.37-9.53-3.75c-1.56-.7-3.11-1.41-4.64-2.15s-3-1.53-4.54-2.37l4.74,1.92q2.35,1,4.74,1.89c3.17,1.21,6.35,2.41,9.56,3.51s6.43,2.17,9.67,3.2q2.43.77,4.89,1.47Z"/><path class="cls-1" d="M1460,1073.92c-3.36-.6-6.68-1.39-10-2.27s-6.56-1.91-9.78-3-6.41-2.35-9.53-3.72q-2.35-1-4.66-2.11c-1.53-.75-3.07-1.5-4.56-2.32l4.75,1.87c1.58.64,3.16,1.25,4.75,1.85,3.19,1.19,6.37,2.38,9.58,3.49s6.43,2.18,9.66,3.22c1.62.53,3.24,1,4.87,1.51Z"/><path class="cls-2" d="M1521.91,979.88c-7.65-.29-15.27-1-22.87-1.94s-15.17-2.07-22.7-3.46-15-3-22.41-5.07a155.22,155.22,0,0,1-21.72-7.5c7.36,2.13,14.76,3.93,22.19,5.6q2.79.59,5.58,1.21l5.6,1.13c3.73.78,7.47,1.48,11.22,2.17l5.62,1.05,5.63,1,11.27,2Z"/><path class="cls-1" d="M1512.9,977c-7.65-.3-15.27-1-22.85-2.06s-15.12-2.34-22.61-3.91-14.91-3.44-22.25-5.6-14.61-4.57-21.71-7.4c7.42,1.84,14.81,3.73,22.21,5.51,3.71.87,7.4,1.78,11.12,2.6s7.42,1.68,11.15,2.45c7.44,1.6,14.91,3,22.4,4.43S1505.36,975.65,1512.9,977Z"/><path class="cls-2" d="M1487,935.22a2.35,2.35,0,0,1,1.82.91,2.42,2.42,0,0,1-.11,2.15c-1.21,2.8-8.53,2.86-9.83,2.86a41.91,41.91,0,0,1-18.63-4.69,42.67,42.67,0,0,0,12.18,5.32,49.72,49.72,0,0,0,20.81,1L1491.38,932Z"/><path class="cls-1" d="M1327.84,960c-35.73-9.62-43.85-8.84-44.82-6.46-3.31,8.08,69.6,48.48,141.82,76.66,70.76,27.62,150.92,47.44,154,39.28,1-2.59-5.29-9.35-44.34-29.4.41-1.27.81-2.57,1.2-3.88l.27-.9c72.19,32.8,86.76,46.39,84.91,52.5-4.64,15.35-118.53,2.87-222.25-40-85.86-35.46-166.84-92.57-160.46-106.47,2.52-5.5,20-7,91.88,14.28Z"/><path class="cls-2" d="M1327.88,960.13l-6.48-1.64-6.43-1.56c-4.3-1-8.61-2-12.94-2.8a90.44,90.44,0,0,0-13.07-1.7,19.27,19.27,0,0,0-3.23.16c-1,.14-2.18.5-2.35,1.28a2,2,0,0,0,.24,1.31,8,8,0,0,0,.83,1.31,21.47,21.47,0,0,0,2.22,2.36,88.79,88.79,0,0,0,10.47,8c3.66,2.45,7.4,4.78,11.19,7,7.57,4.52,15.3,8.77,23.1,12.89a927.12,927.12,0,0,0,96.36,43.69q24.68,9.57,49.88,17.68c16.79,5.44,33.7,10.51,50.79,14.88,8.55,2.17,17.14,4.19,25.81,5.8,4.33.79,8.69,1.49,13.06,1.91a47.86,47.86,0,0,0,6.55.22,12.06,12.06,0,0,0,3.15-.5,2.55,2.55,0,0,0,1.22-.72,1.2,1.2,0,0,0,.18-1.2,7.53,7.53,0,0,0-1.79-2.53,29.71,29.71,0,0,0-2.43-2.18c-1.71-1.37-3.5-2.65-5.33-3.87-3.66-2.44-7.44-4.72-11.26-6.93-7.65-4.4-15.44-8.54-23.29-12.59l-.22-.11.07-.25c.49-1.59,1-3.18,1.46-4.78l.1-.35.33.15c11.84,5.36,23.63,10.85,35.28,16.64a365.26,365.26,0,0,1,34.15,18.89c2.73,1.78,5.42,3.64,8,5.67a47.53,47.53,0,0,1,3.71,3.24,20.15,20.15,0,0,1,3.2,3.84,8.52,8.52,0,0,1,1,2.39,4.36,4.36,0,0,1-.22,2.73,5.19,5.19,0,0,1-1.71,2.07,10.28,10.28,0,0,1-2.21,1.29,35.25,35.25,0,0,1-9.62,2.3,134.76,134.76,0,0,1-19.57.56c-6.51-.24-13-.73-19.49-1.39a566.31,566.31,0,0,1-76.79-13.93,692.61,692.61,0,0,1-74.6-23,646.18,646.18,0,0,1-71.25-31.9A604.54,604.54,0,0,1,1279,984.28c-5.33-3.73-10.58-7.58-15.71-11.61a189.22,189.22,0,0,1-14.82-12.77,76.17,76.17,0,0,1-6.66-7.23,34.42,34.42,0,0,1-2.83-4.08,12.88,12.88,0,0,1-1.78-4.77,5.26,5.26,0,0,1,.39-2.72,4.82,4.82,0,0,1,1.87-2,12.58,12.58,0,0,1,4.86-1.52,47.7,47.7,0,0,1,9.85,0,169.35,169.35,0,0,1,19.32,3c6.38,1.29,12.71,2.8,19,4.42,12.6,3.22,25.09,6.84,37.53,10.61l.16.05-.08.14Zm-.08-.18,2.1-4.33.08.18c-12.49-3.6-25-7.06-37.64-10.12-6.32-1.52-12.65-2.95-19-4.21a168.93,168.93,0,0,0-19.22-2.82,46.63,46.63,0,0,0-9.6.09,11.72,11.72,0,0,0-4.38,1.38,3.65,3.65,0,0,0-1.41,1.51,4.12,4.12,0,0,0-.26,2,11.76,11.76,0,0,0,1.65,4.27,35.81,35.81,0,0,0,2.75,3.91,76.91,76.91,0,0,0,6.59,7,187,187,0,0,0,14.8,12.57c5.13,4,10.38,7.77,15.72,11.45,10.69,7.36,21.69,14.27,32.87,20.86s22.54,12.87,34.07,18.84a643.77,643.77,0,0,0,71.06,31.72,693.7,693.7,0,0,0,74.3,23.17q18.88,4.76,38,8.42c12.75,2.42,25.58,4.47,38.47,5.88,6.45.7,12.92,1.23,19.39,1.51a133.27,133.27,0,0,0,19.38-.42,34.45,34.45,0,0,0,9.29-2.14,9.34,9.34,0,0,0,2-1.14,4.1,4.1,0,0,0,1.37-1.63,3.15,3.15,0,0,0,.17-2,7.49,7.49,0,0,0-.89-2.07,19.17,19.17,0,0,0-3-3.64,46.09,46.09,0,0,0-3.62-3.19c-2.51-2-5.17-3.87-7.87-5.65a361.36,361.36,0,0,0-34-19c-11.6-5.84-23.36-11.39-35.17-16.8l.43-.2c-.47,1.61-1,3.2-1.48,4.8l-.15-.36c7.86,4,15.68,8.14,23.35,12.53,3.84,2.2,7.64,4.46,11.33,6.91,1.84,1.22,3.66,2.5,5.4,3.89a30.88,30.88,0,0,1,2.5,2.23,8.06,8.06,0,0,1,2,2.84,2.28,2.28,0,0,1,.11,1,2,2,0,0,1-.42,1,3.41,3.41,0,0,1-1.57,1,13.51,13.51,0,0,1-3.36.57,48,48,0,0,1-6.68-.17c-4.42-.38-8.8-1-13.16-1.81-8.71-1.54-17.34-3.48-25.92-5.59a867.66,867.66,0,0,1-101-32.06q-24.72-9.6-48.82-20.67c-16.07-7.37-32-15.1-47.54-23.48-7.78-4.2-15.49-8.52-23-13.11-3.78-2.3-7.52-4.67-11.18-7.16a88.8,88.8,0,0,1-10.52-8.15,21.68,21.68,0,0,1-2.28-2.5,8.27,8.27,0,0,1-.92-1.49,2.84,2.84,0,0,1-.27-1.89,2.21,2.21,0,0,1,1.35-1.41,6.27,6.27,0,0,1,1.7-.44,19.18,19.18,0,0,1,3.38-.12,90.57,90.57,0,0,1,13.15,1.9c4.33.88,8.63,1.9,12.92,3S1323.67,958.76,1327.8,960Z"/><path class="cls-2" d="M1519.29,1031.7c.09-.15,71.21,33.85,68,42.23-2.3,6-42.62-3.8-79.74-12.87-27.29-6.66-48.79-11.91-77.87-22.55-42.19-15.44-71.52-31.68-93.12-43.77-23.57-13.18-64.34-36-61.55-42.85,1.22-3,11.14-4,53.35,7.06l.29-.59c-50.11-13-63.16-12.37-64.63-8.68-4.19,10.53,81.1,57.73,165.39,89.64,77.24,29.25,165.63,50.2,169.18,40.63S1519.21,1031.85,1519.29,1031.7Z"/><path class="cls-2" d="M1535.2,1037.88q8.08,3.54,16.1,7.27c5.35,2.48,10.68,5,16,7.62s10.53,5.3,15.73,8.1,10.35,5.7,15.32,9a88.64,88.64,0,0,1,7.27,5.21,33.45,33.45,0,0,1,3.39,3.06,11.8,11.8,0,0,1,2.76,4.05,4.09,4.09,0,0,1,0,3,4.79,4.79,0,0,1-2,2.14,14,14,0,0,1-4.58,1.58,52.3,52.3,0,0,1-9,.74,152.15,152.15,0,0,1-17.76-1.08c-5.89-.64-11.73-1.53-17.55-2.51-11.64-2-23.17-4.5-34.64-7.25q-8.6-2.07-17.13-4.35c-5.7-1.49-11.39-3-17.06-4.63-22.66-6.45-45.15-13.5-67.29-21.63a702.23,702.23,0,0,1-65.08-27.67,666.87,666.87,0,0,1-62.1-33.94q-7.5-4.71-14.82-9.72c-4.87-3.35-9.67-6.81-14.3-10.53-2.32-1.85-4.6-3.76-6.8-5.77a65.12,65.12,0,0,1-6.3-6.45,24.79,24.79,0,0,1-2.66-3.83,9.77,9.77,0,0,1-.93-2.34,6.55,6.55,0,0,1-.2-1.37,4.56,4.56,0,0,1,.26-1.53,4.27,4.27,0,0,1,2-2.24,8.82,8.82,0,0,1,2.4-.9,21.25,21.25,0,0,1,4.64-.47,94.74,94.74,0,0,1,17.72,2.12c5.81,1.13,11.55,2.49,17.27,3.93s11.4,3,17.06,4.66,11.3,3.33,16.92,5.09l-.09.29c-11.37-3-22.77-6-34.24-8.56-5.73-1.3-11.49-2.51-17.27-3.48a101.15,101.15,0,0,0-17.33-1.71,19,19,0,0,0-4.12.48c-1.27.3-2.43.9-2.6,1.64a2.1,2.1,0,0,0-.1.64,3.45,3.45,0,0,0,.14.8,7.91,7.91,0,0,0,.73,1.73,21.88,21.88,0,0,0,2.43,3.37,62.87,62.87,0,0,0,6.13,6.08c2.17,1.92,4.44,3.76,6.75,5.55a347.53,347.53,0,0,0,29,19.81c10,6.21,20.14,12.07,30.42,17.77s20.7,11.13,31.23,16.34c21.08,10.41,42.54,20.06,64.42,28.68a649.82,649.82,0,0,0,135.94,36.93c11.59,1.75,23.28,3.3,34.9,3.42a49.38,49.38,0,0,0,8.56-.62,11.65,11.65,0,0,0,3.75-1.22,2.22,2.22,0,0,0,1-1,1.61,1.61,0,0,0,0-1.26,10.16,10.16,0,0,0-2.19-3.18,33.31,33.31,0,0,0-3.14-2.88,86.09,86.09,0,0,0-7-5.13c-9.77-6.42-20.09-12.09-30.49-17.57-5.22-2.72-10.44-5.44-15.68-8.1l-15.79-7.92Z"/><path class="cls-8" d="M1330.45,956.7c-66.19-20.12-83.9-19.48-86.37-14.15-6.48,14,83.69,77.85,185,114.35,87.59,31.56,184.1,42.87,188.08,29.66,1.58-5.23-10.42-17.32-81.79-49.23"/><circle class="cls-1" cx="693.2" cy="442.23" r="68.36"/><path class="cls-2" d="M753.82,410.46a69.49,69.49,0,0,1,5.09,52.28,67.57,67.57,0,0,1-33.68,40.59,68.71,68.71,0,0,1-25.84,7.41,69.63,69.63,0,0,1-67.1-36.58,69.09,69.09,0,0,1-7.75-25.73,68.4,68.4,0,0,1,2.74-26.78,69.33,69.33,0,0,1,12.83-23.72,68.26,68.26,0,0,1,73.61-21.42A69.51,69.51,0,0,1,753.82,410.46Zm-.14.07a67.08,67.08,0,0,0-40.25-33.08,68.25,68.25,0,0,0-72.12,21.48,67.73,67.73,0,0,0-12.68,23.14,68.65,68.65,0,0,0-2.94,26.26A67.91,67.91,0,0,0,633,473.78a67.14,67.14,0,0,0,66.3,36.13,69,69,0,0,0,45.88-24.3A69.2,69.2,0,0,0,758,462.46a67,67,0,0,0-4.33-51.93Z"/><path class="cls-2" d="M657.79,383.65c-3.89,6.83-11.93,23.32-8.58,43.55S666.44,467.05,675,466c1.46-.18,3.55-1.07,6.28-.23,4.29,1.32,5.84,5.61,7.44,7.75,6.28,8.35,28.62,3.85,41.61-1.65,17.31-7.32,27.1-20.27,31.46-27a68.68,68.68,0,0,1-7,28.64c-11,22.37-31,31.17-35.15,32.91-20.08,8.37-45.39,7.42-65.76-6.59-23.76-16.32-32.16-44.43-29.08-66.79a71.56,71.56,0,0,1,16.68-36.2A65.91,65.91,0,0,1,657.79,383.65Z"/><path class="cls-2" d="M686.11,392.88a28.43,28.43,0,0,0-5.31.08,10.79,10.79,0,0,0-4.63,1.45,5.24,5.24,0,0,0-2.29,3.49,9.63,9.63,0,0,0,.23,4.48,3.41,3.41,0,0,0,2.72,2.37,9,9,0,0,0,4.53-.54,13.9,13.9,0,0,0,4.29-2.51,8.94,8.94,0,0,0,2.86-4.25,7.93,7.93,0,0,1-1.78,5.25,13,13,0,0,1-4.43,3.65,10.21,10.21,0,0,1-5.92,1.21,6.32,6.32,0,0,1-3.16-1.34,6.67,6.67,0,0,1-1.94-2.84,11.26,11.26,0,0,1-.16-6.14,8,8,0,0,1,1.41-2.88,7,7,0,0,1,2.51-2,11,11,0,0,1,5.74-.88A17.11,17.11,0,0,1,686.11,392.88Z"/><path class="cls-2" d="M711.54,449.29a12.8,12.8,0,0,0-4.84,1.61,8.25,8.25,0,0,0-1.73,1.42,10.93,10.93,0,0,0-1.36,1.84,5.16,5.16,0,0,0-.8,3.94,7.33,7.33,0,0,0,2.94,3.82,5.79,5.79,0,0,1-2.84-.67,5.57,5.57,0,0,1-2.27-2.22,5.68,5.68,0,0,1-.66-3.31,7.51,7.51,0,0,1,1-3.08,9.56,9.56,0,0,1,2-2.38,7.72,7.72,0,0,1,2.76-1.52A7.42,7.42,0,0,1,711.54,449.29Z"/><path class="cls-2" d="M713.35,450.75a4.08,4.08,0,0,1,1.9,1.23,3.84,3.84,0,0,1,1,2,6.11,6.11,0,0,1-.35,2.32,11.76,11.76,0,0,1-.75,2.13,4.84,4.84,0,0,1-1.39,1.82,6.7,6.7,0,0,1-1.9,1.22,6.42,6.42,0,0,1-2.23.45,4.46,4.46,0,0,1-1.19-.15,1.56,1.56,0,0,1-1-.77l.16-.12a3.44,3.44,0,0,0,1.74-.51l1.67-.85c.54-.29,1.13-.51,1.68-.81s1.1-.59,1.62-1a2.07,2.07,0,0,0,1-1.56,3.36,3.36,0,0,0-.62-1.75,35.93,35.93,0,0,1-1.45-3.59Z"/><path class="cls-2" d="M740.45,449.93a8.5,8.5,0,0,1-.67-6.05,4.55,4.55,0,0,1,.79-1.59,2.67,2.67,0,0,1,1.77-1,2.72,2.72,0,0,1,1.75.47,3.8,3.8,0,0,1,1.12,1.14,4.7,4.7,0,0,0-2.54-.07c-.46.23-.73.82-1,1.63s-.39,1.7-.57,2.62A26.84,26.84,0,0,1,740.45,449.93Z"/><path class="cls-2" d="M740.22,451a17,17,0,0,1,2.53-2c.83-.56,1.65-1.06,2.34-1.54a7.87,7.87,0,0,0,.86-.67,2.38,2.38,0,0,0,.45-.49,1.44,1.44,0,0,0,0-1,15.52,15.52,0,0,0-.56-1.51,3.57,3.57,0,0,1,1.7.58,2.76,2.76,0,0,1,1.23,1.78,3.19,3.19,0,0,1-.54,2.38,5.2,5.2,0,0,1-1.41,1.4,8.1,8.1,0,0,1-3.19,1.27A7.53,7.53,0,0,1,740.22,451Z"/><path class="cls-1" d="M674.25,469.07a42.79,42.79,0,0,0,1.93,3.84,5.92,5.92,0,0,0,2.31,2.37,4.67,4.67,0,0,0,1.47.41,10.18,10.18,0,0,0,1.82,0c1.31-.12,2.71-.46,4.28-.67a8.89,8.89,0,0,1-3.65,2.95,7.39,7.39,0,0,1-2.49.59,5.53,5.53,0,0,1-4.88-2.41,6.76,6.76,0,0,1-1-2.34A8.1,8.1,0,0,1,674.25,469.07Z"/><path class="cls-2" d="M679.64,426.71a10.34,10.34,0,0,0-.47,2.52c0,.36.1.7.22.68s.06-.13,0-.2,0-.11.06-.15a5.67,5.67,0,0,0,.72-.34,1.87,1.87,0,0,1,1-.18,6.61,6.61,0,0,1,2.9,1l.13.38a4.13,4.13,0,0,1-.94,1.56,4,4,0,0,1-1.27.94c-1,.47-2.09.2-3.5-.33a3.4,3.4,0,0,1-1.11-.75,2.45,2.45,0,0,1-.63-1.33,3.22,3.22,0,0,1,.46-1.94,7.5,7.5,0,0,1,2.05-2.14Z"/><path class="cls-2" d="M681,426.57a1.21,1.21,0,0,1,.34-1.14c.24-.18.57-.3.81-.05s.29.79.4,1,.34.15.68.09a1.2,1.2,0,0,1,.87.12c.21.11.43.25.48.46.06.42-.15.92-1,1.48l-.29.08a8.08,8.08,0,0,1-1.09,0,1.2,1.2,0,0,1-.51-.1c-.08-.05,0-.16,0-.29s.18-.29.32-.54.14-.47,0-.43-.38.46-.41.65,0,.07-.05-.08a3,3,0,0,0-.48-.91Z"/><path class="cls-2" d="M721.29,426.09a2.93,2.93,0,0,1-3-1,4.81,4.81,0,0,1-.92-3.27,11,11,0,0,1,.6-3.08,7.34,7.34,0,0,1,.75-1.55,4.25,4.25,0,0,1,1.53-1.47,3.13,3.13,0,0,1,2.59-.11,4.32,4.32,0,0,1,1.64,1.25,6.55,6.55,0,0,1,1.41,3.12,5.27,5.27,0,0,1-.54,3.3,5.5,5.5,0,0,1-2.1,2.2,6.24,6.24,0,0,0,.36-4.91,5.69,5.69,0,0,0-1.23-1.79,1.59,1.59,0,0,0-.61-.41c-.14,0,0,0-.13,0-.56.21-1.54,2.31-1.94,3.75a4.09,4.09,0,0,0-.16,2.2A2.77,2.77,0,0,0,721.29,426.09Z"/><path class="cls-2" d="M722.32,426.68c.21-.16.41-.27.59-.42l.51-.37c.16-.12.21-.41.34-.3s.2.35.78.46l.19.07a.8.8,0,0,1,.17.75,1.05,1.05,0,0,1-.31.53c-.25.28-.61.1-.86.06a2.61,2.61,0,0,1-.74-.2,4.44,4.44,0,0,1-.67-.38Z"/><path class="cls-2" d="M703.14,394.92a2.37,2.37,0,0,1-.26-2.45,3,3,0,0,1,1.67-1.69,15.14,15.14,0,0,1,2.23-.19,3.8,3.8,0,0,0,.94-.29l.94-.5a3.45,3.45,0,0,1,2.38-.47,3.42,3.42,0,0,1,2.44,1.59,3.38,3.38,0,0,1,.29,2.72,2.34,2.34,0,0,1-.26.61,2.31,2.31,0,0,1-1,1,1.69,1.69,0,0,1-.36.12,1.09,1.09,0,0,1-.38-.05l0-.29a1.19,1.19,0,0,0-.06-.8,4.76,4.76,0,0,0-.29-.69,3.6,3.6,0,0,0-.62-.88c-.18-.16-.23-.37-.54-.6a11.27,11.27,0,0,0-1.37-.62,2.19,2.19,0,0,0-1.79.08c-.56.26-.88,1-1.2,1.38-.68.82-1.36.87-2.45,2Z"/><path class="cls-2" d="M704.13,395c.76.3,1.39.61,2,.82a3.25,3.25,0,0,0,1.46.28,2.48,2.48,0,0,0,1.28-.55l.77-.61a7.87,7.87,0,0,1,.9-.72,6,6,0,0,1,0,1.2,5.19,5.19,0,0,1-.43,1.15,3,3,0,0,1-2.31,1.53,3.26,3.26,0,0,1-2.52-1A3.81,3.81,0,0,1,704.13,395Z"/><path class="cls-2" d="M654.16,430.44a1.75,1.75,0,0,1,.54-1.35,1.37,1.37,0,0,1,1.24-.29,1.64,1.64,0,0,1,1.22,1.11,1.2,1.2,0,0,1-.67,1.41c-.66-.16-1-.15-1.19,0a.28.28,0,0,0,0,.36s-.06-.12-.24-.31Z"/><path class="cls-2" d="M738.59,400.53a2.61,2.61,0,0,1,1.06-1.22,1.57,1.57,0,0,1,1.3-.21c.47.17.91.64,1.34.79a2.9,2.9,0,0,0,.7.13,1.82,1.82,0,0,1,1,.32,1.74,1.74,0,0,1,.61,1.3,2.16,2.16,0,0,1-.05.58c0,.15-.09.3-.14.46a3.17,3.17,0,0,1-.79,1.32,2.91,2.91,0,0,1-1.25.63,3.65,3.65,0,0,1-1.62,0l-.19-.23a4.62,4.62,0,0,1,.71-2.6,2.3,2.3,0,0,1,.7-.58.47.47,0,0,1,.14-.08.28.28,0,0,1,.13,0c.08,0,.26.19.42.15s.11-.24,0-.34a.56.56,0,0,0-.48-.12c-.38,0-.74.53-1.08.74a1.38,1.38,0,0,1-1.11,0,3.32,3.32,0,0,1-1.32-.8Z"/><path class="cls-2" d="M699.05,433.32c.43,0,.8,0,1.15-.09a1.35,1.35,0,0,0,.74-.29.3.3,0,0,0,0-.37.25.25,0,0,0-.23-.07.3.3,0,0,0-.23.18.51.51,0,0,0,0,.31.62.62,0,0,0,.22.28,2.52,2.52,0,0,0,1.17.35l.37.15a1.63,1.63,0,0,1,.72,1.18,1.41,1.41,0,0,1-.09.64,2.24,2.24,0,0,1-.42.6,1.87,1.87,0,0,1-.67.35,1.65,1.65,0,0,1-.7,0,3.46,3.46,0,0,1-1-.52,2.63,2.63,0,0,1-1-1.12,3.82,3.82,0,0,1-.32-1.29Z"/><path class="cls-1" d="M643,455.89a11.72,11.72,0,0,1-1.17,1.67,5,5,0,0,1-.93,1,2,2,0,0,0-.56.37.85.85,0,0,0-.25.73,1.36,1.36,0,0,0,.38.74,1.84,1.84,0,0,0,.77.43,4.29,4.29,0,0,0,1.39.07c.39-.05.76-.2,1.19-.28s.93-.19,1.48-.32a7.24,7.24,0,0,0,1.78-.61l.29.09a3,3,0,0,1-.62,2.39,4.37,4.37,0,0,1-2,1.5,4.14,4.14,0,0,1-2.65,0,3.4,3.4,0,0,1-1.23-.62,3.45,3.45,0,0,1-.8-1.05l-.94-2.07a3.51,3.51,0,0,1-.26-.55,2.83,2.83,0,0,1-.22-.64,2.65,2.65,0,0,1,0-1.45,2.46,2.46,0,0,1,.78-1.11,3.52,3.52,0,0,1,1.06-.6,3.34,3.34,0,0,1,2.35,0Z"/><path class="cls-1" d="M643.69,454.56a3.16,3.16,0,0,1,1.85.43,3.31,3.31,0,0,1,1.36,1.47,2.35,2.35,0,0,1-.18,2.33,2.12,2.12,0,0,1-1.84.85,5.27,5.27,0,0,0,.42-1.52,2.11,2.11,0,0,0-.23-.84c-.14-.32-.36-.71-.61-1.15A11.52,11.52,0,0,1,643.69,454.56Z"/><path class="cls-1" d="M733.11,482.55a5.45,5.45,0,0,1-.6-5.36,6.23,6.23,0,0,1,1.86-2.39,9.83,9.83,0,0,1,1.27-.8,4,4,0,0,1,1.86-.45,2.51,2.51,0,0,1,1.38.47,2.58,2.58,0,0,1,.87,1.13,3.94,3.94,0,0,1,.18,1.89,7.27,7.27,0,0,1-1,2.73,8.1,8.1,0,0,1-1.76,2.1,4.67,4.67,0,0,1-2.45,1.12,7.86,7.86,0,0,0,1.3-2,14.49,14.49,0,0,0,.75-2.12,8.64,8.64,0,0,0,.31-2,1.06,1.06,0,0,0-.09-.53.33.33,0,0,0,.13.15.5.5,0,0,0,.23.11,1.2,1.2,0,0,0-.5.14c-.27.09-.57.3-.86.43a5.88,5.88,0,0,0-1.45,1.22A7.49,7.49,0,0,0,733.11,482.55Z"/><path class="cls-1" d="M676.65,504.74a10.28,10.28,0,0,1-2.27-1.87,3.53,3.53,0,0,1-.81-1.49,1.48,1.48,0,0,1,.28-1.2,2.33,2.33,0,0,1,.88-.65,7.6,7.6,0,0,1,3.17-.39,15.49,15.49,0,0,1,3,.48,10.42,10.42,0,0,1,2.88,1.16,4.2,4.2,0,0,1,.73.6,2,2,0,0,1,.36.52,1.35,1.35,0,0,1,.13.86,1.76,1.76,0,0,1-.65,1.08,4.91,4.91,0,0,1-.73.49,8.56,8.56,0,0,1-2.92.86,8.26,8.26,0,0,1-1.49.06,11.52,11.52,0,0,1-1.45-.22c.48-.13.94-.2,1.39-.33a9.67,9.67,0,0,0,1.31-.46,10.74,10.74,0,0,0,2.33-1.24,2.08,2.08,0,0,0,.4-.37c.12-.11.12-.23.08-.1a.9.9,0,0,0,0,.17s0,0-.06,0a2.37,2.37,0,0,0-.4-.25,12.27,12.27,0,0,0-2.42-.86,23.55,23.55,0,0,0-2.63-.53,8.16,8.16,0,0,0-2.46,0,2.34,2.34,0,0,0-.31.11s-.06,0-.08.14a2.37,2.37,0,0,0,.33,1.09A24.83,24.83,0,0,0,676.65,504.74Z"/><path class="cls-1" d="M699.62,495.39a2.61,2.61,0,0,1-2.49-.81,3.08,3.08,0,0,1-.74-1.3,2.8,2.8,0,0,1,.11-1.85,2.42,2.42,0,0,1,.72-.94,2.79,2.79,0,0,1,.87-.45,2.86,2.86,0,0,1,1.56,0,2.57,2.57,0,0,1,1.9,1.8,7.17,7.17,0,0,0-1.95.56,1.43,1.43,0,0,0-.45.3c0,.05,0,.07,0,.07a.26.26,0,0,0,.12-.13,1.33,1.33,0,0,0-.08.78A7.18,7.18,0,0,0,699.62,495.39Z"/><path class="cls-1" d="M700.13,494.69a2,2,0,0,1-.35-.64c0-.14,0-.26.12-.25s.47.14.58.1.08-.17,0-.35a1.08,1.08,0,0,1-.18-.44c0-.11,0-.22,0-.26a.53.53,0,0,1,.33,0,2.67,2.67,0,0,0,.7.08l.19,0a1.07,1.07,0,0,1,.54.6.78.78,0,0,1,.07.47c0,.12-.16.17-.29.22a.87.87,0,0,1-.5,0c-.21,0-.35,0-.35.1s.18.39.23.54-.09.19-.23.2a1.76,1.76,0,0,1-.71-.21Z"/><path class="cls-1" d="M636.48,421.49a7.73,7.73,0,0,1,1.51-5.37,6.83,6.83,0,0,1,5.47-2.74,5.09,5.09,0,0,1,.87.06c.32.07.63.15.94.25a9.09,9.09,0,0,1,.9.52,4.17,4.17,0,0,1,1.44,4.08,8.52,8.52,0,0,1-.8,2.75,6.5,6.5,0,0,1-1.64,2.24,15.49,15.49,0,0,0,.21-2.59,14.08,14.08,0,0,0-.13-2.39,2.94,2.94,0,0,0-.62-1.6c-.09,0-.12-.11-.2-.15a.94.94,0,0,1-.23-.1,1.21,1.21,0,0,1-.33-.07c-.11,0-.28,0-.42,0a4.81,4.81,0,0,0-1,.07,6.2,6.2,0,0,0-1,.27,6,6,0,0,0-1.82,1A16,16,0,0,0,636.48,421.49Z"/><path class="cls-1" d="M637.77,421.41a13.35,13.35,0,0,1,.9,2.22,2.15,2.15,0,0,0,.3,1.2,1.21,1.21,0,0,0,1.13.37c.41-.08.75-.21,1.07-.29s.59-.28.89-.4a10.2,10.2,0,0,0,2.12-1.09l.19.06a2.69,2.69,0,0,1-1.32,2.92,3.16,3.16,0,0,1-1.68.39,2.56,2.56,0,0,1-1.6-.55c-.45-.33-.8-.66-1.22-.92a5.93,5.93,0,0,1-1.36-.92,2.22,2.22,0,0,1,.38-3Z"/><path class="cls-2" d="M653.59,444.21s3.37.13,3.94,6.11"/><path class="cls-2" d="M742.88,466s-2.37-1.49,2.93-5.92,7.51-1.74,7.51-1.74Z"/><path class="cls-2" d="M653.17,391.6s4.73,5.53-3,6.09"/><path class="cls-1" d="M660.28,453.7s-1.89,2.06,1.26,5.67,5.24,1.21,5.24,1.21Z"/><path class="cls-2" d="M662.54,455.77a4.48,4.48,0,0,1,1.07.76,4.1,4.1,0,0,1,.62.75,4,4,0,0,1,.37.78,4.67,4.67,0,0,0,.5,1.06,1.45,1.45,0,0,1-1.5.15,2.29,2.29,0,0,1-1.06-.92,2.4,2.4,0,0,1-.38-1.23A2.15,2.15,0,0,1,662.54,455.77Z"/><path class="cls-1" d="M743.53,464.69a25,25,0,0,0,2.52-.89,5.2,5.2,0,0,0,1.79-1.2c.58-.66,1.22-1.28,1.82-1.87a7.56,7.56,0,0,0,.83-.89,1,1,0,0,0,.22-1.1,1,1,0,0,1,.6.54,2,2,0,0,1,.11.86,4.34,4.34,0,0,1-.47,1.49,10.53,10.53,0,0,1-1.63,2.31,4.51,4.51,0,0,1-2.91,1.39A4.79,4.79,0,0,1,743.53,464.69Z"/><path class="cls-1" d="M629,443.61c.28,1,.39,1.87.66,2.66a2.67,2.67,0,0,0,.51,1,2.93,2.93,0,0,0,1.11.68,1.68,1.68,0,0,1-1.58-.06,2.3,2.3,0,0,1-1-1.32,3.67,3.67,0,0,1-.15-1.53A3.55,3.55,0,0,1,629,443.61Z"/><path class="cls-1" d="M653.12,392.9c-.25.7-.57,1.19-.71,1.64a1.81,1.81,0,0,0-.11.65,3.67,3.67,0,0,0,.21.89,1.26,1.26,0,0,1-.94-.62,1.46,1.46,0,0,1-.1-1.24,1.94,1.94,0,0,1,.66-.91A1.83,1.83,0,0,1,653.12,392.9Z"/><path class="cls-1" d="M719.84,496.25a9.48,9.48,0,0,0,1.16-.1,1.28,1.28,0,0,0,.74-.28.3.3,0,0,0,0-.37.23.23,0,0,0-.23-.07.3.3,0,0,0-.23.18.51.51,0,0,0,0,.31.68.68,0,0,0,.22.28,2.52,2.52,0,0,0,1.17.35l.37.15a1.63,1.63,0,0,1,.72,1.18,1.41,1.41,0,0,1-.09.64,2,2,0,0,1-.42.59,1.75,1.75,0,0,1-.67.36,1.83,1.83,0,0,1-.7,0,3.74,3.74,0,0,1-1-.52,2.65,2.65,0,0,1-1-1.13,3.71,3.71,0,0,1-.32-1.28Z"/><path class="cls-9" d="M638.68,479.45s-5.87,3,2.1,10.59,6.09-3.2,6.09-3.2Z"/><path class="cls-9" d="M754.76,473.45s3.63.17,1.13-5"/><path class="cls-9" d="M708.25,508.93s-.46,2.56,6,.52,3.56-3.42,3.56-3.42Z"/><path class="cls-9" d="M640.06,399.74s-1.92-1,.13-2.83,2.92-1,2.92-1Z"/><path class="cls-9" d="M626.31,422.52a8.37,8.37,0,0,0-2.07,5.48,8.63,8.63,0,0,0,2.45,5.77c1.07,1.19,2.14,2.37,3,2.11,2.44-.72,2.38-12.85-1-14A2.93,2.93,0,0,0,626.31,422.52Z"/><path class="cls-9" d="M625.37,433.7a3,3,0,0,0-2,1.29c-1,1.77.74,4.46,1.55,4.37s.94-2.21,1-2.4A6.41,6.41,0,0,0,625.37,433.7Z"/><path class="cls-9" d="M665.73,505.1s.35,2.26,1.43,2.74,2.65-1.39,2.65-1.39Z"/><path class="cls-9" d="M670.57,506.92s-2.07,2.25,2.64,3.52,4.87-2.21,4.87-2.21l-6.7-1.92"/><path class="cls-1" d="M665.35,474.7l.3,1.28c.05.26.1.39.12.37a.27.27,0,0,0-.31-.18c-.25,0-.47.31-.71.95a1.21,1.21,0,0,1-1.54-.26,1.62,1.62,0,0,1-.22-1.63,1.34,1.34,0,0,1,.94-.85A1.76,1.76,0,0,1,665.35,474.7Z"/><path class="cls-1" d="M657.32,488.21a2.58,2.58,0,0,1,1,1.3,1.58,1.58,0,0,1-.07,1.31c-.26.42-.83.75-1.06,1.13a3.64,3.64,0,0,0-.28.66,1.89,1.89,0,0,1-.53.9,1.75,1.75,0,0,1-1.4.31,2,2,0,0,1-.56-.17c-.14-.07-.27-.16-.41-.24a3.11,3.11,0,0,1-1.12-1.06,2.89,2.89,0,0,1-.34-1.36,3.71,3.71,0,0,1,.32-1.58l.27-.13a4.69,4.69,0,0,1,2.39,1.25,2.14,2.14,0,0,1,.41.81.88.88,0,0,1,.05.15.22.22,0,0,1,0,.13c0,.07-.24.22-.23.38s.21.16.33.07a.57.57,0,0,0,.22-.44c0-.38-.36-.84-.5-1.21a1.38,1.38,0,0,1,.21-1.09,3.34,3.34,0,0,1,1.07-1.12Z"/></g><g id="white_spots" data-name="white spots"><path class="cls-1" d="M1455.18,1080s-70.1-103-179.6-73.22c0,0-108,48.72-93.26,73.22Z"/><path class="cls-1" d="M727.87,380.61s-53.56,7.12-107.21,58.75C620.66,439.36,607.75,314.22,727.87,380.61Z"/></g><g id="rocket"><path class="cls-10" d="M280.92,467.42s25.43,43.94,0,86c0,0-37.59-23.3-58-43.12A256.67,256.67,0,0,1,247.58,490c6.48-4.69,14.82-10.24,26.42-18Z"/><path class="cls-10" d="M373.83,455s32,51.26,0,111l19.82-3.64s20.83-46.39,0-103.38Z"/><circle class="cls-11" cx="341" cy="512" r="34.5"/><circle class="cls-2" cx="341" cy="512.5" r="26.5"/><circle class="cls-1" cx="328.5" cy="498.5" r="4"/><circle class="cls-1" cx="335.65" cy="493.42" r="2.35"/><circle class="cls-11" cx="435.33" cy="512.5" r="24.67"/><circle class="cls-2" cx="435.33" cy="512.86" r="18.95"/><circle class="cls-1" cx="426.4" cy="502.85" r="2.86"/><circle class="cls-1" cx="431.51" cy="499.22" r="1.68"/><path class="cls-1" d="M467.5,482.5s38.62,3.08,38.56,28.29c0,0,1.61,23.92-39,27.32C467.08,538.11,483.5,511.5,467.5,482.5Z"/><polygon class="cls-2" points="418.95 465.15 457.87 441 482.5 446.87 459.08 478.2 418.95 465.15"/><polygon class="cls-2" points="419.31 556.43 458.24 580.58 482.87 574.71 459.45 543.38 419.31 556.43"/><path class="cls-12" d="M222.92,510.31s100.88-71.95,281.73-7.38A33.3,33.3,0,0,0,501,497c-10.13-13.11-27.34-14.71-33-15a421.23,421.23,0,0,0-82-25c-33.64-6.57-52.34-8.92-76-2-25.55,7.47-47.2,23.81-66,38C234.88,499.88,227.7,506,222.92,510.31Z"/><path class="cls-12" d="M222.92,510.31S334,590.94,502.77,521.72A36.08,36.08,0,0,1,497,529c-10.42,10.12-24.08,11-29,11a387.61,387.61,0,0,1-52,17c-42.41,10.62-79.7,20-117,5-15-6-29.13-15.61-40-23A307.92,307.92,0,0,1,222.92,510.31Z"/></g></svg>
