<svg xmlns="http://www.w3.org/2000/svg" width="327.31" height="191.28" viewBox="0 0 327.31 191.28"><defs><style>.cls-1,.cls-3{fill:#fff;}.cls-2{fill:#232323;}.cls-3{stroke:#fff;}.cls-3,.cls-4{stroke-miterlimit:10;}.cls-4{fill:none;stroke:#232323;stroke-linecap:round;stroke-width:0.75px;}</style></defs><g id="saturn"><circle class="cls-1" cx="145.37" cy="83.37" r="81.98"/><path class="cls-2" d="M227,75.76a81.93,81.93,0,0,1-18.41,60A82.33,82.33,0,1,1,218,45.06,82.1,82.1,0,0,1,227,75.76Zm0,0a81.83,81.83,0,1,0-3.36,31.8A81.86,81.86,0,0,0,227,75.76Z"/><path class="cls-3" d="M133.9,4.27a27.43,27.43,0,0,0,5.18.73c4.42.19,6.81-1.1,7.46-.1s-.87,3.17-2.33,4.35A7.09,7.09,0,0,1,141,10.69"/><path class="cls-2" d="M207.19,28.63A208.41,208.41,0,0,1,175.2,49a220.11,220.11,0,0,1-35.15,14.54l-2.27.72-2.3.65-4.59,1.28c-1.53.44-3.1.75-4.64,1.14s-3.08.79-4.66,1l-4.7.87c-1.57.29-3.16.46-4.73.7-.79.11-1.58.23-2.37.33l-2.39.22c-1.59.14-3.18.3-4.78.34a82.25,82.25,0,0,1-19.12-1.1A48.08,48.08,0,0,1,74.31,67a59.1,59.1,0,0,1-8.44-4.37,75.73,75.73,0,0,0,8.81,3.33,50.82,50.82,0,0,0,9.12,1.83,91.76,91.76,0,0,0,18.6-.07,153.47,153.47,0,0,0,18.4-3c1.52-.31,3-.74,4.54-1.1s3-.71,4.53-1.16l4.5-1.3,2.25-.65,2.22-.74c3-1,6-1.87,8.91-2.92s5.87-2.15,8.79-3.28c5.85-2.21,11.58-4.74,17.29-7.32C185.22,40.94,196.29,35,207.19,28.63Z"/><path class="cls-2" d="M72.6,44.42a57.08,57.08,0,0,0,21.28,4.09,59.18,59.18,0,0,1-22.42-.26Z"/><path class="cls-2" d="M92,19.73a80.08,80.08,0,0,0,37-4.33,81.49,81.49,0,0,1-37.25,7.32Z"/><path class="cls-2" d="M69.84,49.55a97.47,97.47,0,0,0,31,2.43,98.91,98.91,0,0,0,30.46-7.5,99.92,99.92,0,0,1-30.3,9,99.8,99.8,0,0,1-31.83-1Z"/><path class="cls-2" d="M98.72,56.25c2.2-.49,4.41-.75,6.6-1l3.29-.39c1.1-.15,2.19-.27,3.3-.49a11.27,11.27,0,0,1-3.15,1.25,25.19,25.19,0,0,1-3.32.62c-1.12.12-2.23.21-3.36.22A22.26,22.26,0,0,1,98.72,56.25Z"/><path class="cls-2" d="M147.63,8.5a35.8,35.8,0,0,1-18.19,9.73A34.74,34.74,0,0,0,146.15,7.15Z"/><path class="cls-2" d="M170.24,132.61a143.37,143.37,0,0,1-43.47,3.86,141,141,0,0,0,42-8.64Z"/><path class="cls-2" d="M131.65,2.54c32,13.84,52.55,45.43,52.06,79.67-.43,29.56-17.66,50.54-20.63,54a87.37,87.37,0,0,1-39.54,26.18,82.57,82.57,0,0,0,30.89,2.44A83.57,83.57,0,0,0,201,143.63c22.62-20.87,25.58-47.35,26.08-52.88a83.2,83.2,0,0,0-15.1-55.24c-3.12-4.35-18.37-24.67-46.85-31.74A82.4,82.4,0,0,0,131.65,2.54Z"/><path class="cls-2" d="M158.05,134.24s8-1,3.93,3.25-38.3,22.42-70.47,7.69c0,0,16.39,13.73,32,17.23,0,0,23.15,0,45.16-29.06C168.7,133.35,164.69,129.64,158.05,134.24Z"/><path class="cls-1" d="M115.45,152.68q3.47.4,6.93.46c2.31,0,4.62,0,6.92-.16s4.59-.42,6.87-.79,4.53-.89,6.81-1.4c-1.08.44-2.17.88-3.28,1.24s-2.24.67-3.39.92a42.67,42.67,0,0,1-6.95,1,43.29,43.29,0,0,1-7-.06c-1.17-.11-2.33-.25-3.48-.43A32.49,32.49,0,0,1,115.45,152.68Z"/><path class="cls-1" d="M207.4,112.55A206.93,206.93,0,0,1,187,122.74Q181.77,125,176.4,127t-10.89,3.58c-3.66,1.1-7.32,2.24-11,3.24a71,71,0,0,1-11.3,2,94,94,0,0,1-11.51.44A65.25,65.25,0,0,1,120.15,135l0-.7c3.7-1.2,7.39-2.1,11-3s7.31-1.67,11-2.44,7.29-1.4,11-1.92,7.38-1.09,11-1.87,7.28-1.65,10.89-2.6,7.23-2,10.81-3.06c7.19-2.14,14.25-4.74,21.28-7.53Z"/><path class="cls-1" d="M169.5,140.38c3-.66,5.95-1.45,8.86-2.31,1.46-.44,2.91-.88,4.34-1.37l2.15-.73,2.12-.8c1.42-.52,2.83-1.07,4.22-1.66l2.1-.88,2.08-.93c2.78-1.22,5.48-2.62,8.29-3.93a47.59,47.59,0,0,1-7.58,5.32,57.6,57.6,0,0,1-8.41,4,56.44,56.44,0,0,1-8.93,2.53A37.75,37.75,0,0,1,169.5,140.38Z"/><path class="cls-1" d="M190.28,146.55a67.39,67.39,0,0,1-11.43,6.71,78.6,78.6,0,0,1-25.56,7,67.44,67.44,0,0,1-13.25.06c4.39-.4,8.74-.89,13-1.61a125,125,0,0,0,12.76-2.81,126.69,126.69,0,0,0,12.4-4.1C182.31,150.25,186.3,148.45,190.28,146.55Z"/><path class="cls-2" d="M81.72,133.45l.18.17c.07.07.19.15.28.23a5.1,5.1,0,0,0,.64.43,15.82,15.82,0,0,0,1.4.79,26.86,26.86,0,0,0,3.08,1.26c1,.4,2.14.66,3.22,1l3.3.78a117.48,117.48,0,0,0,13.54,1.82q6.83.53,13.7.59c2.29,0,4.58.07,6.87,0l6.87-.14-6.87.39c-2.28.14-4.58.16-6.87.24q-6.87.18-13.77-.09a116.14,116.14,0,0,1-13.75-1.35c-1.14-.21-2.27-.45-3.41-.67s-2.27-.53-3.38-.91a28.41,28.41,0,0,1-3.33-1.22,16.64,16.64,0,0,1-1.62-.84,7.12,7.12,0,0,1-.8-.51,5.18,5.18,0,0,1-.83-.71Z"/><path class="cls-2" d="M203.66,57.93a181.54,181.54,0,0,1-20.49,11.32,216.89,216.89,0,0,1-21.66,9,155.18,155.18,0,0,1-22.67,6.14,82.09,82.09,0,0,1-23.39,1.35,127.51,127.51,0,0,0,22.9-3.64c3.75-.93,7.47-1.93,11.16-3.08s7.37-2.31,11-3.6,7.28-2.6,10.89-4,7.21-2.84,10.81-4.28Q193,62.7,203.66,57.93Z"/><path class="cls-2" d="M177.68,71.2c.11.24,2.24-1.18,3.89-.35,1.2.6,1.67,2.13,1.87,3.42l3.41-5.61a11.29,11.29,0,0,0-3.9,0C179.83,69.17,177.57,71,177.68,71.2Z"/><path class="cls-1" d="M159.55,84.5a41.31,41.31,0,0,0,5.66-1c1.87-.4,3.7-.93,5.53-1.45,3.64-1.1,7.22-2.42,10.74-3.86l2.64-1.08L186.73,76c1.77-.72,3.45-1.64,5.2-2.4L197.1,71c1.7-.87,3.41-1.75,5.17-2.56-1.52,1.18-3.1,2.3-4.68,3.41S194.34,74,192.66,75a87.6,87.6,0,0,1-10.43,5.12,68.16,68.16,0,0,1-11.1,3.51c-1,.19-1.91.39-2.87.55s-1.92.29-2.89.37A26.34,26.34,0,0,1,159.55,84.5Z"/><path class="cls-2" d="M172.29,77.82c-1,.63-2.06,1.15-3.1,1.7S167,80.51,166,81a63.84,63.84,0,0,1-6.67,2.39A62.76,62.76,0,0,1,152.4,85c-1.16.21-2.33.38-3.5.54s-2.35.22-3.53.29c2.3-.54,4.6-1,6.87-1.58s4.52-1.18,6.76-1.86,4.47-1.39,6.68-2.14S170.1,78.68,172.29,77.82Z"/><path class="cls-2" d="M202.27,68.48A139.57,139.57,0,0,1,176.8,84c-4.5,2.17-9.14,4-13.83,5.78s-9.51,3.12-14.35,4.37A152.2,152.2,0,0,1,119,98.64a139.41,139.41,0,0,1-29.8-1.59,221.65,221.65,0,0,0,29.63-.75c4.9-.5,9.79-1.1,14.63-2s9.67-1.82,14.43-3.06a190.73,190.73,0,0,0,28-9.37A222.32,222.32,0,0,0,202.27,68.48Z"/><path class="cls-1" d="M216.63,68.48a135.27,135.27,0,0,1-14.41,9.32,160.81,160.81,0,0,1-15.41,7.61,159.87,159.87,0,0,1-16.15,5.9,133.28,133.28,0,0,1-16.69,4q8.17-2.59,16.2-5.48c5.34-1.94,10.64-4,15.85-6.25s10.37-4.64,15.47-7.15S211.62,71.23,216.63,68.48Z"/><path class="cls-2" d="M188.75,84.29a46.72,46.72,0,0,1-5.83,3.34,65.78,65.78,0,0,1-6.18,2.62,62.59,62.59,0,0,1-6.43,1.94,44.72,44.72,0,0,1-6.62,1.16c2.1-.81,4.19-1.54,6.29-2.28s4.17-1.47,6.25-2.23,4.15-1.52,6.23-2.28S186.62,85,188.75,84.29Z"/><path class="cls-2" d="M99.11,101.67c1.88.23,3.75.35,5.62.46s3.74.16,5.61.13,3.73-.06,5.6-.18,3.74-.27,5.64-.41a35.28,35.28,0,0,1-5.56,1.19,43.14,43.14,0,0,1-5.68.4,41.46,41.46,0,0,1-5.68-.36A28.53,28.53,0,0,1,99.11,101.67Z"/><path class="cls-2" d="M144.26,11.13c.08-.05,1.13-.76,1.71-.36.42.29.35,1,.33,1.33-.31,3.45-9.4,7.06-9.4,7.06a111.9,111.9,0,0,1-25.09,6.35,65.9,65.9,0,0,0,24-4.16,65.34,65.34,0,0,0,14.94-8l-4.88-5.91Z"/><circle class="cls-1" cx="150.87" cy="14.49" r="0.97"/><path class="cls-2" d="M151.84,14.77a3.39,3.39,0,0,1-.93,1.06c-.78.59-1.31.94-1.31.94-.15.1-.39.25-.4.48a.51.51,0,0,0,.22.39c.39.25,1.16-.28,1.53-.53A6.87,6.87,0,0,0,152.86,15Z"/><path class="cls-2" d="M64.33,69.4a64.86,64.86,0,0,0,32.21,7.83,65.83,65.83,0,0,1-33.11-6Z"/><path class="cls-2" d="M63.89,82.87A98.66,98.66,0,0,0,104.13,90,100.33,100.33,0,0,1,62.87,85.7Z"/><path class="cls-2" d="M67.31,104.51A18.66,18.66,0,0,0,69.92,106c.94.45,1.92.85,2.91,1.22A48.91,48.91,0,0,0,79,109a59.48,59.48,0,0,0,6.39,1c1.08.13,2.16.2,3.24.29l3.27.15-3.27.23c-1.09,0-2.19.09-3.28.08a60.68,60.68,0,0,1-6.59-.31,49.5,49.5,0,0,1-6.57-1.1c-1.09-.27-2.17-.56-3.25-.94A20.6,20.6,0,0,1,65.67,107Z"/><path class="cls-2" d="M185.3,115.7a72.07,72.07,0,0,1-7.05,2.91c-2.39.88-4.84,1.61-7.29,2.27s-5,1.21-7.47,1.63c-1.25.21-2.51.41-3.77.58s-2.53.29-3.8.37l3.72-.85c1.23-.27,2.47-.55,3.7-.85,2.46-.6,4.92-1.19,7.36-1.84s4.88-1.34,7.31-2S182.86,116.42,185.3,115.7Z"/><path class="cls-1" d="M193.07,113.2c-2.31,1.08-4.68,2-7.08,2.85s-4.83,1.58-7.29,2.24-4.94,1.22-7.45,1.65c-1.25.22-2.51.43-3.77.61s-2.52.32-3.79.41l7.4-1.77c2.46-.61,4.91-1.21,7.35-1.87s4.88-1.32,7.32-2Z"/><path class="cls-2" d="M192.1,29.29c-4.78,3.13-9.77,5.92-14.82,8.57s-10.21,5.1-15.45,7.39-10.55,4.39-16,6.16a104.9,104.9,0,0,1-16.63,4.19c5.4-1.88,10.69-3.92,15.95-6,1.31-.55,2.62-1.09,3.94-1.61L153,46.31c2.62-1.08,5.22-2.21,7.82-3.35l3.91-1.69,3.89-1.72,7.79-3.44C181.63,33.8,186.83,31.5,192.1,29.29Z"/><path class="cls-1" d="M185.32,31.26a153.47,153.47,0,0,1-14.86,8.48c-5.08,2.59-10.3,4.92-15.58,7.09s-10.66,4.07-16.11,5.75a152.63,152.63,0,0,1-16.58,4.25c5.32-2.08,10.64-4.06,15.94-6.09l7.92-3.08c2.64-1,5.28-2.07,7.9-3.15,5.26-2.1,10.47-4.32,15.69-6.53S180.06,33.46,185.32,31.26Z"/><path class="cls-2" d="M151.91,16.27a1.76,1.76,0,0,1,1.5-.19,1.79,1.79,0,0,1,.83,1.37c.42,2.24-4.07,5.33-4.88,5.87a31.11,31.11,0,0,1-13.46,4.87,31.73,31.73,0,0,0,9.74-1.8,37,37,0,0,0,13.26-8.08l-5.61-5.85Z"/><path class="cls-1" d="M64,98c-26.07,9-30.77,12.82-30.37,14.7,1.32,6.37,63.2.91,119.55-11.8,55.22-12.46,113-33.65,111.48-40-.48-2-7.17-3.57-39.65.34-.28-1-.57-1.93-.88-2.9l-.21-.67c58.27-9.84,72.93-7.53,74.34-3,3.53,11.41-72,51.2-153.93,68C76.49,136.62,2.66,135.11.8,123.87c-.73-4.45,9.44-12.71,62.7-29.5C63.66,95.57,63.81,96.77,64,98Z"/><path class="cls-2" d="M64.06,98l-4.7,1.71-4.62,1.73c-3.07,1.17-6.13,2.38-9.14,3.69a65.18,65.18,0,0,0-8.75,4.42,11.7,11.7,0,0,0-1,.68,11.13,11.13,0,0,0-.92.75c-.54.51-1.08,1.2-.89,1.66s1,.87,1.7,1.1a14.86,14.86,0,0,0,2.33.52,66.15,66.15,0,0,0,9.77.53c3.28,0,6.56-.14,9.83-.33,6.56-.38,13.1-1,19.63-1.7A694.6,694.6,0,0,0,155,99.54q19.22-4.38,38.17-9.87c12.64-3.62,25.2-7.52,37.58-11.94,6.18-2.21,12.33-4.54,18.35-7.15,3-1.31,6-2.68,8.86-4.24a36.37,36.37,0,0,0,4.14-2.58,9.38,9.38,0,0,0,1.72-1.6,1.89,1.89,0,0,0,.43-.91.84.84,0,0,0-.36-.72,5.66,5.66,0,0,0-2.11-.8,21.31,21.31,0,0,0-2.4-.33c-1.62-.15-3.26-.17-4.9-.18-3.27,0-6.55.2-9.83.42-6.56.47-13.1,1.15-19.63,1.92l-.25,0-.08-.25c-.36-1.18-.71-2.37-1.09-3.56l-.11-.33.35-.06c9.55-1.63,19.13-3.14,28.73-4.42a281,281,0,0,1,29-2.62c2.43-.05,4.87,0,7.31.16a34.61,34.61,0,0,1,3.65.44,15.15,15.15,0,0,1,3.61,1,6.67,6.67,0,0,1,1.67,1.07,3.3,3.3,0,0,1,1,1.85,4.05,4.05,0,0,1-.18,2.06,7.88,7.88,0,0,1-.85,1.75,26.7,26.7,0,0,1-5,5.48,100.91,100.91,0,0,1-11.87,8.53c-4.12,2.58-8.34,5-12.62,7.29a418.54,418.54,0,0,1-53.24,23.48,514,514,0,0,1-55.68,16.93,480.16,480.16,0,0,1-57.34,10,446.09,446.09,0,0,1-58.12,3.07,191.39,191.39,0,0,1-29-2.36,57.55,57.55,0,0,1-7.15-1.7,26.75,26.75,0,0,1-3.47-1.35,9.84,9.84,0,0,1-3.14-2.25,4.12,4.12,0,0,1-.93-1.92,3.72,3.72,0,0,1,.34-2.1,9.46,9.46,0,0,1,2.41-3A34.87,34.87,0,0,1,9,114.68a125.76,125.76,0,0,1,13.19-6.22c4.49-1.86,9-3.56,13.6-5.18,9.13-3.24,18.37-6.19,27.63-9l.15,0,0,.15Zm-.17-.11-.52-3.53.17.11c-9.21,3-18.39,6.11-27.45,9.51S18,110.92,9.58,115.64a34.29,34.29,0,0,0-5.86,4,8.57,8.57,0,0,0-2.09,2.62,2.55,2.55,0,0,0-.23,1.44,3,3,0,0,0,.66,1.3A8.75,8.75,0,0,0,4.82,127a24.65,24.65,0,0,0,3.3,1.25,56.82,56.82,0,0,0,7,1.6A192.63,192.63,0,0,0,44,131.87c9.67.07,19.33-.26,29-.86s19.28-1.46,28.88-2.59a479,479,0,0,0,57.08-10,514.41,514.41,0,0,0,55.54-16.64,438.52,438.52,0,0,0,53.2-23c4.27-2.25,8.48-4.61,12.6-7.13A99.48,99.48,0,0,0,292,63.28a25.25,25.25,0,0,0,4.82-5.16,4.54,4.54,0,0,0,.91-3c-.13-1-1.06-1.67-2.07-2.14a13.81,13.81,0,0,0-3.35-1,34.44,34.44,0,0,0-3.55-.47c-2.38-.2-4.8-.25-7.21-.22a259.26,259.26,0,0,0-28.89,2.39c-9.6,1.24-19.17,2.72-28.73,4.31l.25-.39c.37,1.19.72,2.38,1.08,3.58L225,61c6.53-.79,13.08-1.51,19.65-2,3.29-.23,6.58-.43,9.88-.46,1.65,0,3.31,0,5,.16a21.31,21.31,0,0,1,2.48.32,6.45,6.45,0,0,1,2.46,1,1.67,1.67,0,0,1,.65,1.41,2.69,2.69,0,0,1-.59,1.31,10.69,10.69,0,0,1-1.86,1.77,36.45,36.45,0,0,1-4.2,2.69c-2.89,1.62-5.88,3-8.89,4.39-6,2.69-12.16,5.1-18.33,7.39a640.39,640.39,0,0,1-75.77,22.41q-19.28,4.36-38.79,7.57c-13,2.14-26,4-39.16,5.3-6.56.64-13.13,1.18-19.72,1.49-3.29.15-6.59.24-9.89.22a64.84,64.84,0,0,1-9.92-.66,15.59,15.59,0,0,1-2.47-.6,6.13,6.13,0,0,1-1.2-.55,2.19,2.19,0,0,1-1-1.11,1.73,1.73,0,0,1,.26-1.51,2.35,2.35,0,0,1,.42-.55,4.09,4.09,0,0,1,.46-.47,9.48,9.48,0,0,1,1-.79c.34-.24.69-.48,1.05-.69a67.27,67.27,0,0,1,8.93-4.31c3-1.25,6.13-2.4,9.23-3.52l4.65-1.64Z"/><path class="cls-2" d="M212.1,62.39c0-.13,58.09-8.8,59.62-2.29,1.1,4.69-27.91,15.43-54.62,25.31-19.63,7.27-35.1,13-57.5,18.55-32.49,8.05-57.38,10.26-75.76,11.8-20.05,1.69-54.74,4.6-55.88-.8-.49-2.34,5.21-7.1,35.89-17.88l-.07-.49c-36.36,12.87-44.16,18.7-43.53,21.59,1.8,8.25,74.16,1.83,139.53-13.61C219.68,90.42,283,66.5,281.2,59.11S212.11,62.51,212.1,62.39Z"/><path class="cls-2" d="M224.49,59.53q6.47-1.23,13-2.31c4.34-.73,8.67-1.44,13-2s8.71-1.15,13.09-1.61,8.78-.83,13.21-.91a65.34,65.34,0,0,1,6.7.15,27.1,27.1,0,0,1,3.41.47,9.28,9.28,0,0,1,3.54,1.41,3.41,3.41,0,0,1,1.38,2.1,3.89,3.89,0,0,1-.36,2.37,10.94,10.94,0,0,1-2.24,3,40,40,0,0,1-5.32,4.26,113.12,113.12,0,0,1-11.46,6.75c-3.9,2.07-7.9,3.94-11.91,5.76-16.1,7.16-32.7,13-49.37,18.48S177.63,108,160.59,112.24a510.81,510.81,0,0,1-51.74,10.2,488.9,488.9,0,0,1-52.54,5q-6.6.21-13.22.16c-4.41,0-8.83-.18-13.25-.56a70.75,70.75,0,0,1-13.25-2.14,18.7,18.7,0,0,1-3.3-1.28,8,8,0,0,1-1.61-1.11,3.78,3.78,0,0,1-1.27-2,3.54,3.54,0,0,1,.31-2.42,7,7,0,0,1,1.16-1.62,16.28,16.28,0,0,1,2.73-2.27,70.61,70.61,0,0,1,11.9-6.07c4.07-1.71,8.2-3.25,12.34-4.72s8.32-2.85,12.5-4.18,8.39-2.6,12.61-3.82l.09.28c-8.27,2.94-16.52,5.92-24.67,9.14-4.07,1.61-8.12,3.28-12.08,5.1A75,75,0,0,0,16,116.13a13.9,13.9,0,0,0-2.29,2c-.64.7-1,1.5-.85,1.82s.81,1,1.65,1.42a15.87,15.87,0,0,0,2.84,1,69.45,69.45,0,0,0,12.74,1.77c8.67.51,17.42.44,26.15.08s17.45-.94,26.17-1.7,17.42-1.73,26.09-2.89c17.35-2.33,34.63-5.27,51.75-9A475.59,475.59,0,0,0,210.84,96.5c8.29-2.83,16.5-5.94,24.61-9.25s16.14-6.81,24-10.58A191.53,191.53,0,0,0,282.4,64.23a36.62,36.62,0,0,0,5-3.91,8.55,8.55,0,0,0,1.74-2.22,1.32,1.32,0,0,0,.18-.81c0-.16-.11-.33-.4-.55a7.28,7.28,0,0,0-2.54-1,25.22,25.22,0,0,0-3.09-.48c-2.12-.21-4.29-.26-6.45-.26-8.69.07-17.44.84-26.14,1.76L237.6,58.22l-13.06,1.61Z"/><path class="cls-4" d="M64.19,94.82C14.93,110,4.26,117.78,5,122.1c1.83,11.34,84.16,13.18,161.93-6.52,67.26-17,131.57-50.3,128.52-60.12-1.2-3.88-13.65-6.35-71,3.71"/></g></svg>
