<svg xmlns="http://www.w3.org/2000/svg" width="450" height="250" viewBox="0 0 450 250"><defs><style>.cls-1{fill:#232323;}.cls-2,.cls-3{fill:#fff;}.cls-2{stroke:#fff;}.cls-2,.cls-4{stroke-miterlimit:10;}.cls-4{fill:none;stroke:#232323;stroke-linecap:round;stroke-width:0.75px;}</style></defs><g id="saturn"><path class="cls-1" d="M341.76,113.48a123.46,123.46,0,1,1-13.68-46.25A123.87,123.87,0,0,1,341.76,113.48Zm0,0a123.35,123.35,0,1,0-5,47.94A123.58,123.58,0,0,0,341.76,113.48Z"/><path class="cls-2" d="M201.44,5.74a41.2,41.2,0,0,0,7.8,1.1c6.66.29,10.27-1.66,11.24-.15s-1.3,4.78-3.51,6.55a10.64,10.64,0,0,1-4.85,2.17"/><path class="cls-1" d="M311.9,42.45a340.08,340.08,0,0,1-48.57,30,343.81,343.81,0,0,1-52.94,21.66L207,95.16l-3.45,1-6.9,1.93c-2.29.67-4.64,1.15-7,1.73l-3.49.83-1.74.41-1.76.34-7.06,1.34c-2.35.44-4.73.72-7.09,1.09-1.19.17-2.37.36-3.56.51l-3.57.36c-2.39.22-4.77.49-7.17.56a124.63,124.63,0,0,1-28.68-1.37A72.74,72.74,0,0,1,111.71,100a93,93,0,0,1-12.82-6.32A108.28,108.28,0,0,0,112.08,99a75.47,75.47,0,0,0,13.77,3,134.45,134.45,0,0,0,28.15.2,223.27,223.27,0,0,0,27.89-4.45l1.72-.37,1.72-.42,3.44-.85c2.28-.59,4.59-1.07,6.85-1.74l6.8-2,3.4-1,3.37-1.11c4.49-1.45,9-2.84,13.45-4.44s8.87-3.26,13.27-5c8.83-3.4,17.47-7.23,26-11.21A510.18,510.18,0,0,0,311.9,42.45Z"/><path class="cls-1" d="M108.75,67.22a87,87,0,0,0,32.36,5.2,89.1,89.1,0,0,1-33.5-1.36Z"/><path class="cls-1" d="M138.23,29.8a121.46,121.46,0,0,0,28.26-.33,122.2,122.2,0,0,0,27.58-6.95A122.77,122.77,0,0,1,166.72,31,123.3,123.3,0,0,1,138,32.79Z"/><path class="cls-1" d="M104.72,74.72a148,148,0,0,0,23.33,3.54A147.06,147.06,0,0,0,151.7,78a149.36,149.36,0,0,0,45.88-11.69,150.08,150.08,0,0,1-45.72,13.18,149.36,149.36,0,0,1-23.93,1,150.92,150.92,0,0,1-23.85-2.86Z"/><path class="cls-1" d="M148.4,84.08c3.34-.54,6.67-.89,10-1.3,1.66-.19,3.31-.41,5-.65a47.11,47.11,0,0,0,4.94-.92,19.93,19.93,0,0,1-4.79,1.69,44.9,44.9,0,0,1-5,.87A54.22,54.22,0,0,1,148.4,84.08Z"/><path class="cls-1" d="M221.75,11.77a53.4,53.4,0,0,1-12.48,9.53,54.13,54.13,0,0,1-14.56,5.48,53.63,53.63,0,0,0,14-6.33,52.31,52.31,0,0,0,11.51-10Z"/><path class="cls-1" d="M255.83,198a216.13,216.13,0,0,1-65.15,7,213.51,213.51,0,0,0,63.68-11.81Z"/><path class="cls-1" d="M198,3.13C246.21,24,277.25,71.6,276.5,123.21c-.64,44.55-26.61,76.18-31.09,81.42a131.65,131.65,0,0,1-59.6,39.47,124.31,124.31,0,0,0,46.57,3.67,125.82,125.82,0,0,0,70.13-32c34.08-31.46,38.55-71.37,39.3-79.7,4-44.16-17.17-75.51-22.75-83.26-4.7-6.55-27.69-37.17-70.61-47.84A124.34,124.34,0,0,0,198,3.13Z"/><path class="cls-1" d="M237.83,201.63s12-1.48,5.93,4.9S186,240.32,137.55,218.13c0,0,24.69,20.68,48.26,26,0,0,34.9,0,68.08-43.81C253.89,200.29,247.83,194.7,237.83,201.63Z"/><path class="cls-3" d="M173.62,229.43a91.51,91.51,0,0,0,10.44.89,98.4,98.4,0,0,0,10.45-.2,93,93,0,0,0,10.38-1.24c3.45-.54,6.82-1.43,10.23-2.3-.82.32-1.65.62-2.48.91s-1.65.6-2.5.84c-1.69.48-3.38,1-5.11,1.31s-3.46.65-5.19,1c-.88.13-1.75.2-2.63.3s-1.75.19-2.63.23a71.58,71.58,0,0,1-10.56,0c-1.76-.13-3.5-.33-5.24-.58A52.45,52.45,0,0,1,173.62,229.43Z"/><path class="cls-3" d="M312.14,168.79a318.21,318.21,0,0,1-30.94,14.67q-7.95,3.22-16.07,6.06t-16.4,5.15c-5.52,1.57-11,3.15-16.63,4.53a141.14,141.14,0,0,1-17,3.06q-8.56,1-17.2,1.16a125.88,125.88,0,0,1-17.24-.79l0-.7c5.61-1.3,11.2-2.34,16.77-3.43l16.64-3.16c5.54-1.05,11.07-2,16.63-2.93s11.12-1.9,16.62-3.16,11-2.65,16.42-4.18,10.87-3.13,16.24-4.9c10.79-3.46,21.38-7.56,31.85-12Z"/><path class="cls-3" d="M255.09,210.89a134.58,134.58,0,0,0,13.45-3.1c2.21-.62,4.41-1.27,6.58-2l3.26-1.08,3.22-1.19c1.09-.37,2.14-.83,3.2-1.24s2.14-.84,3.18-1.31l3.16-1.36c1-.47,2.07-1,3.12-1.45,2.09-.94,4.12-2,6.18-3s4.05-2.2,6.13-3.22c-1.84,1.39-3.69,2.8-5.63,4.07s-3.91,2.52-6,3.59a96.19,96.19,0,0,1-12.67,5.84,93.14,93.14,0,0,1-13.38,3.91A64.47,64.47,0,0,1,255.09,210.89Z"/><path class="cls-3" d="M286.41,220.19A115.61,115.61,0,0,1,269,229.94a126.63,126.63,0,0,1-38.42,10.56,114.48,114.48,0,0,1-19.93.49q9.94-.56,19.72-2a176.37,176.37,0,0,0,19.31-4.13,175,175,0,0,0,18.71-6.31Q277.58,224.81,286.41,220.19Z"/><path class="cls-1" d="M122.38,200.76l.35.32a4.17,4.17,0,0,0,.45.36,8.78,8.78,0,0,0,1,.68c.67.46,1.44.8,2.17,1.2s1.54.67,2.31,1,1.6.58,2.39.87a25.4,25.4,0,0,0,2.43.77l2.46.71c1.67.38,3.34.78,5,1.14a175.26,175.26,0,0,0,20.46,2.63q10.31.72,20.67.77c3.45,0,6.9.05,10.35-.06l10.35-.27-10.34.52c-3.45.2-6.91.2-10.36.31q-10.37.19-20.74-.27a175.57,175.57,0,0,1-20.67-2.16c-1.7-.32-3.41-.69-5.11-1L133,207.6c-.84-.22-1.69-.44-2.52-.73s-1.67-.52-2.49-.85-1.65-.63-2.46-1a25.81,25.81,0,0,1-2.39-1.24A13.42,13.42,0,0,1,122,203a7.52,7.52,0,0,1-1.16-1Z"/><path class="cls-1" d="M306.57,86.61a313.65,313.65,0,0,1-31.11,16.53c-10.66,5-21.55,9.45-32.66,13.34a246.87,246.87,0,0,1-34.05,9.39c-11.55,2.27-23.41,3.5-35.13,2.62a175.4,175.4,0,0,0,34.64-4.91q8.52-2,16.9-4.53c5.6-1.64,11.15-3.46,16.65-5.4s11-3.94,16.44-6.07,10.86-4.33,16.26-6.57Q290.68,94.17,306.57,86.61Z"/><path class="cls-1" d="M267.42,106.62c.16.36,3.37-1.79,5.87-.53,1.8.9,2.51,3.21,2.82,5.16l5.13-8.47a17.17,17.17,0,0,0-5.88,0C270.66,103.55,267.25,106.24,267.42,106.62Z"/><path class="cls-3" d="M240.1,126.66a54.92,54.92,0,0,0,8.57-1.21c1.42-.25,2.81-.64,4.21-1l4.17-1.11a156.31,156.31,0,0,0,16.28-5.73c1.33-.55,2.67-1.07,4-1.64l3.94-1.78,2-.88,1.94-1c1.3-.63,2.6-1.26,3.9-1.87l7.73-3.94c2.56-1.36,5.08-2.78,7.67-4.09-2.35,1.7-4.78,3.29-7.18,4.93s-4.95,3-7.49,4.48a142.25,142.25,0,0,1-15.73,7.59,111.38,111.38,0,0,1-16.64,5.39c-1.43.3-2.85.61-4.29.88s-2.87.5-4.33.63A43.86,43.86,0,0,1,240.1,126.66Z"/><path class="cls-1" d="M259.29,116.59c-1.53.9-3.13,1.67-4.72,2.45s-3.25,1.45-4.89,2.13c-3.29,1.35-6.65,2.51-10.06,3.53a104.83,104.83,0,0,1-10.35,2.54c-1.74.35-3.5.62-5.25.88s-3.53.4-5.3.56c3.48-.7,7-1.34,10.39-2.19s6.85-1.73,10.23-2.75,6.73-2.11,10.07-3.29S256,118,259.29,116.59Z"/><path class="cls-1" d="M304.48,102.51c-3,2.22-6.06,4.38-9.2,6.42-1.56,1-3.15,2-4.72,3s-3.19,2-4.8,2.94q-9.69,5.7-19.91,10.48c-6.79,3.21-13.77,6-20.84,8.57s-14.3,4.67-21.58,6.54a238.4,238.4,0,0,1-44.5,6.87c-7.49.45-15,.51-22.5.23s-15-1-22.37-2a301.67,301.67,0,0,0,44.7-.54c7.41-.68,14.8-1.58,22.13-2.85,3.67-.59,7.31-1.32,11-2s7.26-1.6,10.85-2.55a274,274,0,0,0,42.19-14.32A301.5,301.5,0,0,0,304.48,102.51Z"/><path class="cls-3" d="M326.13,102.51a228.17,228.17,0,0,1-21.91,13.7c-7.55,4.18-15.32,8-23.24,11.36s-16,6.41-24.27,9a227.78,227.78,0,0,1-25,6.39q12.39-3.63,24.54-7.87c8.09-2.87,16.09-6,24-9.34s15.65-7,23.3-10.9S318.68,106.83,326.13,102.51Z"/><path class="cls-1" d="M284.1,126.34A101,101,0,0,1,265.87,135a100.8,100.8,0,0,1-19.53,5c6.39-2.11,12.74-4.15,19-6.44S277.84,128.8,284.1,126.34Z"/><path class="cls-1" d="M149,152.55c1.41.21,2.81.4,4.23.53s2.81.28,4.23.36c2.82.15,5.64.28,8.47.25s5.65-.11,8.47-.32,5.63-.53,8.47-.82c-1.38.34-2.77.67-4.17.94s-2.81.49-4.23.65a70.39,70.39,0,0,1-17.08.06A49.61,49.61,0,0,1,149,152.55Z"/><path class="cls-1" d="M217.05,16.08c.12-.09,1.71-1.15,2.57-.55.63.44.53,1.56.5,2C219.66,22.74,206,28.17,206,28.17c-7.18,2.85-19.41,6.89-37.81,9.57a98.81,98.81,0,0,0,36.13-6.26,98.78,98.78,0,0,0,22.52-12l-7.36-8.91Z"/><circle class="cls-3" cx="227" cy="21.14" r="1.47"/><path class="cls-1" d="M228.47,21.57a5.21,5.21,0,0,1-1.4,1.59c-1.18.89-2,1.42-2,1.42-.23.15-.58.38-.59.71a.76.76,0,0,0,.32.6c.6.38,1.75-.42,2.31-.81A10.36,10.36,0,0,0,230,22Z"/><path class="cls-1" d="M96.34,104.36a97.32,97.32,0,0,0,23.59,8.82,97.81,97.81,0,0,0,25.2,2.52,98.43,98.43,0,0,1-25.4-1.54,98.66,98.66,0,0,1-24.29-8Z"/><path class="cls-1" d="M95.65,124.93a149.37,149.37,0,0,0,60.92,9.95,150.85,150.85,0,0,1-61.94-7.13Z"/><path class="cls-1" d="M100.65,157.46a29.85,29.85,0,0,0,4.1,2.18c1.45.67,3,1.23,4.47,1.77a74.87,74.87,0,0,0,9.38,2.5l2.4.45,2.42.36c1.61.27,3.24.39,4.87.57s3.26.23,4.9.34l4.92.13-4.92.25c-1.65,0-3.29.07-4.94,0s-3.3,0-4.94-.2l-2.48-.18-2.46-.27a74.78,74.78,0,0,1-9.8-1.83c-1.61-.43-3.23-.9-4.81-1.49A32.08,32.08,0,0,1,99,160Z"/><path class="cls-1" d="M278.9,173.68c-3.49,1.58-7.07,3-10.69,4.22s-7.3,2.33-11,3.35-7.45,1.82-11.22,2.52c-1.89.33-3.78.65-5.67.93s-3.8.51-5.71.68l5.62-1.16c1.88-.38,3.74-.78,5.6-1.21,3.73-.85,7.44-1.71,11.12-2.72s7.36-2,11-3.12q2.75-.82,5.46-1.72Z"/><path class="cls-3" d="M290.61,169.92c-3.51,1.52-7.09,2.87-10.72,4.1s-7.31,2.31-11,3.33-7.44,1.83-11.2,2.54c-1.89.35-3.77.68-5.66,1s-3.79.55-5.7.74l5.61-1.22q2.81-.58,5.59-1.25c3.72-.87,7.43-1.75,11.11-2.76s7.36-2,11-3.08q2.74-.81,5.48-1.68Z"/><path class="cls-1" d="M289.16,43.45c-7.34,4.48-14.91,8.56-22.56,12.46s-15.43,7.58-23.32,11-15.87,6.64-24,9.4a182.35,182.35,0,0,1-24.88,6.79c8.2-2.59,16.23-5.53,24.21-8.62,2-.8,4-1.6,6-2.37l5.93-2.46c2-.81,4-1.64,5.92-2.48s4-1.66,5.9-2.55l5.89-2.55L254,59.45c3.92-1.73,7.81-3.52,11.71-5.29Z"/><path class="cls-3" d="M278.94,46.41c-7.33,4.47-14.9,8.55-22.6,12.34S240.77,66,232.82,69.29s-16,6.17-24.22,8.8-16.44,5-24.82,6.87c8.09-2.89,16.16-5.74,24.18-8.71,4-1.51,8-3,12-4.55s8-3.1,11.92-4.72c7.94-3.19,15.8-6.56,23.63-10S271.12,50,278.94,46.41Z"/><path class="cls-1" d="M228.58,23.83a2.6,2.6,0,0,1,2.26-.29,2.71,2.71,0,0,1,1.25,2.07c.63,3.36-6.14,8-7.36,8.83a47,47,0,0,1-20.28,7.35,48.11,48.11,0,0,0,14.68-2.71,55.92,55.92,0,0,0,20-12.17l-8.46-8.82Z"/><path class="cls-3" d="M96,147c-39.3,13.49-46.37,19.32-45.78,22.16,2,9.6,95.26,1.37,180.2-17.79,83.23-18.77,170.3-50.72,168-60.23-.73-3-10.81-5.37-59.75.51-.42-1.44-.87-2.9-1.33-4.37-.1-.33-.21-.67-.32-1C424.89,71.42,447,74.91,449.12,81.76c5.32,17.19-108.54,77.17-232,102.49C114.9,205.22,3.62,203,.82,186c-1.11-6.7,14.22-19.15,94.5-44.46Q95.68,144.26,96,147Z"/><path class="cls-1" d="M96.12,147l-7.06,2.53-7,2.58c-4.64,1.75-9.26,3.57-13.81,5.52A101,101,0,0,0,55,164.29a20.35,20.35,0,0,0-2.92,2.18A6.35,6.35,0,0,0,51,167.78a1.6,1.6,0,0,0-.26,1.41,2.31,2.31,0,0,0,1.07,1.1,8.33,8.33,0,0,0,1.61.7,23.17,23.17,0,0,0,3.55.81,99.4,99.4,0,0,0,14.76.83c5,0,9.9-.2,14.84-.47,9.89-.55,19.76-1.45,29.61-2.51q29.55-3.27,58.87-8.27t58.31-11.61q29-6.61,57.55-14.91c19-5.49,38-11.42,56.62-18.11,9.33-3.35,18.59-6.88,27.67-10.83,4.53-2,9-4.07,13.36-6.44a53.25,53.25,0,0,0,6.24-3.92,14,14,0,0,0,2.63-2.46,3,3,0,0,0,.69-1.46,1.38,1.38,0,0,0-.61-1.26,8.33,8.33,0,0,0-3.27-1.25,31.85,31.85,0,0,0-3.64-.5c-2.45-.21-4.93-.26-7.4-.25-4.95,0-9.89.29-14.84.63-9.88.71-19.74,1.76-29.59,2.92l-.25,0-.07-.24c-.56-1.79-1.08-3.59-1.66-5.37l-.11-.34L337,86c14.4-2.46,28.82-4.75,43.3-6.68,7.24-1,14.49-1.82,21.77-2.51S416.66,75.52,424,75.4c3.66-.06,7.32,0,11,.26a53.62,53.62,0,0,1,5.48.69,22.41,22.41,0,0,1,5.37,1.56,9.45,9.45,0,0,1,2.45,1.57,4.79,4.79,0,0,1,1.48,2.63,5.72,5.72,0,0,1-.28,3,12,12,0,0,1-1.24,2.58,40.25,40.25,0,0,1-7.5,8.17,150.2,150.2,0,0,1-17.86,12.8c-6.21,3.88-12.57,7.5-19,11-25.82,13.75-52.79,25.22-80.23,35.27a776.29,776.29,0,0,1-83.89,25.45,724.32,724.32,0,0,1-86.37,15.1c-14.52,1.66-29.08,3-43.68,3.76s-29.22,1.19-43.85,1c-7.31-.12-14.62-.4-21.92-.92a213.6,213.6,0,0,1-21.81-2.56,89.06,89.06,0,0,1-10.74-2.54,39.87,39.87,0,0,1-5.18-2,14.65,14.65,0,0,1-4.64-3.31,5.88,5.88,0,0,1-1.33-2.73,5.45,5.45,0,0,1,.47-3,14.39,14.39,0,0,1,3.55-4.44,53.21,53.21,0,0,1,9.14-6.22A194.09,194.09,0,0,1,33.21,163c6.76-2.8,13.59-5.38,20.47-7.84,13.75-4.93,27.65-9.42,41.6-13.74l.15,0,0,.15Zm-.17-.11-.76-5.36.17.11c-13.9,4.48-27.74,9.13-41.42,14.21-6.83,2.55-13.63,5.19-20.35,8a192.2,192.2,0,0,0-19.67,9.46A52,52,0,0,0,5,179.48a13.23,13.23,0,0,0-3.23,4.05,4.26,4.26,0,0,0-.37,2.33A4.78,4.78,0,0,0,2.48,188a13.45,13.45,0,0,0,4.25,3,39.92,39.92,0,0,0,5,1.91,86.44,86.44,0,0,0,10.59,2.43A209.51,209.51,0,0,0,44,197.69c7.26.47,14.55.71,21.84.78,14.57.14,29.15-.34,43.7-1.23s29.09-2.17,43.57-3.86a723,723,0,0,0,86.1-15.14A778.14,778.14,0,0,0,323,153.08q20.56-7.44,40.68-16.07c13.4-5.76,26.62-11.93,39.51-18.72,6.44-3.41,12.8-7,19-10.8a148.08,148.08,0,0,0,17.78-12.58,39.09,39.09,0,0,0,7.32-7.85,10.92,10.92,0,0,0,1.14-2.33,4.59,4.59,0,0,0,.26-2.41,3.72,3.72,0,0,0-1.15-2,8.45,8.45,0,0,0-2.14-1.38,22,22,0,0,0-5.11-1.5,53.44,53.44,0,0,0-5.38-.69c-3.61-.3-7.25-.35-10.89-.31-7.28.09-14.56.62-21.82,1.26s-14.51,1.5-21.75,2.43c-14.47,1.86-28.9,4.09-43.3,6.48l.25-.4c.57,1.79,1.09,3.59,1.64,5.39l-.33-.22c9.85-1.18,19.71-2.27,29.61-3,4.95-.36,9.91-.64,14.89-.68,2.48,0,5,0,7.46.23a33.73,33.73,0,0,1,3.73.5,8.94,8.94,0,0,1,3.61,1.4,2.37,2.37,0,0,1,.7.83,2.14,2.14,0,0,1,.21,1.11,3.78,3.78,0,0,1-.84,1.87,15.27,15.27,0,0,1-2.77,2.63,53.15,53.15,0,0,1-6.32,4c-4.35,2.43-8.85,4.55-13.38,6.58-9.08,4-18.33,7.65-27.65,11.08a978.54,978.54,0,0,1-114.19,33.62c-19.36,4.41-38.86,8.19-58.44,11.46s-39.24,6-59,8c-9.87,1-19.77,1.83-29.69,2.31-5,.23-9.93.38-14.9.36a99.39,99.39,0,0,1-14.91-1,23.76,23.76,0,0,1-3.68-.89,9.43,9.43,0,0,1-1.78-.8,3.15,3.15,0,0,1-1.42-1.56,2.44,2.44,0,0,1,.36-2.12,7.4,7.4,0,0,1,1.3-1.47,21.15,21.15,0,0,1,3.06-2.23,101.81,101.81,0,0,1,13.42-6.51c4.59-1.9,9.23-3.66,13.89-5.36S91.35,148.42,96,146.92Z"/><path class="cls-1" d="M319.29,93.33c0-.19,87.57-13.25,89.87-3.44,1.65,7.07-42.07,23.25-82.33,38.15-29.58,10.94-52.9,19.57-86.66,28-49,12.14-86.49,15.46-114.19,17.79-30.23,2.54-82.51,6.94-84.22-1.2-.75-3.54,7.85-10.71,54.09-27l-.1-.73c-54.82,19.39-66.57,28.18-65.62,32.54,2.72,12.44,111.79,2.76,210.3-20.52,90.29-21.32,185.74-57.38,183-68.52S319.31,93.52,319.29,93.33Z"/><path class="cls-1" d="M338,89.11q9.76-1.76,19.57-3.32c6.53-1,13.08-2,19.64-2.9s13.13-1.66,19.73-2.31,13.21-1.18,19.87-1.28a99.25,99.25,0,0,1,10,.28,37,37,0,0,1,5.05.72,11.19,11.19,0,0,1,1.27.31,10.48,10.48,0,0,1,1.28.4,9,9,0,0,1,2.51,1.3,4.44,4.44,0,0,1,1.83,2.75,5.14,5.14,0,0,1-.5,3.15,15.45,15.45,0,0,1-3.23,4.3,58.53,58.53,0,0,1-7.92,6.34A168.58,168.58,0,0,1,409.92,109c-5.88,3.11-11.87,6-17.9,8.71-12.09,5.44-24.38,10.4-36.77,15q-9.3,3.5-18.68,6.75c-6.24,2.2-12.49,4.36-18.78,6.43-25.14,8.25-50.52,15.8-76.23,22.12s-51.76,11.32-78,15.08a756.37,756.37,0,0,1-79.12,7.42c-6.63.22-13.26.33-19.9.27s-13.28-.26-19.92-.8c-3.32-.26-6.63-.61-10-1.09a72.93,72.93,0,0,1-9.89-2A27.36,27.36,0,0,1,19.94,185a11.12,11.12,0,0,1-2.3-1.56,7,7,0,0,1-1-1.13,4.9,4.9,0,0,1-.69-1.54,4.63,4.63,0,0,1,.42-3.23,9.83,9.83,0,0,1,1.64-2.3,23.5,23.5,0,0,1,4-3.34c5.63-3.81,11.72-6.53,17.81-9.17s12.3-5,18.52-7.22,12.5-4.37,18.79-6.42,12.61-4,18.94-5.93l.09.29c-12.5,4.3-25,8.7-37.28,13.48-6.16,2.39-12.28,4.87-18.27,7.59-3,1.36-6,2.78-8.87,4.3a75.34,75.34,0,0,0-8.38,5,21.64,21.64,0,0,0-3.56,3.05c-1,1.09-1.75,2.41-1.43,3.3a2.06,2.06,0,0,0,.12.35c.08.12.14.24.21.36a5.13,5.13,0,0,0,.65.68,8.84,8.84,0,0,0,1.81,1.18,24.56,24.56,0,0,0,4.41,1.62,69.89,69.89,0,0,0,9.54,1.83c3.24.42,6.51.71,9.78.93a385.23,385.23,0,0,0,39.49.21c13.18-.48,26.35-1.41,39.5-2.58s26.26-2.67,39.35-4.44c26.16-3.57,52.21-8.11,78-13.88,12.88-2.93,25.71-6.11,38.42-9.74S305,149.25,317.46,145c6.26-2.13,12.5-4.31,18.7-6.6s12.35-4.69,18.48-7.14C366.9,126.3,379,121.07,391,115.44q9-4.2,17.7-8.8a193.71,193.71,0,0,0,17-10,57.37,57.37,0,0,0,7.6-6A13.36,13.36,0,0,0,436,87.16a2.64,2.64,0,0,0,.33-1.64,2,2,0,0,0-.87-1.25,11.09,11.09,0,0,0-4.09-1.61,37,37,0,0,0-4.75-.71c-3.23-.3-6.51-.37-9.79-.35-13.14.17-26.32,1.4-39.44,2.85-6.56.76-13.13,1.52-19.69,2.35L338,89.4Z"/><path class="cls-4" d="M96.36,142.22C22.11,165.1,6,176.83,7.07,183.34c2.76,17.08,126.85,19.86,244.07-9.83,101.37-25.68,198.31-75.82,193.72-90.62C443,77,424.27,73.33,337.77,88.48"/></g></svg>
