<svg xmlns="http://www.w3.org/2000/svg" width="545" height="545" viewBox="0 0 545 545"><g id="Layer_4" data-name="Layer 4"><circle cx="57.43" cy="418.93" r="26.22"/><path d="M31.2,418.93V137s1.28-15.49-9.37-26c-8.49-8.4-20-7.43-19.93-9,.13-3,41.71-2.06,91.62-1.77,34.9.2,52.77-.06,69.32,12.57,11,8.37,16.35,18.59,19.15,24.14,37.94,75.33,87.42,261.62,87.42,261.62h0s21,46.59-28.29,46.59h-86.8c4.31-.44,14.35-2.1,22.52-10,11.06-10.74,14.14-28.53,7.85-45.19L113.86,185.67l.46,223s-.92,36.49,40,36.49H57.58"/><circle cx="346.07" cy="263.54" r="34.28"/><circle cx="352.1" cy="410.87" r="34.28"/><circle cx="467.03" cy="263.54" r="34.28"/><circle cx="508.82" cy="410.87" r="34.28"/><path d="M346.07,229.27H467l34.28,34.27,41,140-33.48,41.6H435.59s30.49-1.19,23.19-37.69c-4.35-16.39-40.31-152-44.48-159.83a9.87,9.87,0,0,0-4.4-4.4,8.79,8.79,0,0,0-7.4.46c-5.33,3-6.17,12.13-7.14,22.7,0,.32-.05.55-.05.57-3.57,41.37-8.93,143.91-8.93,143.91L352.1,445.15H276.69s24.77-2.29,27.37-36.52l7.74-145.09"/></g></svg>
