<svg xmlns="http://www.w3.org/2000/svg" xmlns:xlink="http://www.w3.org/1999/xlink" width="327.31" height="191.28" viewBox="0 0 327.31 191.28"><defs><style>.cls-1,.cls-2,.cls-3{fill:#fff;}.cls-2,.cls-3{stroke-linecap:round;stroke-miterlimit:10;stroke-width:3px;opacity:0.2;}.cls-2{stroke:url(#linear-gradient);}.cls-3{stroke:url(#linear-gradient-2);}.cls-4{opacity:0.74;}</style><linearGradient id="linear-gradient" x1="231.39" y1="34.85" x2="303.93" y2="34.85" gradientUnits="userSpaceOnUse"><stop offset="0" stop-color="#fff"/><stop offset="0.1" stop-color="#fff" stop-opacity="0.89"/><stop offset="0.68" stop-color="#fff" stop-opacity="0.26"/><stop offset="0.93" stop-color="#fff" stop-opacity="0"/></linearGradient><linearGradient id="linear-gradient-2" x1="74.26" y1="179.27" x2="112.02" y2="179.27" xlink:href="#linear-gradient"/></defs><g id="small_stars" data-name="small stars"><circle class="cls-1" cx="112.19" cy="171.42" r="0.89"/><circle class="cls-1" cx="152.44" cy="167.05" r="0.73"/><circle class="cls-1" cx="131.16" cy="173.69" r="0.66"/><circle class="cls-1" cx="35.59" cy="131.55" r="0.46"/><circle class="cls-1" cx="217.02" cy="25.04" r="1.09"/><circle class="cls-1" cx="205.64" cy="39.18" r="1.03"/><circle class="cls-1" cx="143.22" cy="69.46" r="0.73"/><circle class="cls-1" cx="108.15" cy="88.62" r="0.94"/><circle class="cls-1" cx="269.93" cy="60.11" r="0.83"/><circle class="cls-1" cx="212.6" cy="42.11" r="0.46"/><circle class="cls-1" cx="155.43" cy="28.42" r="0.66"/><circle class="cls-1" cx="152.71" cy="62.1" r="1.05"/><circle class="cls-1" cx="34.15" cy="29.2" r="0.45"/><circle class="cls-1" cx="43.9" cy="176.79" r="0.9"/><circle class="cls-1" cx="78.35" cy="70.29" r="0.52"/><circle class="cls-1" cx="118.4" cy="76.53" r="1.03"/><circle class="cls-1" cx="115.78" cy="114.44" r="0.38"/><circle class="cls-1" cx="176.63" cy="94.62" r="1.08"/><circle class="cls-1" cx="256.62" cy="150.77" r="0.6"/><circle class="cls-1" cx="243.38" cy="102.41" r="0.82"/><circle class="cls-1" cx="191.81" cy="46.43" r="0.65"/><circle class="cls-1" cx="168.07" cy="118.09" r="0.85"/><circle class="cls-1" cx="177.87" cy="129.45" r="0.83"/><circle class="cls-1" cx="212.61" cy="189.93" r="0.92"/><circle class="cls-1" cx="297.15" cy="64" r="0.88"/><circle class="cls-1" cx="306.05" cy="28.23" r="0.47"/><circle class="cls-1" cx="265.43" cy="110.91" r="0.68"/><circle class="cls-1" cx="291.39" cy="97.25" r="0.95"/><circle class="cls-1" cx="17.97" cy="179.13" r="0.39"/><circle class="cls-1" cx="50.99" cy="25.55" r="1.04"/><circle class="cls-1" cx="34.29" cy="20.89" r="0.52"/><circle class="cls-1" cx="23.3" cy="21.88" r="0.6"/><line class="cls-2" x1="302.43" y1="31.25" x2="232.89" y2="38.45"/><line class="cls-3" x1="110.52" y1="177.47" x2="75.76" y2="181.07"/><g class="cls-4"><path class="cls-1" d="M286.29,175.44a11.39,11.39,0,0,1,1.43-3.73s-1.6-3-1.58-4.26"/><path class="cls-1" d="M286.29,175.45a11.07,11.07,0,0,0-1.54-3.63s1.46-3.1,1.39-4.37"/></g><g class="cls-4"><path class="cls-1" d="M292.92,162.83a7.79,7.79,0,0,1,1-2.55,9.72,9.72,0,0,1-1.07-2.91"/><path class="cls-1" d="M292.92,162.84a7.59,7.59,0,0,0-1.06-2.49,10.37,10.37,0,0,0,1-3"/></g><g class="cls-4"><path class="cls-1" d="M52.46,52.53a11.28,11.28,0,0,1,1.42-3.73s-1.6-3-1.57-4.26"/><path class="cls-1" d="M52.45,52.54a10.94,10.94,0,0,0-1.54-3.64s1.47-3.09,1.39-4.36"/></g></g></svg>
