<svg xmlns="http://www.w3.org/2000/svg" xmlns:xlink="http://www.w3.org/1999/xlink" width="1920" height="1080" viewBox="0 0 1920 1080"><defs><style>.cls-1,.cls-2,.cls-3,.cls-4{fill:#fff;}.cls-2,.cls-3,.cls-4{stroke-linecap:round;stroke-miterlimit:10;stroke-width:3px;}.cls-2{opacity:0.4;stroke:url(#linear-gradient);}.cls-3,.cls-4{opacity:0.2;}.cls-3{stroke:url(#linear-gradient-2);}.cls-4{stroke:url(#linear-gradient-3);}.cls-5{opacity:0.74;}</style><linearGradient id="linear-gradient" x1="1059.71" y1="1005.4" x2="1298.81" y2="1005.4" gradientTransform="matrix(-1, 0, 0, 1, 1192.52, 0)" gradientUnits="userSpaceOnUse"><stop offset="0" stop-color="#fff"/><stop offset="0.1" stop-color="#fff" stop-opacity="0.89"/><stop offset="0.68" stop-color="#fff" stop-opacity="0.26"/><stop offset="0.93" stop-color="#fff" stop-opacity="0"/></linearGradient><linearGradient id="linear-gradient-2" x1="272.52" y1="157.44" x2="391.7" y2="157.44" gradientTransform="matrix(-1, 0, 0, 1, 830.22, 0)" xlink:href="#linear-gradient"/><linearGradient id="linear-gradient-3" x1="239.01" y1="651.46" x2="358.19" y2="651.46" gradientTransform="matrix(-1, 0, 0, 1, 830.22, 0)" xlink:href="#linear-gradient"/></defs><g id="space"><path d="M386.56,0C462.78,122,542.19,183.12,602.5,216.5,639.83,237.16,715.34,272.36,726,332c.67,3.74,7.12,39.84-10,52-9.4,6.67-19.43,1.55-40.5.5-5.42-.27-58.24-2.89-71.47,16.82-12.9,19.23,13.42,57.75,51,111.68,33,47.34,48,59,78,108,10.45,17.06,42.68,71.27,31.16,81.54-3.9,3.47-12.92,2.05-23.16.46-11.59-1.8-14.29-4.73-23-6-10.36-1.51-28.69-.62-32,7-6,13.81,37,50.2,51,62,8.38,7.08,20.84,16.93,26,34,1.67,5.53,4.45,14.71,0,21-7.72,10.92-32,5.77-49,2a221.64,221.64,0,0,1-51-18c-35.06-17.54-105.9-39.16-128.15-15.75C510.45,814.92,543.57,895.7,554,912a68.26,68.26,0,0,1,8,17c.25.8,5.5,17.94,2.83,25.65-6,17.35-61.75,23.84-126.33,10.85-179-36-148.23,114.5-148.23,114.5H0V0Z"/></g><g id="stars"><circle class="cls-1" cx="888.91" cy="162.22" r="3.74"/><circle class="cls-1" cx="645.28" cy="50.31" r="2.56"/><circle class="cls-1" cx="356.81" cy="153.23" r="4.44"/><circle class="cls-1" cx="72.31" cy="797.49" r="3.28"/><circle class="cls-1" cx="72.97" cy="973.28" r="2.7"/><circle class="cls-1" cx="441.6" cy="701.96" r="2.48"/><circle class="cls-1" cx="384.84" cy="503.09" r="1.52"/><circle class="cls-1" cx="315.59" cy="785.45" r="4.3"/><circle class="cls-1" cx="530.41" cy="884.56" r="2.71"/><circle class="cls-1" cx="578.54" cy="778.03" r="1.59"/><circle class="cls-1" cx="556.54" cy="626.09" r="2.43"/><circle class="cls-1" cx="300.29" cy="600.95" r="3.82"/><circle class="cls-1" cx="389.52" cy="511.19" r="1.76"/><circle class="cls-1" cx="342.94" cy="742.83" r="4.34"/><circle class="cls-1" cx="687.08" cy="561.8" r="1.76"/><circle class="cls-1" cx="257.11" cy="499.59" r="2.29"/><circle class="cls-1" cx="413.79" cy="762.46" r="4.31"/><circle class="cls-1" cx="446.37" cy="362.1" r="1.79"/><circle class="cls-1" cx="637.67" cy="316.18" r="1.83"/><circle class="cls-1" cx="236.03" cy="179.18" r="4.01"/><circle class="cls-1" cx="129.05" cy="410.37" r="3.24"/><circle class="cls-1" cx="787.01" cy="503.12" r="2.4"/><circle class="cls-1" cx="592.14" cy="573.26" r="4.14"/><circle class="cls-1" cx="527.54" cy="542.29" r="2.06"/><circle class="cls-1" cx="428.06" cy="567.11" r="4.23"/><circle class="cls-1" cx="296.72" cy="264.03" r="4.08"/><circle class="cls-1" cx="115.25" cy="469.24" r="1.64"/><circle class="cls-1" cx="354.6" cy="877.66" r="1.57"/><circle class="cls-1" cx="835.27" cy="288.83" r="2.71"/><circle class="cls-1" cx="593.3" cy="352.56" r="1.87"/><circle class="cls-1" cx="579.89" cy="172.41" r="2.88"/><circle class="cls-1" cx="473.46" cy="265.34" r="3.09"/><circle class="cls-1" cx="191.14" cy="133.38" r="1.63"/><circle class="cls-1" cx="53.65" cy="424.59" r="3.89"/><circle class="cls-1" cx="147.53" cy="218.25" r="4.13"/><circle class="cls-1" cx="233.2" cy="426.04" r="2.06"/><line class="cls-2" x1="-104.79" y1="974.69" x2="131.31" y2="1036.11"/><line class="cls-3" x1="440.02" y1="151.42" x2="556.2" y2="163.46"/><line class="cls-4" x1="473.53" y1="645.45" x2="589.71" y2="657.48"/><rect class="cls-1" x="1154" y="507" height="1"/><path class="cls-1" d="M360.45,293s-2.11,10.89-6.23,16.3c0,0,7,13.08,6.88,18.64"/><path class="cls-1" d="M360.45,292.92s2.49,10.76,6.75,15.9c0,0-6.4,13.54-6.09,19.1"/><g class="cls-5"><path class="cls-1" d="M37.52,964.5s-1.57,8.06-4.61,12.07c0,0,5.17,9.68,5.09,13.79"/><path class="cls-1" d="M37.52,964.47s1.84,8,5,11.76c0,0-4.74,10-4.5,14.13"/></g></g></svg>
