<svg id="Layer_1" data-name="Layer 1" xmlns="http://www.w3.org/2000/svg" xmlns:xlink="http://www.w3.org/1999/xlink" width="1125" height="1300" viewBox="0 0 1125 1300"><defs><style>.cls-1,.cls-2{fill:#fff;}.cls-2{stroke-linecap:round;stroke-miterlimit:10;stroke-width:3px;opacity:0.2;stroke:url(#linear-gradient);}.cls-3{opacity:0.74;}.cls-4{opacity:0.8;}</style><linearGradient id="linear-gradient" x1="833.43" y1="245.32" x2="1043.18" y2="245.32" gradientUnits="userSpaceOnUse"><stop offset="0" stop-color="#fff"/><stop offset="0.1" stop-color="#fff" stop-opacity="0.89"/><stop offset="0.68" stop-color="#fff" stop-opacity="0.26"/><stop offset="0.93" stop-color="#fff" stop-opacity="0"/></linearGradient></defs><rect x="-0.21" y="3.73" width="1125" height="1293"/><circle class="cls-1" cx="1125.67" cy="1186.19" r="2.74"/><circle class="cls-1" cx="1052.91" cy="962.51" r="2.65"/><circle class="cls-1" cx="914.97" cy="559.74" r="1.85"/><circle class="cls-1" cx="826.69" cy="296.59" r="3.13"/><circle class="cls-1" cx="763.3" cy="140.69" r="4.33"/><circle class="cls-1" cx="649.05" cy="44.77" r="2.29"/><circle class="cls-1" cx="567.48" cy="135.91" r="3.72"/><circle class="cls-1" cx="496.51" cy="377.53" r="4.15"/><circle class="cls-1" cx="508.51" cy="606.67" r="2.19"/><circle class="cls-1" cx="744.22" cy="813.88" r="1.78"/><circle class="cls-1" cx="606.59" cy="1065.74" r="3.38"/><circle class="cls-1" cx="741.45" cy="1137.53" r="2.21"/><circle class="cls-1" cx="519.96" cy="1148.56" r="3.97"/><circle class="cls-1" cx="366.51" cy="982.81" r="4.25"/><circle class="cls-1" cx="266.38" cy="986.87" r="4.46"/><circle class="cls-1" cx="98.91" cy="924.39" r="2.74"/><circle class="cls-1" cx="304.59" cy="1280.15" r="3.81"/><circle class="cls-1" cx="452.37" cy="1243.03" r="1.72"/><circle class="cls-1" cx="738.43" cy="1196.01" r="4.25"/><circle class="cls-1" cx="997.69" cy="1253.14" r="3.66"/><circle class="cls-1" cx="833.22" cy="739.04" r="3.46"/><circle class="cls-1" cx="774.89" cy="602.25" r="3.69"/><circle class="cls-1" cx="389.92" cy="585.64" r="3.65"/><circle class="cls-1" cx="251.24" cy="607.78" r="4.13"/><circle class="cls-1" cx="218.86" cy="1002.56" r="1.72"/><circle class="cls-1" cx="77.66" cy="871.69" r="1.62"/><circle class="cls-1" cx="150.98" cy="1020.93" r="3.4"/><circle class="cls-1" cx="495.23" cy="946.02" r="4.15"/><circle class="cls-1" cx="973.25" cy="964.75" r="2.65"/><circle class="cls-1" cx="825.12" cy="152.17" r="3.88"/><circle class="cls-1" cx="498.04" cy="214.49" r="3.86"/><circle class="cls-1" cx="503.91" cy="497.04" r="3.02"/><circle class="cls-1" cx="350.67" cy="277.73" r="1.66"/><circle class="cls-1" cx="122.11" cy="373.2" r="2.12"/><circle class="cls-1" cx="76.76" cy="690.35" r="2.46"/><circle class="cls-1" cx="329.53" cy="531.35" r="3.68"/><circle class="cls-1" cx="733.34" cy="729.97" r="3.41"/><circle class="cls-1" cx="875.08" cy="650.67" r="1.59"/><circle class="cls-1" cx="413.89" cy="35.87" r="4.26"/><circle class="cls-1" cx="219.96" cy="156.91" r="3.93"/><circle class="cls-1" cx="341.61" cy="294.76" r="1.61"/><line class="cls-2" x1="1041.68" y1="234.61" x2="834.93" y2="256.03"/><g class="cls-3"><path class="cls-1" d="M835.11,728.4s-1.56,8.06-4.6,12.07c0,0,5.16,9.68,5.09,13.79"/><path class="cls-1" d="M835.11,728.37s1.85,8,5,11.77c0,0-4.74,10-4.51,14.13"/></g><path class="cls-1" d="M100,1152.87s-2.11,10.89-6.22,16.3c0,0,7,13.08,6.88,18.64"/><path class="cls-1" d="M100.05,1152.82s2.49,10.76,6.74,15.9c0,0-6.4,13.54-6.09,19.1"/><g class="cls-4"><path class="cls-1" d="M274.39,298.05s-3.76,25.28-11.42,37.89c0,0,13.52,30.18,13.45,43.07"/><path class="cls-1" d="M274.39,297.93s5,24.89,13.14,36.73c0,0-11.82,31.49-11.1,44.36"/></g></svg>
