<svg xmlns="http://www.w3.org/2000/svg" xmlns:xlink="http://www.w3.org/1999/xlink" viewBox="0 0 1300 1110"><defs><style>.cls-1,.cls-3,.cls-4,.cls-5,.cls-6{fill:#fff;}.cls-2{opacity:0.74;}.cls-3{opacity:0.85;}.cls-4,.cls-5,.cls-6{stroke-linecap:round;stroke-miterlimit:10;stroke-width:3px;}.cls-4{opacity:0.4;stroke:url(#linear-gradient);}.cls-5{opacity:0.2;stroke:url(#linear-gradient-2);}.cls-6{opacity:0.3;stroke:url(#linear-gradient-3);}</style><linearGradient id="linear-gradient" x1="571.25" y1="303" x2="810.36" y2="303" gradientUnits="userSpaceOnUse"><stop offset="0" stop-color="#fff"/><stop offset="0.1" stop-color="#fff" stop-opacity="0.89"/><stop offset="0.68" stop-color="#fff" stop-opacity="0.26"/><stop offset="0.93" stop-color="#fff" stop-opacity="0"/></linearGradient><linearGradient id="linear-gradient-2" x1="1086.15" y1="106.1" x2="1295.9" y2="106.1" xlink:href="#linear-gradient"/><linearGradient id="linear-gradient-3" x1="975.52" y1="678.23" x2="1199.79" y2="678.23" xlink:href="#linear-gradient"/></defs><g id="stars"><path class="cls-1" d="M1251.68,491.47s-4,25.24-11.79,37.77c0,0,13.23,30.32,13,43.2"/><path class="cls-1" d="M1251.68,491.35s4.72,24.94,12.78,36.86c0,0-12.12,31.37-11.53,44.25"/><path class="cls-1" d="M1004.51,283.53s-2.11,10.89-6.23,16.3c0,0,7,13.08,6.88,18.64"/><path class="cls-1" d="M1004.51,283.48s2.49,10.76,6.75,15.9c0,0-6.4,13.54-6.09,19.1"/><g class="cls-2"><path class="cls-1" d="M857,424.41s-1.56,8.06-4.6,12.06c0,0,5.17,9.68,5.09,13.79"/><path class="cls-1" d="M857,424.37s1.85,8,5,11.77c0,0-4.74,10-4.51,14.13"/></g><ellipse class="cls-3" cx="1035.43" cy="233.66" rx="4.18" ry="4.78" transform="translate(737.7 1252.52) rotate(-86.43)"/><ellipse class="cls-1" cx="567.6" cy="517.24" rx="5.15" ry="3.29"/><circle class="cls-1" cx="578.9" cy="521.74" r="1.21"/><circle class="cls-1" cx="139.73" cy="210.88" r="3.91"/><circle class="cls-1" cx="7.31" cy="446.06" r="3.21"/><circle class="cls-1" cx="523.73" cy="975.85" r="4.33"/><circle class="cls-1" cx="646.92" cy="833.79" r="3.56"/><circle class="cls-1" cx="750.57" cy="727.93" r="3.32"/><circle class="cls-1" cx="1127.14" cy="752.98" r="3.09"/><circle class="cls-1" cx="1224.93" cy="850.52" r="4.07"/><circle class="cls-1" cx="1223.99" cy="446.65" r="3.06"/><circle class="cls-1" cx="1184.49" cy="304.73" r="3.1"/><circle class="cls-1" cx="701.64" cy="721.02" r="3.14"/><circle class="cls-1" cx="931.78" cy="569.4" r="1.61"/><circle class="cls-1" cx="892.59" cy="487.78" r="1.83"/><circle class="cls-1" cx="670.92" cy="476.31" r="4.4"/><circle class="cls-1" cx="739.39" cy="417.61" r="1.87"/><circle class="cls-1" cx="802.53" cy="549.1" r="3.67"/><circle class="cls-1" cx="826.92" cy="563.49" r="3.78"/><circle class="cls-1" cx="493.17" cy="5.42" r="1.9"/><circle class="cls-1" cx="431.59" cy="215.91" r="1.99"/><circle class="cls-1" cx="284.5" cy="843.76" r="2.48"/><circle class="cls-1" cx="1153.18" cy="864.48" r="3.53"/><circle class="cls-1" cx="915.08" cy="634.67" r="2.9"/><circle class="cls-1" cx="716.4" cy="406.87" r="4.49"/><circle class="cls-1" cx="736.02" cy="615.31" r="4.25"/><circle class="cls-1" cx="1230.29" cy="237.15" r="3.18"/><circle class="cls-1" cx="952.62" cy="88" r="3.43"/><circle class="cls-1" cx="780.69" cy="224.2" r="2.55"/><circle class="cls-1" cx="356.75" cy="260.79" r="2.24"/><circle class="cls-1" cx="137.51" cy="686.68" r="2.19"/><circle class="cls-1" cx="354.58" cy="939.02" r="4.02"/><circle class="cls-1" cx="651.08" cy="1104.21" r="2.27"/><circle class="cls-1" cx="969.49" cy="732.05" r="4.33"/><circle class="cls-1" cx="940.36" cy="357.56" r="3.09"/><circle class="cls-1" cx="1023.94" cy="349.64" r="2.17"/><circle class="cls-1" cx="541.06" cy="148.97" r="2.04"/><circle class="cls-1" cx="645.88" cy="842.19" r="2.1"/><circle class="cls-1" cx="1246.28" cy="705.53" r="1.66"/><circle class="cls-1" cx="1199.38" cy="576.98" r="3.84"/><circle class="cls-1" cx="1000.37" cy="526.72" r="3.79"/><circle class="cls-1" cx="919.29" cy="366.8" r="1.5"/><circle class="cls-1" cx="1039.49" cy="485.4" r="3.59"/><line class="cls-4" x1="808.86" y1="272.29" x2="572.75" y2="333.71"/><path class="cls-1" d="M593.22,739.8s-1.08,5.57-3.19,8.34c0,0,3.58,6.69,3.52,9.53"/><path class="cls-1" d="M593.22,739.77s1.27,5.51,3.45,8.14c0,0-3.28,6.92-3.12,9.77"/><g class="cls-2"><path class="cls-1" d="M476.73,106.1s-1.56,8.06-4.6,12.06c0,0,5.17,9.68,5.09,13.8"/><path class="cls-1" d="M476.74,106.06s1.84,8,5,11.77c0,0-4.74,10-4.51,14.13"/></g><line class="cls-5" x1="1294.4" y1="95.39" x2="1087.65" y2="116.81"/><line class="cls-6" x1="1198.29" y1="656.04" x2="977.02" y2="700.42"/></g></svg>
