<svg xmlns="http://www.w3.org/2000/svg" xmlns:xlink="http://www.w3.org/1999/xlink" width="906.91" height="661.98" viewBox="0 0 906.91 661.98"><defs><style>.cls-1,.cls-3,.cls-4,.cls-5,.cls-6{fill:#fff;}.cls-2{opacity:0.74;}.cls-3{opacity:0.85;}.cls-4,.cls-5,.cls-6{stroke-linecap:round;stroke-miterlimit:10;stroke-width:3px;}.cls-4{opacity:0.4;stroke:url(#linear-gradient);}.cls-5{opacity:0.2;stroke:url(#linear-gradient-2);}.cls-6{opacity:0.3;stroke:url(#linear-gradient-3);}</style><linearGradient id="linear-gradient" x1="437.41" y1="182.56" x2="539.54" y2="182.56" gradientUnits="userSpaceOnUse"><stop offset="0" stop-color="#fff"/><stop offset="0.1" stop-color="#fff" stop-opacity="0.89"/><stop offset="0.68" stop-color="#fff" stop-opacity="0.26"/><stop offset="0.93" stop-color="#fff" stop-opacity="0"/></linearGradient><linearGradient id="linear-gradient-2" x1="653.6" y1="99.89" x2="743.41" y2="99.89" xlink:href="#linear-gradient"/><linearGradient id="linear-gradient-3" x1="607.15" y1="340.11" x2="703.06" y2="340.11" xlink:href="#linear-gradient"/></defs><g id="stars"><path class="cls-1" d="M724,261.69s-1.68,10.6-5,15.87c0,0,5.55,12.72,5.47,18.13"/><path class="cls-1" d="M724,261.65s2,10.47,5.36,15.47c0,0-5.09,13.17-4.84,18.58"/><path class="cls-1" d="M620.19,174.39s-.88,4.57-2.61,6.84c0,0,2.93,5.49,2.89,7.83"/><path class="cls-1" d="M620.2,174.36s1,4.52,2.83,6.68c0,0-2.69,5.69-2.56,8"/><g class="cls-2"><path class="cls-1" d="M558.24,233.54a15.32,15.32,0,0,1-1.94,5.06s2.18,4.07,2.14,5.79"/><path class="cls-1" d="M558.24,233.52a15,15,0,0,0,2.1,4.94s-2,4.21-1.9,5.93"/></g><ellipse class="cls-3" cx="633.18" cy="153.45" rx="1.76" ry="2.01" transform="translate(440.57 775.83) rotate(-86.43)"/><ellipse class="cls-1" cx="436.75" cy="272.51" rx="2.16" ry="1.38"/><circle class="cls-1" cx="441.49" cy="274.4" r="0.51"/><circle class="cls-1" cx="366.04" cy="586.3" r="4.25"/><circle class="cls-1" cx="636.29" cy="575.66" r="3.18"/><circle class="cls-1" cx="323.58" cy="371.57" r="3.43"/><circle class="cls-1" cx="536.64" cy="337.72" r="2.55"/><circle class="cls-1" cx="563.06" cy="234.83" r="2.24"/><circle class="cls-1" cx="559.15" cy="439.97" r="2.19"/><circle class="cls-1" cx="204.33" cy="84.66" r="4.02"/><circle class="cls-1" cx="71" cy="220.58" r="2.27"/><circle class="cls-1" cx="102.61" cy="514.19" r="4.33"/><circle class="cls-1" cx="727.68" cy="226.7" r="3.09"/><circle class="cls-1" cx="804.13" cy="202.8" r="2.17"/><circle class="cls-1" cx="313.43" cy="476.94" r="2.1"/><circle class="cls-1" cx="282.78" cy="288.55" r="1.66"/><circle class="cls-1" cx="295.31" cy="325.58" r="3.84"/><circle class="cls-1" cx="360.05" cy="343.57" r="3.79"/><circle class="cls-1" cx="786.18" cy="455.66" r="1.5"/><circle class="cls-1" cx="852.95" cy="368.01" r="3.59"/><line class="cls-4" x1="538.04" y1="169.67" x2="438.91" y2="195.46"/><path class="cls-1" d="M447.5,366a10.45,10.45,0,0,1-1.34,3.5s1.51,2.81,1.48,4"/><path class="cls-1" d="M447.5,366a10.58,10.58,0,0,0,1.45,3.42s-1.37,2.91-1.31,4.1"/><g class="cls-2"><path class="cls-1" d="M398.59,99.89a15.21,15.21,0,0,1-1.93,5.06s2.17,4.06,2.14,5.79"/><path class="cls-1" d="M398.59,99.87a15.18,15.18,0,0,0,2.1,4.94s-2,4.21-1.89,5.93"/></g><line class="cls-5" x1="741.91" y1="95.39" x2="655.1" y2="104.38"/><line class="cls-6" x1="701.56" y1="330.79" x2="608.65" y2="349.43"/></g></svg>
