<svg id="Layer_6" data-name="Layer 6" xmlns="http://www.w3.org/2000/svg" xmlns:xlink="http://www.w3.org/1999/xlink" viewBox="0 0 811.31 1075.94"><defs><style>.cls-1,.cls-2,.cls-4{fill:#fff;}.cls-2,.cls-4{stroke-linecap:round;stroke-miterlimit:10;stroke-width:3px;}.cls-2{opacity:0.4;stroke:url(#linear-gradient);}.cls-3{opacity:0.74;}.cls-4{opacity:0.2;stroke:url(#linear-gradient-2);}</style><linearGradient id="linear-gradient" x1="29.16" y1="971.2" x2="268.26" y2="971.2" gradientUnits="userSpaceOnUse"><stop offset="0" stop-color="#fff"/><stop offset="0.1" stop-color="#fff" stop-opacity="0.89"/><stop offset="0.68" stop-color="#fff" stop-opacity="0.26"/><stop offset="0.93" stop-color="#fff" stop-opacity="0"/></linearGradient><linearGradient id="linear-gradient-2" x1="591.25" y1="108.62" x2="710.43" y2="108.62" xlink:href="#linear-gradient"/></defs><rect width="811.31" height="1079.05"/><circle class="cls-1" cx="198.35" cy="403.26" r="2.53"/><circle class="cls-1" cx="297.93" cy="460.96" r="1.87"/><circle class="cls-1" cx="742.92" cy="432.5" r="2.21"/><circle class="cls-1" cx="669.48" cy="377.19" r="2.71"/><circle class="cls-1" cx="726.22" cy="276.94" r="2.07"/><circle class="cls-1" cx="796.32" cy="568.07" r="1.99"/><circle class="cls-1" cx="654.55" cy="594.89" r="4.14"/><circle class="cls-1" cx="625.1" cy="598.17" r="3.42"/><circle class="cls-1" cx="501" cy="639.54" r="1.57"/><circle class="cls-1" cx="403.8" cy="539.99" r="3.49"/><circle class="cls-1" cx="517.68" cy="368.35" r="2.78"/><circle class="cls-1" cx="699.82" cy="285.24" r="2.58"/><circle class="cls-1" cx="650.95" cy="422.08" r="1.6"/><circle class="cls-1" cx="583.55" cy="673.93" r="1.92"/><circle class="cls-1" cx="505.99" cy="923.1" r="4.02"/><circle class="cls-1" cx="616.26" cy="833.7" r="2.82"/><circle class="cls-1" cx="587.44" cy="888.69" r="4.2"/><circle class="cls-1" cx="493.78" cy="857.35" r="1.97"/><circle class="cls-1" cx="340.52" cy="937.64" r="3.7"/><circle class="cls-1" cx="204.95" cy="1024.76" r="2.38"/><circle class="cls-1" cx="461.23" cy="1045.9" r="3.06"/><circle class="cls-1" cx="756.93" cy="988.29" r="2.16"/><circle class="cls-1" cx="427.85" cy="131.84" r="3.68"/><circle class="cls-1" cx="346.96" cy="298.88" r="2.12"/><circle class="cls-1" cx="376.57" cy="263.77" r="2.3"/><circle class="cls-1" cx="51.97" cy="665.04" r="4.38"/><circle class="cls-1" cx="665.18" cy="33.54" r="3.25"/><circle class="cls-1" cx="396.61" cy="198.9" r="3.99"/><line class="cls-2" x1="266.76" y1="940.49" x2="30.66" y2="1001.91"/><path class="cls-1" d="M688.12,205.33s-2.11,10.89-6.22,16.3c0,0,7,13.08,6.88,18.64"/><path class="cls-1" d="M688.13,205.28s2.49,10.76,6.75,15.91c0,0-6.41,13.53-6.1,19.09"/><path class="cls-1" d="M361.11,656.11S359,667,354.89,672.41c0,0,7,13.08,6.88,18.64"/><path class="cls-1" d="M361.11,656.06s2.49,10.76,6.75,15.91c0,0-6.4,13.53-6.09,19.09"/><g class="cls-3"><path class="cls-1" d="M49.12,68.16s-1.57,8.06-4.61,12.06c0,0,5.17,9.68,5.09,13.8"/><path class="cls-1" d="M49.12,68.12s1.84,8,5,11.77c0,0-4.73,10-4.5,14.13"/></g><line class="cls-4" x1="708.93" y1="102.6" x2="592.75" y2="114.64"/></svg>
