<svg xmlns="http://www.w3.org/2000/svg" xmlns:xlink="http://www.w3.org/1999/xlink" width="552.73" height="7454.3" viewBox="0 0 552.73 7454.3"><defs><style>.cls-1,.cls-2,.cls-3,.cls-4{fill:#fff;}.cls-2,.cls-3,.cls-4{stroke-linecap:round;stroke-miterlimit:10;stroke-width:3px;}.cls-2{opacity:0.4;stroke:url(#linear-gradient);}.cls-3,.cls-4{opacity:0.2;}.cls-3{stroke:url(#linear-gradient-2);}.cls-4{stroke:url(#linear-gradient-3);}.cls-5{opacity:0.74;}</style><linearGradient id="linear-gradient" x1="4953.55" y1="975.99" x2="5077.53" y2="975.99" gradientTransform="matrix(0, -1, -1, 0, 1014, 5021.97)" gradientUnits="userSpaceOnUse"><stop offset="0" stop-color="#fff"/><stop offset="0.1" stop-color="#fff" stop-opacity="0.89"/><stop offset="0.68" stop-color="#fff" stop-opacity="0.26"/><stop offset="0.93" stop-color="#fff" stop-opacity="0"/></linearGradient><linearGradient id="linear-gradient-2" x1="4373.55" y1="541.5" x2="4436.07" y2="541.5" gradientTransform="matrix(0, -1, -1, 0, 1014, 4659.67)" xlink:href="#linear-gradient"/><linearGradient id="linear-gradient-3" x1="4356.37" y1="794.63" x2="4418.9" y2="794.63" gradientTransform="matrix(0, -1, -1, 0, 1014, 4659.67)" xlink:href="#linear-gradient"/></defs><g id="stars"><path d="M553.17,197.7c-62.5,39.06-93.83,79.74-110.93,110.64-10.59,19.13-28.62,57.82-59.18,63.28-1.92.35-20.42,3.66-26.65-5.12-3.41-4.81-.79-9.95-.25-20.75.14-2.78,1.48-29.84-8.62-36.62-9.85-6.61-29.59,6.87-57.22,26.12-24.26,16.89-30.25,24.6-55.34,40-8.75,5.36-36.52,21.87-41.78,16-1.78-2-1.06-6.62-.24-11.87.93-5.94,2.42-7.32,3.08-11.78.77-5.31.32-14.7-3.59-16.4-7.08-3.08-25.72,19-31.77,26.13-3.63,4.29-8.67,10.68-17.42,13.32-2.83.86-7.54,2.28-10.76,0-5.59-3.95-3-16.4-1-25.1a113.44,113.44,0,0,1,9.23-26.14c9-18,20.06-54.26,8.07-65.66-13.16-12.5-54.55,4.47-62.9,9.81a34.83,34.83,0,0,1-8.71,4.1c-.41.13-9.19,2.82-13.14,1.45C55.13,286,51.8,257.4,58.46,224.31,76.9,132.59-.21,148.36-.21,148.36V-.37H553.17Z"/><circle class="cls-1" cx="502.61" cy="305.12" r="3.24"/><circle class="cls-1" cx="83.67" cy="484.15" r="3.94"/><circle class="cls-1" cx="253.7" cy="79.14" r="2.38"/><circle class="cls-1" cx="328.65" cy="433.09" r="1.56"/><circle class="cls-1" cx="302.06" cy="262.95" r="4.23"/><circle class="cls-1" cx="179.79" cy="481.99" r="2.22"/><circle class="cls-1" cx="318.07" cy="488.13" r="2.4"/><circle class="cls-1" cx="433.94" cy="16.97" r="4.23"/><circle class="cls-1" cx="430.8" cy="509.09" r="2.22"/><circle class="cls-1" cx="423.78" cy="114.22" r="1.57"/><circle class="cls-1" cx="395.5" cy="359.47" r="1.63"/><circle class="cls-1" cx="435.92" cy="99.58" r="4.13"/><circle class="cls-1" cx="201.9" cy="67.1" r="2.06"/><line class="cls-2" x1="53.75" y1="-54.06" x2="22.28" y2="66.91"/><line class="cls-3" x1="475.58" y1="225.09" x2="469.42" y2="284.62"/><line class="cls-4" x1="222.45" y1="242.26" x2="216.28" y2="301.79"/><path class="cls-1" d="M403.06,184.32s-5.58-1.08-8.35-3.19c0,0-6.71,3.58-9.56,3.53"/><path class="cls-1" d="M403.08,184.32s-5.51,1.28-8.14,3.46c0,0-6.94-3.28-9.79-3.12"/><g class="cls-5"><path class="cls-1" d="M59,18.85s-4.13-.8-6.18-2.36c0,0-5,2.65-7.07,2.61"/><path class="cls-1" d="M59,18.85s-4.08.95-6,2.56c0,0-5.14-2.43-7.24-2.31"/></g></g></svg>
